<?xml version="1.0" encoding="utf-8"?>
<!-- Generator: Adobe Illustrator 23.0.3, SVG Export Plug-In . SVG Version: 6.00 Build 0)  -->
<svg version="1.1" id="Layer_1" xmlns="http://www.w3.org/2000/svg" xmlns:xlink="http://www.w3.org/1999/xlink" x="0px" y="0px"
	 viewBox="0 0 600 114" style="enable-background:new 0 0 600 114;" xml:space="preserve">
<style type="text/css">
	.st0{stroke:#000000;stroke-miterlimit:10;}
	.st1{fill:#BC1818;}
</style>
<g>
	<path class="st0" d="M328.49,43.09c0,6.56,5.34,11.9,11.9,11.9h21.14c6.12,0,11.81,3.31,14.86,8.62c1.47,2.57,2.25,5.5,2.25,8.48
		c0,2.98-0.78,5.92-2.24,8.48c-3.05,5.32-8.74,8.63-14.86,8.63h-38.24v-5.21h38.24c6.56,0,11.9-5.33,11.9-11.9s-5.34-11.9-11.9-11.9
		h-21.14c-6.12,0-11.81-3.31-14.86-8.63c-1.47-2.57-2.25-5.5-2.25-8.48c0-2.98,0.78-5.92,2.24-8.48c3.05-5.32,8.74-8.62,14.86-8.62
		h38.77v5.21h-38.77C333.82,31.19,328.49,36.53,328.49,43.09z"/>
	<path class="st0" d="M456.9,57.4c0,17.53-14.26,31.79-31.79,31.79c-17.53,0-31.79-14.26-31.79-31.79s14.26-31.79,31.79-31.79
		C442.64,25.61,456.9,39.87,456.9,57.4z M451.37,57.4c0-14.48-11.78-26.26-26.25-26.26c-14.48,0-26.26,11.78-26.26,26.26
		c0,14.47,11.78,26.25,26.26,26.25C439.59,83.66,451.37,71.88,451.37,57.4z"/>
	<path class="st0" d="M470.87,31.22v-5.21h55.35v5.21H470.87z M476.08,57.75V89.2h-5.21V40.67h5.21v11.88V57.75z"/>
	<path class="st0" d="M541.12,31.23v-5.21H597v5.21H541.12z M565.93,89.2V40.68h5.21V89.2H565.93z"/>
</g>
<g>
	<path class="st0" d="M255.4,25.98h6.47l19.08,25.92l1.84,2.5l0.01-0.02l3.23,4.39l-0.02,0.02l1,1.35l0.88,1.2l20.51,27.86h-6.47
		l-16.44-22.32l-0.88-1.2l-1.84-2.49l-1.84,2.49l-0.88,1.2l-33.35,45.22h-6.47l37.43-50.76l0.88-1.2l0.99-1.35l-0.99-1.35
		L255.4,25.98z"/>
</g>
<g>
	<path class="st0" d="M61,26.91l0.68,62.31h-5.47V39.73l-4.08,4.08L38.18,57.77l-2.65,2.65l-0.7,0.7l-2.21,2.21L12.63,43.33
		l-4.08-4.08l-5.47-5.47l-0.25-6.87l29.79,28.68l19.2-19.2L61,26.91z M3.08,47.79l5.47,5.47v35.97H3.08V47.79z"/>
	<path class="st0" d="M175.51,83.96v5.21h-48.16V25.46h5.21v58.5H175.51z"/>
	<g>
		<rect x="62.26" y="54.74" class="st0" width="50.17" height="5.21"/>
		<rect x="62.26" y="83.96" class="st0" width="50.14" height="5.21"/>
		<rect x="62.26" y="25.99" class="st0" width="50.14" height="5.21"/>
	</g>
	<g>
		<rect x="190.43" y="54.74" class="st0" width="50.03" height="5.21"/>
		<rect x="190.43" y="83.96" class="st0" width="50.14" height="5.21"/>
		<rect x="190.43" y="25.99" class="st0" width="50.14" height="5.21"/>
	</g>
</g>
<rect x="476.24" y="54.74" class="st0" width="50.03" height="5.21"/>
<polygon class="st1" points="320.25,2.41 328.41,2.41 288.67,56.5 284.58,50.96 "/>
</svg>
