<?xml version="1.0" encoding="utf-8"?>
<!-- Generator: Adobe Illustrator 23.0.3, SVG Export Plug-In . SVG Version: 6.00 Build 0)  -->
<svg version="1.1" id="Layer_1" xmlns="http://www.w3.org/2000/svg" xmlns:xlink="http://www.w3.org/1999/xlink" x="0px" y="0px"
	 viewBox="0 0 325 60" style="enable-background:new 0 0 325 60;" xml:space="preserve">
<style type="text/css">
	.st0{stroke:#000000;stroke-width:0.5;stroke-miterlimit:10;}
	.st1{fill:#BC1818;stroke:#BC1818;stroke-width:0.5;stroke-miterlimit:10;}
</style>
<g>
	<path class="st0" d="M177.49,22.35c0,3.53,2.87,6.39,6.39,6.39h11.36c3.29,0,6.35,1.78,7.99,4.64c0.79,1.38,1.21,2.95,1.21,4.56
		c0,1.6-0.42,3.18-1.21,4.56c-1.64,2.86-4.7,4.64-7.99,4.64h-20.55v-2.8h20.55c3.53,0,6.39-2.87,6.39-6.39
		c0-3.53-2.87-6.39-6.39-6.39h-11.36c-3.29,0-6.35-1.78-7.99-4.64c-0.79-1.38-1.21-2.95-1.21-4.56c0-1.6,0.42-3.18,1.21-4.56
		c1.64-2.86,4.7-4.64,7.99-4.64h20.84v2.8h-20.84C180.36,15.96,177.49,18.82,177.49,22.35z"/>
	<path class="st0" d="M246.5,30.04c0,9.42-7.66,17.08-17.08,17.08c-9.42,0-17.09-7.66-17.09-17.08s7.67-17.09,17.09-17.09
		C238.84,12.96,246.5,20.62,246.5,30.04z M243.53,30.04c0-7.78-6.33-14.11-14.11-14.11c-7.78,0-14.11,6.33-14.11,14.11
		c0,7.78,6.33,14.11,14.11,14.11C237.2,44.15,243.53,37.82,243.53,30.04z"/>
	<path class="st0" d="M254.01,15.97v-2.8h29.75v2.8H254.01z M256.81,30.23v16.9h-2.8V21.05h2.8v6.38V30.23z"/>
	<path class="st0" d="M291.76,15.98v-2.8h30.03v2.8H291.76z M305.09,47.13V21.05h2.8v26.08H305.09z"/>
</g>
<path class="st0" d="M138.21,13.16h3.48l10.26,13.93l0.99,1.34l0.01-0.01l1.74,2.36l-0.01,0.01l0.54,0.73l0.47,0.64l11.02,14.97
	h-3.48l-8.83-12l-0.47-0.64l-0.99-1.34l-0.99,1.34l-0.47,0.64l-17.92,24.3h-3.48l20.11-27.28l0.47-0.64l0.53-0.73l-0.53-0.73
	L138.21,13.16z"/>
<polygon class="st1" points="173.25,0.86 154.35,26.58 156.09,28.94 176.73,0.86 "/>
<g>
	<path class="st0" d="M34.12,13.44l0.34,33.68h-2.94V20.51l-2.19,2.19l-7.49,7.5l-1.43,1.42L20.02,32l-1.19,1.19L8.09,22.44
		L5.9,20.24l-2.94-2.94v-4.16l15.88,15.88l10.32-10.32L34.12,13.44z M2.96,24.83l2.94,2.94V47.1H2.96V24.83z"/>
	<path class="st0" d="M95.28,44.32v2.8H69.4V12.88h2.8v31.44H95.28z"/>
	<g>
		<rect x="34.41" y="28.89" class="st0" width="23" height="2.8"/>
		<rect x="34.41" y="44.31" class="st0" width="26.94" height="2.8"/>
		<rect x="34.48" y="13.16" class="st0" width="26.94" height="2.8"/>
	</g>
	<g>
		<rect x="103.3" y="28.88" class="st0" width="26.96" height="2.8"/>
		<rect x="103.3" y="44.31" class="st0" width="26.94" height="2.8"/>
		<rect x="103.3" y="13.16" class="st0" width="26.94" height="2.8"/>
	</g>
</g>
<polygon points="32.03,17.48 34.41,17.48 34.61,44.86 32.03,44.86 "/>
<polygon points="31.33,20.91 36.72,15.52 35.18,14.56 29.62,19.83 "/>
<polygon class="st0" points="279.73,31.67 256.77,31.69 256.77,28.89 279.73,28.86 "/>
</svg>
