<?xml version="1.0" encoding="utf-8"?>
<!-- Generator: Adobe Illustrator 17.0.0, SVG Export Plug-In . SVG Version: 6.00 Build 0)  -->
<!DOCTYPE svg PUBLIC "-//W3C//DTD SVG 1.1//EN" "http://www.w3.org/Graphics/SVG/1.1/DTD/svg11.dtd">
<svg version="1.1" id="Capa_1" xmlns="http://www.w3.org/2000/svg" xmlns:xlink="http://www.w3.org/1999/xlink" x="0px" y="0px"
	 width="512px" height="512px" viewBox="-0.14 0 512 512" enable-background="new -0.14 0 512 512" xml:space="preserve">
<g id="XMLID_1641_">
	<g id="XMLID_1114_">
		<linearGradient id="XMLID_2_" gradientUnits="userSpaceOnUse" x1="-5.4743" y1="100.9003" x2="403.5257" y2="471.9003">
			<stop  offset="0" style="stop-color:#F0AC0E"/>
			<stop  offset="1" style="stop-color:#F56616"/>
		</linearGradient>
		<path id="XMLID_1134_" fill="url(#XMLID_2_)" d="M295.95,294.129c0-32.045-26.07-58.115-58.115-58.115
			c-32.044,0-58.114,26.07-58.114,58.115c0,28.634,20.821,52.479,48.115,57.235v23.014h-7.497c-5.522,0-10,4.478-10,10
			c0,5.522,4.478,10,10,10h7.497v19.628c0,5.522,4.478,10,10,10s10-4.478,10-10v-19.628h7.498c5.522,0,10-4.478,10-10
			c0-5.522-4.478-10-10-10h-7.498v-23.013C275.128,346.609,295.95,322.762,295.95,294.129z M199.718,294.129
			c0-21.018,17.099-38.116,38.115-38.116c21.018,0,38.116,17.099,38.116,38.116s-17.099,38.115-38.116,38.115
			C216.817,332.244,199.718,315.145,199.718,294.129L199.718,294.129z"/>
		<linearGradient id="XMLID_3_" gradientUnits="userSpaceOnUse" x1="9.1704" y1="84.7555" x2="418.1704" y2="455.7555">
			<stop  offset="0" style="stop-color:#F0AC0E"/>
			<stop  offset="1" style="stop-color:#F56616"/>
		</linearGradient>
		<path id="XMLID_1143_" fill="url(#XMLID_3_)" d="M381.067,234.241c-4.76,2.802-6.345,8.932-3.543,13.689
			c14.59,24.773,22.302,53.155,22.302,82.078C399.826,419.33,327.157,492,237.834,492S75.842,419.33,75.842,330.008
			s72.669-161.992,161.992-161.992c27.979,0,55.553,7.245,79.741,20.95c4.803,2.724,10.906,1.036,13.629-3.771
			c2.723-4.805,1.035-10.906-3.771-13.629c-27.189-15.406-58.172-23.55-89.601-23.55c-34.773,0-67.296,9.81-94.957,26.797
			l-10.939-40.83c-7.343-27.405,8.979-55.674,36.382-63.018c27.401-7.338,55.675,8.979,63.018,36.382
			c1.43,5.334,6.913,8.502,12.246,7.071l47.487-12.724c2.563-0.687,4.746-2.362,6.072-4.659c1.326-2.297,1.686-5.026,0.999-7.588
			c-8.339-31.119-28.297-57.129-56.197-73.237S181.539-4.18,150.42,4.16C86.178,21.376,47.92,87.644,65.132,151.884l20.901,77.859
			c-19.066,28.771-30.191,63.241-30.191,100.266C55.842,430.359,137.483,512,237.833,512s181.991-81.641,181.991-181.991
			c0-32.489-8.669-64.381-25.068-92.225C391.956,233.024,385.823,231.439,381.067,234.241L381.067,234.241z M84.45,146.708
			C70.091,93.118,102.006,37.839,155.594,23.48c25.963-6.956,53.074-3.387,76.349,10.052c20.364,11.757,35.655,29.836,43.82,51.56
			l-28.372,7.603c-13.688-32.236-49.476-50.365-84.249-41.045c-38.056,10.197-60.721,49.455-50.524,87.511l12.811,47.814
			c-8.705,6.855-16.762,14.492-24.084,22.794L84.45,146.708z"/>
		<linearGradient id="XMLID_4_" gradientUnits="userSpaceOnUse" x1="204.6167" y1="-130.7095" x2="613.6167" y2="240.2905">
			<stop  offset="0" style="stop-color:#F0AC0E"/>
			<stop  offset="1" style="stop-color:#F56616"/>
		</linearGradient>
		<path id="XMLID_1147_" fill="url(#XMLID_4_)" d="M381.531,84.65c2.56,0,5.118-0.977,7.071-2.929l47.069-47.069
			c3.905-3.905,3.905-10.236,0-14.142c-3.906-3.904-10.235-3.904-14.142,0L374.46,67.579c-3.905,3.905-3.905,10.236,0,14.142
			C376.414,83.673,378.973,84.65,381.531,84.65L381.531,84.65z"/>
		<linearGradient id="XMLID_5_" gradientUnits="userSpaceOnUse" x1="184.4721" y1="-108.5016" x2="593.472" y2="262.4984">
			<stop  offset="0" style="stop-color:#F0AC0E"/>
			<stop  offset="1" style="stop-color:#F56616"/>
		</linearGradient>
		<path id="XMLID_1152_" fill="url(#XMLID_5_)" d="M334.163,54.537c5.522,0,10-4.478,10-10V10.025c0-5.522-4.478-10-10-10
			s-10,4.478-10,10v34.513C324.163,50.061,328.641,54.537,334.163,54.537z"/>
		<linearGradient id="XMLID_6_" gradientUnits="userSpaceOnUse" x1="180.0918" y1="-103.6727" x2="589.0919" y2="267.3273">
			<stop  offset="0" style="stop-color:#F0AC0E"/>
			<stop  offset="1" style="stop-color:#F56616"/>
		</linearGradient>
		<path id="XMLID_1153_" fill="url(#XMLID_6_)" d="M446.157,112.02h-34.514c-5.522,0-10,4.478-10,10c0,5.522,4.478,10,10,10h34.514
			c5.522,0,10-4.478,10-10C456.157,116.497,451.68,112.02,446.157,112.02z"/>
		<linearGradient id="XMLID_7_" gradientUnits="userSpaceOnUse" x1="105.7987" y1="-21.77" x2="514.7987" y2="349.23">
			<stop  offset="0" style="stop-color:#F0AC0E"/>
			<stop  offset="1" style="stop-color:#F56616"/>
		</linearGradient>
		<path id="XMLID_1184_" fill="url(#XMLID_7_)" d="M358.445,217.403c2.63,0,5.21-1.07,7.069-2.93c1.86-1.86,2.931-4.44,2.931-7.07
			c0-2.64-1.07-5.21-2.931-7.07c-1.859-1.869-4.439-2.93-7.069-2.93c-2.631,0-5.21,1.061-7.07,2.93c-1.86,1.86-2.93,4.431-2.93,7.07
			c0,2.63,1.069,5.21,2.93,7.07C353.236,216.333,355.815,217.403,358.445,217.403z"/>
	</g>
</g>
</svg>
