<?xml version="1.0" encoding="utf-8"?>
<!-- Generator: Adobe Illustrator 17.0.0, SVG Export Plug-In . SVG Version: 6.00 Build 0)  -->
<!DOCTYPE svg PUBLIC "-//W3C//DTD SVG 1.1//EN" "http://www.w3.org/Graphics/SVG/1.1/DTD/svg11.dtd">
<svg version="1.1" id="Capa_1" xmlns="http://www.w3.org/2000/svg" xmlns:xlink="http://www.w3.org/1999/xlink" x="0px" y="0px"
	 width="512px" height="512px" viewBox="0 0 512 512" enable-background="new 0 0 512 512" xml:space="preserve">
<path fill="#F56616" stroke="#2A1FBC" stroke-miterlimit="10" d="M505.979,401.983h-16.198V137.101
	c-0.088-27.227-22.166-49.262-49.394-49.295h-61.573c0.858-2.31,0.306-4.908-1.417-6.67L347.82,51.257
	c-2.314-2.338-6.029-2.521-8.561-0.423l-20.712,17.181c-10.039-6.046-20.893-10.622-32.23-13.589l-2.601-26.678
	c-0.335-3.214-3.092-5.625-6.322-5.529h-42.419c-3.229-0.093-5.982,2.319-6.317,5.53l-2.604,26.78
	c-11.365,2.883-22.24,7.434-32.27,13.505l-20.676-17.167c-2.517-2.093-6.214-1.929-8.535,0.38l-29.945,29.865
	c-1.741,1.76-2.303,4.371-1.441,6.692H71.619c-27.23,0.029-49.313,22.065-49.401,49.295v264.882H6.02
	c-3.167-0.154-5.86,2.289-6.014,5.456c-0.008,0.163-0.008,0.327-0.003,0.49v32.999c-0.091,26.89,21.634,48.764,48.524,48.855h0.41
	h414.124c26.89,0.135,48.799-21.554,48.934-48.445c0.001-0.136,0.001-0.274,0-0.41v-32.999c0.116-3.169-2.358-5.833-5.527-5.949
	C506.305,401.973,506.142,401.974,505.979,401.983z M169.449,64.302l19.782,16.396c2.153,1.786,5.22,1.951,7.553,0.408
	c11.094-7.35,23.469-12.553,36.482-15.339c2.674-0.489,4.704-2.685,4.983-5.389l2.484-25.465h30.898l2.488,25.466
	c0.273,2.731,2.302,4.962,4.995,5.493c13.008,2.856,25.389,8.051,36.541,15.332c2.333,1.487,5.359,1.293,7.482-0.48l19.751-16.388
	l21.445,21.659l-16.414,19.792c-1.788,2.157-1.95,5.231-0.399,7.564c7.363,11.072,12.585,23.428,15.395,36.424
	c0.662,2.715,2.977,4.711,5.76,4.967l25.901,2.489v30.843l-25.542,2.482c-2.751,0.262-5.03,2.25-5.663,4.94
	c-2.923,12.999-8.167,25.364-15.477,36.502c-1.521,2.324-1.354,5.366,0.411,7.511l16.381,19.771l-21.765,21.716L323.139,264.6
	c-2.153-1.786-5.221-1.952-7.554-0.408c-11.094,7.35-23.468,12.553-36.482,15.339c-2.717,0.627-4.724,2.924-4.985,5.7l-2.488,25.778
	h-30.898l-2.488-25.777c-0.263-2.767-2.281-5.049-4.995-5.649c-13.011-2.885-25.392-8.106-36.541-15.409
	c-2.324-1.499-5.351-1.321-7.482,0.44l-19.782,16.396l-21.761-21.719l16.396-19.77c1.789-2.158,1.951-5.233,0.399-7.567
	c-7.363-11.073-12.585-23.428-15.395-36.426c-0.661-2.718-2.975-4.715-5.76-4.972l-25.902-2.488v-30.836l25.901-2.489
	c2.754-0.259,5.035-2.247,5.669-4.94c2.924-12.999,8.167-25.365,15.477-36.504c1.521-2.324,1.354-5.366-0.412-7.511l-16.382-19.771
	L169.449,64.302z M110.634,200.149l27.038,2.608c2.937,11.352,7.535,22.207,13.646,32.214l-17.114,20.665
	c-2.09,2.527-1.912,6.231,0.414,8.544l29.951,29.885c2.318,2.315,6.016,2.485,8.537,0.394l20.715-17.174
	c10.04,6.046,20.893,10.622,32.231,13.589l2.605,26.989c0.306,3.273,3.028,5.791,6.314,5.841h42.419
	c3.288-0.049,6.012-2.567,6.317-5.841l2.605-26.935c11.366-2.911,22.239-7.489,32.264-13.585l20.674,17.128
	c2.522,2.087,6.218,1.915,8.534-0.4l29.945-29.888c2.322-2.317,2.496-6.02,0.403-8.545l-17.159-20.695
	c6.042-10.028,10.625-20.867,13.609-32.189l26.784-2.604c3.287-0.301,5.824-3.018,5.903-6.317v-42.362
	c-0.134-2.352-1.527-4.448-3.644-5.483h31.148v215.799H77.225v-215.8h31.148c-2.117,1.035-3.51,3.131-3.644,5.483v42.362
	C104.806,197.131,107.347,199.848,110.634,200.149z M34.912,137.101c0.079-20.219,16.48-36.576,36.7-36.601h71.615l8.154,9.883
	c-4.45,7.196-8.053,14.884-10.735,22.91h-69.6c-3.525-0.047-6.43,2.751-6.515,6.275V368.41c0.104,3.457,2.991,6.176,6.448,6.071
	c0.022-0.001,0.044-0.001,0.068-0.002h369.906c3.456,0.141,6.371-2.546,6.513-6.001c0.001-0.022,0.002-0.044,0.002-0.068V139.568
	c-0.086-3.524-2.991-6.322-6.515-6.275H371.41c-2.671-8.045-6.288-15.746-10.772-22.939l8.133-9.854h71.616
	c20.221,0.023,36.622,16.381,36.702,36.601v264.882H318.96c-1.746-0.075-3.443,0.596-4.667,1.845l-8.71,9.547
	c-6.921,7.528-16.664,11.833-26.89,11.881h-45.381c-10.239-0.086-19.979-4.426-26.89-11.981l-8.71-9.348
	c-1.213-1.277-2.91-1.982-4.671-1.943H34.912V137.101z M499.302,440.932c0.096,19.873-15.935,36.061-35.809,36.157
	c-0.144,0.001-0.288,0.001-0.432,0H48.938c-19.873,0.142-36.098-15.853-36.24-35.725c-0.001-0.145-0.001-0.291,0-0.436v-26.251
	h177.56l6.826,7.405c9.338,10.103,22.466,15.854,36.223,15.868h45.381c13.76-0.012,26.892-5.763,36.233-15.868l6.825-7.405h177.556
	L499.302,440.932L499.302,440.932z"/>
<path fill="#F56616" d="M256.03,263.897c50.394-0.07,91.19-40.98,91.12-91.374s-40.98-91.19-91.374-91.12
	c-50.345,0.07-91.12,40.902-91.12,91.247C164.747,223.056,205.624,263.875,256.03,263.897L256.03,263.897z M256.03,94.098
	c43.384,0.07,78.496,35.296,78.426,78.68s-35.296,78.496-78.68,78.426c-43.334-0.07-78.426-35.219-78.426-78.553
	C177.433,129.252,212.631,94.11,256.03,94.098L256.03,94.098z"/>
<path fill="#F56616" d="M192.191,177.484l37.546,28.391c2.769,2.148,6.756,1.645,8.905-1.126c2.148-2.77,1.645-6.756-1.126-8.905
	c-0.041-0.032-0.083-0.063-0.125-0.094l-30.851-23.328l30.851-23.328c2.787-2.126,3.324-6.109,1.197-8.895
	c-2.114-2.77-6.065-3.319-8.853-1.23l-37.546,28.387c-2.796,2.115-3.348,6.095-1.233,8.891c0.352,0.466,0.768,0.881,1.233,1.233
	L192.191,177.484z"/>
<path fill="#F56616" d="M273.433,204.64c2.114,2.793,6.091,3.345,8.886,1.234l37.547-28.391c2.796-2.115,3.348-6.095,1.233-8.891
	c-0.352-0.467-0.768-0.881-1.233-1.233l-37.547-28.391c-2.805-2.102-6.783-1.533-8.886,1.273c-2.09,2.788-1.541,6.741,1.23,8.853
	l30.852,23.328l-30.852,23.328C271.868,197.866,271.318,201.846,273.433,204.64z"/>
<path fill="#F56616" d="M248.637,221.268c3.465,0.525,6.701-1.86,7.226-5.325v-0.001l12.817-84.682
	c0.526-3.465-1.858-6.701-5.324-7.228c-3.465-0.526-6.701,1.858-7.227,5.324l-12.818,84.682c-0.527,3.465,1.854,6.702,5.32,7.229
	C248.633,221.266,248.635,221.266,248.637,221.268L248.637,221.268z"/>
</svg>
