<?xml version="1.0" encoding="utf-8"?>
<!-- Generator: Adobe Illustrator 17.0.0, SVG Export Plug-In . SVG Version: 6.00 Build 0)  -->
<!DOCTYPE svg PUBLIC "-//W3C//DTD SVG 1.1//EN" "http://www.w3.org/Graphics/SVG/1.1/DTD/svg11.dtd">
<svg version="1.1" id="Layer_1" xmlns="http://www.w3.org/2000/svg" xmlns:xlink="http://www.w3.org/1999/xlink" x="0px" y="0px"
	 width="480px" height="480px" viewBox="0 0 480 480" enable-background="new 0 0 480 480" xml:space="preserve">
<path fill="#FFFFFF" d="M112,128h48v16h-48V128z"/>
<path fill="#FFFFFF" d="M176,128h48v16h-48V128z"/>
<path fill="#FFFFFF" d="M240,128h128v16H240V128z"/>
<path fill="#FFFFFF" d="M112,160h64v16h-64V160z"/>
<path fill="#FFFFFF" d="M304,160h32v16h-32V160z"/>
<path fill="#FFFFFF" d="M352,160h16v16h-16V160z"/>
<path fill="#FFFFFF" d="M112,192h64v16h-64V192z"/>
<path fill="#FFFFFF" d="M112,80h112v16H112V80z"/>
<path fill="#FFFFFF" d="M112,48h32v16h-32V48z"/>
<path fill="#FFFFFF" d="M160,48h64v16h-64V48z"/>
<path fill="#FFFFFF" d="M304,192h64v16h-64V192z"/>
<path fill="#FFFFFF" d="M320,224h48v16h-48V224z"/>
<path fill="#FFFFFF" d="M112,224h48v16h-48V224z"/>
<path fill="#FFFFFF" d="M232,320h16v-40h16v-16h-48v16h16V320z"/>
<path fill="#FFFFFF" d="M477.656,194.344L416,132.688V24c0-13.254-10.746-24-24-24H88C74.746,0,64,10.746,64,24v108.688
	L2.344,194.344C0.844,195.844,0,197.879,0,200v256c0,13.254,10.746,24,24,24h432c13.254,0,24-10.746,24-24V200
	C480,197.879,479.156,195.844,477.656,194.344z M460.687,200L416,244.688v-89.375L460.687,200z M320,16h32v48l-9.602-12.801
	c-1.574-1.914-3.922-3.02-6.398-3.02s-4.824,1.105-6.398,3.02L320,64V16z M88,16h216v72c0,3.445,2.203,6.5,5.469,7.59
	c3.27,1.09,6.863-0.035,8.93-2.789L336,69.336l17.602,23.465C355.109,94.813,357.48,96,360,96c0.859-0.004,1.711-0.141,2.527-0.406
	C365.797,94.504,368,91.445,368,88V16h24c4.418,0,8,3.582,8,8v236.688L388.687,272h-86.793c-2.512-9.699-7.273-18.672-13.895-26.191
	V200c-0.027-22.082-17.918-39.973-40-40h-16c-22.082,0.027-39.973,17.918-40,40v45.809c-6.621,7.52-11.383,16.492-13.895,26.191
	H91.312L80,260.688V24C80,19.582,83.582,16,88,16z M272,232.656c-19.773-11.543-44.227-11.543-64,0V200c0-13.254,10.746-24,24-24h16
	c13.254,0,24,10.746,24,24V232.656z M240,240c26.508,0,48,21.492,48,48s-21.492,48-48,48s-48-21.492-48-48
	C192.027,261.5,213.5,240.027,240,240z M64,244.688L19.312,200L64,155.313V244.688z M456,464H24c-4.418,0-8-3.582-8-8V219.313
	l66.344,66.344c1.5,1.5,3.535,2.344,5.656,2.344h88c0,35.348,28.652,64,64,64s64-28.652,64-64h88c2.121,0,4.156-0.844,5.656-2.344
	L464,219.313V456C464,460.418,460.418,464,456,464z"/>
</svg>
