<?xml version="1.0" encoding="utf-8"?>
<!-- Generator: Adobe Illustrator 17.0.0, SVG Export Plug-In . SVG Version: 6.00 Build 0)  -->
<!DOCTYPE svg PUBLIC "-//W3C//DTD SVG 1.1//EN" "http://www.w3.org/Graphics/SVG/1.1/DTD/svg11.dtd">
<svg version="1.1" id="Layer_1" xmlns="http://www.w3.org/2000/svg" xmlns:xlink="http://www.w3.org/1999/xlink" x="0px" y="0px"
	 width="639px" height="639px" viewBox="0 0 639 639" enable-background="new 0 0 639 639" xml:space="preserve">
<path fill="#F56616" d="M559.125,348.455v-19.969c5.511,0,9.984-4.47,9.984-9.984v-59.906c0-5.515-4.474-9.984-9.984-9.984h-53.916
	l-1.934-7.5c-4.415-17.153-11.271-33.584-20.37-48.783l-3.994-6.681l38.28-38.346c3.853-3.861,3.853-10.117,0-13.978l-42.402-42.465
	c-3.916-3.732-10.066-3.732-13.982,0l-38.35,38.35l-6.677-3.994c-15.222-9.103-31.669-15.959-48.845-20.378l-7.496-1.95V48.923
	c0-5.515-4.47-9.984-9.984-9.984h-59.906c-5.515,0-9.984,4.47-9.984,9.984v53.916l-7.5,1.938
	c-17.153,4.411-33.584,11.268-48.791,20.355l-6.681,3.998l-38.338-38.272c-3.92-3.764-10.109-3.764-14.029,0l-42.414,42.402
	c-1.864,1.86-2.913,4.388-2.913,7.02c0,2.636,1.049,5.16,2.913,7.02l38.35,38.346l-3.994,6.681
	c-9.095,15.199-15.956,31.63-20.367,48.783l-1.958,7.5H79.875c-5.515,0-9.984,4.47-9.984,9.984V318.5
	c0,5.515,4.47,9.984,9.984,9.984v19.969c-16.541,0-29.953-13.413-29.953-29.953v-59.906c0-16.541,13.413-29.953,29.953-29.953
	h38.631c4.119-13.807,9.688-27.137,16.615-39.766l-27.457-27.457c-5.616-5.605-8.771-13.21-8.771-21.139s3.155-15.534,8.771-21.135
	l42.434-42.434c11.821-11.314,30.46-11.314,42.281,0l27.449,27.445c12.629-6.923,25.963-12.48,39.766-16.595V48.923
	c0-16.541,13.413-29.953,29.953-29.953h59.906c16.54,0,29.953,13.413,29.953,29.953v38.639c13.807,4.115,27.133,9.684,39.766,16.607
	l27.457-27.457c11.825-11.314,30.46-11.314,42.285,0l42.426,42.422c5.612,5.605,8.764,13.202,8.764,21.135
	s-3.151,15.538-8.764,21.139l-27.457,27.457c6.923,12.636,12.488,25.971,16.611,39.778h38.631c16.54,0,29.953,13.413,29.953,29.953
	v59.906C589.078,335.042,575.666,348.455,559.125,348.455z"/>
<path fill="#F56616" d="M459.281,288.548h-19.969c0-66.17-53.643-119.813-119.813-119.813s-119.813,53.643-119.813,119.813h-19.969
	c0-77.2,62.582-139.781,139.781-139.781C396.696,148.767,459.281,211.349,459.281,288.548z"/>
<path fill="#F56616" d="M319.5,368.423c-33.085,0-59.906-26.825-59.906-59.906c0-33.085,26.821-59.906,59.906-59.906
	c33.089,0,59.906,26.821,59.906,59.906C379.371,341.59,352.573,368.388,319.5,368.423z M319.5,268.58
	c-22.055,0-39.938,17.882-39.938,39.938s17.882,39.938,39.938,39.938c22.055,0,39.938-17.882,39.938-39.938
	S341.555,268.58,319.5,268.58z"/>
<path fill="#F56616" d="M489.234,408.361c-33.085,0-59.906-26.825-59.906-59.906c0-33.085,26.821-59.906,59.906-59.906
	s59.906,26.821,59.906,59.906C549.106,381.528,522.308,408.326,489.234,408.361z M489.234,308.517
	c-22.055,0-39.938,17.882-39.938,39.938s17.882,39.938,39.938,39.938s39.938-17.882,39.938-39.938S511.29,308.517,489.234,308.517z"
	/>
<path fill="#F56616" d="M149.766,408.361c-33.085,0-59.906-26.825-59.906-59.906c0-33.085,26.821-59.906,59.906-59.906
	c33.089,0,59.906,26.821,59.906,59.906C209.637,381.528,182.839,408.326,149.766,408.361z M149.766,308.517
	c-22.055,0-39.938,17.882-39.938,39.938s17.882,39.938,39.938,39.938s39.938-17.882,39.938-39.938S171.821,308.517,149.766,308.517z
	"/>
<path fill="#F56616" d="M579.749,433.977c-14.879-10.226-32.519-15.682-50.577-15.632h-79.875
	c-4.856,0.043-9.704,0.484-14.489,1.314c-6.388-9.992-14.7-18.612-24.45-25.37c-1.463-1.104-2.999-2.106-4.602-2.991
	c-13.966-8.459-29.992-12.913-46.318-12.89h-79.875c-30.534-0.109-58.986,15.472-75.343,41.252
	c-4.797-0.831-9.653-1.271-14.516-1.314h-79.875c-18.042-0.051-35.679,5.398-50.55,15.612c-24.579,16.724-39.294,44.52-39.31,74.247
	v39.937c0.035,27.262,15.897,52.02,40.659,63.44c9.142,4.306,19.13,6.509,29.232,6.451h99.844v-19.969h-89.86V488.236H79.875
	v108.826c-3.76-0.753-7.41-1.97-10.874-3.612c-17.687-8.155-29.025-25.835-29.064-45.308v-39.937
	c0.023-23.136,11.486-44.762,30.612-57.773c11.556-7.933,25.257-12.157,39.278-12.118h79.875c1.759,0,3.456,0.187,5.172,0.304
	c-3.378,9.524-5.129,19.548-5.172,29.649v99.844c0.035,27.558,22.367,49.887,49.922,49.922h29.953v-159.75h-19.969v139.781h-9.984
	c-16.541,0-29.953-13.413-29.953-29.953v-99.844c0-38.604,31.295-69.891,69.891-69.891h79.875
	c12.847,0.008,25.437,3.565,36.392,10.273c1.014,0.554,1.989,1.178,2.913,1.864c9.356,6.408,17.036,14.969,22.387,24.961
	c5.378,10.094,8.198,21.353,8.198,32.792v99.844c0,16.541-13.413,29.953-29.953,29.953h-9.984v-139.78h-19.969v159.75h29.953
	c27.558-0.035,49.887-22.363,49.922-49.922v-99.844c-0.047-10.101-1.79-20.121-5.164-29.649c1.72-0.117,3.417-0.304,5.164-0.304
	h79.875c14.029-0.039,27.742,4.197,39.306,12.137c19.111,13.019,30.558,34.629,30.585,57.753v39.937
	c-0.035,19.544-11.459,37.274-29.232,45.386c-3.413,1.615-7.009,2.8-10.706,3.534V488.236h-19.969v109.828h-89.859v19.969h99.844
	c10.043,0.062,19.973-2.114,29.064-6.373c24.844-11.385,40.788-36.189,40.827-63.518v-39.937
	C619.016,478.49,604.312,450.705,579.749,433.977z"/>
<path fill="#F56616" d="M279.563,598.064h79.875v19.969h-79.875V598.064z"/>
</svg>
