<?xml version="1.0" encoding="utf-8"?>
<!-- Generator: Adobe Illustrator 17.0.0, SVG Export Plug-In . SVG Version: 6.00 Build 0)  -->
<!DOCTYPE svg PUBLIC "-//W3C//DTD SVG 1.1//EN" "http://www.w3.org/Graphics/SVG/1.1/DTD/svg11.dtd">
<svg version="1.1" id="Layer_1" xmlns="http://www.w3.org/2000/svg" xmlns:xlink="http://www.w3.org/1999/xlink" x="0px" y="0px"
	 width="750px" height="750px" viewBox="0 0 750 750" enable-background="new 0 0 750 750" xml:space="preserve">
<g id="surface1">
	<path fill="#ffffff" d="M50,750h600c27.613,0,50-22.387,50-50v-37.5c0-6.906-5.594-12.5-12.5-12.5h-25V450h-25v200h-25V450h-25v200
		H427.949c-13.309-0.047-25.488,7.48-31.395,19.414c-1.703,3.441-5.219,5.617-9.055,5.586h-72.051
		c-3.832,0.023-7.344-2.148-9.035-5.586C300.5,657.48,288.32,649.953,275,650H112.5V337.5c0-6.906,5.594-12.5,12.5-12.5h225v-25H125
		c-20.707,0-37.5,16.793-37.5,37.5V650h-25V312.5c0-20.707,16.793-37.5,37.5-37.5h250v-25H100c-34.5,0.043-62.457,28-62.5,62.5V650
		h-25C5.594,650,0,655.594,0,662.5V700C0,727.613,22.387,750,50,750z M25,675h250c3.832-0.02,7.344,2.145,9.055,5.57
		c5.898,11.938,18.086,19.477,31.395,19.43H387.5c13.32,0.047,25.508-7.492,31.414-19.43c1.691-3.43,5.207-5.594,9.035-5.57H675v25
		c0,13.809-11.191,25-25,25H50c-13.809,0-25-11.191-25-25V675z"/>
	<path fill="#ffffff" d="M162.5,462.5v100c0,6.906,5.594,12.5,12.5,12.5h350c6.906,0,12.5-5.594,12.5-12.5v-100
		c0-6.906-5.594-12.5-12.5-12.5H175C168.094,450,162.5,455.594,162.5,462.5z M187.5,475h325v75h-325V475z"/>
	<path fill="#ffffff" d="M212.5,500h25v25h-25V500z"/>
	<path fill="#ffffff" d="M262.5,500h25v25h-25V500z"/>
	<path fill="#ffffff" d="M312.5,500h25v25h-25V500z"/>
	<path fill="#ffffff" d="M362.5,500h25v25h-25V500z"/>
	<path fill="#ffffff" d="M712.5,187.965V150c0-82.844-67.156-150-150-150s-150,67.156-150,150v37.965
		c-21.27,2.266-37.426,20.168-37.5,41.559v153.453c0.031,23.199,18.836,42.004,42.035,42.023h290.93
		c23.199-0.02,42.004-18.824,42.035-42.023V229.523C749.926,208.133,733.77,190.23,712.5,187.965z M437.5,150
		c0-69.039,55.961-125,125-125s125,55.961,125,125v37.5h-25V150c0-55.23-44.77-100-100-100s-100,44.77-100,100v37.5h-25V150z
		 M487.5,187.5V150c0-41.414,33.586-75,75-75s75,33.586,75,75v37.5H487.5z M725,382.977c-0.008,9.402-7.637,17.02-17.035,17.023
		h-290.93c-9.398-0.004-17.027-7.621-17.035-17.023V229.523c0.008-9.402,7.637-17.02,17.035-17.023h290.93
		c9.398,0.004,17.027,7.621,17.035,17.023V382.977z"/>
	<path fill="#ffffff" d="M562.5,262.5c-18.242-0.039-33.848,13.09-36.945,31.074c-3.09,17.98,7.238,35.566,24.445,41.625V362.5h25
		v-27.301c17.207-6.059,27.535-23.645,24.445-41.625C596.348,275.59,580.742,262.461,562.5,262.5z M562.5,312.5
		c-6.906,0-12.5-5.594-12.5-12.5s5.594-12.5,12.5-12.5S575,293.094,575,300S569.406,312.5,562.5,312.5z"/>
	<path fill="#ffffff" d="M225,200h25v25h-25V200z"/>
	<path fill="#ffffff" d="M225,150h25v25h-25V150z"/>
	<path fill="#ffffff" d="M225,100h25v25h-25V100z"/>
	<path fill="#ffffff" d="M225,50h25v25h-25V50z"/>
	<path fill="#ffffff" d="M275,50h25v25h-25V50z"/>
	<path fill="#ffffff" d="M325,50h25v25h-25V50z"/>
	<path fill="#ffffff" d="M375,50h25v25h-25V50z"/>
</g>
</svg>
