<?xml version="1.0" encoding="utf-8"?>
<!-- Generator: Adobe Illustrator 17.0.0, SVG Export Plug-In . SVG Version: 6.00 Build 0)  -->
<!DOCTYPE svg PUBLIC "-//W3C//DTD SVG 1.1//EN" "http://www.w3.org/Graphics/SVG/1.1/DTD/svg11.dtd">
<svg version="1.1" id="Capa_1" xmlns="http://www.w3.org/2000/svg" xmlns:xlink="http://www.w3.org/1999/xlink" x="0px" y="0px"
	 width="1024px" height="1024px" viewBox="0 0 1024 1024" enable-background="new 0 0 1024 1024" xml:space="preserve">
<g>
	<g>
		<path fill="#F56616" d="M1011.42,319.151L672.925,101.364c-6.758-4.348-15.758-2.392-20.104,4.362
			c-4.346,6.756-2.394,15.756,4.362,20.104L990.73,340.433h-77.756L533.281,96.14c-12.926-8.316-29.632-8.314-42.56,0
			L111.028,340.433H33.272L511.983,32.408l67.798,43.62c6.758,4.346,15.756,2.394,20.104-4.362
			c4.346-6.756,2.394-15.756-4.362-20.104l-67.798-43.62c-9.552-6.146-21.894-6.146-31.446,0L12.582,319.151
			c-10.3,6.628-14.9,18.976-11.446,30.728c3.454,11.752,14.004,19.648,26.252,19.648h73.368v50.14v43.912
			c0,11.578,8.212,21.274,19.116,23.568v25.602c0,13.28,10.804,24.084,24.084,24.084h2v178.224c0,8.034,6.512,14.546,14.546,14.546
			c8.034,0,14.546-6.512,14.546-14.546v-192.77c0-8.034-6.512-14.546-14.546-14.546h-11.536v-20.08h103.026v20.076h-11.536
			c-8.034,0-14.546,6.512-14.546,14.546v321.393c0,8.034,6.512,14.546,14.546,14.546h11.536v21.83H148.966v-21.83h11.536
			c8.034,0,14.546-6.512,14.546-14.546v-37.18c0-8.034-6.512-14.546-14.546-14.546c-8.034,0-14.546,6.512-14.546,14.546v22.634h-2
			c-13.28,0-24.084,10.802-24.084,24.082v25.602c-10.906,2.294-19.116,11.99-19.116,23.568v29.364H49.228
			c-16.08,0-29.162,13.082-29.162,29.162v30.598c0,16.08,13.082,29.162,29.162,29.162h925.546c16.08,0,29.162-13.082,29.162-29.162
			v-30.598c0-16.08-13.082-29.162-29.162-29.162h-51.528v-29.364c0-11.578-8.212-21.274-19.116-23.568v-25.602
			c0-13.28-10.804-24.082-24.084-24.082h-2V536.829h2c13.28,0,24.084-10.804,24.084-24.084v-25.602
			c10.906-2.294,19.116-11.99,19.116-23.568v-43.912v-50.14h73.368c12.248,0,22.798-7.896,26.252-19.648
			C1026.32,338.127,1021.72,325.777,1011.42,319.151z M506.461,120.606c3.366-2.166,7.714-2.164,11.08,0l341.667,219.828H164.796
			L506.461,120.606z M129.848,369.525h764.304v35.594H738.348h-141.17H426.825h-141.17H129.848V369.525z M592.609,878.818v-25.602
			c0-13.28-10.804-24.082-24.084-24.082h-2V536.833h2c13.28,0,24.084-10.804,24.084-24.084v-25.602
			c10.906-2.294,19.116-11.99,19.116-23.568v-29.366h112.076v29.366c0,11.578,8.212,21.274,19.116,23.568v25.602
			c0,13.28,10.804,24.084,24.084,24.084h2v292.301h-2c-13.28,0-24.084,10.802-24.084,24.082v25.602
			c-10.904,2.294-19.116,11.99-19.116,23.568v29.364H611.725v-29.364C611.725,890.808,603.513,881.112,592.609,878.818z
			 M281.085,878.818v-25.602c0-13.28-10.804-24.082-24.084-24.082h-2V536.833h2c13.28,0,24.084-10.804,24.084-24.084v-25.602
			c10.904-2.294,19.116-11.99,19.116-23.568v-29.366h112.078v29.366c0,11.578,8.212,21.274,19.116,23.568v25.602
			c0,13.28,10.804,24.084,24.084,24.084h2v292.301h-2c-13.28,0-24.084,10.802-24.084,24.082v25.602
			c-10.904,2.294-19.116,11.99-19.116,23.568v29.364H300.201v-29.364C300.201,890.808,291.989,881.112,281.085,878.818z
			 M551.979,858.222h11.536v21.83H460.489v-21.83h11.536c8.034,0,14.546-6.512,14.546-14.546V522.285
			c0-8.034-6.512-14.548-14.546-14.548h-11.536v-20.076h103.026v20.076h-11.536c-8.034,0-14.546,6.512-14.546,14.546v321.393
			C537.433,851.71,543.945,858.222,551.979,858.222z M445.941,458.569h-0.064h-4.506v-24.356h141.26v24.356h-4.57
			c-0.01,0-0.022,0.002-0.032,0.002s-0.022-0.002-0.032-0.002H445.941z M441.371,908.428c1.42,0.462,2.932,0.72,4.506,0.72h132.118
			c1.622,0,3.178-0.278,4.636-0.768v23.368h-141.26L441.371,908.428L441.371,908.428z M134.42,458.569h-4.57v-24.356h141.26v24.356
			h-0.002h-4.57H134.42z M129.848,908.404c1.438,0.476,2.972,0.744,4.57,0.744h132.12c1.598,0,3.132-0.268,4.57-0.744v23.344
			h-141.26L129.848,908.404L129.848,908.404z M974.844,960.91l-0.04,30.666c0,0-0.008,0.002-0.03,0.002L49.158,991.51l0.07-30.668
			L974.844,960.91z M889.542,909.146c1.614,0,3.16-0.274,4.612-0.758v23.36h-141.26v-23.33c1.426,0.468,2.946,0.728,4.53,0.728
			H889.542z M783.546,507.739H772.01v-20.078h103.026v20.076H863.5c-8.034,0-14.546,6.512-14.546,14.546v321.393
			c0,8.034,6.512,14.548,14.546,14.548h11.536v21.83H772.01v-21.83h11.536c8.034,0,14.546-6.512,14.546-14.546V522.285
			C798.092,514.251,791.58,507.739,783.546,507.739z M894.156,458.569L894.156,458.569h-4.572c-0.006,0-0.014,0.002-0.02,0.002
			s-0.014-0.002-0.02-0.002H757.465h-0.04h-4.53v-24.356h141.26L894.156,458.569L894.156,458.569z"/>
	</g>
</g>
<g>
	<g>
		<path fill="#F56616" d="M518.153,226.33v-45.412c15.66,1.118,21.476,8.276,26.844,8.276c6.712,0,9.844-8.5,9.844-12.75
			c0-10.96-21.476-15.658-36.688-16.106v-6.04c0-2.686-3.354-5.146-6.71-5.146c-3.804,0-6.488,2.462-6.488,5.146v6.488
			c-21.252,2.236-42.504,13.422-42.504,41.608c0,28.634,22.372,36.688,42.504,43.846v52.566
			c-22.818-1.788-28.858-17.448-36.24-17.448c-5.592,0-10.29,7.382-10.29,12.752c0,10.962,18.79,25.95,46.53,26.398l0,0v6.936
			c0,2.686,2.684,5.146,6.488,5.146c3.354,0,6.71-2.462,6.71-5.146v-7.606c24.16-3.354,40.714-18.566,40.714-46.082
			C558.867,243.332,537.615,233.488,518.153,226.33z M506.299,222.08c-11.858-4.474-21.476-9.172-21.476-21.924
			c0-11.632,8.948-17.224,21.476-18.79V222.08z M516.813,298.363v-47.202c10.96,4.698,19.684,10.962,19.686,25.056
			C536.499,288.967,528.893,296.127,516.813,298.363z"/>
	</g>
</g>
</svg>
