<?xml version="1.0" encoding="utf-8"?>
<!-- Generator: Adobe Illustrator 17.0.0, SVG Export Plug-In . SVG Version: 6.00 Build 0)  -->
<!DOCTYPE svg PUBLIC "-//W3C//DTD SVG 1.1//EN" "http://www.w3.org/Graphics/SVG/1.1/DTD/svg11.dtd">
<svg version="1.1" id="Layer_1" xmlns="http://www.w3.org/2000/svg" xmlns:xlink="http://www.w3.org/1999/xlink" x="0px" y="0px"
	 width="446.094px" height="439.34px" viewBox="32.899 32 446.094 439.34" enable-background="new 32.899 32 446.094 439.34"
	 xml:space="preserve">
<path id="Shape" fill="#FFFFFF" d="M153.6,273.067h25.6c9.426,0,17.067-7.641,17.067-17.067c4.142-0.071,8.24,0.857,11.947,2.705
	c18.466,9.242,25.856,14.362,38.775,14.362h77.278c9.074-0.045,17.451-4.877,22.031-12.71c4.581-7.833,4.685-17.503,0.275-25.434
	c11.418-7.335,15.156-22.288,8.533-34.133c11.425-7.33,15.165-22.289,8.533-34.133c9.692-6.241,14.029-18.182,10.599-29.188
	c-3.429-11.006-13.781-18.371-25.302-18.002h-54.741c8.406-17.897,12.842-37.401,13.005-57.173
	c-0.054-13.737-10.011-25.43-23.564-27.672c-13.553-2.242-26.745,5.622-31.22,18.61c-4.952,15.62-11.869,30.547-20.582,44.425
	c-8.195,13.166-22.438,21.355-37.939,21.811c-3.024-5.263-8.624-8.515-14.694-8.533h-25.6c-9.426,0-17.067,7.641-17.067,17.067v128
	C136.533,265.426,144.174,273.067,153.6,273.067L153.6,273.067z M246.042,107.127c9.559-15.154,17.146-31.464,22.579-48.538
	c1.84-5.036,7.018-8.035,12.302-7.126c5.284,0.91,9.161,5.468,9.211,10.829c0,23.893-6.545,37.726-14.31,57.173h-11.29
	c-4.713,0-8.533,3.821-8.533,8.533c0,4.713,3.82,8.533,8.533,8.533h84.403c3.62-0.38,7.083,1.578,8.623,4.876
	c1.54,3.298,0.819,7.21-1.796,9.742c-1.549,1.586-3.679,2.471-5.897,2.449h-25.6c-4.713,0-8.533,3.821-8.533,8.533
	c0,4.713,3.821,8.533,8.533,8.533h17.067c4.713,0,8.533,3.821,8.533,8.533s-3.82,8.533-8.533,8.533h-25.6
	c-4.713,0-8.533,3.821-8.533,8.533s3.82,8.533,8.533,8.533H332.8c3.45,0.031,6.542,2.138,7.834,5.337
	c1.292,3.199,0.531,6.862-1.929,9.281c-1.551,1.588-3.685,2.473-5.905,2.449h-25.6c-4.713,0-8.533,3.82-8.533,8.533
	s3.82,8.533,8.533,8.533h17.067c4.713,0,8.533,3.821,8.533,8.533c0,4.713-3.821,8.533-8.533,8.533
	c-85.419,0-81.51,0.913-88.747-2.705c-18.466-9.242-25.856-14.362-38.775-14.362c-0.853,0-0.478,7.859-0.478-102.4
	C216.616,135.287,235.13,124.349,246.042,107.127L246.042,107.127z M153.6,128h25.6v128h-25.6V128z"/>
<path id="Shape_1_" fill="#FFFFFF" d="M464.836,373.205l-28.604-4.335l-12.868-27.247c-2.47-5.378-7.846-8.825-13.764-8.825
	c-5.918,0-11.294,3.447-13.764,8.825l-12.868,27.247l-28.604,4.335c-5.754,0.987-10.483,5.088-12.275,10.643
	c-1.792,5.556-0.351,11.647,3.742,15.81l20.915,21.333l-4.932,30.165c-0.782,4.469,0.432,9.056,3.323,12.553
	c2.891,3.496,7.168,5.552,11.704,5.623c5.12,0,5.282-0.794,32.759-15.889l25.498,14.012c5.195,2.744,11.501,2.283,16.242-1.186
	c4.742-3.469,7.089-9.339,6.047-15.121l-4.958-30.182l20.915-21.333c4.071-4.163,5.502-10.238,3.717-15.78
	C475.277,378.311,470.571,374.212,464.836,373.205L464.836,373.205z M439.791,409.515c-3.506,3.6-5.091,8.653-4.267,13.611
	l4.514,27.571c-35.61-19.567-25.6-19.413-60.894,0l4.514-27.546c0.832-4.971-0.752-10.041-4.267-13.653l-19.499-19.866l26.615-4.036
	c5.047-0.783,9.371-4.032,11.529-8.661l11.563-24.508l11.563,24.499c2.163,4.621,6.48,7.867,11.52,8.661l26.624,4.036
	L439.791,409.515z"/>
<path id="Shape_2_" fill="#FFFFFF" d="M311.236,373.205l-28.604-4.335l-12.868-27.247c-2.47-5.378-7.846-8.825-13.764-8.825
	s-11.294,3.447-13.764,8.825l-12.868,27.247l-28.604,4.335c-5.754,0.987-10.483,5.088-12.275,10.643
	c-1.792,5.556-0.351,11.647,3.742,15.81l20.915,21.333l-4.932,30.165c-0.782,4.469,0.432,9.056,3.323,12.553
	c2.891,3.496,7.168,5.552,11.704,5.623c5.12,0,5.282-0.794,32.759-15.889l25.498,14.012c5.195,2.744,11.501,2.283,16.242-1.186
	c4.742-3.469,7.089-9.339,6.047-15.121l-4.958-30.182l20.915-21.333c4.071-4.163,5.502-10.238,3.717-15.78
	C321.677,378.311,316.971,374.212,311.236,373.205L311.236,373.205z M286.191,409.515c-3.506,3.6-5.091,8.653-4.267,13.611
	l4.514,27.571c-35.61-19.567-25.6-19.413-60.894,0l4.514-27.546c0.832-4.971-0.752-10.041-4.267-13.653l-19.499-19.866l26.615-4.036
	c5.047-0.783,9.371-4.032,11.529-8.661L256,352.427l11.563,24.499c2.163,4.621,6.48,7.867,11.52,8.661l26.624,4.036L286.191,409.515
	z"/>
<path id="Shape_3_" fill="#FFFFFF" d="M157.636,373.205l-28.604-4.335l-12.868-27.247c-2.47-5.378-7.846-8.825-13.764-8.825
	s-11.294,3.447-13.764,8.825L75.767,368.87l-28.604,4.335c-5.754,0.987-10.483,5.088-12.275,10.643
	c-1.792,5.556-0.351,11.647,3.742,15.81l20.915,21.333l-4.932,30.165c-0.782,4.469,0.432,9.056,3.323,12.553
	c2.891,3.496,7.168,5.552,11.704,5.623c5.12,0,5.282-0.794,32.759-15.889l25.498,14.012c5.195,2.744,11.501,2.283,16.242-1.186
	c4.742-3.469,7.089-9.339,6.047-15.121l-4.958-30.182l20.915-21.333c4.071-4.163,5.502-10.238,3.717-15.78
	C168.077,378.311,163.371,374.212,157.636,373.205L157.636,373.205z M132.591,409.515c-3.506,3.6-5.091,8.653-4.267,13.611
	l4.514,27.571c-35.61-19.567-25.6-19.413-60.894,0l4.514-27.546c0.832-4.971-0.752-10.041-4.267-13.653l-19.499-19.866l26.615-4.036
	c5.047-0.783,9.371-4.032,11.529-8.661l11.563-24.508l11.563,24.499c2.163,4.621,6.48,7.867,11.52,8.661l26.624,4.036
	L132.591,409.515z"/>
</svg>
