<?xml version="1.0" encoding="utf-8"?>
<!-- Generator: Adobe Illustrator 17.0.0, SVG Export Plug-In . SVG Version: 6.00 Build 0)  -->
<!DOCTYPE svg PUBLIC "-//W3C//DTD SVG 1.1//EN" "http://www.w3.org/Graphics/SVG/1.1/DTD/svg11.dtd">
<svg version="1.1" id="Layer_1" xmlns="http://www.w3.org/2000/svg" xmlns:xlink="http://www.w3.org/1999/xlink" x="0px" y="0px"
	 width="512px" height="512px" viewBox="0 0 512 512" enable-background="new 0 0 512 512" xml:space="preserve">
<path fill="#FFFFFF" d="M402.551,325.199c-6.086-1.227-11.949,3.422-11.949,9.801c0,10.977,15.145,13.785,19.23,3.82
	C412.301,332.895,408.555,326.324,402.551,325.199z"/>
<path fill="#FFFFFF" d="M447.531,183.77h-71.082l2.984-4.051c12.203-16.551,0.375-39.965-20.188-39.965h-26.359V23.289
	C332.887,10.449,322.438,0,309.598,0h-34.574c-12.84,0-23.289,10.449-23.289,23.289v116.465h-26.359
	c-9.52,0-18.098,5.277-22.387,13.773c-8.32,16.465,4.645,29,5.188,30.242h-27.57v-18.887c0-19.043-15.496-34.535-34.539-34.535
	H34.535C15.492,130.348,0,145.84,0,164.883v300.129C0,490.922,21.078,512,46.992,512c15.625,0,401.07,0,385.477,0
	c28.836,0,52.297-23.461,52.297-52.297V221.004C484.766,200.473,468.062,183.77,447.531,183.77z M225.375,159.754h29.996
	c9.023,0,16.367-7.344,16.367-16.367V23.289c0-1.813,1.477-3.289,3.289-3.289h34.57c1.816,0,3.293,1.477,3.293,3.289v120.098
	c0,9.023,7.34,16.367,16.363,16.367h29.996c4.176,0,6.566,4.734,4.09,8.098c-7.801,10.578-42.484,57.613-47.613,64.57h-46.828
	c-18.105-24.555-31.664-42.941-47.613-64.57C218.809,164.488,221.199,159.754,225.375,159.754z M222.922,203.77l21.129,28.652
	c-63.91-0.172-61,0.414-62.277-0.453c-2.129-1.438-0.734-2.141-1.168-28.199H222.922z M464.766,459.703
	c0,17.809-14.488,32.297-32.297,32.297h-2.41c-10.73,0-19.461-8.73-19.461-19.461V375c0-5.523-4.477-10-10-10s-10,4.477-10,10
	c0.035,103.461-0.07,97.398,0.078,99.922c0.371,6.188,2.203,12.051,5.063,17.078H46.988C32.105,492,20,479.891,20,465.012V164.883
	c0-8.016,6.52-14.535,14.535-14.535h111.531c8.016,0,14.539,6.52,14.539,14.535v64.891c0,12.488,10.156,22.648,22.648,22.648
	h192.582c8.141,0,14.762,6.625,14.762,14.766V295c0,5.523,4.477,10,10,10s10-4.477,10-10v-27.813
	c0-19.168-15.594-34.766-34.762-34.766h-35.262l21.129-28.652h85.828c9.504,0,17.234,7.73,17.234,17.234V459.703z"/>
</svg>
