<?xml version="1.0" encoding="utf-8"?>
<!-- Generator: Adobe Illustrator 17.0.0, SVG Export Plug-In . SVG Version: 6.00 Build 0)  -->
<!DOCTYPE svg PUBLIC "-//W3C//DTD SVG 1.1//EN" "http://www.w3.org/Graphics/SVG/1.1/DTD/svg11.dtd">
<svg version="1.1" id="Layer_1" xmlns="http://www.w3.org/2000/svg" xmlns:xlink="http://www.w3.org/1999/xlink" x="0px" y="0px"
	 width="480px" height="480px" viewBox="0 0 480 480" enable-background="new 0 0 480 480" xml:space="preserve">
<path fill="#F56616" d="M472,264c-4.418,0-8,3.582-8,8c0,13.254-10.746,24-24,24H320c-4.418,0-8-3.582-8-8s3.582-8,8-8h48
	c4.418,0,8-3.582,8-8s-3.582-8-8-8h-48c-4.418,0-8-3.582-8-8s3.582-8,8-8h48c4.418,0,8-3.582,8-8s-3.582-8-8-8h-48
	c-4.418,0-8-3.582-8-8s3.582-8,8-8h48c4.418,0,8-3.582,8-8s-3.582-8-8-8h-48c-4.418,0-8-3.582-8-8s3.582-8,8-8h72
	c4.418,0,8-3.582,8-8s-3.582-8-8-8h-24c-4.418,0-8-3.582-8-8v-8c0-4.418,3.582-8,8-8h32c13.254,0,24,10.746,24,24v8
	c0,4.418,3.582,8,8,8h8c13.254,0,24,10.746,24,24c0,4.418,3.582,8,8,8s8-3.582,8-8c0-22.09-17.91-40-40-40c0-22.09-17.91-40-40-40
	h-32c-13.254,0-24,10.746-24,24v0.559c-25.84-30.664-63.898-48.363-104-48.363s-78.16,17.699-104,48.363V152
	c0-13.254-10.746-24-24-24H80c-22.09,0-40,17.91-40,40c-22.09,0-40,17.91-40,40c0,4.418,3.582,8,8,8s8-3.582,8-8
	c0-13.254,10.746-24,24-24h8c4.418,0,8-3.582,8-8v-8c0-13.254,10.746-24,24-24h32c4.418,0,8,3.582,8,8v8c0,4.418-3.582,8-8,8H88
	c-4.418,0-8,3.582-8,8s3.582,8,8,8h72c4.418,0,8,3.582,8,8s-3.582,8-8,8h-48c-4.418,0-8,3.582-8,8s3.582,8,8,8h48
	c4.418,0,8,3.582,8,8s-3.582,8-8,8h-48c-4.418,0-8,3.582-8,8s3.582,8,8,8h48c4.418,0,8,3.582,8,8s-3.582,8-8,8h-48
	c-4.418,0-8,3.582-8,8s3.582,8,8,8h48c4.418,0,8,3.582,8,8s-3.582,8-8,8H40c-13.254,0-24-10.746-24-24c0-4.418-3.582-8-8-8
	s-8,3.582-8,8c0,22.09,17.91,40,40,40h84.719c24.863,39.719,68.422,63.844,115.281,63.844S330.418,351.719,355.281,312H440
	c22.09,0,40-17.91,40-40C480,267.582,476.418,264,472,264z M240,360c-37.77,0-73.336-17.785-96-48h16c13.254,0,24-10.746,24-24
	c-0.012-5.91-2.207-11.605-6.16-16c8.148-9.109,8.148-22.891,0-32c8.148-9.109,8.148-22.891,0-32c3.953-4.395,6.148-10.09,6.16-16
	c0-13.254-10.746-24-24-24h-16c22.664-30.215,58.23-48,96-48s73.336,17.785,96,48h-16c-13.254,0-24,10.746-24,24
	c0.012,5.91,2.207,11.605,6.16,16c-8.148,9.109-8.148,22.891,0,32c-8.148,9.109-8.148,22.891,0,32c-3.953,4.395-6.148,10.09-6.16,16
	c0,13.254,10.746,24,24,24h16C313.336,342.215,277.77,360,240,360z"/>
<path fill="#F56616" d="M240,208c6.578,0.086,11.879,5.422,11.922,12c0,4.418,3.578,8,8,8c4.418,0,8-3.582,8-8
	c-0.031-12.34-8.113-23.215-19.922-26.801V184c0-4.418-3.582-8-8-8s-8,3.582-8,8v9.199c-13.266,4.016-21.602,17.129-19.598,30.848
	C214.406,237.762,226.141,247.945,240,248c6.629,0,12,5.371,12,12s-5.371,12-12,12s-12-5.371-12-12c0-4.418-3.582-8-8-8
	s-8,3.582-8,8c0.039,12.363,8.16,23.242,20,26.801V296c0,4.418,3.582,8,8,8s8-3.582,8-8v-9.199
	c13.266-4.016,21.602-17.129,19.598-30.848C265.594,242.238,253.859,232.055,240,232c-6.629,0-12-5.371-12-12S233.371,208,240,208z"
	/>
<path fill="#F56616" d="M240,440c-4.418,0-8,3.582-8,8v24c0,4.418,3.582,8,8,8s8-3.582,8-8v-24C248,443.582,244.418,440,240,440z"/>
<path fill="#F56616" d="M240,392c-4.418,0-8,3.582-8,8v16c0,4.418,3.582,8,8,8s8-3.582,8-8v-16C248,395.582,244.418,392,240,392z"/>
<path fill="#F56616" d="M240,40c4.418,0,8-3.582,8-8V8c0-4.418-3.582-8-8-8s-8,3.582-8,8v24C232,36.418,235.582,40,240,40z"/>
<path fill="#F56616" d="M240,88c4.418,0,8-3.582,8-8V64c0-4.418-3.582-8-8-8s-8,3.582-8,8v16C232,84.418,235.582,88,240,88z"/>
<path fill="#F56616" d="M284,316.078c-27.258,15.605-60.742,15.605-88,0c-3.797-1.984-8.488-0.625-10.633,3.086
	c-2.148,3.711-0.984,8.457,2.633,10.758c32.125,18.777,71.875,18.777,104,0c3.617-2.301,4.781-7.047,2.633-10.758
	C292.488,315.453,287.797,314.094,284,316.078z"/>
<path fill="#F56616" d="M196,163.922c27.258-15.605,60.742-15.605,88,0c1.219,0.688,2.598,1.047,4,1.039
	c2.824,0,5.441-1.492,6.879-3.922c1.074-1.832,1.375-4.02,0.836-6.078c-0.539-2.055-1.875-3.813-3.715-4.883
	c-32.227-18.395-71.773-18.395-104,0c-3.617,2.301-4.781,7.047-2.633,10.758C187.512,164.547,192.203,165.906,196,163.922z"/>
<path fill="#F56616" d="M296,88h32v24c0,4.418,3.582,8,8,8s8-3.582,8-8V80c0-4.418-3.582-8-8-8h-19.121L376,18.801L435.121,72H416
	c-4.418,0-8,3.582-8,8v32c0,4.418,3.582,8,8,8s8-3.582,8-8V88h32c3.297-0.008,6.254-2.043,7.441-5.121
	c1.188-3.082,0.363-6.578-2.082-8.801l-80-72c-3.043-2.746-7.676-2.746-10.719,0l-80,72c-2.445,2.223-3.27,5.719-2.082,8.801
	C289.746,85.957,292.703,87.992,296,88z"/>
<path fill="#F56616" d="M168,392h-32v-24c0-4.418-3.582-8-8-8s-8,3.582-8,8v32c0,4.418,3.582,8,8,8h19.121L88,461.199L28.879,408H48
	c4.418,0,8-3.582,8-8v-64c0-4.418-3.582-8-8-8s-8,3.582-8,8v56H8c-3.297,0.008-6.254,2.043-7.441,5.121
	c-1.188,3.082-0.363,6.578,2.082,8.801l80,72c3.043,2.746,7.676,2.746,10.719,0l80-72c2.445-2.223,3.27-5.719,2.082-8.801
	C174.254,394.043,171.297,392.008,168,392z"/>
</svg>
