<?xml version="1.0" encoding="utf-8"?>
<!-- Generator: Adobe Illustrator 17.0.0, SVG Export Plug-In . SVG Version: 6.00 Build 0)  -->
<!DOCTYPE svg PUBLIC "-//W3C//DTD SVG 1.1//EN" "http://www.w3.org/Graphics/SVG/1.1/DTD/svg11.dtd">
<svg version="1.1" id="Capa_1" xmlns="http://www.w3.org/2000/svg" xmlns:xlink="http://www.w3.org/1999/xlink" x="0px" y="0px"
	 width="512px" height="435.774px" viewBox="0 38.113 512 435.774" enable-background="new 0 38.113 512 435.774"
	 xml:space="preserve">
<g>
	<path fill="#FFFFFF" d="M384.5,38.113h-257C57.196,38.113,0,95.309,0,165.613v45c0,4.142,3.358,7.5,7.5,7.5h111.197
		c-1.469,4.134-4.124,7.82-7.697,10.5l-30,22.5c-13.149,9.862-21,25.563-21,42v143.274c0,20.678,16.822,37.5,37.5,37.5h317
		c20.678,0,37.5-16.822,37.5-37.5V293.113c0-16.437-7.851-32.138-21-42l-30-22.5c-3.572-2.68-6.228-6.366-7.697-10.5H504.5
		c4.142,0,7.5-3.358,7.5-7.5v-45C512,95.309,454.804,38.113,384.5,38.113L384.5,38.113z M127.5,53.113h257
		c59.512,0,108.371,46.451,112.244,105H392v-7.5c0-18.109-12.905-33.262-30-36.747V90.613c0-12.407-10.093-22.5-22.5-22.5
		c-9.778,0-18.114,6.271-21.21,15H193.71c-3.096-8.729-11.432-15-21.21-15c-12.407,0-22.5,10.093-22.5,22.5v23.253
		c-17.095,3.485-30,18.637-30,36.747v7.5H15.256C19.129,99.564,67.988,53.113,127.5,53.113z M195,98.113h122v15H195V98.113z
		 M15,173.113h105v30H15V173.113z M422,263.113c9.393,7.044,15,18.259,15,30v68.274c0,12.407-10.093,22.5-22.5,22.5h-287
		c-4.142,0-7.5,3.358-7.5,7.5s3.358,7.5,7.5,7.5h287c8.436,0,16.228-2.801,22.5-7.52v45.02c0,12.407-10.093,22.5-22.5,22.5h-317
		c-12.407,0-22.5-10.093-22.5-22.5v-45.02c6.272,4.719,14.064,7.52,22.5,7.52c4.142,0,7.5-3.358,7.5-7.5s-3.358-7.5-7.5-7.5
		c-12.407,0-22.5-10.093-22.5-22.5v-68.274c0-11.74,5.607-22.956,15-30l30-22.5c9.393-7.045,15-18.26,15-30v-60
		c0-12.407,10.093-22.5,22.5-22.5c4.142,0,7.5-3.358,7.5-7.5v-30c0-4.136,3.364-7.5,7.5-7.5s7.5,3.364,7.5,7.5v30
		c0,4.142,3.358,7.5,7.5,7.5h137c4.142,0,7.5-3.358,7.5-7.5v-30c0-4.136,3.364-7.5,7.5-7.5s7.5,3.364,7.5,7.5v30
		c0,4.142,3.358,7.5,7.5,7.5c12.407,0,22.5,10.093,22.5,22.5v60c0,11.74,5.607,22.955,15,30L422,263.113z M392,203.113v-30h105v30
		H392z"/>
	<path fill="#FFFFFF" d="M256,143.113c-62.033,0-112.5,50.467-112.5,112.5s50.467,112.5,112.5,112.5s112.5-50.467,112.5-112.5
		S318.033,143.113,256,143.113z M256,353.113c-53.762,0-97.5-43.738-97.5-97.5s43.738-97.5,97.5-97.5s97.5,43.738,97.5,97.5
		S309.762,353.113,256,353.113z"/>
	<path fill="#FFFFFF" d="M256,203.113c-28.949,0-52.5,23.551-52.5,52.5s23.551,52.5,52.5,52.5s52.5-23.551,52.5-52.5
		S284.949,203.113,256,203.113z M256,293.113c-20.678,0-37.5-16.822-37.5-37.5s16.822-37.5,37.5-37.5s37.5,16.822,37.5,37.5
		S276.678,293.113,256,293.113z"/>
	<path fill="#FFFFFF" d="M256,173.113c-45.491,0-82.5,37.009-82.5,82.5s37.009,82.5,82.5,82.5s82.5-37.009,82.5-82.5
		S301.491,173.113,256,173.113z M256,323.113c-37.22,0-67.5-30.28-67.5-67.5s30.28-67.5,67.5-67.5s67.5,30.28,67.5,67.5
		S293.22,323.113,256,323.113z"/>
</g>
</svg>
