<?xml version="1.0" encoding="utf-8"?>
<!-- Generator: Adobe Illustrator 17.0.0, SVG Export Plug-In . SVG Version: 6.00 Build 0)  -->
<!DOCTYPE svg PUBLIC "-//W3C//DTD SVG 1.1//EN" "http://www.w3.org/Graphics/SVG/1.1/DTD/svg11.dtd">
<svg version="1.1" id="Layer_1" xmlns="http://www.w3.org/2000/svg" xmlns:xlink="http://www.w3.org/1999/xlink" x="0px" y="0px"
	 width="326.434px" height="512px" viewBox="0 0 326.434 512" enable-background="new 0 0 326.434 512" xml:space="preserve">
<path fill="#F56616" d="M185.434,232.813v-31.184c0-4.141-3.359-7.5-7.5-7.5H38.719c-4.145,0-7.5,3.359-7.5,7.5v31.184
	c0,4.141,3.355,7.5,7.5,7.5h139.215C182.074,240.313,185.434,236.957,185.434,232.813z M170.434,225.313H46.219v-16.184h124.215
	V225.313z"/>
<path fill="#F56616" d="M191.934,434.305h96.785c4.141,0,7.5-3.359,7.5-7.5v-31.188c0-4.141-3.359-7.5-7.5-7.5h-96.785
	c-4.145,0-7.5,3.359-7.5,7.5v31.188C184.434,430.945,187.789,434.305,191.934,434.305z M199.434,403.117h81.785v16.188h-81.785
	V403.117z"/>
<path fill="#F56616" d="M288.719,148.695h-250c-4.145,0-7.5,3.359-7.5,7.5c0,4.145,3.355,7.5,7.5,7.5h250c4.141,0,7.5-3.355,7.5-7.5
	C296.219,152.055,292.859,148.695,288.719,148.695z"/>
<path fill="#F56616" d="M129.434,273.195c0-4.141-3.359-7.5-7.5-7.5H38.719c-4.145,0-7.5,3.359-7.5,7.5c0,4.145,3.355,7.5,7.5,7.5
	h83.215C126.074,280.695,129.434,277.34,129.434,273.195z"/>
<path fill="#F56616" d="M108.324,303.531H38.719c-4.145,0-7.5,3.355-7.5,7.5c0,4.141,3.355,7.5,7.5,7.5h69.605
	c4.145,0,7.5-3.359,7.5-7.5C115.824,306.887,112.469,303.531,108.324,303.531z"/>
<path fill="#F56616" d="M108.324,341.363H38.719c-4.145,0-7.5,3.359-7.5,7.5c0,4.145,3.355,7.5,7.5,7.5h69.605
	c4.145,0,7.5-3.355,7.5-7.5C115.824,344.723,112.469,341.363,108.324,341.363z"/>
<path fill="#F56616" d="M288.719,341.363h-34.805c-4.145,0-7.5,3.359-7.5,7.5c0,4.145,3.355,7.5,7.5,7.5h34.805
	c4.141,0,7.5-3.355,7.5-7.5C296.219,344.723,292.859,341.363,288.719,341.363z"/>
<path fill="#F56616" d="M288.719,303.531h-34.805c-4.145,0-7.5,3.359-7.5,7.5s3.355,7.5,7.5,7.5h34.805c4.141,0,7.5-3.359,7.5-7.5
	S292.859,303.531,288.719,303.531z"/>
<path fill="#F56616" d="M288.719,265.695h-34.805c-4.145,0-7.5,3.359-7.5,7.5c0,4.145,3.355,7.5,7.5,7.5h34.805
	c4.141,0,7.5-3.355,7.5-7.5C296.219,269.055,292.859,265.695,288.719,265.695z"/>
<path fill="#F56616" d="M318.934,176.434c4.141,0,7.5-3.359,7.5-7.5V7.5c0-4.141-3.359-7.5-7.5-7.5c-23.773,0-25.766,30-38.813,30
	c-13.039,0-15.008-30-38.809-30c-23.766,0-25.766,30-38.801,30c-13.082,0-14.965-30-38.809-30c-23.766,0-25.762,30-38.801,30
	c-13.02,0-15.023-30-38.801-30C62.332,0,60.34,30,47.301,30C34.219,30,32.348,0,8.5,0C4.355,0,1,3.359,1,7.5v497
	c0,4.141,3.355,7.5,7.5,7.5c23.77,0,25.766-30,38.801-30c13.078,0,14.957,30,38.801,30c23.766,0,25.762-30,38.801-30
	c13.082,0,14.961,30,38.801,30c23.77,0,25.77-30,38.809-30c13.082,0,14.957,30,38.801,30c23.773,0,25.766-30,38.809-30
	s15.012,30,38.813,30c4.141,0,7.5-3.359,7.5-7.5V196.934c0-4.145-3.359-7.5-7.5-7.5c-4.145,0-7.5,3.355-7.5,7.5v296.281
	C303.945,484.938,298.488,467,280.121,467c-23.77,0-25.762,30-38.809,30c-13.02,0-15.023-30-38.801-30c-23.77,0-25.77,30-38.809,30
	c-13.078,0-14.957-30-38.801-30c-23.77,0-25.766,30-38.801,30c-13.086,0-14.957-30-38.801-30C28.945,467,23.492,484.926,16,493.211
	V18.789C23.477,27.059,28.941,45,47.305,45c23.766,0,25.762-30,38.797-30c13.086,0,14.957,30,38.801,30c23.77,0,25.766-30,38.805-30
	c13.082,0,14.961,30,38.805,30c23.77,0,25.762-30,38.805-30s15.012,30,38.809,30c18.363,0,23.824-17.937,31.309-26.215v150.148
	C311.434,173.074,314.789,176.434,318.934,176.434z"/>
<path fill="#F56616" d="M296.219,85.195c0-4.141-3.359-7.5-7.5-7.5H108.324c-4.145,0-7.5,3.359-7.5,7.5c0,4.145,3.355,7.5,7.5,7.5
	h172.895v16.188h-235V92.695h34.105c4.145,0,7.5-3.355,7.5-7.5c0-4.141-3.355-7.5-7.5-7.5H38.719c-4.145,0-7.5,3.359-7.5,7.5v31.188
	c0,4.141,3.355,7.5,7.5,7.5h250c4.141,0,7.5-3.359,7.5-7.5V85.195z"/>
</svg>
