<?xml version="1.0" encoding="utf-8"?>
<!-- Generator: Adobe Illustrator 17.0.0, SVG Export Plug-In . SVG Version: 6.00 Build 0)  -->
<!DOCTYPE svg PUBLIC "-//W3C//DTD SVG 1.1//EN" "http://www.w3.org/Graphics/SVG/1.1/DTD/svg11.dtd">
<svg version="1.1" id="Layer_5" xmlns="http://www.w3.org/2000/svg" xmlns:xlink="http://www.w3.org/1999/xlink" x="0px" y="0px"
	 width="512px" height="512px" viewBox="0 0 512 512" enable-background="new 0 0 512 512" xml:space="preserve">
<path fill="#F56616" d="M224,312c4.416,0,8,3.584,8,8v8h-8c-4.416,0-8-3.584-8-8h-16c0,10.416,6.712,19.216,16,22.528V360h16v-16h16
	v-24c0-13.232-10.768-24-24-24c-4.416,0-8-3.584-8-8v-8h8c4.416,0,8,3.584,8,8h16c0-10.416-6.712-19.216-16-22.528V248h-16v16h-16
	v24C200,301.232,210.768,312,224,312z"/>
<path fill="#F56616" d="M8,456h16v16H8V456z"/>
<path fill="#F56616" d="M40,456h16v16H40V456z"/>
<path fill="#F56616" d="M72,456h16v16H72V456z"/>
<path fill="#F56616" d="M400,408h-37.936C385.784,379.368,400,343.248,400,304c0-92.632-78.952-168-176-168
	c-18.784,0-37.48,3.096-55.688,8.928c-8.848-8.008-19.16-14.384-30.52-18.672C155.888,114.936,168,94.88,168,72
	c0-35.288-28.712-64-64-64S40,36.712,40,72c0,22.88,12.112,42.936,30.216,54.256C33.92,139.968,8,174.968,8,216v48h45.104
	C49.76,277.072,48,290.472,48,304c0,38.184,13.368,74.464,37.856,104H56v16h168c66.168,0,120-53.832,120-120s-53.832-120-120-120
	c-9.552,0-19.056,1.176-28.344,3.432c-3.36-10.768-8.656-20.664-15.344-29.44c14.368-3.928,29-5.992,43.688-5.992
	c88.224,0,160,68.184,160,152s-71.776,152-160,152H104v16h296v30.136L503.544,440L400,377.864V408z M119.232,197.448L104,212.688
	l-15.232-15.24L102.4,136.08c0.536-0.008,1.064-0.08,1.6-0.08s1.064,0.072,1.6,0.08L119.232,197.448z M56,72
	c0-26.472,21.528-48,48-48s48,21.528,48,48s-21.528,48-48,48S56,98.472,56,72z M107.48,408C79.48,379.712,64,342.944,64,304
	c0-13.552,2-26.968,5.736-40h41.256c-4.608,12.888-6.992,26.288-6.992,40c0,44.464,24.36,83.272,60.384,104H107.48z M224,200
	c57.344,0,104,46.656,104,104s-46.656,104-104,104s-104-46.656-104-104c0-13.784,2.88-27.192,8.272-40h17.424
	c-6.36,12.336-9.696,25.92-9.696,40c0,48.52,39.48,88,88,88s88-39.48,88-88s-39.48-88-88-88c-8.192,0-16.208,1.224-24,3.448V216
	c0-4.392-0.4-8.672-0.976-12.912C207.216,201.064,215.576,200,224,200z M200,264v-27.784c7.728-2.744,15.76-4.216,24-4.216
	c39.704,0,72,32.296,72,72s-32.296,72-72,72s-72-32.296-72-72c0-14.36,4.272-28.096,12.296-40H200z M184,248h-24v-48h-16v48H64v-48
	H48v48H24v-32c0-37.744,26.304-69.392,61.528-77.76L71.24,202.552l32.76,32.76l32.768-32.76L122.48,138.24
	C157.696,146.608,184,178.256,184,216V248z M416,406.136L472.456,440L416,473.864V456H298.864c17.904-8.064,34.152-18.928,48.136-32
	h69V406.136z"/>
<path fill="#F56616" d="M24,408h16v16H24V408z"/>
<path fill="#F56616" d="M448,8h-80c-30.872,0-56,25.128-56,56v88h136c30.872,0,56-25.128,56-56V64C504,33.128,478.872,8,448,8z
	 M488,96c0,22.056-17.944,40-40,40H328V64c0-22.056,17.944-40,40-40h80c22.056,0,40,17.944,40,40V96z"/>
<path fill="#F56616" d="M344,40h16v16h-16V40z"/>
<path fill="#F56616" d="M376,40h16v16h-16V40z"/>
<path fill="#F56616" d="M408,40h64v16h-64V40z"/>
<path fill="#F56616" d="M344,72h128v16H344V72z"/>
<path fill="#F56616" d="M344,104h128v16H344V104z"/>
</svg>
