<?xml version="1.0" encoding="utf-8"?>
<!-- Generator: Adobe Illustrator 17.0.0, SVG Export Plug-In . SVG Version: 6.00 Build 0)  -->
<!DOCTYPE svg PUBLIC "-//W3C//DTD SVG 1.1//EN" "http://www.w3.org/Graphics/SVG/1.1/DTD/svg11.dtd">
<svg version="1.1" id="Layer_1" xmlns="http://www.w3.org/2000/svg" xmlns:xlink="http://www.w3.org/1999/xlink" x="0px" y="0px"
	 width="616.225px" height="189.738px" viewBox="0 0 616.225 189.738" enable-background="new 0 0 616.225 189.738"
	 xml:space="preserve">
<path fill="#FFFFFF" d="M273.864,166.76c-24.618-1.603-44.092-22.066-44.092-47.089c0-24.701,18.977-44.957,43.145-47.016
	c6.072-8.384,13.744-15.532,22.571-20.995c-5.9-1.604-12.106-2.466-18.514-2.466c-38.924,0-70.478,31.554-70.478,70.478
	c0,38.924,31.554,70.478,70.478,70.478c6.905,0,13.576-0.999,19.882-2.851C287.913,182.01,280.099,175.016,273.864,166.76z"/>
<path fill="#FFFFFF" d="M428.069,49.194c-13.949,0-26.949,4.057-37.891,11.05c5.839,5.27,10.887,11.398,14.951,18.184
	c6.792-3.789,14.61-5.958,22.94-5.958c26.069,0,47.202,21.133,47.202,47.202c0,26.069-21.133,47.202-47.202,47.202
	c-8.555,0-16.574-2.283-23.492-6.263c-4.151,6.726-9.279,12.784-15.187,17.976c11.104,7.306,24.393,11.563,38.679,11.563
	c38.924,0,70.478-31.554,70.478-70.478C498.546,80.748,466.992,49.194,428.069,49.194z"/>
<g>
	<path fill="#FFFFFF" d="M397.798,83.461c-4.028-6.713-9.143-12.698-15.101-17.716c-12.26-10.326-28.088-16.551-45.371-16.551
		c-10.799,0-21.028,2.432-30.176,6.773c-8.688,4.123-16.397,9.97-22.688,17.1c-10.96,12.423-17.614,28.735-17.614,46.604
		s6.654,34.181,17.614,46.604c6.291,7.13,14,12.978,22.688,17.1c9.148,4.341,19.377,6.773,30.176,6.773
		c17.284,0,33.111-6.225,45.371-16.551c5.958-5.018,11.073-11.003,15.101-17.716c6.351-10.583,10.005-22.969,10.005-36.21
		C407.804,106.431,404.149,94.045,397.798,83.461z M367.596,155.882c-8.195,6.858-18.748,10.991-30.27,10.991
		c-2.549,0-5.049-0.208-7.489-0.597c-8.544-1.362-16.323-5.015-22.688-10.312c-10.402-8.658-17.025-21.7-17.025-36.292
		c0-14.592,6.624-27.633,17.025-36.292c6.364-5.298,14.143-8.95,22.688-10.312c2.44-0.389,4.939-0.597,7.489-0.597
		c11.522,0,22.075,4.133,30.27,10.991c7.136,5.972,12.471,14.014,15.101,23.201c1.183,4.134,1.83,8.495,1.83,13.009
		c0,4.514-0.647,8.875-1.83,13.009C380.068,141.868,374.732,149.91,367.596,155.882z"/>
</g>
<g>
	<path fill="#FFFFFF" d="M613.178,99.123l-20.557,15.057c0.209,1.803,0.328,3.633,0.328,5.492c0,26.069-21.133,47.202-47.202,47.202
		c-6.91,0-13.466-1.497-19.381-4.165c-7.39-3.333-13.771-8.504-18.548-14.942c-0.052-0.07-0.1-0.143-0.151-0.213l76.151-55.777
		L602.6,78.019c-4.63-6.309-10.284-11.817-16.718-16.283c-11.39-7.905-25.22-12.542-40.134-12.542
		c-38.924,0-70.478,31.554-70.478,70.478s31.554,70.478,70.478,70.478s70.478-31.554,70.478-70.478
		C616.225,112.523,615.157,105.624,613.178,99.123z M498.546,119.672c0-26.069,21.133-47.202,47.202-47.202
		c7.009,0,13.655,1.54,19.636,4.28l-66.474,48.69C498.679,123.548,498.546,121.626,498.546,119.672z"/>
</g>
<rect x="475.27" y="0" fill="#FFFFFF" width="23.276" height="121.11"/>
<g>
	<path fill="#FFFFFF" d="M170.348,45.435c-8.502-14.377-20.39-25.54-35.67-33.5C119.394,3.98,101.809,0,81.919,0H0v108.571h49.639
		V40.417h31.194c9.943,0,18.805,2.306,26.583,6.917c7.773,4.611,13.877,11.079,18.31,19.395c4.429,8.32,6.646,17.903,6.646,28.753
		c0,10.672-2.081,20.166-6.239,28.482c-4.162,8.32-9.947,14.741-17.36,19.259c-5.35,3.262-11.265,5.339-17.74,6.248v40.268
		c15.806-1.2,30.085-5.039,42.831-11.525c15.639-7.955,27.757-19.165,36.348-33.635c8.587-14.466,12.885-31.012,12.885-49.64
		C183.097,76.315,178.846,59.811,170.348,45.435z"/>
	<rect x="0" y="150.026" fill="#FFFFFF" width="49.631" height="40.123"/>
	<rect x="58.584" y="153.359" fill="#FFFFFF" width="11.123" height="11.123"/>
	<rect x="46.964" y="123.816" fill="#FFFFFF" width="14" height="14"/>
	<rect x="64.42" y="135.632" fill="#FFFFFF" width="10.576" height="10.576"/>
	<rect x="64.146" y="118.149" fill="#FFFFFF" width="6.81" height="6.81"/>
	<rect x="78.631" y="110.618" fill="#FFFFFF" width="10.576" height="10.576"/>
	<rect x="80.866" y="128.822" fill="#FFFFFF" width="6.81" height="6.81"/>
</g>
</svg>
