<?xml version="1.0" encoding="utf-8"?>
<!-- Generator: Adobe Illustrator 17.0.0, SVG Export Plug-In . SVG Version: 6.00 Build 0)  -->
<!DOCTYPE svg PUBLIC "-//W3C//DTD SVG 1.1//EN" "http://www.w3.org/Graphics/SVG/1.1/DTD/svg11.dtd">
<svg version="1.1" id="Layer_1" xmlns="http://www.w3.org/2000/svg" xmlns:xlink="http://www.w3.org/1999/xlink" x="0px" y="0px"
	 width="512px" height="512px" viewBox="0 -27.224 512 512" enable-background="new 0 -27.224 512 512" xml:space="preserve">
<path fill="#EB5777" d="M512,345.277v73.555c0,5.691-4.613,10.305-10.301,10.305H322.242v-83.859
	c0-24.844,20.141-44.988,44.988-44.988h99.781C491.859,300.289,512,320.434,512,345.277z"/>
<path fill="#CE3F63" d="M393.313,347.121v82.016h-71.07v-83.859c0-24.848,20.141-44.988,44.988-44.988h8.609
	C386.73,312.859,393.313,329.238,393.313,347.121z"/>
<path fill="#E39F6E" d="M418.195,325.621c-8.469,0-15.336-6.867-15.336-15.336v-43.02h30.672v43.02
	C433.531,318.754,426.664,325.621,418.195,325.621z"/>
<path fill="#BA6F3C" d="M337.063,207.273h162.266l4.281-20.875c11.086-54.07-30.223-104.699-85.414-104.699
	s-96.496,50.629-85.41,104.699L337.063,207.273z"/>
<path fill="#E39F6E" d="M508.379,215.441c0,11.406-9.242,20.648-20.648,20.648c-11.402,0-20.645-9.242-20.645-20.648
	c0-11.402,9.242-20.645,20.645-20.645C499.137,194.797,508.379,204.039,508.379,215.441z"/>
<path fill="#E39F6E" d="M369.305,215.445c0,11.402-9.238,20.648-20.648,20.648c-11.402,0-20.648-9.246-20.648-20.648
	c0-1.742,0.211-3.441,0.633-5.059c2.25-8.949,10.355-15.59,20.016-15.59c9.785,0,17.977,6.809,20.102,15.941
	C369.113,212.246,369.305,213.828,369.305,215.445z"/>
<path fill="#D88852" d="M368.758,210.738c-5.828,3.348-12.574,5.254-19.766,5.254c-7.43,0-14.387-2.047-20.352-5.605
	c2.25-8.949,10.355-15.59,20.016-15.59C358.441,194.797,366.633,201.605,368.758,210.738z"/>
<path fill="#F8C298" d="M353.211,157.691l7.078,56.668l2.684,21.492c3.48,27.848,27.16,48.75,55.219,48.75
	c28.07,0,51.75-20.902,55.223-48.75l9.762-78.16L353.211,157.691L353.211,157.691z"/>
<path fill="#E39F6E" d="M388.855,176.133c0,18.063-12.078,33.348-28.566,38.227l-7.59-60.746h29.18
	C386.281,160.031,388.855,167.781,388.855,176.133z"/>
<path fill="#AA5B26" d="M387.969,221.988c-4.172,0-7.605-3.324-7.719-7.516l-0.09-3.273c-0.117-4.266,3.246-7.816,7.512-7.934
	c4.27-0.133,7.816,3.246,7.934,7.512l0.09,3.273c0.117,4.266-3.246,7.816-7.512,7.934
	C388.109,221.984,388.039,221.988,387.969,221.988z"/>
<path fill="#AA5B26" d="M448.508,221.988c-4.172,0-7.605-3.324-7.723-7.516l-0.09-3.273c-0.117-4.266,3.246-7.816,7.516-7.934
	c4.27-0.133,7.816,3.246,7.934,7.512l0.09,3.273c0.117,4.266-3.246,7.816-7.512,7.934
	C448.648,221.984,448.578,221.988,448.508,221.988z"/>
<path fill="#E39F6E" d="M418.195,250.992c-9.727,0-18.941-4.711-24.656-12.602c-2.504-3.457-1.73-8.285,1.727-10.789
	s8.285-1.73,10.789,1.727c2.816,3.891,7.355,6.211,12.141,6.211s9.328-2.32,12.145-6.211c2.504-3.457,7.332-4.23,10.789-1.727
	s4.23,7.332,1.727,10.789C437.141,246.281,427.922,250.992,418.195,250.992z"/>
<path d="M358.887,436.859c-4.27,0-7.727-3.457-7.727-7.723v-70.234c0-4.266,3.457-7.727,7.727-7.727
	c4.266,0,7.723,3.461,7.723,7.727v70.234C366.613,433.402,363.152,436.859,358.887,436.859z"/>
<path fill="#CE3F63" d="M483.074,358.898v70.238h-15.453v-70.238c0-4.266,3.461-7.727,7.727-7.727
	C479.621,351.172,483.074,354.633,483.074,358.898z"/>
<path fill="#BA6F3C" d="M341.066,159.297c0,0,13.855,13.742,51.164,14.738c2.359,0.063,4.293-1.836,4.293-4.195v-5.535
	c0,0,13.566,8.898,42.313,9.727c2.359,0.066,4.293-1.836,4.293-4.195v-3.141c0,0,11.18,6.824,44.684,7.363
	c2.34,0.035,4.254-1.859,4.254-4.195v-20.371c0-2.668-2.164-4.828-4.828-4.828h-131.54
	C347.617,144.664,341.066,151.215,341.066,159.297z"/>
<path fill="#AA5B26" d="M392.301,181.762c-0.105,0-0.211-0.004-0.316-0.004c-24.301-0.652-39.602-6.457-48.156-11.211
	c-3.73-2.074-5.07-6.777-3-10.508c2.074-3.73,6.777-5.07,10.508-3c5.449,3.027,17.359,8.074,37.461,9.129v-1.863
	c0-2.84,1.559-5.453,4.059-6.801c2.496-1.352,5.535-1.219,7.906,0.34c0.063,0.039,11.352,7,34.66,8.309
	c0.168-2.645,1.578-5.098,3.93-6.355c2.492-1.332,5.379-1.281,7.738,0.258c0.922,0.473,11.223,5.445,37.863,6.211
	c4.266,0.121,7.625,3.676,7.504,7.945c-0.125,4.262-3.688,7.617-7.945,7.5c-17.457-0.5-28.953-2.703-36.027-4.742
	c-0.375,0.496-0.789,0.969-1.242,1.41c-2.301,2.234-5.465,3.457-8.672,3.371c-16.254-0.469-28.133-3.434-35.789-6.164
	c-0.563,1.016-1.277,1.953-2.133,2.785C398.426,180.535,395.398,181.762,392.301,181.762z"/>
<path fill="#4FCEB7" d="M189.758,345.277v83.859H10.301C4.613,429.137,0,424.523,0,418.832v-73.555
	c0-24.844,20.141-44.988,44.988-44.988h99.781C169.617,300.289,189.758,320.434,189.758,345.277z"/>
<path fill="#3DB4A0" d="M189.758,345.277v83.859h-71.07V347.12c0-17.883,6.582-34.262,17.473-46.832h8.609
	C169.617,300.289,189.758,320.43,189.758,345.277z"/>
<path fill="#E39F6E" d="M95.961,325.621c-8.473,0-15.336-6.867-15.336-15.336v-43.02h30.672v43.02
	C111.297,318.754,104.43,325.621,95.961,325.621z"/>
<path fill="#BA6F3C" d="M14.824,207.273h162.27l4.281-20.875c11.082-54.07-30.223-104.699-85.414-104.699
	s-96.496,50.629-85.414,104.699L14.824,207.273z"/>
<path fill="#E39F6E" d="M186.145,215.445c0,11.402-9.246,20.648-20.648,20.648c-11.398,0-20.648-9.246-20.648-20.648
	c0-1.742,0.211-3.441,0.633-5.059c2.25-8.949,10.355-15.59,20.016-15.59c9.785,0,17.988,6.809,20.102,15.949
	C185.957,212.258,186.145,213.828,186.145,215.445z"/>
<path fill="#D88852" d="M185.598,210.746c-5.828,3.336-12.574,5.246-19.754,5.246c-7.43,0-14.398-2.047-20.363-5.605
	c2.25-8.949,10.355-15.59,20.016-15.59C175.285,194.797,183.484,201.605,185.598,210.746z"/>
<path fill="#E39F6E" d="M47.07,215.441c0,11.406-9.242,20.648-20.645,20.648c-11.406,0-20.648-9.242-20.648-20.648
	c0-11.402,9.242-20.645,20.648-20.645C37.828,194.797,47.07,204.039,47.07,215.441z"/>
<path fill="#F8C298" d="M30.977,157.691l9.762,78.16c3.484,27.848,27.152,48.75,55.223,48.75s51.738-20.902,55.223-48.75
	l2.711-21.684l7.051-56.477L30.977,157.691L30.977,157.691z"/>
<path fill="#E39F6E" d="M130.523,157.691c-2.895,5.523-4.539,11.789-4.539,18.441c0,17.82,11.75,32.945,27.91,38.035l7.051-56.473
	h-30.422V157.691z"/>
<path fill="#AA5B26" d="M65.73,221.988c-4.168,0-7.602-3.324-7.719-7.516l-0.09-3.273c-0.117-4.266,3.246-7.816,7.512-7.934
	c4.285-0.133,7.82,3.246,7.938,7.512l0.09,3.273c0.117,4.266-3.246,7.816-7.512,7.934C65.875,221.984,65.805,221.988,65.73,221.988z
	"/>
<path fill="#AA5B26" d="M126.27,221.988c-4.168,0-7.605-3.324-7.719-7.516l-0.09-3.273c-0.117-4.266,3.246-7.816,7.512-7.934
	c4.285-0.133,7.816,3.246,7.934,7.512l0.09,3.273c0.117,4.266-3.242,7.816-7.512,7.934
	C126.414,221.984,126.34,221.988,126.27,221.988z"/>
<path fill="#E39F6E" d="M95.961,250.992c-9.727,0-18.945-4.711-24.66-12.602c-2.504-3.457-1.73-8.285,1.727-10.789
	s8.285-1.73,10.789,1.727c2.816,3.891,7.359,6.211,12.145,6.211s9.324-2.32,12.141-6.211c2.504-3.457,7.332-4.23,10.789-1.727
	s4.23,7.332,1.727,10.789C114.902,246.281,105.688,250.992,95.961,250.992z"/>
<path fill="#3DB4A0" d="M44.379,358.898v70.238H28.93v-70.238c0-4.266,3.449-7.727,7.723-7.727
	C40.918,351.172,44.379,354.633,44.379,358.898z"/>
<path d="M153.113,436.859c-4.266,0-7.723-3.457-7.723-7.723v-70.234c0-4.266,3.457-7.727,7.723-7.727
	c4.27,0,7.727,3.461,7.727,7.727v70.234C160.84,433.402,157.383,436.859,153.113,436.859z"/>
<path fill="#BA6F3C" d="M18.828,159.297c0,0,13.855,13.742,51.164,14.738c2.359,0.063,4.297-1.836,4.297-4.195v-5.535
	c0,0,13.566,8.898,42.309,9.727c2.363,0.066,4.297-1.836,4.297-4.195v-3.141c0,0,11.18,6.824,44.684,7.363
	c2.336,0.035,4.25-1.859,4.25-4.195v-20.371c0-2.668-2.16-4.828-4.824-4.828H33.465C25.383,144.664,18.828,151.215,18.828,159.297z"
	/>
<path fill="#AA5B26" d="M165.555,181.781c-0.043,0-0.082,0-0.125,0c-19.242-0.309-31.691-2.652-39.184-4.809
	c-0.371,0.496-0.785,0.965-1.238,1.406c-2.301,2.234-5.465,3.461-8.672,3.371c-16.254-0.469-28.137-3.434-35.789-6.164
	c-0.563,1.016-1.277,1.953-2.137,2.789c-2.297,2.234-5.461,3.477-8.66,3.383c-21.637-0.582-35.996-5.328-44.234-9.207
	c-3.863-1.82-5.52-6.422-3.699-10.285c1.816-3.859,6.422-5.512,10.281-3.695c6.453,3.039,17.547,6.715,34.465,7.598v-1.863
	c0-2.84,1.559-5.453,4.059-6.801c2.496-1.352,5.535-1.219,7.906,0.34c0.066,0.039,11.355,7,34.66,8.309
	c0.168-2.645,1.578-5.098,3.93-6.355c2.492-1.332,5.379-1.281,7.734,0.258c0.957,0.492,11.984,5.809,40.828,6.277
	c4.266,0.066,7.668,3.582,7.602,7.852C173.211,178.406,169.766,181.781,165.555,181.781z"/>
<path fill="#A9D2F7" d="M380.949,347.121v100.125c0,5.688-4.609,10.301-10.301,10.301H141.352c-5.691,0-10.301-4.613-10.301-10.301
	V347.121c0-32.727,26.523-59.254,59.246-59.254h131.406C354.426,287.867,380.949,314.395,380.949,347.121z"/>
<path fill="#5F9EEB" d="M179.313,319.93v15.887c0,3.688,2.988,6.676,6.676,6.676c4.445,0,7.652,4.266,6.41,8.539l-5.371,18.488
	c-0.582,2.008-0.188,4.176,1.063,5.852l25.246,33.828V287.867l-31.676,26.984C180.172,316.117,179.313,317.977,179.313,319.93z"/>
<path fill="#5F9EEB" d="M335.527,319.93v15.887c0,3.688-2.988,6.676-6.676,6.676c-4.449,0-7.652,4.266-6.41,8.539l5.367,18.488
	c0.586,2.008,0.191,4.176-1.059,5.852L301.503,409.2V287.867l31.676,26.984C334.668,316.117,335.527,317.977,335.527,319.93z"/>
<path fill="#627687" d="M213.332,287.867h88.176v169.684h-88.176V287.867z"/>
<path fill="#7FB7EA" d="M380.949,347.109v100.137c0,5.691-4.609,10.301-10.301,10.301h-9.887V347.121
	c0-32.719-26.535-59.254-59.254-59.254h20.199C354.426,287.867,380.949,314.391,380.949,347.109z"/>
<path fill="#F8C298" d="M257.422,321.23c-11.156,0-20.199-9.043-20.199-20.195v-56.656h40.395v56.656
	C277.617,312.188,268.574,321.23,257.422,321.23z"/>
<path fill="#FFCF64" d="M150.57,165.371h213.695l5.637-27.488C384.5,66.68,330.102,0,257.422,0
	C184.734,0,130.34,66.68,144.938,137.883L150.57,165.371z"/>
<path fill="#EFC40F" d="M359,99.992c-4.266,0-7.727,3.461-7.727,7.727v16.578c-6.039-0.105-15.043-0.605-25.391-2.297v15.617
	c11.121,1.672,20.586,2.102,26.664,2.152h0.125c3.73,0,7.242-1.445,9.895-4.074c2.684-2.66,4.16-6.207,4.16-9.988v-17.988
	C366.727,103.453,363.27,99.992,359,99.992z"/>
<path fill="#EFC40F" d="M157.133,99.992c4.266,0,7.723,3.461,7.723,7.727v16.578c6.043-0.105,15.043-0.605,25.395-2.297v15.617
	c-11.121,1.672-20.586,2.102-26.668,2.152c-0.043,0-0.082,0-0.121,0c-3.734,0-7.242-1.445-9.898-4.074
	c-2.68-2.66-4.16-6.207-4.16-9.988v-17.988C149.406,103.453,152.863,99.992,157.133,99.992z"/>
<path fill="#F8C298" d="M376.188,176.133c0,15.02-12.176,27.191-27.195,27.191c-15.016,0-27.191-12.172-27.191-27.191
	c0-15.016,12.176-27.191,27.191-27.191C364.012,148.941,376.188,161.117,376.188,176.133z"/>
<path fill="#F8C298" d="M193.035,176.133c0,15.02-12.172,27.191-27.191,27.191c-15.016,0-27.191-12.172-27.191-27.191
	c0-15.016,12.176-27.191,27.191-27.191C180.863,148.941,193.035,161.117,193.035,176.133z"/>
<path fill="#FFD6C0" d="M176.301,135.785l8.395,67.219c4.582,36.68,35.762,64.207,72.723,64.207
	c36.965,0,68.141-27.527,72.723-64.207l8.395-67.219c2.512-20.094-13.156-37.844-33.406-37.844h-95.418
	C189.461,97.941,173.789,115.691,176.301,135.785z"/>
<path fill="#4FCEB7" d="M217.613,182.305c-4.168,0-7.605-3.324-7.719-7.516l-0.117-4.313c-0.117-4.266,3.246-7.816,7.512-7.934
	c4.234-0.125,7.816,3.246,7.934,7.512l0.117,4.309c0.117,4.27-3.246,7.82-7.512,7.938
	C217.758,182.301,217.684,182.305,217.613,182.305z"/>
<path fill="#4FCEB7" d="M297.336,182.305c-4.168,0-7.605-3.324-7.719-7.516l-0.117-4.313c-0.117-4.266,3.246-7.816,7.512-7.934
	c4.23-0.125,7.816,3.246,7.934,7.512l0.121,4.309c0.117,4.27-3.246,7.82-7.512,7.938
	C297.48,182.301,297.406,182.305,297.336,182.305z"/>
<path fill="#F8C298" d="M257.422,220.504c-12.027,0-23.426-5.828-30.492-15.586c-2.504-3.457-1.73-8.285,1.727-10.789
	c3.457-2.5,8.289-1.73,10.789,1.727c4.168,5.758,10.891,9.195,17.977,9.195s13.805-3.438,17.973-9.195
	c2.5-3.457,7.332-4.23,10.789-1.727s4.227,7.332,1.727,10.789C280.844,214.676,269.445,220.504,257.422,220.504z"/>
<path fill="#7FB7EA" d="M187.039,396.445v61.102h-15.453v-61.102c0-4.262,3.461-7.723,7.727-7.723S187.039,392.184,187.039,396.445z
	"/>
<path fill="#7FB7EA" d="M340.414,396.445v61.102h-15.453v-61.102c0-4.262,3.461-7.723,7.727-7.723S340.414,392.184,340.414,396.445z
	"/>
<path fill="#FFCF64" d="M164.867,86.434v36.402c0,3.52,2.867,6.363,6.391,6.336c16.582-0.145,56.629-3.035,86.813-25.813
	c30.188,22.777,70.234,25.668,86.816,25.813c3.523,0.027,6.387-2.816,6.387-6.336V86.434H164.867z"/>
</svg>
