<?xml version="1.0" encoding="utf-8"?>
<!-- Generator: Adobe Illustrator 17.0.0, SVG Export Plug-In . SVG Version: 6.00 Build 0)  -->
<!DOCTYPE svg PUBLIC "-//W3C//DTD SVG 1.1//EN" "http://www.w3.org/Graphics/SVG/1.1/DTD/svg11.dtd">
<svg version="1.1" id="Layer_1" xmlns="http://www.w3.org/2000/svg" xmlns:xlink="http://www.w3.org/1999/xlink" x="0px" y="0px"
	 width="512px" height="512px" viewBox="0 0 512 512" enable-background="new 0 0 512 512" xml:space="preserve">
<path fill="#69EBFC" d="M0.046,186.026L226.467,10.905c17.405-13.46,41.707-13.46,59.112,0L512,186.026v277.663
	c0,26.677-21.627,48.308-48.308,48.308H48.355c-26.677,0-48.308-21.627-48.308-48.308V186.026z"/>
<path fill="#D476E2" d="M357.046,31.786H154.497c-28.419,0-51.456,23.033-51.456,51.452v150.924
	c0,28.419,23.037,51.452,51.456,51.452h8.777v54.245c0,8.562,10.347,12.846,16.401,6.796l61.037-61.041h116.333
	c28.419,0,51.452-23.033,51.452-51.452V83.239C408.498,54.819,385.465,31.786,357.046,31.786z"/>
<path fill="#EA82FA" d="M154.497,31.786h202.548c28.419,0,51.452,23.033,51.452,51.452v16.784c0-28.419-23.033-51.456-51.452-51.456
	H154.497c-28.419,0-51.456,23.037-51.456,51.456V83.239C103.041,54.819,126.078,31.786,154.497,31.786z"/>
<g>
	<path fill="#FFEFE4" d="M297.848,120.919H159.04c-6.476,0-11.726-5.25-11.726-11.726c0-6.476,5.25-11.726,11.726-11.726h138.808
		c6.476,0,11.725,5.25,11.725,11.726C309.573,115.669,304.324,120.919,297.848,120.919z"/>
	<path fill="#FFEFE4" d="M329.072,222.421H160.266c-6.476,0-11.726-5.25-11.726-11.726s5.25-11.726,11.726-11.726h168.805
		c6.476,0,11.725,5.25,11.725,11.726S335.548,222.421,329.072,222.421z"/>
	<path fill="#FFEFE4" d="M352.503,148.217H159.04c-6.476,0-11.726,5.25-11.726,11.726s5.25,11.726,11.726,11.726h193.459
		c6.476,0,11.725-5.25,11.725-11.726C364.229,153.467,358.979,148.217,352.503,148.217z"/>
	<path fill="#FFEFE4" d="M512,185.936v277.752c0,26.681-21.627,48.312-48.308,48.312h-308L512,185.936z"/>
</g>
<path fill="#EDD4C2" d="M188.475,482h178.804l-89.402-81.813L188.475,482z"/>
<path fill="#FFEFE4" d="M0.046,185.936v277.752c0,26.681,21.627,48.312,48.308,48.312H356.35L0.046,185.936z"/>
<path fill="#EDD4C2" d="M463.692,482H48.355c-26.677,0-48.308-21.627-48.308-48.308v29.997c0,26.677,21.627,48.308,48.308,48.308
	h415.338c26.677,0,48.308-21.627,48.308-48.308v-29.997C512,460.373,490.373,482,463.692,482z"/>
<path fill="#FF8354" d="M458.033,49.531c0,27.357-22.178,49.531-49.535,49.531c-27.353,0-49.531-22.174-49.531-49.531
	C358.967,22.178,381.145,0,408.498,0C435.855,0,458.033,22.178,458.033,49.531z"/>
<path fill="#FFAC8C" d="M408.498,9.999c25.67,0,46.773,19.526,49.285,44.531c0.164-1.644,0.25-3.312,0.25-5
	C458.033,22.178,435.855,0,408.498,0c-27.353,0-49.531,22.178-49.531,49.531c0,1.687,0.086,3.355,0.25,5
	C361.725,29.525,382.832,9.999,408.498,9.999z"/>
<path fill="#FFEFE4" d="M407.096,73.642V33.364l-5.562,2.347c-2.683,1.129-5.773-0.113-6.929-2.781
	c-1.137-2.633,0.023-5.691,2.621-6.906l11.28-5.277c0.887-0.414,1.847-0.629,2.824-0.629h0.371c3.679,0,6.663,2.984,6.663,6.663
	v46.859c0,2.929-2.375,5.304-5.304,5.304h-0.664C409.471,78.946,407.096,76.571,407.096,73.642z"/>
</svg>
