<?xml version="1.0" encoding="utf-8"?>
<!-- Generator: Adobe Illustrator 17.0.0, SVG Export Plug-In . SVG Version: 6.00 Build 0)  -->
<!DOCTYPE svg PUBLIC "-//W3C//DTD SVG 1.1//EN" "http://www.w3.org/Graphics/SVG/1.1/DTD/svg11.dtd">
<svg version="1.1" id="Capa_1" xmlns="http://www.w3.org/2000/svg" xmlns:xlink="http://www.w3.org/1999/xlink" x="0px" y="0px"
	 width="512px" height="512px" viewBox="0 -43.25 512 512" enable-background="new 0 -43.25 512 512" xml:space="preserve">
<g>
	<path fill="#FFF7CC" d="M481,317.5v60l-208,15h-17h-16l-209-15v-60c0-8.28,6.72-15,15-15h150c24.51,0,46.31,11.82,60,30.05
		c13.69-18.23,35.49-30.05,60-30.05h150C474.28,302.5,481,309.22,481,317.5z"/>
	<path fill="#FFE6B3" d="M481,317.5v60l-208,15h-17v-59.95c13.69-18.23,35.49-30.05,60-30.05h150C474.28,302.5,481,309.22,481,317.5
		z"/>
	<g>
		<g>
			<g>
				<path fill="#613D5C" d="M512,377.5c0,8.28-6.72,15-15,15H355.21c-30.52,0-54.43,6.77-71.06,20.11
					c-7.95,6.38-17.94,9.89-28.15,9.89s-20.2-3.51-28.15-9.89c-16.63-13.34-40.54-20.11-71.06-20.11H15c-8.28,0-15-6.72-15-15
					s6.72-15,15-15h141.79c37.52,0,67.75,8.99,89.83,26.71c1.87,1.5,5.02,3.29,9.38,3.29c4.36,0,7.51-1.79,9.37-3.29
					c22.09-17.72,52.32-26.71,89.84-26.71H497C505.28,362.5,512,369.22,512,377.5z"/>
			</g>
		</g>
	</g>
	<path fill="#4B2746" d="M512,377.5c0,8.28-6.72,15-15,15H355.21c-30.52,0-54.43,6.77-71.06,20.11c-7.95,6.38-17.94,9.89-28.15,9.89
		v-30c4.36,0,7.51-1.79,9.37-3.29c22.09-17.72,52.32-26.71,89.84-26.71H497C505.28,362.5,512,369.22,512,377.5z"/>
	<path fill="#4B2746" d="M361,111.79v85.71c0,5.68-3.21,10.88-8.29,13.42l-66.34,33.16c-7.35,3.68-14.08,8.42-20,14.08
		c-2.9,2.77-6.63,4.16-10.37,4.16s-7.47-1.39-10.37-4.16c-5.92-5.66-12.65-10.4-20-14.08l-66.34-33.16
		c-5.08-2.54-8.29-7.74-8.29-13.42v-85.71c0-8.29,6.72-15,15-15h180C354.28,96.79,361,103.5,361,111.79L361,111.79z"/>
	<path fill="#351B33" d="M361,111.79v85.71c0,5.68-3.21,10.88-8.29,13.42l-66.34,33.16c-7.35,3.68-14.08,8.42-20,14.08
		c-2.9,2.77-6.63,4.16-10.37,4.16V96.79h90C354.28,96.79,361,103.5,361,111.79L361,111.79z"/>
	<g>
		<path fill="#FFD400" d="M406,242.5c-8.284,0-15-6.716-15-15V94.643c0-8.284,6.716-15,15-15s15,6.716,15,15V227.5
			C421,235.784,414.284,242.5,406,242.5z"/>
	</g>
	<g>
		<g>
			<g>
				<g>
					<path fill="#613D5C" d="M470.12,63.08l-210-60C258.78,2.7,257.39,2.5,256,2.5s-2.78,0.2-4.12,0.58l-210,60
						c-14.47,4.13-14.45,24.72,0,28.84l210,60c1.35,0.39,2.74,0.58,4.12,0.58c1.4,0,2.78-0.19,4.12-0.58l210-60
						C484.59,87.79,484.57,67.2,470.12,63.08z"/>
				</g>
			</g>
		</g>
	</g>
	<path fill="#4B2746" d="M470.12,91.92l-210,60c-1.34,0.39-2.72,0.58-4.12,0.58V2.5c1.39,0,2.78,0.2,4.12,0.58l210,60
		C484.57,67.2,484.59,87.79,470.12,91.92z"/>
</g>
</svg>
