<?xml version="1.0" encoding="utf-8"?>
<!-- Generator: Adobe Illustrator 17.0.0, SVG Export Plug-In . SVG Version: 6.00 Build 0)  -->
<!DOCTYPE svg PUBLIC "-//W3C//DTD SVG 1.1//EN" "http://www.w3.org/Graphics/SVG/1.1/DTD/svg11.dtd">
<svg version="1.1" id="Layer_1" xmlns="http://www.w3.org/2000/svg" xmlns:xlink="http://www.w3.org/1999/xlink" x="0px" y="0px"
	 width="512px" height="512px" viewBox="-40 -40 512 512" enable-background="new -40 -40 512 512" xml:space="preserve">
<path fill="#FABE19" d="M433.259,471H150.204c-20.844,0-37.741-16.897-37.741-37.741V-0.759c0-20.844,16.897-37.741,37.741-37.741
	h226.444L471,46.417v386.843C471,454.103,454.103,471,433.259,471z"/>
<path fill="#F5871E" d="M376.648-38.5V8.676c0,20.844,16.897,37.741,37.741,37.741H471L376.648-38.5z"/>
<path fill="#55525B" d="M36.981-38.5c10.422,0,18.87,8.448,18.87,18.87v18.87l0,0H18.111l0,0v-18.87
	C18.111-30.052,26.559-38.5,36.981-38.5z"/>
<path fill="#353744" d="M36.981-38.5c10.422,0,18.87,8.448,18.87,18.87v18.87l0,0h-18.87l0,0V-38.5L36.981-38.5z"/>
<path fill="#D7E6F0" d="M-0.759,36.981h75.481v235.88H-0.759V36.981z"/>
<path fill="#A5C3DC" d="M36.981,36.981h37.741v235.88H36.981V36.981z"/>
<path fill="#55525B" d="M-0.759,272.861h75.481v150.963H-0.759V272.861z"/>
<path fill="#353744" d="M36.981,272.861h37.741v150.963H36.981V272.861z"/>
<path fill="#A5C3DC" d="M46.761,465.766l27.961-41.942H-0.759l27.961,41.942c2.18,3.27,5.85,5.234,9.78,5.234
	S44.582,469.036,46.761,465.766z"/>
<path fill="#353744" d="M46.761,465.766l2.801-4.201H24.401l2.801,4.202c2.181,3.269,5.85,5.233,9.78,5.233
	S44.582,469.036,46.761,465.766z"/>
<path fill="#55525B" d="M-0.759,36.981v-18.87h-18.87c-10.422,0-18.87,8.448-18.87,18.87v112.689
	c0,10.161,7.809,18.903,17.958,19.382c10.411,0.494,19.25-7.545,19.744-17.954c0.494-10.409-7.545-19.25-17.954-19.744
	c-0.292-0.014-0.585-0.021-0.877-0.021V36.981H-0.759z"/>
<path fill="#55525B" d="M18.111-0.759h37.741c10.422,0,18.87,8.448,18.87,18.87v18.87l0,0H-0.759l0,0v-18.87
	C-0.759,7.689,7.689-0.759,18.111-0.759z"/>
<path fill="#353744" d="M36.981-0.759h18.87c10.422,0,18.87,8.448,18.87,18.87v18.87l0,0H36.981l0,0V-0.759L36.981-0.759z"/>
<path fill="#6478B9" d="M222.54,18.111c-18.23,0.021-33.002,14.793-33.023,33.023v51.894c0,5.211,4.225,9.435,9.435,9.435
	c5.211,0,9.435-4.225,9.435-9.435V74.722h28.306v28.306c0,5.211,4.225,9.435,9.435,9.435c5.211,0,9.435-4.225,9.435-9.435V51.134
	C255.542,32.904,240.77,18.132,222.54,18.111z M208.387,55.852v-4.718c0-7.816,6.337-14.153,14.153-14.153
	s14.153,6.337,14.153,14.153v4.718H208.387z"/>
<path fill="#6478B9" d="M220.968-19.63c-49.504,0-89.634,40.13-89.634,89.634s40.13,89.634,89.634,89.634
	s89.634-40.13,89.634-89.634C310.546,20.524,270.448-19.574,220.968-19.63z M220.968,140.769c-39.082,0-70.764-31.682-70.764-70.764
	s31.682-70.764,70.764-70.764s70.764,31.682,70.764,70.764C291.688,109.069,260.032,140.725,220.968,140.769z"/>
<g>
	<path fill="#F5871E" d="M169.074,197.38h141.528c10.422,0,18.87,8.448,18.87,18.87l0,0c0,10.422-8.448,18.87-18.87,18.87H169.074
		c-10.422,0-18.87-8.448-18.87-18.87l0,0C150.204,205.828,158.652,197.38,169.074,197.38z"/>
	<path fill="#F5871E" d="M169.074,291.731h141.528c10.422,0,18.87,8.448,18.87,18.87l0,0c0,10.422-8.448,18.87-18.87,18.87H169.074
		c-10.422,0-18.87-8.448-18.87-18.87l0,0C150.204,300.18,158.652,291.731,169.074,291.731z"/>
	<path fill="#F5871E" d="M169.074,386.083h141.528c10.422,0,18.87,8.448,18.87,18.87l0,0c0,10.422-8.448,18.87-18.87,18.87H169.074
		c-10.422,0-18.87-8.448-18.87-18.87l0,0C150.204,394.531,158.652,386.083,169.074,386.083z"/>
</g>
<path fill="#6478B9" d="M386.083,242.983h-0.129c-3.798-0.034-7.423-1.595-10.059-4.328l-18.528-19.214
	c-5.425-5.627-5.262-14.587,0.364-20.012s14.587-5.262,20.012,0.364l0,0l8.522,8.838l27.551-27.55
	c5.513-5.541,14.474-5.564,20.016-0.052c5.541,5.513,5.564,14.474,0.052,20.016c-0.018,0.018-0.035,0.035-0.052,0.052
	l-37.741,37.741C393.437,241.493,389.836,242.983,386.083,242.983L386.083,242.983z"/>
<path fill="#6478B9" d="M386.083,340.48h-0.129c-3.799-0.034-7.423-1.595-10.06-4.328l-18.527-19.214
	c-5.426-5.627-5.262-14.587,0.364-20.013c5.627-5.426,14.587-5.262,20.013,0.364l0,0l8.522,8.845l27.55-27.55
	c5.542-5.513,14.503-5.489,20.014,0.053c5.492,5.521,5.491,14.442,0,19.962l-37.741,37.741
	C393.436,338.992,389.836,340.481,386.083,340.48L386.083,340.48z"/>
<path fill="#6478B9" d="M386.083,428.542h-0.129c-3.798-0.035-7.422-1.595-10.059-4.328L357.367,405
	c-5.426-5.627-5.262-14.587,0.364-20.013s14.587-5.262,20.013,0.364l0,0l8.522,8.845l27.551-27.55
	c5.571-5.482,14.533-5.409,20.014,0.163c5.419,5.508,5.419,14.344,0,19.852l-37.741,37.741
	C393.436,427.054,389.836,428.543,386.083,428.542L386.083,428.542z"/>
</svg>
