<?xml version="1.0" encoding="utf-8"?>
<!-- Generator: Adobe Illustrator 17.0.0, SVG Export Plug-In . SVG Version: 6.00 Build 0)  -->
<!DOCTYPE svg PUBLIC "-//W3C//DTD SVG 1.1//EN" "http://www.w3.org/Graphics/SVG/1.1/DTD/svg11.dtd">
<svg version="1.1" id="Capa_1" xmlns="http://www.w3.org/2000/svg" xmlns:xlink="http://www.w3.org/1999/xlink" x="0px" y="0px"
	 width="512px" height="512px" viewBox="-61.5 0 512 512" enable-background="new -61.5 0 512 512" xml:space="preserve">
<g>
	<path fill="#BDBDBD" d="M375.055,512H78.691c-8.53,0-15.445-6.915-15.445-15.445V103.01c0-8.53,6.915-15.445,15.445-15.445h296.365
		c8.53,0,15.445,6.915,15.445,15.445v393.545C390.5,505.085,383.585,512,375.055,512L375.055,512z"/>
	<path fill="#D4D4D4" d="M344.182,468.217H47.818c-8.53,0-15.445-6.915-15.445-15.445V59.227c0-8.53,6.915-15.445,15.445-15.445
		h296.365c8.53,0,15.445,6.915,15.445,15.445v393.545C359.627,461.303,352.712,468.217,344.182,468.217L344.182,468.217z"/>
	<path fill="#F5F5F5" d="M313.309,424.435H16.945c-8.53,0-15.445-6.915-15.445-15.445V15.445C1.5,6.915,8.415,0,16.945,0H313.31
		c8.53,0,15.445,6.915,15.445,15.445V408.99C328.754,417.52,321.839,424.435,313.309,424.435L313.309,424.435z"/>
	<path fill="#E6E6E6" d="M297.881,0v424.435h15.437c8.525,0,15.436-6.918,15.436-15.453V15.453C328.754,6.918,321.843,0,313.317,0
		H297.881z"/>
	<path fill="#FF3D7A" d="M109.98,344.127H56.41c-2.276,0-4.121-1.845-4.121-4.121v-53.569c0-2.276,1.845-4.121,4.121-4.121h53.569
		c2.276,0,4.121,1.845,4.121,4.121v53.569C114.101,342.282,112.256,344.127,109.98,344.127L109.98,344.127z"/>
	<path fill="#7488ED" d="M152.582,302.194h124.196c4.142,0,7.5-3.358,7.5-7.5s-3.358-7.5-7.5-7.5H152.582
		c-4.142,0-7.5,3.358-7.5,7.5S148.439,302.194,152.582,302.194L152.582,302.194z"/>
	<path fill="#7488ED" d="M276.778,319.235H152.582c-4.142,0-7.5,3.358-7.5,7.5s3.358,7.5,7.5,7.5h124.196c4.142,0,7.5-3.358,7.5-7.5
		S280.92,319.235,276.778,319.235z"/>
	<circle fill="#D47F6C" cx="165.095" cy="89.111" r="37.087"/>
	<path fill="#A65D4E" d="M165.095,52.024c-5.517,0-10.747,1.214-15.453,3.374c12.765,5.861,21.634,18.747,21.634,33.712
		s-8.869,27.852-21.634,33.712c4.705,2.16,9.936,3.374,15.453,3.374c20.482,0,37.087-16.604,37.087-37.087
		S185.577,52.024,165.095,52.024L165.095,52.024z"/>
	<path fill="#8C9EFF" d="M198.06,229.215h-65.932c-13.655,0-24.724-11.069-24.724-24.724v-35.026
		c0-23.896,19.372-43.268,43.268-43.268h28.845c23.896,0,43.268,19.372,43.268,43.268v35.026
		C222.785,218.146,211.715,229.215,198.06,229.215z"/>
	<path fill="#7488ED" d="M179.517,126.197h-28.845c-0.346,0-0.687,0.018-1.03,0.026c23.419,0.549,42.237,19.691,42.237,43.242
		v35.026c0,13.655-11.069,24.724-24.724,24.724h30.905c13.655,0,24.724-11.069,24.724-24.724v-35.026
		C222.785,145.569,203.413,126.197,179.517,126.197z"/>
	<path fill="#FFB300" d="M175.09,153.579H155.1l-5.458-27.382h30.905L175.09,153.579z"/>
	<path fill="#FFCA28" d="M184.256,199.981l-18.293,8.81c-0.548,0.264-1.187,0.264-1.736,0l-18.293-8.81
		c-0.843-0.406-1.292-1.342-1.08-2.254l10.247-44.148h19.99l10.247,44.148C185.548,198.638,185.099,199.575,184.256,199.981z"/>
</g>
</svg>
