<?xml version="1.0" encoding="utf-8"?>
<!-- Generator: Adobe Illustrator 17.0.0, SVG Export Plug-In . SVG Version: 6.00 Build 0)  -->
<!DOCTYPE svg PUBLIC "-//W3C//DTD SVG 1.1//EN" "http://www.w3.org/Graphics/SVG/1.1/DTD/svg11.dtd">
<svg version="1.1" id="Capa_1" xmlns="http://www.w3.org/2000/svg" xmlns:xlink="http://www.w3.org/1999/xlink" x="0px" y="0px"
	 width="512px" height="512px" viewBox="209.95 256 512 512" enable-background="new 209.95 256 512 512" xml:space="preserve">
<linearGradient id="SVGID_1_" gradientUnits="userSpaceOnUse" x1="7.5232" y1="478.3495" x2="6.1819" y2="439.0255" gradientTransform="matrix(2.0078 0 0 -2.0078 457.7858 1266.1234)">
	<stop  offset="0" style="stop-color:#FFB92D"/>
	<stop  offset="1" style="stop-color:#F59500"/>
</linearGradient>
<path fill="url(#SVGID_1_)" d="M658.648,725.078H272.051c-20.604,0-37.308-16.703-37.308-37.308V365.857
	c0-20.604,16.703-37.308,37.308-37.308h386.597c20.604,0,37.308,16.703,37.308,37.308V687.77
	C695.955,708.374,679.252,725.078,658.648,725.078z"/>
<linearGradient id="SVGID_2_" gradientUnits="userSpaceOnUse" x1="13.9533" y1="452.2394" x2="10.3009" y2="422.1138" gradientTransform="matrix(2.0078 0 0 -2.0078 457.7858 1266.1234)">
	<stop  offset="0" style="stop-color:#FFB92D"/>
	<stop  offset="1" style="stop-color:#F59500"/>
</linearGradient>
<path fill="url(#SVGID_2_)" d="M650.026,716.235H280.672c-19.686,0-35.645-15.959-35.645-35.645V373.035
	c0-19.686,15.958-35.645,35.645-35.645h369.353c19.686,0,35.645,15.958,35.645,35.645v307.556
	C685.671,700.277,669.712,716.235,650.026,716.235z"/>
<linearGradient id="SVGID_3_" gradientUnits="userSpaceOnUse" x1="2.3723" y1="451.349" x2="2.3723" y2="428.3997" gradientTransform="matrix(2.0078 0 0 -2.0078 457.7858 1266.1234)">
	<stop  offset="0" style="stop-color:#A7F3CE"/>
	<stop  offset="1" style="stop-color:#61DB99"/>
</linearGradient>
<path fill="url(#SVGID_3_)" d="M670.958,432.676l-92.99-161.062c-6.193-10.729-19.913-14.405-30.642-8.21L254.139,432.676H670.958z"
	/>
<linearGradient id="SVGID_4_" gradientUnits="userSpaceOnUse" x1="3.7669" y1="411.622" x2="3.7669" y2="347.2235" gradientTransform="matrix(2.0078 0 0 -2.0078 457.7858 1266.1234)">
	<stop  offset="0" style="stop-color:#FF4C54"/>
	<stop  offset="1" style="stop-color:#BE3F45"/>
</linearGradient>
<path fill="url(#SVGID_4_)" d="M234.743,562.303h461.213V440.146c0-15.419-12.499-27.917-27.917-27.917H262.66
	c-15.419,0-27.917,12.499-27.917,27.917V562.303z"/>
<linearGradient id="SVGID_5_" gradientUnits="userSpaceOnUse" x1="3.7669" y1="363.8032" x2="3.7669" y2="264.3448" gradientTransform="matrix(2.0078 0 0 -2.0078 457.7858 1266.1234)">
	<stop  offset="0" style="stop-color:#FF4C54"/>
	<stop  offset="1" style="stop-color:#BE3F45"/>
</linearGradient>
<path fill="url(#SVGID_5_)" d="M234.743,516.361V687.77c0,20.604,16.703,37.309,37.309,37.309h386.596
	c20.604,0,37.308-16.703,37.308-37.308v-171.41c0-12.726-10.317-23.043-23.043-23.043H257.786
	C245.06,493.317,234.743,503.633,234.743,516.361z"/>
<linearGradient id="SVGID_6_" gradientUnits="userSpaceOnUse" x1="105.5538" y1="343.4645" x2="88.7959" y2="343.4645" gradientTransform="matrix(2.0078 0 0 -2.0078 457.7858 1266.1234)">
	<stop  offset="0" style="stop-color:#BE3F45;stop-opacity:0"/>
	<stop  offset="1" style="stop-color:#BE3F45"/>
</linearGradient>
<path fill="url(#SVGID_6_)" d="M626.374,427.951V725.08h32.273c20.604,0,37.308-16.703,37.308-37.308v-190.24L626.374,427.951z"/>
<linearGradient id="SVGID_7_" gradientUnits="userSpaceOnUse" x1="-44.3185" y1="360.6689" x2="40.9308" y2="321.3448" gradientTransform="matrix(2.0078 0 0 -2.0078 457.7858 1266.1234)">
	<stop  offset="0" style="stop-color:#FFB92D"/>
	<stop  offset="1" style="stop-color:#F59500"/>
</linearGradient>
<path fill="url(#SVGID_7_)" d="M594.915,766.909l-323.761-37.602c-20.755-2.411-36.411-19.99-36.411-40.884V363.075
	c0,6.992,5.239,12.874,12.183,13.68l357.485,41.52c20.755,2.411,36.411,19.99,36.411,40.884v266.867
	C640.822,750.638,619.363,769.75,594.915,766.909z"/>
<linearGradient id="SVGID_8_" gradientUnits="userSpaceOnUse" x1="-12.6786" y1="273.1094" x2="-16.2025" y2="246.176" gradientTransform="matrix(2.0078 0 0 -2.0078 457.7858 1266.1234)">
	<stop  offset="0" style="stop-color:#BE3F45;stop-opacity:0"/>
	<stop  offset="1" style="stop-color:#BE3F45"/>
</linearGradient>
<path fill="url(#SVGID_8_)" d="M594.915,701.923l-323.761-37.602c-20.755-2.411-36.411-19.99-36.411-40.884v64.986
	c0,20.894,15.656,38.474,36.411,40.884l323.761,37.602c24.448,2.84,45.907-16.271,45.907-40.884v-64.987
	C640.822,685.652,619.363,704.762,594.915,701.923z"/>
<linearGradient id="SVGID_9_" gradientUnits="userSpaceOnUse" x1="-100.3252" y1="432.7489" x2="-100.3252" y2="260.513" gradientTransform="matrix(2.0078 0 0 -2.0078 457.7858 1266.1234)">
	<stop  offset="0" style="stop-color:#FFF465"/>
	<stop  offset="1" style="stop-color:#FFE600"/>
</linearGradient>
<path fill="url(#SVGID_9_)" d="M263.77,413.785c-0.271,0-0.546-0.016-0.823-0.046l-14.816-1.629
	c-4.092-0.45-7.045-4.131-6.594-8.222c0.45-4.091,4.134-7.041,8.222-6.594l14.816,1.629c4.092,0.45,7.045,4.131,6.594,8.222
	C270.749,410.961,267.52,413.785,263.77,413.785z"/>
<linearGradient id="SVGID_10_" gradientUnits="userSpaceOnUse" x1="-1.3146" y1="432.7401" x2="-1.3146" y2="260.8656" gradientTransform="matrix(2.0078 0 0 -2.0078 457.7858 1266.1234)">
	<stop  offset="0" style="stop-color:#FFF465"/>
	<stop  offset="1" style="stop-color:#FFE600"/>
</linearGradient>
<path fill="url(#SVGID_10_)" d="M568.208,742.355c-0.313,0-0.632-0.021-0.95-0.06l-28.795-3.661
	c-4.082-0.519-6.972-4.25-6.453-8.334c0.52-4.082,4.25-6.956,8.334-6.453l28.795,3.661c4.082,0.519,6.973,4.25,6.453,8.334
	C575.112,739.606,571.905,742.355,568.208,742.355z M596.55,738.666c-2.795,0-5.477-1.581-6.747-4.279
	c-1.755-3.723-0.158-8.164,3.565-9.917c7.561-3.563,13.248-9.473,15.603-16.215c1.357-3.884,5.609-5.933,9.493-4.579
	c3.885,1.357,5.936,5.607,4.579,9.493c-3.719,10.649-12.001,19.451-23.322,24.784C598.695,738.437,597.615,738.666,596.55,738.666z
	 M510.618,735.033c-0.313,0-0.632-0.021-0.95-0.06l-28.795-3.661c-4.082-0.519-6.973-4.25-6.453-8.334
	c0.52-4.082,4.25-6.957,8.334-6.453l28.795,3.661c4.082,0.519,6.973,4.25,6.453,8.334
	C517.522,732.282,514.313,735.033,510.618,735.033z M453.029,727.709c-0.313,0-0.631-0.021-0.95-0.06l-28.795-3.661
	c-4.082-0.519-6.973-4.25-6.453-8.334c0.52-4.082,4.251-6.97,8.334-6.453l28.795,3.661c4.082,0.519,6.973,4.25,6.453,8.334
	C459.933,724.958,456.724,727.709,453.029,727.709z M395.437,720.385c-0.313,0-0.631-0.021-0.95-0.06l-28.796-3.662
	c-4.083-0.52-6.973-4.25-6.453-8.334c0.52-4.083,4.252-6.958,8.334-6.453l28.796,3.662c4.083,0.52,6.973,4.25,6.453,8.334
	C402.343,717.636,399.134,720.385,395.437,720.385z M337.848,713.061c-0.313,0-0.631-0.021-0.95-0.06l-28.796-3.662
	c-4.083-0.52-6.973-4.25-6.453-8.334c0.52-4.083,4.252-6.959,8.334-6.453l28.796,3.662c4.083,0.52,6.973,4.25,6.453,8.334
	C344.753,710.313,341.545,713.061,337.848,713.061z M617.68,689.33c-4.117,0-7.452-3.336-7.452-7.452v-29.027
	c0-4.117,3.336-7.452,7.452-7.452c4.117,0,7.452,3.336,7.452,7.452v29.027C625.134,685.994,621.798,689.33,617.68,689.33z
	 M617.68,631.277c-4.117,0-7.452-3.336-7.452-7.452v-29.027c0-4.117,3.336-7.452,7.452-7.452c4.117,0,7.452,3.336,7.452,7.452
	v29.027C625.134,627.941,621.798,631.277,617.68,631.277z M617.68,573.224c-4.117,0-7.452-3.336-7.452-7.452v-29.027
	c0-4.117,3.336-7.452,7.452-7.452c4.117,0,7.452,3.336,7.452,7.452v29.027C625.134,569.887,621.798,573.224,617.68,573.224z
	 M617.68,515.17c-4.117,0-7.452-3.336-7.452-7.452v-29.027c0-4.117,3.336-7.452,7.452-7.452c4.117,0,7.452,3.336,7.452,7.452v29.027
	C625.134,511.833,621.798,515.17,617.68,515.17z M607.257,460.091c-1.84,0-3.684-0.678-5.124-2.043
	c-5.524-5.234-13.191-8.569-21.589-9.392l-0.197-0.021c-4.093-0.44-7.054-4.116-6.612-8.208c0.44-4.093,4.115-7.055,8.208-6.612
	l0.127,0.014c11.608,1.137,22.399,5.898,30.317,13.398c2.988,2.831,3.115,7.548,0.284,10.537
	C611.203,459.31,609.232,460.091,607.257,460.091z M552.299,445.507c-0.271,0-0.546-0.016-0.823-0.046l-28.853-3.172
	c-4.091-0.45-7.045-4.131-6.594-8.222s4.134-7.036,8.222-6.594l28.853,3.172c4.091,0.45,7.045,4.131,6.594,8.222
	C559.279,442.682,556.049,445.507,552.299,445.507z M494.595,439.162c-0.271,0-0.546-0.016-0.823-0.046l-28.854-3.172
	c-4.091-0.45-7.045-4.131-6.594-8.222c0.449-4.092,4.138-7.04,8.222-6.594l28.854,3.172c4.091,0.45,7.045,4.131,6.594,8.222
	C501.574,436.338,498.345,439.162,494.595,439.162z M436.887,432.818c-0.271,0-0.546-0.016-0.823-0.046l-28.853-3.172
	c-4.091-0.45-7.045-4.131-6.594-8.222c0.449-4.091,4.131-7.039,8.222-6.594l28.853,3.172c4.091,0.45,7.045,4.131,6.594,8.222
	C443.868,429.993,440.639,432.818,436.887,432.818z M379.181,426.474c-0.271,0-0.546-0.016-0.823-0.046l-28.853-3.172
	c-4.092-0.45-7.045-4.131-6.594-8.222c0.449-4.09,4.127-7.037,8.222-6.594l28.853,3.172c4.091,0.45,7.045,4.131,6.594,8.222
	C386.162,423.649,382.933,426.474,379.181,426.474z M321.475,420.129c-0.271,0-0.546-0.016-0.823-0.046l-28.853-3.172
	c-4.091-0.45-7.045-4.131-6.594-8.222c0.45-4.09,4.129-7.036,8.222-6.594l28.853,3.172c4.092,0.45,7.045,4.131,6.594,8.222
	C328.455,417.304,325.225,420.129,321.475,420.129z"/>
<linearGradient id="SVGID_11_" gradientUnits="userSpaceOnUse" x1="-92.1411" y1="432.75" x2="-92.1411" y2="260.5191" gradientTransform="matrix(2.0078 0 0 -2.0078 457.7858 1266.1234)">
	<stop  offset="0" style="stop-color:#FFF465"/>
	<stop  offset="1" style="stop-color:#FFE600"/>
</linearGradient>
<path fill="url(#SVGID_11_)" d="M280.188,705.728c-0.313,0-0.63-0.02-0.949-0.06l-14.787-1.88c-4.083-0.519-6.974-4.25-6.454-8.333
	c0.519-4.083,4.25-6.971,8.333-6.454l14.787,1.88c4.083,0.519,6.974,4.25,6.454,8.333
	C287.093,702.978,283.884,705.728,280.188,705.728z"/>
<path fill="#61DB99" d="M554.006,315.893l-47.698,25.955c-6.213,3.38-13.99,1.085-17.372-5.128l0,0
	c-3.38-6.213-1.085-13.99,5.128-17.372l47.699-25.954c6.213-3.38,13.99-1.085,17.372,5.128l0,0
	C562.516,304.734,560.221,312.513,554.006,315.893z"/>
<linearGradient id="SVGID_12_" gradientUnits="userSpaceOnUse" x1="78.4697" y1="308.5337" x2="27.4736" y2="359.5298" gradientTransform="matrix(2.0078 0 0 -2.0078 457.7858 1266.1234)">
	<stop  offset="0" style="stop-color:#BE3F45;stop-opacity:0"/>
	<stop  offset="1" style="stop-color:#BE3F45"/>
</linearGradient>
<path fill="url(#SVGID_12_)" d="M640.822,620.517l-47.335-47.335c-6.678-7.272-16.262-11.833-26.914-11.833
	c-20.179,0-36.537,16.359-36.537,36.537c0,10.652,4.561,20.236,11.833,26.914l98.953,98.953L640.822,620.517L640.822,620.517
	L640.822,620.517z"/>
<linearGradient id="SVGID_13_" gradientUnits="userSpaceOnUse" x1="54.1805" y1="344.2441" x2="54.1805" y2="317.9294" gradientTransform="matrix(2.0078 0 0 -2.0078 457.7858 1266.1234)">
	<stop  offset="0" style="stop-color:#FF4C54"/>
	<stop  offset="1" style="stop-color:#BE3F45"/>
</linearGradient>
<circle fill="url(#SVGID_13_)" cx="566.569" cy="597.88" r="36.537"/>
<linearGradient id="SVGID_14_" gradientUnits="userSpaceOnUse" x1="54.1805" y1="324.9374" x2="54.1805" y2="343.0959" gradientTransform="matrix(2.0078 0 0 -2.0078 457.7858 1266.1234)">
	<stop  offset="0" style="stop-color:#FF4C54"/>
	<stop  offset="1" style="stop-color:#BE3F45"/>
</linearGradient>
<circle fill="url(#SVGID_14_)" cx="566.569" cy="597.88" r="25.215"/>
<linearGradient id="SVGID_15_" gradientUnits="userSpaceOnUse" x1="24.7802" y1="446.3612" x2="29.9768" y2="423.4119" gradientTransform="matrix(2.0078 0 0 -2.0078 457.7858 1266.1234)">
	<stop  offset="0" style="stop-color:#A7F3CE"/>
	<stop  offset="1" style="stop-color:#61DB99"/>
</linearGradient>
<circle fill="url(#SVGID_15_)" cx="556.99" cy="588.302" r="5.217"/>
<linearGradient id="SVGID_16_" gradientUnits="userSpaceOnUse" x1="34.3227" y1="446.3602" x2="39.5193" y2="423.411" gradientTransform="matrix(2.0078 0 0 -2.0078 457.7858 1266.1234)">
	<stop  offset="0" style="stop-color:#A7F3CE"/>
	<stop  offset="1" style="stop-color:#61DB99"/>
</linearGradient>
<circle fill="url(#SVGID_16_)" cx="576.149" cy="588.302" r="5.217"/>
<linearGradient id="SVGID_17_" gradientUnits="userSpaceOnUse" x1="22.7238" y1="445.8956" x2="27.9204" y2="422.9463" gradientTransform="matrix(2.0078 0 0 -2.0078 457.7858 1266.1234)">
	<stop  offset="0" style="stop-color:#A7F3CE"/>
	<stop  offset="1" style="stop-color:#61DB99"/>
</linearGradient>
<circle fill="url(#SVGID_17_)" cx="556.99" cy="607.47" r="5.217"/>
<linearGradient id="SVGID_18_" gradientUnits="userSpaceOnUse" x1="32.2664" y1="445.8946" x2="37.463" y2="422.9453" gradientTransform="matrix(2.0078 0 0 -2.0078 457.7858 1266.1234)">
	<stop  offset="0" style="stop-color:#A7F3CE"/>
	<stop  offset="1" style="stop-color:#61DB99"/>
</linearGradient>
<circle fill="url(#SVGID_18_)" cx="576.149" cy="607.47" r="5.217"/>
</svg>
