<?xml version="1.0" encoding="utf-8"?>
<!-- Generator: Adobe Illustrator 17.0.0, SVG Export Plug-In . SVG Version: 6.00 Build 0)  -->
<!DOCTYPE svg PUBLIC "-//W3C//DTD SVG 1.1//EN" "http://www.w3.org/Graphics/SVG/1.1/DTD/svg11.dtd">
<svg version="1.1" id="Layer_1" xmlns="http://www.w3.org/2000/svg" xmlns:xlink="http://www.w3.org/1999/xlink" x="0px" y="0px"
	 width="1024px" height="1024px" viewBox="0 -24.381 1024 1024" enable-background="new 0 -24.381 1024 1024" xml:space="preserve">
<g>
	<g>
		<path fill="#FFEBB7" d="M974.793,942.73H212.888c-81.914,0-148.317-66.404-148.317-148.317v-28.444
			c0-81.914,66.404-148.317,148.317-148.317h761.905V942.73z"/>
	</g>
	<g>
		<rect x="97.079" y="650.159" fill="#5C546A" width="81.27" height="260.064"/>
	</g>
	<g>
		<path fill="#FFEBB7" d="M897.587,568.889H32.063V341.333h865.524c24.686,0,44.698,20.013,44.698,44.698V524.19
			C942.285,548.876,922.273,568.889,897.587,568.889z"/>
	</g>
	<g>
		<rect x="145.841" y="48.762" fill="#FFEBB7" width="828.952" height="243.81"/>
	</g>
	<g>
		<path fill="#00C37A" d="M975.238,975.238H227.556c-107.548,0-195.048-87.491-195.048-195.048s87.499-195.048,195.048-195.048
			h747.683c17.953,0,32.508,14.555,32.508,32.508s-14.555,32.508-32.508,32.508H227.556c-71.698,0-130.032,58.333-130.032,130.032
			s58.333,130.032,130.032,130.032h747.683c17.953,0,32.508,14.555,32.508,32.508C1007.746,960.683,993.191,975.238,975.238,975.238
			z"/>
	</g>
	<g>
		<g>
			<path fill="#009BCA" d="M877.714,585.143H16.254C7.27,585.143,0,577.873,0,568.889s7.27-16.254,16.254-16.254h861.46
				c26.888,0,48.762-21.874,48.762-48.762v-97.524c0-26.888-21.874-48.762-48.762-48.762H16.254C7.27,357.587,0,350.318,0,341.333
				c0-8.985,7.27-16.254,16.254-16.254h861.46c44.81,0,81.27,36.46,81.27,81.27v97.524
				C958.984,548.683,922.524,585.143,877.714,585.143z"/>
		</g>
	</g>
	<g>
		<path fill="#E6BE94" d="M974.793,130.032H227.111c-8.976,0-16.254-7.278-16.254-16.254l0,0c0-8.976,7.278-16.254,16.254-16.254
			h747.683L974.793,130.032L974.793,130.032z"/>
	</g>
	<g>
		<path fill="#E6BE94" d="M974.793,195.048H227.111c-8.976,0-16.254-7.278-16.254-16.254l0,0c0-8.976,7.278-16.254,16.254-16.254
			h747.683L974.793,195.048L974.793,195.048z"/>
	</g>
	<g>
		<path fill="#E6BE94" d="M974.793,260.063H227.111c-8.976,0-16.254-7.278-16.254-16.254l0,0c0-8.976,7.278-16.254,16.254-16.254
			h747.683L974.793,260.063L974.793,260.063z"/>
	</g>
	<g>
		<path fill="#E6BE94" d="M32.063,390.095h845.206c8.976,0,16.254,7.278,16.254,16.254l0,0c0,8.976-7.278,16.254-16.254,16.254
			H32.063V390.095z"/>
	</g>
	<g>
		<path fill="#E6BE94" d="M32.063,455.111h845.206c8.976,0,16.254,7.278,16.254,16.254l0,0c0,8.976-7.278,16.254-16.254,16.254
			H32.063V455.111z"/>
	</g>
	<g>
		<path fill="#E6BE94" d="M32.063,520.127h845.206c8.976,0,16.254,7.278,16.254,16.254l0,0c0,8.976-7.278,16.254-16.254,16.254
			H32.063C32.063,552.635,32.063,520.127,32.063,520.127z"/>
	</g>
	<g>
		<path fill="#FF4F19" d="M991.492,325.079h-780.19c-53.778,0-97.524-43.746-97.524-97.524V97.524
			C113.778,43.746,157.524,0,211.302,0h780.191c17.953,0,32.508,14.555,32.508,32.508s-14.555,32.508-32.508,32.508H211.302
			c-17.928,0-32.508,14.58-32.508,32.508v130.032c0,17.92,14.58,32.508,32.508,32.508h780.191c17.953,0,32.508,14.555,32.508,32.508
			C1024,310.524,1009.445,325.079,991.492,325.079z"/>
	</g>
	<g>
		<path fill="#E6BE94" d="M227.111,877.714c-8.984,0-16.254,7.27-16.254,16.254s7.27,16.254,16.254,16.254h747.683v-32.508
			L227.111,877.714L227.111,877.714z"/>
	</g>
	<g>
		<path fill="#E6BE94" d="M227.111,812.698c-8.984,0-16.254,7.27-16.254,16.254s7.27,16.254,16.254,16.254h747.683v-32.508
			L227.111,812.698L227.111,812.698z"/>
	</g>
	<g>
		<path fill="#E6BE94" d="M227.111,747.683c-8.984,0-16.254,7.27-16.254,16.254s7.27,16.254,16.254,16.254h747.683v-32.508
			L227.111,747.683L227.111,747.683z"/>
	</g>
	<g>
		<path fill="#E6BE94" d="M227.111,682.667c-8.984,0-16.254,7.27-16.254,16.254s7.27,16.254,16.254,16.254h747.683v-32.508
			L227.111,682.667L227.111,682.667z"/>
	</g>
</g>
</svg>
