<?xml version="1.0" encoding="utf-8"?>
<!-- Generator: Adobe Illustrator 17.0.0, SVG Export Plug-In . SVG Version: 6.00 Build 0)  -->
<!DOCTYPE svg PUBLIC "-//W3C//DTD SVG 1.1//EN" "http://www.w3.org/Graphics/SVG/1.1/DTD/svg11.dtd">
<svg version="1.1" id="Layer_1" xmlns="http://www.w3.org/2000/svg" xmlns:xlink="http://www.w3.org/1999/xlink" x="0px" y="0px"
	 width="512px" height="512px" viewBox="0 0 512 512" enable-background="new 0 0 512 512" xml:space="preserve">
<path fill="#F3D55B" d="M248.069,80.801h0.09l159.95-42.901c9.433-2.484,19.097,3.117,21.628,12.535l22.777,85.096l10.328,38.577
	v0.09l48.55,180.961c2.527,9.406-3.043,19.086-12.449,21.625l-97.365,26.042L248.069,80.801z"/>
<path fill="#F9EAB0" d="M99.592,47.083c4.152-2.785,9.308-3.625,14.125-2.297l341.09,91.365
	c9.406,2.539,14.976,12.218,12.449,21.625l-91.365,341.09c-2.539,9.406-12.218,14.976-21.628,12.449L13.172,419.95
	c-9.406-2.539-14.976-12.219-12.445-21.628L74.17,124.144L99.592,47.083z"/>
<g>
	<path fill="#802F34" d="M399.229,198.646c-0.773,0.004-1.539-0.098-2.285-0.297L271.381,164.74
		c-4.707-1.262-7.504-6.101-6.238-10.812c1.262-4.711,6.101-7.504,10.812-6.242l125.56,33.652c4.281,1.145,7.047,5.285,6.473,9.676
		c-0.578,4.391-4.32,7.676-8.75,7.68L399.229,198.646z"/>
	<path fill="#802F34" d="M385.511,249.848c-0.77,0-1.539-0.102-2.285-0.301l-85.361-22.839c-3.059-0.801-5.457-3.18-6.281-6.234
		c-0.824-3.055,0.051-6.316,2.289-8.551c2.238-2.234,5.504-3.102,8.554-2.269l85.361,22.839c4.281,1.145,7.047,5.281,6.473,9.676
		C393.683,246.559,389.941,249.844,385.511,249.848z"/>
	<path fill="#802F34" d="M371.839,301.046c-0.777,0-1.547-0.102-2.297-0.301L263.35,272.242c-4.711-1.266-7.5-6.109-6.238-10.82
		c1.266-4.707,6.109-7.5,10.82-6.234l106.193,28.503c4.281,1.145,7.047,5.285,6.469,9.679S376.269,301.046,371.839,301.046z"/>
	<path fill="#802F34" d="M110.837,285.913c-0.773,0.004-1.547-0.098-2.293-0.297l-25.601-6.859c-4.707-1.266-7.5-6.109-6.234-10.82
		c1.262-4.707,6.105-7.5,10.816-6.234l25.601,6.855c4.277,1.148,7.047,5.289,6.469,9.683
		C119.017,282.632,115.271,285.917,110.837,285.913z"/>
	<path fill="#802F34" d="M358.101,352.166c-0.77,0-1.539-0.102-2.285-0.301L159.707,299.28c-4.711-1.262-7.504-6.105-6.242-10.816
		c1.262-4.707,6.105-7.504,10.816-6.238l196.109,52.538c4.277,1.148,7.047,5.285,6.469,9.679c-0.578,4.391-4.316,7.676-8.746,7.676
		L358.101,352.166z"/>
	<path fill="#802F34" d="M97.123,337.069c-0.773,0.004-1.543-0.098-2.289-0.301l-25.597-6.848
		c-4.711-1.262-7.504-6.105-6.242-10.816c1.262-4.707,6.105-7.504,10.812-6.238l25.601,6.848c4.281,1.148,7.047,5.289,6.469,9.683
		C105.298,333.787,101.552,337.072,97.123,337.069z"/>
	<path fill="#802F34" d="M344.403,403.329c-0.773,0-1.539-0.102-2.285-0.301l-196.121-52.55c-3.047-0.816-5.426-3.195-6.242-6.242
		c-0.812-3.047,0.059-6.301,2.289-8.527c2.23-2.23,5.48-3.101,8.527-2.285l196.109,52.55c4.277,1.145,7.047,5.285,6.469,9.676
		C352.574,400.04,348.832,403.325,344.403,403.329z"/>
</g>
<path fill="#BDC3C7" d="M255.748,266.972l-58.171-19.421l49.964-49.964l19.418,58.174c1.043,3.18,0.203,6.68-2.164,9.047
	C262.428,267.176,258.932,268.011,255.748,266.972z"/>
<path fill="#FB7B76" d="M85.291,35.341L35.327,85.305l-24.98-24.984c-13.797-13.797-13.797-36.163,0-49.96
	c13.797-13.8,36.167-13.8,49.964,0L85.291,35.341z"/>
<path fill="#E64C3C" d="M247.541,197.587l-18.714,18.714v0.09l-12.449,12.445h-0.086l-18.714,18.714L60.311,110.284l18.8-18.714
	L91.56,79.125l18.714-18.804L247.541,197.587z"/>
<path fill="#BDC3C7" d="M35.335,85.305l49.96-49.964l24.98,24.984l-49.96,49.96L35.335,85.305z"/>
<path fill="#C03A2B" d="M122.72,122.733c-1.68,1.633-3.926,2.551-6.265,2.559c-2.316-0.012-4.535-0.93-6.18-2.559L79.112,91.57
	L91.56,79.125l31.159,31.159C126.142,113.73,126.142,119.288,122.72,122.733z"/>
<path fill="#C03A2B" d="M228.827,216.302v0.09l-12.449,12.445h-0.086l-81.123-81.123c-2.242-2.238-3.117-5.504-2.297-8.562
	c0.82-3.059,3.211-5.449,6.269-6.265c3.059-0.82,6.32,0.055,8.562,2.293L228.827,216.302z"/>
</svg>
