<?xml version="1.0" encoding="utf-8"?>
<!-- Generator: Adobe Illustrator 17.0.0, SVG Export Plug-In . SVG Version: 6.00 Build 0)  -->
<!DOCTYPE svg PUBLIC "-//W3C//DTD SVG 1.1//EN" "http://www.w3.org/Graphics/SVG/1.1/DTD/svg11.dtd">
<svg version="1.1" id="Layer_1" xmlns="http://www.w3.org/2000/svg" xmlns:xlink="http://www.w3.org/1999/xlink" x="0px" y="0px"
	 width="512px" height="512px" viewBox="-32 -28 512 512" enable-background="new -32 -28 512 512" xml:space="preserve">
<path fill="#FAB991" d="M241.86,358.982h-76.035c-14.21,0-27.838,5.645-37.886,15.693l-20.026,20.026l44.649,44.649l21.559-21.559
	c3.349-3.349,7.892-5.231,12.628-5.231h55.112c14.796,0,26.789-11.994,26.789-26.789
	C268.649,370.976,256.655,358.982,241.86,358.982z"/>
<path fill="#F0915A" d="M370.575,346.353c-6.974-6.973-18.282-6.973-25.256,0l-66.208,66.208h-92.363
	c-4.736,0-9.279,1.882-12.628,5.231l-21.559,21.559l26.789,26.789l17.86-17.86h85.6c7.109,0.019,13.929-2.806,18.942-7.847
	l68.822-68.822C377.551,364.637,377.551,353.329,370.575,346.353L370.575,346.353z"/>
<path fill="#F0915A" d="M235.907,370.889h5.953c8.22,0,14.883,6.663,14.883,14.883l0,0c0,8.22-6.663,14.883-14.883,14.883l0,0
	h-5.953c-4.932,0-8.93-3.998-8.93-8.93v-11.906C226.977,374.888,230.975,370.889,235.907,370.889z"/>
<path fill="#55525B" d="M105.297,392.086l47.264,47.264L107.912,484H0.754l91.914-91.914
	C96.155,388.599,101.809,388.599,105.297,392.086L105.297,392.086L105.297,392.086z"/>
<path fill="#353744" d="M152.561,439.351l29.405,29.405c3.487,3.487,3.487,9.141,0,12.629l0,0L179.351,484h-71.439L152.561,439.351z
	"/>
<path fill="#82CDAA" d="M429.386,117.877v187.526c0,9.864-7.996,17.86-17.86,17.86H54.333c-9.864,0-17.86-7.996-17.86-17.86V117.877
	c0-9.864,7.996-17.86,17.86-17.86h357.193C421.39,100.018,429.386,108.013,429.386,117.877z"/>
<path fill="#377D82" d="M63.263,260.754v-98.228c0-4.932,3.998-8.93,8.93-8.93c9.864,0,17.86-7.996,17.86-17.86
	c0-4.932,3.998-8.93,8.93-8.93h267.895c4.931,0,8.93,3.998,8.93,8.93c0,9.864,7.996,17.86,17.86,17.86c4.932,0,8.93,3.998,8.93,8.93
	v98.228c0,4.931-3.998,8.93-8.93,8.93c-9.864,0-17.86,7.996-17.86,17.86c0,4.931-3.998,8.93-8.93,8.93H98.982
	c-4.931,0-8.93-3.998-8.93-8.93c0-9.864-7.996-17.86-17.86-17.86C67.261,269.684,63.263,265.686,63.263,260.754z"/>
<circle fill="#82CDAA" cx="232.93" cy="211.64" r="66.974"/>
<path fill="#353744" d="M36.474-7.14h392.912c9.864,0,17.86,7.996,17.86,17.86l0,0c0,9.864-7.996,17.86-17.86,17.86H36.474
	c-9.864,0-17.86-7.996-17.86-17.86l0,0C18.614,0.855,26.61-7.14,36.474-7.14z"/>
<path fill="#55525B" d="M36.474-7.14H215.07c9.864,0,17.86,7.996,17.86,17.86l0,0c0,9.864-7.996,17.86-17.86,17.86H36.474
	c-9.864,0-17.86-7.996-17.86-17.86l0,0C18.614,0.855,26.61-7.14,36.474-7.14z"/>
<path fill="#353744" d="M90.053,28.579h285.754l0,0v62.509c0,4.931-3.998,8.93-8.93,8.93H98.982c-4.931,0-8.93-3.998-8.93-8.93
	V28.579L90.053,28.579z"/>
<path fill="#55525B" d="M90.053,46.439H232.93l0,0v53.579l0,0H98.982c-4.931,0-8.93-3.998-8.93-8.93V46.439L90.053,46.439z"/>
<path fill="#FABE19" d="M232.93-25h178.596c9.864,0,17.86,7.996,17.86,17.86l0,0H215.07l0,0C215.07-17.004,223.066-25,232.93-25z"/>
<path fill="#F5871E" d="M411.526-7.14h17.86v98.228h-17.86V-7.14z"/>
<path fill="#D7E6F0" d="M411.526,91.088h17.86v8.93h-17.86V91.088z"/>
<path fill="#FABE19" d="M411.526,100.018h17.86c4.932,0,8.93,3.998,8.93,8.93v49.114c0,2.466-1.999,4.465-4.465,4.465h-26.789
	c-2.466,0-4.465-1.999-4.465-4.465v-49.114C402.596,104.016,406.595,100.018,411.526,100.018z"/>
<path fill="#F5871E" d="M424.921,108.947h13.395l0,0v49.114c0,2.466-1.999,4.465-4.465,4.465h-13.395l0,0v-49.114
	C420.456,110.947,422.455,108.947,424.921,108.947z"/>
<g>
	<path fill="#FABE19" d="M170.421,55.368c4.932,0,8.93,3.998,8.93,8.93v17.86l0,0h-17.86l0,0v-17.86
		C161.491,59.367,165.49,55.368,170.421,55.368z"/>
	<path fill="#FABE19" d="M179.351,100.018v-17.86l0,0h17.86c4.931,0,8.93,3.998,8.93,8.93c0,4.931-3.998,8.93-8.93,8.93H179.351
		L179.351,100.018z"/>
	<path fill="#FABE19" d="M170.421,126.807c-4.931,0-8.93-3.998-8.93-8.93v-17.86l0,0h17.86l0,0v17.86
		C179.351,122.809,175.353,126.807,170.421,126.807z"/>
	<path fill="#FABE19" d="M161.491,82.158v17.86l0,0h-17.86c-4.931,0-8.93-3.998-8.93-8.93c0-4.931,3.998-8.93,8.93-8.93H161.491
		L161.491,82.158z"/>
	<path fill="#FABE19" d="M438.316,332.193c4.931,0,8.93,3.998,8.93,8.93v17.86l0,0h-17.86l0,0v-17.86
		C429.386,336.191,433.384,332.193,438.316,332.193z"/>
	<path fill="#FABE19" d="M447.246,376.842v-17.86l0,0h17.86c4.931,0,8.93,3.998,8.93,8.93c0,4.931-3.998,8.93-8.93,8.93H447.246
		L447.246,376.842z"/>
	<path fill="#FABE19" d="M438.316,403.632c-4.931,0-8.93-3.998-8.93-8.93v-17.86l0,0h17.86l0,0v17.86
		C447.246,399.633,443.247,403.632,438.316,403.632z"/>
	<path fill="#FABE19" d="M429.386,358.982v17.86l0,0h-17.86c-4.931,0-8.93-3.998-8.93-8.93c0-4.932,3.998-8.93,8.93-8.93H429.386
		L429.386,358.982z"/>
	<path fill="#FABE19" d="M9.684,296.474c4.931,0,8.93,3.998,8.93,8.93v17.86l0,0H0.754l0,0v-17.86
		C0.754,300.472,4.753,296.474,9.684,296.474z"/>
	<path fill="#FABE19" d="M18.614,341.123v-17.86l0,0h17.86c4.931,0,8.93,3.998,8.93,8.93c0,4.931-3.998,8.93-8.93,8.93H18.614
		L18.614,341.123z"/>
	<path fill="#FABE19" d="M9.684,367.912c-4.931,0-8.93-3.998-8.93-8.93v-17.86l0,0h17.86l0,0v17.86
		C18.614,363.914,14.616,367.912,9.684,367.912z"/>
	<path fill="#FABE19" d="M0.754,323.263v17.86l0,0h-17.86c-4.931,0-8.93-3.998-8.93-8.93c0-4.932,3.998-8.93,8.93-8.93H0.754
		L0.754,323.263z"/>
</g>
<path fill="#377D82" d="M251.013,198.99c3.699,0,6.697-2.998,6.697-6.697v-1.303c-0.019-10.754-7.402-20.094-17.86-22.596v-2.89
	c0-3.699-2.998-6.697-6.697-6.697c-3.699,0-6.697,2.998-6.697,6.697v2.89c-12.485,2.97-20.198,15.5-17.228,27.985
	c1.593,6.693,6.069,12.337,12.224,15.411l17.413,8.707c4.87,2.434,6.845,8.356,4.41,13.226c-1.67,3.341-5.084,5.451-8.819,5.451
	h-2.606c-5.443-0.007-9.853-4.417-9.86-9.86v-1.303c0-3.699-2.998-6.697-6.697-6.697s-6.697,2.998-6.697,6.697v1.303
	c0.019,10.754,7.402,20.094,17.86,22.597v2.89c0,3.699,2.998,6.697,6.697,6.697s6.697-2.998,6.697-6.697v-2.89
	c12.485-2.97,20.199-15.499,17.23-27.984c-1.592-6.693-6.068-12.337-12.224-15.412l-17.413-8.707
	c-4.87-2.436-6.844-8.358-4.408-13.228c1.67-3.34,5.083-5.448,8.817-5.449h2.606c5.442,0.007,9.852,4.418,9.857,9.86v1.304
	C244.316,195.992,247.315,198.99,251.013,198.99L251.013,198.99z"/>
</svg>
