<?xml version="1.0" encoding="utf-8"?>
<!-- Generator: Adobe Illustrator 17.0.0, SVG Export Plug-In . SVG Version: 6.00 Build 0)  -->
<!DOCTYPE svg PUBLIC "-//W3C//DTD SVG 1.1//EN" "http://www.w3.org/Graphics/SVG/1.1/DTD/svg11.dtd">
<svg version="1.1" id="Layer_1" xmlns="http://www.w3.org/2000/svg" xmlns:xlink="http://www.w3.org/1999/xlink" x="0px" y="0px"
	 width="512px" height="512px" viewBox="-58.408 0 512 512" enable-background="new -58.408 0 512 512" xml:space="preserve">
<g>
	<path fill="#FF6986" d="M334.428,0H19.974C8.961,0,0,8.96,0,19.974v379.531c0,11.014,8.96,19.974,19.974,19.974h20.212
		c1.386,0,2.709-0.575,3.655-1.588l309.5-331.482c0.864-0.926,1.345-2.146,1.345-3.412V20.258C354.687,9.088,345.599,0,334.428,0z"
		/>
	<path fill="#D9F9F8" d="M395.184,123.49V434.5c0,11.02-8.96,19.98-19.97,19.98H55.164c-11.02,0-19.98-8.96-19.98-19.98V57.47
		c0-11.01,8.96-19.97,19.98-19.97h254.02l9.24,9.24L395.184,123.49z"/>
	<path fill="#C1EAF4" d="M395.184,123.49V434.5c0,11.02-8.96,19.98-19.97,19.98H55.164c-11.02,0-19.98-8.96-19.98-19.98v-5.02h319.3
		c11.15,0,20.19-9.04,20.19-20.2V123.49l-56.25-76.75L395.184,123.49z"/>
	<path fill="#AEC9D6" d="M395.184,123.49h-20.51l-58.91-0.01c-3.63,0-6.58-2.94-6.58-6.58V37.5c1.33,0,2.6,0.52,3.54,1.46l81,81
		C394.664,120.9,395.184,122.17,395.184,123.49z"/>
	<path fill="#8FB2BC" d="M395.184,123.49h-20.51l-61.95-84.53l81,81C394.664,120.9,395.184,122.17,395.184,123.49L395.184,123.49z"
		/>
	<g>
		<path fill="#AEC9D6" d="M125.661,190.456h179.422c4.142,0,7.5-3.357,7.5-7.5s-3.358-7.5-7.5-7.5H125.661
			c-4.142,0-7.5,3.357-7.5,7.5S121.519,190.456,125.661,190.456z"/>
		<path fill="#AEC9D6" d="M305.083,219.688H125.661c-4.142,0-7.5,3.357-7.5,7.5s3.358,7.5,7.5,7.5h179.422
			c4.142,0,7.5-3.357,7.5-7.5S309.225,219.688,305.083,219.688z"/>
		<path fill="#AEC9D6" d="M305.083,264.802h-35.447c-4.142,0-7.5,3.357-7.5,7.5s3.358,7.5,7.5,7.5h35.447c4.142,0,7.5-3.357,7.5-7.5
			S309.225,264.802,305.083,264.802z"/>
		<path fill="#AEC9D6" d="M234.339,264.802H125.661c-4.142,0-7.5,3.357-7.5,7.5s3.358,7.5,7.5,7.5h108.678
			c4.142,0,7.5-3.357,7.5-7.5S238.481,264.802,234.339,264.802z"/>
	</g>
	<path fill="#FF6986" d="M309.574,417.81c0,51.93-42.26,94.19-94.2,94.19c-4.06,0-8.06-0.26-11.98-0.76h-0.04
		c-46.29-5.93-82.18-45.57-82.18-93.43c0-47.87,35.89-87.51,82.18-93.44h0.04c3.92-0.5,7.92-0.76,11.98-0.76
		C267.314,323.61,309.574,365.87,309.574,417.81z"/>
	<path fill="#EA3487" d="M309.574,417.81c0,51.93-42.26,94.19-94.2,94.19c-4.06,0-8.06-0.26-11.98-0.76
		c46.29-5.93,82.18-45.57,82.18-93.43c0-47.87-35.89-87.51-82.18-93.44c3.92-0.5,7.92-0.76,11.98-0.76
		C267.314,323.61,309.574,365.87,309.574,417.81z"/>
	<path fill="#FFFFFF" d="M253.473,410.598c-2.929,2.93-7.678,2.929-10.606,0.001l-19.994-19.993v72.506c0,4.143-3.358,7.5-7.5,7.5
		s-7.5-3.357-7.5-7.5v-72.506l-19.994,19.993c-2.929,2.928-7.678,2.929-10.606-0.001c-2.929-2.929-2.929-7.678,0-10.606
		l32.797-32.796c1.464-1.464,3.384-2.196,5.303-2.196s3.839,0.732,5.303,2.196l32.797,32.796
		C256.402,402.92,256.402,407.669,253.473,410.598L253.473,410.598z"/>
</g>
</svg>
