<?xml version="1.0" encoding="utf-8"?>
<!-- Generator: Adobe Illustrator 17.0.0, SVG Export Plug-In . SVG Version: 6.00 Build 0)  -->
<!DOCTYPE svg PUBLIC "-//W3C//DTD SVG 1.1//EN" "http://www.w3.org/Graphics/SVG/1.1/DTD/svg11.dtd">
<svg version="1.1" id="Layer_1" xmlns="http://www.w3.org/2000/svg" xmlns:xlink="http://www.w3.org/1999/xlink" x="0px" y="0px"
	 width="512px" height="512px" viewBox="-20 -40 512 512" enable-background="new -20 -40 512 512" xml:space="preserve">
<path fill="#AAC3D7" d="M239,77c-4.418,0-8-3.582-8-8s3.582-8,8-8c13.255,0,24-10.745,24-24s-10.745-24-24-24c-4.418,0-8-3.582-8-8
	s3.582-8,8-8c22.091,0,40,17.909,40,40S261.091,77,239,77z"/>
<path fill="#AAC3D7" d="M87,77c-4.418,0-8-3.582-8-8s3.582-8,8-8c13.255,0,24-10.745,24-24s-10.745-24-24-24c-4.418,0-8-3.582-8-8
	s3.582-8,8-8c22.091,0,40,17.909,40,40S109.091,77,87,77z"/>
<path fill="#AAC3D7" d="M-1,101h368l0,0v240c0,17.673-14.327,32-32,32H31c-17.673,0-32-14.327-32-32V101L-1,101z"/>
<path fill="#D7E6E6" d="M-1,101h328l0,0v240c0,17.673-14.327,32-32,32H31c-17.673,0-32-14.327-32-32V101L-1,101z"/>
<path fill="#D7322D" d="M31,37h304c17.673,0,32,14.327,32,32v32l0,0H-1l0,0V69C-1,51.327,13.327,37,31,37z"/>
<path fill="#F04B37" d="M31,37h264c17.673,0,32,14.327,32,32v32l0,0H-1l0,0V69C-1,51.327,13.327,37,31,37z"/>
<path fill="#D7E6E6" d="M87,77c-22.091,0-40-17.909-40-40S64.909-3,87-3c4.418,0,8,3.582,8,8s-3.582,8-8,8
	c-13.255,0-24,10.745-24,24s10.745,24,24,24c4.418,0,8,3.582,8,8S91.418,77,87,77z"/>
<path fill="#D7E6E6" d="M239,77c-22.091,0-40-17.909-40-40s17.909-40,40-40c4.418,0,8,3.582,8,8s-3.582,8-8,8
	c-13.255,0-24,10.745-24,24s10.745,24,24,24c4.418,0,8,3.582,8,8S243.418,77,239,77z"/>
<g>
	<path fill="#F04B37" d="M148.657,143.343c-3.124-3.124-8.189-3.124-11.314,0l0,0L127,153.686l-10.343-10.343
		c-3.124-3.124-8.19-3.124-11.314,0s-3.124,8.19,0,11.314L115.686,165l-10.343,10.343c-3.124,3.124-3.124,8.19,0,11.314
		c3.124,3.124,8.19,3.124,11.314,0L127,176.314l10.343,10.343c3.124,3.124,8.19,3.124,11.314,0s3.124-8.19,0-11.314L138.314,165
		l10.343-10.343C151.781,151.533,151.781,146.468,148.657,143.343L148.657,143.343L148.657,143.343z"/>
	<path fill="#F04B37" d="M220.657,143.343c-3.124-3.124-8.189-3.124-11.314,0l0,0L199,153.686l-10.343-10.343
		c-3.124-3.124-8.19-3.124-11.314,0s-3.124,8.19,0,11.314L187.686,165l-10.343,10.343c-3.124,3.124-3.124,8.19,0,11.314
		s8.19,3.124,11.314,0L199,176.314l10.343,10.343c3.124,3.124,8.19,3.124,11.314,0s3.124-8.19,0-11.314L210.314,165l10.343-10.343
		C223.781,151.533,223.781,146.468,220.657,143.343L220.657,143.343z"/>
	<path fill="#F04B37" d="M282.314,165l10.343-10.343c3.124-3.124,3.124-8.19,0-11.314s-8.19-3.124-11.314,0L271,153.686
		l-10.343-10.343c-3.124-3.124-8.19-3.124-11.314,0s-3.124,8.19,0,11.314L259.686,165l-10.343,10.343
		c-3.124,3.124-3.124,8.19,0,11.314s8.19,3.124,11.314,0L271,176.314l10.343,10.343c3.124,3.124,8.19,3.124,11.314,0
		s3.124-8.19,0-11.314L282.314,165z"/>
	<path fill="#F04B37" d="M76.657,215.343c-3.124-3.124-8.189-3.124-11.314,0l0,0L55,225.686l-10.343-10.343
		c-3.124-3.124-8.19-3.124-11.314,0s-3.124,8.19,0,11.314L43.686,237l-10.343,10.343c-3.124,3.124-3.124,8.19,0,11.314
		s8.19,3.124,11.314,0L55,248.314l10.343,10.343c3.124,3.124,8.19,3.124,11.314,0s3.124-8.19,0-11.314L66.314,237l10.343-10.343
		C79.781,223.533,79.781,218.468,76.657,215.343L76.657,215.343z"/>
	<path fill="#F04B37" d="M148.657,215.343c-3.124-3.124-8.189-3.124-11.314,0l0,0L127,225.686l-10.343-10.343
		c-3.124-3.124-8.19-3.124-11.314,0s-3.124,8.19,0,11.314L115.686,237l-10.343,10.343c-3.124,3.124-3.124,8.19,0,11.314
		c3.124,3.124,8.19,3.124,11.314,0L127,248.314l10.343,10.343c3.124,3.124,8.19,3.124,11.314,0s3.124-8.19,0-11.314L138.314,237
		l10.343-10.343C151.781,223.533,151.781,218.468,148.657,215.343L148.657,215.343L148.657,215.343z"/>
	<path fill="#F04B37" d="M220.657,215.343c-3.124-3.124-8.189-3.124-11.314,0l0,0L199,225.686l-10.343-10.343
		c-3.124-3.124-8.19-3.124-11.314,0s-3.124,8.19,0,11.314L187.686,237l-10.343,10.343c-3.124,3.124-3.124,8.19,0,11.314
		s8.19,3.124,11.314,0L199,248.314l10.343,10.343c3.124,3.124,8.19,3.124,11.314,0s3.124-8.19,0-11.314L210.314,237l10.343-10.343
		C223.781,223.533,223.781,218.468,220.657,215.343L220.657,215.343z"/>
	<path fill="#F04B37" d="M292.657,215.343c-3.124-3.124-8.189-3.124-11.314,0l0,0L271,225.686l-10.343-10.343
		c-3.124-3.124-8.19-3.124-11.314,0s-3.124,8.19,0,11.314L259.686,237l-10.343,10.343c-3.124,3.124-3.124,8.19,0,11.314
		s8.19,3.124,11.314,0L271,248.314l10.343,10.343c3.124,3.124,8.19,3.124,11.314,0s3.124-8.19,0-11.314L282.314,237l10.343-10.343
		C295.781,223.533,295.781,218.468,292.657,215.343L292.657,215.343z"/>
	<path fill="#F04B37" d="M76.657,287.343c-3.124-3.124-8.189-3.124-11.314,0l0,0L55,297.686l-10.343-10.343
		c-3.124-3.124-8.19-3.124-11.314,0s-3.124,8.19,0,11.314L43.686,309l-10.343,10.343c-3.124,3.124-3.124,8.19,0,11.314
		s8.19,3.124,11.314,0l0,0L55,320.314l10.343,10.343c3.124,3.124,8.19,3.124,11.314,0s3.124-8.19,0-11.314l0,0L66.314,309
		l10.343-10.343C79.781,295.533,79.781,290.468,76.657,287.343L76.657,287.343z"/>
	<path fill="#F04B37" d="M148.657,287.343c-3.124-3.124-8.189-3.124-11.314,0l0,0L127,297.686l-10.343-10.343
		c-3.124-3.124-8.19-3.124-11.314,0s-3.124,8.19,0,11.314l0,0L115.686,309l-10.343,10.343c-3.124,3.124-3.124,8.19,0,11.314
		c3.124,3.124,8.19,3.124,11.314,0L127,320.314l10.343,10.343c3.124,3.124,8.19,3.124,11.314,0s3.124-8.19,0-11.314L138.314,309
		l10.343-10.343C151.781,295.533,151.781,290.468,148.657,287.343L148.657,287.343L148.657,287.343z"/>
	<path fill="#F04B37" d="M220.657,287.343c-3.124-3.124-8.189-3.124-11.314,0l0,0L199,297.686l-10.343-10.343
		c-3.124-3.124-8.19-3.124-11.314,0s-3.124,8.19,0,11.314L187.686,309l-10.343,10.343c-3.124,3.124-3.124,8.19,0,11.314
		s8.19,3.124,11.314,0L199,320.314l10.343,10.343c3.124,3.124,8.19,3.124,11.314,0s3.124-8.19,0-11.314L210.314,309l10.343-10.343
		C223.781,295.533,223.781,290.468,220.657,287.343L220.657,287.343z"/>
</g>
<path fill="#F5871E" d="M319,189h32c66.274,0,120,53.726,120,120l0,0c0,66.274-53.726,120-120,120h-32c-66.274,0-120-53.726-120-120
	l0,0C199,242.726,252.726,189,319,189z"/>
<circle fill="#FABE19" cx="319" cy="309" r="120"/>
<path fill="#FFDC37" d="M215,313c-2.209,0-4-1.791-4-4c0.067-59.619,48.381-107.933,108-108c2.209,0,4,1.791,4,4s-1.791,4-4,4
	c-55.203,0.062-99.938,44.797-100,100C219,311.209,217.209,313,215,313z"/>
<circle fill="#D7E6F0" cx="319" cy="309" r="88"/>
<path fill="#353744" d="M319,357c-4.418,0-8,3.582-8,8v8c0,4.418,3.582,8,8,8s8-3.582,8-8v-8C327,360.582,323.418,357,319,357z"/>
<path fill="#353744" d="M383,301h-8c-4.418,0-8,3.582-8,8s3.582,8,8,8h8c4.418,0,8-3.582,8-8S387.418,301,383,301z"/>
<path fill="#353744" d="M327,286.371V245c0-4.418-3.582-8-8-8s-8,3.582-8,8v41.371c-6.831,2.424-12.205,7.798-14.629,14.629H255
	c-4.418,0-8,3.582-8,8s3.582,8,8,8h41.371c4.42,12.496,18.133,19.044,30.629,14.624s19.044-18.133,14.624-30.629
	C339.208,294.162,333.833,288.788,327,286.371z"/>
<circle fill="#FAA51E" cx="319" cy="309" r="8"/>
</svg>
