<?xml version="1.0" encoding="utf-8"?>
<!-- Generator: Adobe Illustrator 17.0.0, SVG Export Plug-In . SVG Version: 6.00 Build 0)  -->
<!DOCTYPE svg PUBLIC "-//W3C//DTD SVG 1.1//EN" "http://www.w3.org/Graphics/SVG/1.1/DTD/svg11.dtd">
<svg version="1.1" id="Layer_1" xmlns="http://www.w3.org/2000/svg" xmlns:xlink="http://www.w3.org/1999/xlink" x="0px" y="0px"
	 width="512px" height="512px" viewBox="0 -46.5 512 512" enable-background="new 0 -46.5 512 512" xml:space="preserve">
<g>
	<path fill="#FFCC73" d="M144.258,20.922v170.195l103.375,22.824l107.668-22.824V20.922C355.301,9.41,345.898,0,334.395,0
		c-57.676,0-112.957,0-169.227,0C153.66,0,144.258,9.41,144.258,20.922z"/>
	<path fill="#F59556" d="M144.258,20.922v170.195h30.371V20.922C174.629,9.41,184.031,0,195.535,0h-30.367
		C153.66,0,144.258,9.41,144.258,20.922z"/>
	<path fill="#E8E8E8" d="M218.168,46.262h60.652c5.434,0,9.902-4.473,9.902-9.938V0h-80.484v36.324
		C208.238,41.789,212.707,46.262,218.168,46.262z"/>
	<path fill="#F59556" d="M45.41,212.043v170.195l103.375,22.824l107.668-22.824l18.543-90.973l-18.543-79.223
		c-2.629-11.223-9.406-20.926-20.91-20.926c-57.672,0-112.953,0-169.227,0C54.813,191.117,45.41,200.527,45.41,212.043z"/>
	<path fill="#D65036" d="M45.41,212.043v170.195c8.379-0.234,18.602-0.117,30.367-0.266v-169.93c0-11.516,9.406-20.926,20.91-20.926
		H66.316C54.813,191.117,45.41,200.527,45.41,212.043z"/>
	<path fill="#E8E8E8" d="M119.32,237.379h60.652c5.461,0,9.898-4.473,9.898-9.938v-36.324h-80.449v36.324
		C109.422,232.906,113.859,237.379,119.32,237.379z"/>
	<path fill="#55B8E6" d="M256.453,212.043v170.195c22.137-0.613,61.469,22.91,103.375,22.824
		c34.078-0.063,68.508-23.469,107.668-23.352V212.043c0-11.516-9.402-20.926-20.906-20.926c-57.676,0-112.957,0-169.23,0
		C265.855,191.117,256.453,200.527,256.453,212.043z"/>
	<path fill="#507FCF" d="M256.453,212.043v170.195l30.371-0.266v-169.93c0-11.516,9.402-20.926,20.906-20.926h-30.371
		C265.855,191.117,256.453,200.527,256.453,212.043z"/>
	<path fill="#E8E8E8" d="M330.363,237.379h60.625c5.457,0,9.926-4.473,9.926-9.938v-36.324h-80.48v36.324
		C320.434,232.906,324.902,237.379,330.363,237.379z"/>
	<path fill="#808080" d="M18.484,381.973C8.32,381.973,0,390.301,0,400.504C0,410.672,8.32,419,18.484,419h475
		c4.063,0,7.855-1.316,10.895-3.566c4.613-3.387,7.621-8.824,7.621-14.93c0-6.141-3.008-11.574-7.621-14.965
		c-3.039-2.223-6.832-3.566-10.895-3.566H18.484z"/>
	<path fill="#525252" d="M18.484,381.973C8.32,381.973,0,390.301,0,400.504C0,410.672,8.32,419,18.484,419h34.281
		c-10.16,0-18.484-8.328-18.484-18.496c0-8.301,5.523-15.371,13.055-17.711c0.059,0,0.117-0.031,0.203-0.059
		c1.664-0.496,3.418-0.762,5.23-0.762L18.484,381.973L18.484,381.973z"/>
</g>
</svg>
