<svg xmlns="http://www.w3.org/2000/svg" width="22" height="22" viewBox="0 0 22 22">
  <defs>
    <style>
      .cls-1 {
        fill-rule: evenodd;
      }
    </style>
  </defs>
  <path id="Фигура_36" data-name="Фигура 36" class="cls-1" d="M686,546a11,11,0,1,1,11-11A11,11,0,0,1,686,546Zm0-20.625A9.636,9.636,0,1,0,695.622,535,9.634,9.634,0,0,0,686,525.375Zm3.888,13.514a0.688,0.688,0,0,1-.972,0L686,535.972l-2.916,2.917a0.687,0.687,0,0,1-.972-0.972L685.028,535l-2.916-2.917a0.687,0.687,0,0,1,.972-0.972L686,534.028l2.916-2.917a0.687,0.687,0,0,1,.972.972L686.972,535l2.916,2.917A0.688,0.688,0,0,1,689.888,538.889Z" transform="translate(-675 -524)"/>
</svg>