<?xml version="1.0" encoding="utf-8"?>
<!-- Generator: Adobe Illustrator 23.0.3, SVG Export Plug-In . SVG Version: 6.00 Build 0)  -->
<svg version="1.1" id="Layer_1" xmlns="http://www.w3.org/2000/svg" xmlns:xlink="http://www.w3.org/1999/xlink" x="0px" y="0px"
	 viewBox="0 0 150 150" style="enable-background:new 0 0 150 150;" xml:space="preserve">
<style type="text/css">
	.st0{fill:none;stroke:#BC1818;stroke-width:5;stroke-miterlimit:10;}
	.st1{fill:none;stroke:#BC1818;stroke-width:5;stroke-linecap:round;stroke-linejoin:round;stroke-miterlimit:10;}
	.st2{fill:#BC1818;}
</style>
<circle class="st0" cx="74.75" cy="75.25" r="71.54"/>
<path class="st0" d="M107.94,111.24c1.59-0.47,3.15-0.98,4.67-1.52c19.71-6.99,32.79-19.33,32.79-33.38
	c0-21.8-31.49-39.47-70.34-39.47S4.71,54.54,4.71,76.34s31.49,39.47,70.34,39.47c4.2,0,8.31-0.21,12.3-0.6l4.88-1.24"/>
<path class="st0" d="M40.01,42.85c-2.83,9.7-4.43,20.71-4.43,32.4c0,38.85,17.67,70.34,39.47,70.34s39.47-31.49,39.47-70.34
	S96.85,4.91,75.06,4.91c-9.19,0-17.65,5.6-24.36,14.99c-1.87,2.62-3.61,5.54-5.19,8.72l-0.73,2.53"/>
<polyline class="st1" points="54.16,30.43 42.26,33.03 39.66,21.13 "/>
<polyline class="st1" points="81.99,107.4 92.24,113.98 85.67,124.23 "/>
<g>
	<path class="st2" d="M52.94,80.85l3.45-0.42c0.11,0.88,0.41,1.55,0.89,2.02s1.07,0.7,1.75,0.7c0.74,0,1.36-0.28,1.86-0.84
		s0.76-1.31,0.76-2.26c0-0.9-0.24-1.61-0.72-2.13s-1.07-0.79-1.76-0.79c-0.46,0-1,0.09-1.64,0.27l0.39-2.91
		c0.96,0.03,1.7-0.18,2.21-0.63s0.76-1.03,0.76-1.77c0-0.63-0.19-1.13-0.56-1.5s-0.87-0.56-1.49-0.56c-0.61,0-1.13,0.21-1.56,0.63
		s-0.69,1.04-0.79,1.85l-3.29-0.56c0.23-1.13,0.57-2.02,1.03-2.7s1.1-1.2,1.93-1.59s1.75-0.58,2.77-0.58c1.75,0,3.16,0.56,4.21,1.68
		c0.87,0.91,1.31,1.95,1.31,3.1c0,1.63-0.89,2.94-2.68,3.91c1.07,0.23,1.92,0.74,2.56,1.54s0.96,1.76,0.96,2.88
		c0,1.63-0.6,3.03-1.79,4.18s-2.68,1.73-4.46,1.73c-1.68,0-3.08-0.48-4.19-1.45C53.76,83.69,53.12,82.42,52.94,80.85z"/>
	<path class="st2" d="M79.62,71.74l-3.45,0.38c-0.08-0.71-0.31-1.24-0.66-1.57s-0.82-0.51-1.38-0.51c-0.75,0-1.39,0.34-1.91,1.02
		s-0.85,2.09-0.98,4.23c0.89-1.05,1.99-1.57,3.31-1.57c1.49,0,2.77,0.57,3.83,1.7c1.06,1.13,1.59,2.6,1.59,4.39
		c0,1.9-0.56,3.43-1.68,4.58s-2.55,1.73-4.3,1.73c-1.88,0-3.42-0.73-4.63-2.19c-1.21-1.46-1.82-3.85-1.82-7.18
		c0-3.41,0.63-5.87,1.89-7.38s2.9-2.26,4.91-2.26c1.41,0,2.58,0.4,3.51,1.19S79.36,70.23,79.62,71.74z M71.53,79.52
		c0,1.16,0.27,2.05,0.8,2.69c0.53,0.63,1.14,0.95,1.83,0.95c0.66,0,1.21-0.26,1.65-0.77s0.66-1.36,0.66-2.54
		c0-1.21-0.24-2.1-0.71-2.66c-0.47-0.56-1.07-0.84-1.78-0.84c-0.69,0-1.27,0.27-1.74,0.81C71.77,77.68,71.53,78.47,71.53,79.52z"/>
	<path class="st2" d="M88.02,67.1c1.8,0,3.21,0.64,4.23,1.93c1.21,1.52,1.82,4.05,1.82,7.58c0,3.52-0.61,6.05-1.83,7.59
		c-1.01,1.27-2.41,1.9-4.21,1.9c-1.81,0-3.27-0.7-4.38-2.09c-1.11-1.39-1.66-3.87-1.66-7.45c0-3.5,0.61-6.03,1.83-7.57
		C84.81,67.74,86.22,67.1,88.02,67.1z M88.02,70.06c-0.43,0-0.82,0.14-1.16,0.41c-0.34,0.27-0.6,0.77-0.79,1.48
		c-0.25,0.92-0.37,2.48-0.37,4.66s0.11,3.68,0.33,4.5c0.22,0.82,0.5,1.36,0.83,1.63c0.33,0.27,0.72,0.41,1.15,0.41
		s0.82-0.14,1.15-0.41c0.34-0.28,0.6-0.77,0.79-1.48c0.25-0.91,0.37-2.46,0.37-4.65s-0.11-3.68-0.33-4.5
		c-0.22-0.82-0.5-1.36-0.83-1.64S88.45,70.06,88.02,70.06z"/>
	<path class="st2" d="M96.44,70.91c0-1.13,0.4-2.08,1.19-2.87c0.79-0.79,1.75-1.18,2.86-1.18s2.07,0.4,2.86,1.19
		c0.79,0.79,1.19,1.75,1.19,2.86s-0.4,2.07-1.19,2.86c-0.79,0.79-1.75,1.19-2.86,1.19s-2.07-0.4-2.86-1.19
		C96.83,72.98,96.44,72.03,96.44,70.91z M98.54,70.91c0,0.53,0.19,0.99,0.57,1.37s0.84,0.57,1.37,0.57s0.99-0.19,1.37-0.57
		s0.57-0.84,0.57-1.37s-0.19-0.99-0.57-1.37s-0.84-0.57-1.37-0.57s-0.99,0.19-1.37,0.57S98.54,70.38,98.54,70.91z"/>
</g>
</svg>
