<?xml version="1.0" encoding="utf-8"?>
<!-- Generator: Adobe Illustrator 23.0.3, SVG Export Plug-In . SVG Version: 6.00 Build 0)  -->
<svg version="1.1" id="Layer_1" xmlns="http://www.w3.org/2000/svg" xmlns:xlink="http://www.w3.org/1999/xlink" x="0px" y="0px"
	 viewBox="0 0 150 150" style="enable-background:new 0 0 150 150;" xml:space="preserve">
<style type="text/css">
	.st0{fill:none;stroke:#BC1818;stroke-width:5;stroke-miterlimit:10;}
	.st1{fill:none;stroke:#BC1818;stroke-width:5;stroke-linecap:round;stroke-linejoin:round;stroke-miterlimit:10;}
	.st2{fill:none;}
	.st3{fill:#BC1818;}
	.st4{font-family:'Arial-BoldMT';}
	.st5{font-size:29px;}
</style>
<circle class="st0" cx="74.75" cy="75.25" r="71.54"/>
<path class="st0" d="M107.94,111.24c1.59-0.47,3.15-0.98,4.67-1.52c19.71-6.99,32.79-19.33,32.79-33.38
	c0-21.8-31.49-39.47-70.34-39.47S4.71,54.54,4.71,76.34s31.49,39.47,70.34,39.47c4.2,0,8.31-0.21,12.3-0.6l4.88-1.24"/>
<path class="st0" d="M40.01,42.85c-2.83,9.7-4.43,20.71-4.43,32.4c0,38.85,17.67,70.34,39.47,70.34s39.47-31.49,39.47-70.34
	S96.85,4.91,75.06,4.91c-9.19,0-17.65,5.6-24.36,14.99c-1.87,2.62-3.61,5.54-5.19,8.72l-0.73,2.53"/>
<polyline class="st1" points="54.16,30.43 42.26,33.03 39.66,21.13 "/>
<polyline class="st1" points="81.99,107.4 92.24,113.98 85.67,124.23 "/>
<rect x="49.89" y="68.52" class="st2" width="48.53" height="22.93"/>
<text transform="matrix(1 0 0 1 49.8921 89.2822)" class="st3 st4 st5">360</text>
</svg>
