<?xml version="1.0" encoding="utf-8"?>
<!-- Generator: Adobe Illustrator 23.0.3, SVG Export Plug-In . SVG Version: 6.00 Build 0)  -->
<svg version="1.1" id="Layer_1" xmlns="http://www.w3.org/2000/svg" xmlns:xlink="http://www.w3.org/1999/xlink" x="0px" y="0px"
	 viewBox="0 0 150 150" style="enable-background:new 0 0 150 150;" xml:space="preserve">
<style type="text/css">
	.st0{fill:none;stroke:#BC1B1C;stroke-width:5;stroke-linecap:round;stroke-linejoin:round;stroke-miterlimit:10;}
	.st1{fill:#BC1818;stroke:#BC1B1C;stroke-width:5;stroke-miterlimit:10;}
	.st2{fill:#FFFFFF;stroke:#FFFFFF;stroke-width:5;stroke-miterlimit:10;}
	.st3{fill:#BC1818;stroke:#BC1B1C;stroke-width:5;stroke-linecap:round;stroke-linejoin:round;stroke-miterlimit:10;}
	.st4{fill:none;stroke:#FFFFFF;stroke-width:5;stroke-linecap:round;stroke-miterlimit:10;}
</style>
<path class="st0" d="M63.12,107.64c0.54-5.62-5.41-11.8-8.76-15.65c-5.3-6.09-12.2-10.84-16.49-17.78
	c-4.35-7.04-6.72-15.11-6.72-23.4c0-24.34,19.73-44.08,44.08-44.08c10.68,0,20.47,3.8,28.1,10.12"/>
<path class="st1" d="M111.3,12.24l0-5.36c0-1.23,1-2.23,2.23-2.23h10.14c1.23,0,2.23,1,2.23,2.23v5.28c0,0.79,0.42,1.52,1.09,1.92
	l4.52,2.68c0.61,0.36,1.35,0.41,2,0.14l5.3-2.23c1.06-0.45,2.29-0.01,2.83,1.01l4.71,8.81c0.59,1.1,0.16,2.47-0.95,3.04l-4.46,2.29
	c-0.76,0.39-1.23,1.17-1.21,2.02l0.1,6.37c0.01,0.82,0.47,1.56,1.2,1.94l4.45,2.34c1.09,0.57,1.51,1.93,0.94,3.02l-4.63,8.78
	c-0.58,1.09-1.92,1.51-3.02,0.93l-4.99-2.63c-0.77-0.41-1.71-0.33-2.4,0.2l-4.61,3.53c-0.55,0.42-0.88,1.08-0.88,1.77l0,5.54
	c0,1.25-1.02,2.25-2.27,2.23l-10.13-0.16c-1.22-0.02-2.2-1.01-2.2-2.23l0-5.4c0-0.72-0.35-1.4-0.93-1.82l-4.88-3.49
	c-0.69-0.49-1.6-0.55-2.35-0.16l-5.23,2.78c-1.05,0.56-2.35,0.2-2.97-0.83l-4.96-8.29c-0.66-1.11-0.25-2.54,0.9-3.13l5.77-2.96
	c0.74-0.38,1.21-1.15,1.21-1.99v-6.15c0-0.88-0.51-1.68-1.32-2.04l-5.54-2.5c-1.2-0.54-1.68-2-1.02-3.15l5.03-8.79
	c0.56-0.98,1.77-1.39,2.82-0.94l5.42,2.32c0.63,0.27,1.34,0.24,1.94-0.09l4.92-2.65C110.84,13.82,111.3,13.06,111.3,12.24z"/>
<circle class="st2" cx="118.18" cy="35.26" r="10.5"/>
<path class="st1" d="M90.74,136.71h-31.6c-1.1,0-2-0.9-2-2v-24.08c0-1.1,0.9-2,2-2h31.6c1.1,0,2,0.9,2,2v24.08
	C92.74,135.81,91.84,136.71,90.74,136.71z"/>
<polygon class="st3" points="82.17,145 68,145 65.89,137.89 83.99,137.89 "/>
<path class="st0" d="M88.21,107.64c-0.44-2.67,1.78-5.79,3.13-7.89c2.31-3.6,5.02-6.93,7.77-10.2c5.22-6.2,11.72-11.45,15.45-18.8
	c0,0,1.1-1.87,1.1-3.86"/>
<line class="st4" x1="55.18" y1="117.13" x2="80.33" y2="117.13"/>
<line class="st4" x1="69.23" y1="128.53" x2="94.39" y2="128.53"/>
<path class="st1" d="M57.95,96.75l-2.71,3.31c-0.58,1.09-1.92,1.51-3.02,0.93l-4.99-2.63c-0.77-0.41-1.71-0.33-2.4,0.2l-4.61,3.53
	c-0.55,0.42-0.88,1.08-0.88,1.77l0,5.54c0,1.25-1.02,2.25-2.27,2.23l-10.13-0.16c-1.22-0.02-2.2-1.01-2.2-2.23l0-5.4
	c0-0.72-0.35-1.4-0.93-1.82l-4.88-3.49c-0.69-0.49-1.6-0.55-2.35-0.16l-5.23,2.78c-1.05,0.56-2.35,0.2-2.97-0.83l-4.96-8.29
	c-0.66-1.11-0.25-2.54,0.9-3.13l5.77-2.96c0.74-0.38,1.21-1.15,1.21-1.99v-6.15c0-0.88-0.51-1.68-1.32-2.04l-5.54-2.5
	c-1.2-0.54-1.68-2-1.02-3.15l5.03-8.79c0.56-0.98,1.77-1.39,2.82-0.94l5.42,2.32c0.63,0.27,1.34,0.24,1.94-0.09l4.92-2.65
	c0.72-0.39,1.17-1.14,1.17-1.97l0-5.36c0-1.23,1-2.23,2.23-2.23h3.86C30.83,50.42,28.34,71.06,57.95,96.75z"/>
<path class="st2" d="M35.01,71.26c-1.25-0.5-2.63-0.76-4.06-0.73c-5.8,0.11-10.4,4.91-10.29,10.7c0.11,5.8,4.91,10.4,10.7,10.29
	c5.8-0.11,10.4-4.91,10.29-10.7l0-0.76"/>
<path class="st0" d="M63.12,107.64c0.54-5.62-5.41-11.8-8.76-15.65c-5.3-6.09-12.2-10.84-16.49-17.78
	c-4.35-7.04-6.72-15.11-6.72-23.4c0-24.34,19.73-44.08,44.08-44.08"/>
</svg>
