<?xml version="1.0" encoding="utf-8"?>
<!-- Generator: Adobe Illustrator 23.0.3, SVG Export Plug-In . SVG Version: 6.00 Build 0)  -->
<svg version="1.1" id="Layer_1" xmlns="http://www.w3.org/2000/svg" xmlns:xlink="http://www.w3.org/1999/xlink" x="0px" y="0px"
	 viewBox="0 0 150 150" style="enable-background:new 0 0 150 150;" xml:space="preserve">
<style type="text/css">
	.st0{fill:none;stroke:#BC1818;stroke-width:5;stroke-linecap:round;stroke-linejoin:round;stroke-miterlimit:10;}
	.st1{fill:#BC1818;}
	.st2{fill:#BC1818;stroke:#BC1818;stroke-width:5;stroke-miterlimit:10;}
	.st3{fill:none;stroke:#BC1818;stroke-width:5;stroke-miterlimit:10;}
</style>
<path class="st0" d="M74.97,138.53c-26.42-3.35-47.67-22.9-53.73-48.4l61.5-14.73L30.28,41.42l-0.81-0.48
	c11.32-17.63,31.09-29.31,53.58-29.31c35.15,0,63.65,28.52,63.65,63.71c0,13.65-4.29,26.3-11.59,36.66"/>
<path class="st0" d="M82.74,11.63"/>
<path class="st0" d="M82.74,75.41"/>
<path class="st0" d="M39.27,118.47"/>
<path class="st0" d="M96.44,138.53H76.7c-1.1,0-2-0.9-2-2V97.77c0-1.1,0.9-2,2-2h19.75c1.1,0,2,0.9,2,2v38.77
	C98.44,137.64,97.55,138.53,96.44,138.53z"/>
<path class="st0" d="M120.01,138.53h-19.75c-1.1,0-2-0.9-2-2v-55.9c0-1.1,0.9-2,2-2h19.75c1.1,0,2,0.9,2,2v55.9
	C122.01,137.64,121.12,138.53,120.01,138.53z"/>
<path class="st0" d="M143.58,138.53h-19.75c-1.1,0-2-0.9-2-2V114.2c0-1.1,0.9-2,2-2h19.75c1.1,0,2,0.9,2,2v22.33
	C145.58,137.64,144.68,138.53,143.58,138.53z"/>
<line class="st0" x1="74.7" y1="130.46" x2="145.58" y2="130.46"/>
<line class="st0" x1="74.7" y1="121.17" x2="145.58" y2="121.17"/>
<line class="st0" x1="74.7" y1="112.19" x2="122.01" y2="112.19"/>
<line class="st0" x1="74.7" y1="103.62" x2="122.01" y2="103.62"/>
<line class="st0" x1="99.69" y1="95.77" x2="122.01" y2="95.77"/>
<line class="st0" x1="99.69" y1="87.2" x2="122.01" y2="87.2"/>
<path class="st1" d="M143.24,141.03l-68.42,0.02c-0.07,0-0.12-0.06-0.12-0.12v-2.9h68.54V141.03z"/>
<path class="st2" d="M6.81,84.97l54.28-13.46L14.22,41.63c-0.35-0.23-0.82-0.18-1.11,0.12c-2.54,2.57-13.26,15.33-7.39,42.54
	C5.83,84.79,6.32,85.1,6.81,84.97z"/>
<path class="st3" d="M138.39,43.85"/>
</svg>
