<?xml version="1.0" encoding="utf-8"?>
<!-- Generator: Adobe Illustrator 23.0.3, SVG Export Plug-In . SVG Version: 6.00 Build 0)  -->
<svg version="1.1" id="Layer_1" xmlns="http://www.w3.org/2000/svg" xmlns:xlink="http://www.w3.org/1999/xlink" x="0px" y="0px"
	 viewBox="0 0 150 150" style="enable-background:new 0 0 150 150;" xml:space="preserve">
<style type="text/css">
	.st0{fill:none;stroke:#BC1818;stroke-width:5;stroke-linecap:round;stroke-linejoin:round;stroke-miterlimit:10;}
	.st1{fill:#BC1818;}
</style>
<path class="st0" d="M66.29,146.26C31.16,141.81,4,111.79,4,75.42C4,35.97,35.94,4,75.35,4s71.35,31.97,71.35,71.42
	c0,15.3-4.81,29.48-12.99,41.1"/>
<polyline class="st0" points="75,4 75,75.5 26.26,123.77 "/>
<line class="st0" x1="6.06" y1="92.01" x2="74.57" y2="75"/>
<line class="st0" x1="75" y1="75.5" x2="16.19" y2="37.4"/>
<path class="st0" d="M90.6,146.26H67.98c-1.1,0-2-0.9-2-2v-43.94c0-1.1,0.9-2,2-2H90.6c1.1,0,2,0.9,2,2v43.94
	C92.6,145.37,91.71,146.26,90.6,146.26z"/>
<path class="st0" d="M117.02,146.26H94.4c-1.1,0-2-0.9-2-2V81.11c0-1.1,0.9-2,2-2h22.62c1.1,0,2,0.9,2,2v63.16
	C119.02,145.37,118.13,146.26,117.02,146.26z"/>
<path class="st0" d="M143.44,146.26h-22.62c-1.1,0-2-0.9-2-2v-25.52c0-1.1,0.9-2,2-2h22.62c1.1,0,2,0.9,2,2v25.52
	C145.44,145.37,144.55,146.26,143.44,146.26z"/>
<line class="st0" x1="65.98" y1="137.21" x2="145.44" y2="137.21"/>
<line class="st0" x1="65.98" y1="126.8" x2="145.44" y2="126.8"/>
<line class="st0" x1="65.98" y1="116.73" x2="119.02" y2="116.73"/>
<line class="st0" x1="65.98" y1="107.13" x2="119.02" y2="107.13"/>
<line class="st0" x1="94" y1="98.32" x2="119.02" y2="98.32"/>
<line class="st0" x1="94" y1="88.71" x2="119.02" y2="88.71"/>
<path class="st1" d="M142.51,148.75H66.29c-0.17,0-0.31-0.14-0.31-0.31v-2.43c0-0.17,0.14-0.31,0.31-0.31h76.23
	c0.17,0,0.31,0.14,0.31,0.31v2.43C142.82,148.62,142.68,148.75,142.51,148.75z"/>
</svg>
