<?xml version="1.0" encoding="utf-8"?>
<!-- Generator: Adobe Illustrator 23.0.3, SVG Export Plug-In . SVG Version: 6.00 Build 0)  -->
<svg version="1.1" id="Layer_1" xmlns="http://www.w3.org/2000/svg" xmlns:xlink="http://www.w3.org/1999/xlink" x="0px" y="0px"
	 viewBox="0 0 150 150" style="enable-background:new 0 0 150 150;" xml:space="preserve">
<style type="text/css">
	.st0{fill:none;stroke:#BC1818;stroke-width:5;stroke-linecap:round;stroke-linejoin:round;stroke-miterlimit:10;}
	.st1{fill:#BC1818;stroke:#BC1818;stroke-width:5;stroke-linecap:round;stroke-linejoin:round;stroke-miterlimit:10;}
	.st2{fill:none;stroke:#FFFFFF;stroke-width:5;stroke-linecap:round;stroke-linejoin:round;stroke-miterlimit:10;}
</style>
<path class="st0" d="M108.26,146.06h22.33c1.12,0,2.03-0.91,2.03-2.03V50.65c0-1.12,0.91-2.03,2.03-2.03h8.63
	c1.57,0,2.55-1.7,1.75-3.06L121.17,4.91c-0.78-1.34-2.72-1.34-3.5,0L93.81,45.56c-0.79,1.35,0.18,3.06,1.75,3.06h8.63
	c1.12,0,2.03,0.91,2.03,2.03V71.5"/>
<path class="st1" d="M117.93,146.06H7.69c-1.1,0-2-0.9-2-2V74.47c0-1.1,0.9-2,2-2h110.24c1.1,0,2,0.9,2,2v69.59
	C119.93,145.16,119.04,146.06,117.93,146.06z"/>
<rect x="51.34" y="58.26" class="st0" width="23.35" height="14.21"/>
<line class="st2" x1="3.99" y1="99.74" x2="122.7" y2="99.74"/>
<line class="st2" x1="62.88" y1="102.22" x2="62.88" y2="108.02"/>
<line class="st2" x1="42.46" y1="89.68" x2="42.46" y2="109.52"/>
<line class="st2" x1="83.62" y1="89.68" x2="83.62" y2="109.52"/>
</svg>
