<?xml version="1.0" encoding="utf-8"?>
<!-- Generator: Adobe Illustrator 17.0.0, SVG Export Plug-In . SVG Version: 6.00 Build 0)  -->
<!DOCTYPE svg PUBLIC "-//W3C//DTD SVG 1.1//EN" "http://www.w3.org/Graphics/SVG/1.1/DTD/svg11.dtd">
<svg version="1.1" id="Layer_1" xmlns="http://www.w3.org/2000/svg" xmlns:xlink="http://www.w3.org/1999/xlink" x="0px" y="0px"
	 width="1024px" height="1024px" viewBox="0 0 1024 1024" enable-background="new 0 0 1024 1024" xml:space="preserve">
<g>
	<g>
		<g>
			<path fill="#FFFFFF" d="M1023.992,375.948c-0.008-0.686-0.068-1.356-0.16-2.018c-0.016-0.102-0.016-0.204-0.032-0.306
				c-0.012-0.084-0.038-0.164-0.052-0.248c-0.13-0.744-0.298-1.472-0.526-2.18l-0.01-0.042c-0.012-0.036-0.032-0.068-0.044-0.106
				c-0.23-0.696-0.514-1.366-0.832-2.016c-0.036-0.076-0.062-0.156-0.102-0.228c-0.024-0.046-0.052-0.09-0.076-0.136
				c-0.334-0.638-0.712-1.25-1.126-1.834c-0.044-0.06-0.08-0.126-0.122-0.188c-0.064-0.088-0.14-0.166-0.204-0.252
				c-0.42-0.552-0.862-1.084-1.348-1.578c-0.028-0.028-0.05-0.058-0.078-0.084c-0.008-0.01-0.02-0.02-0.028-0.03
				c-0.02-0.02-0.042-0.036-0.06-0.056c-0.518-0.51-1.078-0.976-1.662-1.416c-0.068-0.052-0.128-0.116-0.196-0.166l-0.002-0.002
				l-119.15-86.506c-7.226-5.246-17.334-3.646-22.584,3.586c-5.248,7.226-3.638,17.336,3.586,22.582l78.858,57.254H659.21
				L278.112,237.312c-1.06-0.34-2.132-0.566-3.202-0.684c-7.472-0.82-14.75,3.684-17.146,11.122L221.64,359.98H65.96L512.002,36.15
				l326.718,237.2c7.224,5.24,17.332,3.644,22.584-3.586c5.248-7.226,3.642-17.336-3.586-22.584L521.5,3.084
				c-5.664-4.114-13.336-4.114-19,0L6.67,363.066l-0.002,0.002c-0.068,0.05-0.128,0.114-0.196,0.166
				c-0.582,0.438-1.142,0.904-1.662,1.416c-0.02,0.02-0.04,0.036-0.06,0.056c-0.01,0.01-0.02,0.02-0.03,0.03
				c-0.026,0.026-0.048,0.054-0.072,0.08c-0.488,0.496-0.932,1.028-1.352,1.582c-0.064,0.086-0.14,0.164-0.202,0.25
				c-0.044,0.06-0.08,0.126-0.122,0.188c-0.414,0.584-0.792,1.196-1.126,1.834c-0.024,0.046-0.052,0.09-0.076,0.136
				c-0.038,0.076-0.064,0.154-0.102,0.228c-0.318,0.648-0.602,1.32-0.832,2.014c-0.012,0.036-0.032,0.068-0.046,0.106
				c-0.004,0.012-0.004,0.028-0.01,0.042c-0.226,0.704-0.396,1.434-0.524,2.178c-0.016,0.084-0.042,0.166-0.054,0.25
				c-0.016,0.102-0.018,0.202-0.03,0.306c-0.09,0.662-0.15,1.332-0.16,2.018c0,0.058-0.008,0.114-0.008,0.172L0,376.148v0.048
				c0,0.01,0,0.02,0,0.03v631.606c0,0.088,0.01,0.174,0.012,0.264c0.004,0.294,0.024,0.584,0.046,0.878
				c0.018,0.246,0.032,0.492,0.06,0.736c0.032,0.272,0.08,0.542,0.126,0.812c0.044,0.256,0.082,0.514,0.136,0.764
				c0.056,0.254,0.128,0.502,0.194,0.754c0.068,0.258,0.136,0.52,0.218,0.776c0.078,0.24,0.172,0.474,0.26,0.712
				c0.098,0.256,0.19,0.514,0.298,0.764c0.1,0.226,0.214,0.446,0.324,0.67c0.126,0.252,0.246,0.504,0.382,0.75
				c0.116,0.208,0.246,0.408,0.37,0.61c0.156,0.252,0.31,0.502,0.478,0.744c0.13,0.186,0.272,0.364,0.41,0.548
				c0.188,0.248,0.378,0.492,0.58,0.728c0.054,0.062,0.1,0.132,0.152,0.192c0.09,0.102,0.192,0.188,0.282,0.286
				c0.238,0.254,0.478,0.502,0.73,0.742c0.17,0.162,0.34,0.316,0.516,0.47c0.24,0.208,0.488,0.408,0.738,0.602
				c0.192,0.148,0.384,0.298,0.582,0.436c0.254,0.178,0.518,0.344,0.784,0.508c0.2,0.126,0.398,0.252,0.604,0.366
				c0.296,0.166,0.6,0.312,0.906,0.46c0.184,0.088,0.362,0.186,0.55,0.266c0.368,0.16,0.75,0.298,1.132,0.432
				c0.132,0.046,0.258,0.102,0.39,0.142c0.49,0.156,0.988,0.286,1.494,0.396c0.03,0.006,0.06,0.018,0.092,0.024
				c1.074,0.216,2.184,0.336,3.322,0.336h991.664c1.14,0,2.25-0.12,3.322-0.344c0.03-0.006,0.06-0.018,0.092-0.024
				c0.506-0.11,1.006-0.24,1.494-0.396c0.132-0.042,0.258-0.098,0.39-0.142c0.384-0.134,0.764-0.27,1.134-0.432
				c0.186-0.08,0.364-0.176,0.548-0.264c0.306-0.146,0.612-0.294,0.906-0.46c0.204-0.114,0.404-0.244,0.604-0.366
				c0.266-0.164,0.528-0.33,0.784-0.508c0.198-0.138,0.39-0.286,0.582-0.436c0.252-0.194,0.498-0.392,0.738-0.602
				c0.174-0.154,0.348-0.308,0.516-0.47c0.252-0.24,0.494-0.488,0.73-0.742c0.092-0.1,0.194-0.186,0.282-0.286
				c0.054-0.062,0.1-0.13,0.154-0.192c0.202-0.238,0.392-0.48,0.58-0.728c0.138-0.184,0.28-0.362,0.41-0.548
				c0.168-0.242,0.324-0.492,0.478-0.744c0.126-0.202,0.256-0.406,0.37-0.61c0.138-0.246,0.258-0.5,0.384-0.752
				c0.11-0.222,0.222-0.442,0.322-0.666c0.11-0.252,0.202-0.51,0.3-0.768c0.088-0.234,0.182-0.47,0.258-0.708
				c0.082-0.254,0.148-0.516,0.218-0.776c0.066-0.25,0.138-0.5,0.194-0.754c0.054-0.25,0.092-0.506,0.136-0.764
				c0.046-0.272,0.092-0.542,0.126-0.812c0.028-0.244,0.044-0.49,0.06-0.736c0.02-0.294,0.038-0.584,0.044-0.878
				c0.002-0.088,0.012-0.174,0.012-0.264V376.226c0.002-0.01,0.002-0.02,0.002-0.03v-0.048v-0.028
				C1024,376.062,1023.992,376.006,1023.992,375.948z M958.042,392.316l-60.932,44.236l-137.436-44.236H958.042z M248.812,381.102
				l34.78-108.052l368.122,118.49l212.974,68.552l-74.136,53.822L478.04,413.32c-8.498-2.724-17.608,1.936-20.346,10.438
				c-2.736,8.498,1.936,17.608,10.438,20.346l290.004,93.346l-39.622,28.764L344.658,445.88
				c-8.496-2.728-17.608,1.936-20.346,10.438c-2.736,8.498,1.936,17.608,10.438,20.346l351.342,113.088l-39.62,28.762l-48.62-15.652
				c-8.496-2.732-17.608,1.936-20.346,10.438c-2.734,8.498,1.936,17.608,10.438,20.346l26.108,8.404l-102.05,74.088L211.25,497.798
				L248.812,381.102z M211.23,392.316l-27.516,85.49L65.96,392.316H211.23z M32.336,407.866l350.79,254.674L32.336,972.008V407.866z
				 M58.938,991.664l351.006-309.656l92.562,67.2c0.068,0.05,0.144,0.082,0.214,0.132c0.628,0.44,1.272,0.848,1.946,1.188
				c0.02,0.008,0.036,0.022,0.054,0.032c0.008,0.004,0.016,0.008,0.024,0.012c0.68,0.34,1.384,0.618,2.1,0.86
				c0.23,0.078,0.464,0.14,0.698,0.208c0.504,0.144,1.014,0.266,1.528,0.36c0.246,0.046,0.488,0.094,0.734,0.128
				c0.7,0.098,1.404,0.158,2.11,0.162c0.026,0,0.052,0.006,0.076,0.006c0.004,0,0.008-0.002,0.012-0.002
				c0.004,0,0.008,0.002,0.012,0.002c0.026,0,0.05-0.006,0.076-0.006c0.708-0.004,1.41-0.064,2.11-0.162
				c0.248-0.034,0.492-0.084,0.738-0.13c0.514-0.094,1.02-0.214,1.522-0.358c0.234-0.066,0.472-0.13,0.704-0.21
				c0.714-0.24,1.416-0.518,2.096-0.858c0.008-0.004,0.018-0.008,0.026-0.012c0.022-0.01,0.04-0.026,0.062-0.036
				c0.67-0.342,1.312-0.746,1.938-1.184c0.068-0.05,0.146-0.082,0.216-0.132l92.558-67.198l351.006,309.654L58.938,991.664
				L58.938,991.664z M991.664,972.006L640.876,662.544L802.83,544.966c0.01-0.006,0.02-0.016,0.03-0.022l188.804-137.076V972.006z"
				/>
			<path fill="#FFFFFF" d="M361.646,409.738l58.91,18.96c1.646,0.528,3.316,0.78,4.958,0.78c6.832,0,13.18-4.366,15.388-11.218
				c2.736-8.5-1.936-17.608-10.438-20.346l-58.91-18.96c-8.494-2.734-17.608,1.938-20.346,10.438
				C348.474,397.894,353.146,407,361.646,409.738z"/>
			<path fill="#FFFFFF" d="M546.12,619.374c6.832,0,13.18-4.366,15.388-11.218c2.736-8.498-1.936-17.608-10.438-20.346
				l-233.312-75.096c-8.494-2.724-17.608,1.936-20.346,10.438c-2.732,8.5,1.94,17.608,10.44,20.346l233.31,75.096
				C542.808,619.122,544.476,619.374,546.12,619.374z"/>
		</g>
	</g>
</g>
</svg>
