<?xml version="1.0" encoding="utf-8"?>
<!-- Generator: Adobe Illustrator 17.0.0, SVG Export Plug-In . SVG Version: 6.00 Build 0)  -->
<!DOCTYPE svg PUBLIC "-//W3C//DTD SVG 1.1//EN" "http://www.w3.org/Graphics/SVG/1.1/DTD/svg11.dtd">
<svg version="1.1" id="Layer_1" xmlns="http://www.w3.org/2000/svg" xmlns:xlink="http://www.w3.org/1999/xlink" x="0px" y="0px"
	 width="512px" height="512px" viewBox="0 0 512 512" enable-background="new 0 0 512 512" xml:space="preserve">
<g id="Page-1">
	<g id="_x30_33---Insurance">
		<path id="Shape" fill="#FFFFFF" d="M387.413,56.747l-128-56.03c-2.176-0.95-4.65-0.95-6.827,0l-128,56.03
			c-3.108,1.357-5.118,4.425-5.12,7.817v133.973c0.046,30.108,14.514,58.372,38.912,76.015l88.465,63.804
			c5.464,3.955,12.849,3.955,18.313,0l88.465-63.795c24.398-17.643,38.866-45.907,38.912-76.015V64.563
			C392.532,61.172,390.522,58.103,387.413,56.747z M375.467,198.545c-0.039,24.626-11.874,47.744-31.829,62.174L256,323.925
			l-87.637-63.206c-19.956-14.43-31.79-37.547-31.829-62.174V70.144L256,17.852l119.467,52.292V198.545z"/>
		<path id="Shape_1_" fill="#FFFFFF" d="M252.587,37.973L158.72,79.07c-3.108,1.357-5.118,4.425-5.12,7.817v111.659
			c0.026,19.146,9.229,37.119,24.747,48.333l72.661,52.412c2.981,2.15,7.003,2.15,9.984,0l72.661-52.412
			c15.518-11.214,24.72-29.187,24.747-48.333V86.886c-0.002-3.391-2.012-6.46-5.12-7.817l-93.867-41.097
			C257.237,37.023,254.763,37.023,252.587,37.973z M341.333,92.459v106.086c-0.026,13.662-6.593,26.486-17.664,34.492L256,281.847
			l-67.669-48.811c-11.071-8.006-17.638-20.83-17.664-34.492V92.459L256,55.108L341.333,92.459z"/>
		<path id="Shape_2_" fill="#FFFFFF" d="M70.699,283.307l-18.458-43.127c-3.925-8.891-12.296-15.013-21.958-16.06
			c-9.663-1.046-19.15,3.142-24.887,10.987s-6.854,18.155-2.929,27.047l33.442,73.566c4.512,9.959,10.788,19.019,18.526,26.743
			l52.591,52.599c-2.962,3.139-4.616,7.289-4.625,11.605v68.267c0,9.426,7.641,17.067,17.067,17.067h93.867
			c9.426,0,17.067-7.641,17.067-17.067v-68.267c0-9.426-7.641-17.067-17.067-17.067v-15.881c0.261-20.21-6.332-39.912-18.705-55.893
			c-7.254-9.541-17.141-16.752-28.442-20.745c-17.973-7.551-34.501-18.159-48.853-31.351
			C104.011,274.758,85.086,273.775,70.699,283.307z M213.333,494.933h-93.867v-68.267h93.867V494.933z M181.308,348.484
			c9.947,12.959,15.218,28.901,14.959,45.235V409.6h-70.562L66.5,350.396c-6.288-6.279-11.39-13.642-15.061-21.734l-33.442-73.566
			c-1.427-3.14-1.162-6.79,0.705-9.69c1.867-2.9,5.079-4.653,8.528-4.655c4.059-0.003,7.727,2.419,9.318,6.153l19.089,44.518
			c5.069,11.878,12.375,22.669,21.521,31.787l38.98,38.989c2.143,2.218,5.315,3.108,8.299,2.327
			c2.984-0.781,5.313-3.111,6.094-6.094c0.781-2.983-0.109-6.156-2.327-8.299l-38.98-38.989c-3.92-3.91-7.444-8.198-10.522-12.8
			c8.195-6.306,19.659-6.115,27.639,0.461c15.952,14.639,34.388,26.314,54.443,34.475
			C168.956,336.249,176.086,341.532,181.308,348.484z"/>
		<path id="Shape_3_" fill="#FFFFFF" d="M187.733,452.267H179.2c-4.713,0-8.533,3.82-8.533,8.533s3.821,8.533,8.533,8.533h8.533
			c4.713,0,8.533-3.82,8.533-8.533S192.446,452.267,187.733,452.267z"/>
		<path id="Shape_4_" fill="#FFFFFF" d="M476.092,335.718l33.442-73.566c4.112-8.922,3.095-19.367-2.661-27.327
			c-5.756-7.96-15.357-12.199-25.117-11.09c-9.761,1.109-18.165,7.395-21.988,16.444l-18.415,42.965
			c-14.437-9.485-33.372-8.447-46.686,2.56c-14.352,13.193-30.881,23.8-48.853,31.351c-11.301,3.993-21.187,11.204-28.442,20.745
			c-12.379,15.988-18.972,35.701-18.705,55.919V409.6c-9.426,0-17.067,7.641-17.067,17.067v68.267
			c0,9.426,7.641,17.067,17.067,17.067h93.867c9.426,0,17.067-7.641,17.067-17.067v-68.267c-0.009-4.316-1.663-8.466-4.625-11.605
			l52.591-52.599C465.304,354.738,471.58,345.677,476.092,335.718z M392.533,494.933h-93.867v-68.267h93.867V494.933z
			 M386.296,409.6h-70.562v-15.881c-0.258-16.331,5.014-32.27,14.959-45.227c5.21-6.947,12.324-12.233,20.48-15.215
			c20.058-8.158,38.498-19.833,54.451-34.475c7.971-6.626,19.468-6.849,27.691-0.538c-3.087,4.636-6.628,8.953-10.573,12.885
			l-38.98,38.989c-3.234,3.348-3.188,8.671,0.104,11.962c3.292,3.292,8.614,3.338,11.962,0.104l38.98-38.989
			c9.146-9.117,16.452-19.909,21.521-31.787l19.089-44.527c1.596-3.729,5.262-6.146,9.318-6.144
			c3.449,0.001,6.661,1.754,8.528,4.655s2.132,6.55,0.705,9.69l-33.442,73.566c-3.671,8.092-8.773,15.455-15.061,21.734
			L386.296,409.6z"/>
		<path id="Shape_5_" fill="#FFFFFF" d="M332.8,452.267h-8.533c-4.713,0-8.533,3.82-8.533,8.533s3.821,8.533,8.533,8.533h8.533
			c4.713,0,8.533-3.82,8.533-8.533S337.513,452.267,332.8,452.267z"/>
		<path id="Shape_6_" fill="#FFFFFF" d="M209.92,180.907c-3.77-2.828-9.119-2.064-11.947,1.707s-2.064,9.119,1.707,11.947
			l34.133,25.6c1.477,1.108,3.274,1.707,5.12,1.707c0.483-0.002,0.965-0.042,1.442-0.119c2.311-0.397,4.357-1.727,5.658-3.678
			l68.267-102.4c1.692-2.536,1.902-5.783,0.552-8.517c-1.351-2.734-4.057-4.539-7.1-4.736c-3.043-0.197-5.959,1.244-7.651,3.781
			l-63.266,94.899L209.92,180.907z"/>
	</g>
</g>
</svg>
