<?xml version="1.0" encoding="utf-8"?>
<!-- Generator: Adobe Illustrator 23.0.3, SVG Export Plug-In . SVG Version: 6.00 Build 0)  -->
<svg version="1.1" id="Layer_1" xmlns="http://www.w3.org/2000/svg" xmlns:xlink="http://www.w3.org/1999/xlink" x="0px" y="0px"
	 viewBox="0 0 120 120" style="enable-background:new 0 0 120 120;" xml:space="preserve">
<style type="text/css">
	.st0{fill:none;stroke:#BC191A;stroke-width:3;stroke-miterlimit:10;}
	.st1{fill:none;stroke:#BC191A;stroke-width:3;stroke-linecap:round;stroke-linejoin:round;stroke-miterlimit:10;}
</style>
<path class="st0" d="M28.2,10.5l0-4.91c0-1.13,0.92-2.05,2.05-2.05h9.3c1.13,0,2.05,0.92,2.05,2.05v4.85c0,0.72,0.38,1.39,1,1.76
	l4.15,2.46c0.56,0.33,1.24,0.38,1.84,0.13l4.87-2.04c0.97-0.41,2.1-0.01,2.6,0.92l4.32,8.08c0.54,1.01,0.15,2.27-0.87,2.79
	l-4.09,2.1c-0.69,0.36-1.13,1.08-1.11,1.86l0.09,5.84c0.01,0.75,0.43,1.43,1.1,1.78l4.09,2.14c1,0.53,1.39,1.77,0.86,2.77
	l-4.25,8.05c-0.53,1-1.77,1.38-2.77,0.86l-4.58-2.41c-0.71-0.37-1.56-0.3-2.2,0.19l-4.23,3.23c-0.51,0.39-0.8,0.99-0.8,1.63l0,5.08
	c0,1.14-0.94,2.07-2.08,2.05l-9.29-0.15c-1.12-0.02-2.02-0.93-2.02-2.05l0-4.95c0-0.66-0.32-1.28-0.86-1.67l-4.47-3.2
	c-0.63-0.45-1.47-0.51-2.15-0.14l-4.79,2.55c-0.96,0.51-2.16,0.18-2.72-0.76l-4.55-7.61c-0.61-1.02-0.23-2.33,0.82-2.87l5.29-2.72
	c0.68-0.35,1.11-1.05,1.11-1.82v-5.64c0-0.81-0.47-1.54-1.21-1.87L9.6,24.5c-1.1-0.5-1.54-1.84-0.94-2.88l4.62-8.07
	c0.52-0.9,1.63-1.28,2.58-0.87l4.97,2.13c0.57,0.25,1.23,0.22,1.78-0.08l4.51-2.43C27.79,11.94,28.2,11.25,28.2,10.5z"/>
<path class="st0" d="M75.24,37.99l0-4.91c0-1.13,0.92-2.05,2.05-2.05h9.3c1.13,0,2.05,0.92,2.05,2.05v4.85c0,0.72,0.38,1.39,1,1.76
	l4.15,2.46c0.56,0.33,1.24,0.38,1.84,0.13l4.87-2.04c0.97-0.41,2.1-0.01,2.6,0.92l4.32,8.08c0.54,1.01,0.15,2.27-0.87,2.79
	l-4.09,2.1c-0.69,0.36-1.13,1.08-1.11,1.86l0.09,5.84c0.01,0.75,0.43,1.43,1.1,1.78l4.09,2.14c1,0.53,1.39,1.77,0.86,2.77
	l-4.25,8.05c-0.53,1-1.77,1.38-2.77,0.86l-4.58-2.41c-0.71-0.37-1.56-0.3-2.2,0.19l-4.23,3.23c-0.51,0.39-0.8,0.99-0.8,1.63l0,5.08
	c0,1.14-0.94,2.07-2.08,2.05l-9.29-0.15c-1.12-0.02-2.02-0.93-2.02-2.05l0-4.95c0-0.66-0.32-1.28-0.86-1.67l-4.47-3.2
	c-0.63-0.45-1.47-0.51-2.15-0.14l-4.79,2.55c-0.96,0.51-2.16,0.18-2.72-0.76l-4.55-7.61c-0.61-1.02-0.23-2.33,0.82-2.87l5.29-2.72
	c0.68-0.35,1.11-1.05,1.11-1.82v-5.64c0-0.81-0.47-1.54-1.21-1.87L56.63,52c-1.1-0.5-1.54-1.84-0.94-2.88l4.62-8.07
	c0.52-0.9,1.63-1.28,2.58-0.87l4.97,2.13c0.57,0.25,1.23,0.22,1.78-0.08l4.51-2.43C74.82,39.44,75.24,38.75,75.24,37.99z"/>
<path class="st0" d="M27.94,66.47l0-4.91c0-1.13,0.92-2.05,2.05-2.05h9.3c1.13,0,2.05,0.92,2.05,2.05v4.85c0,0.72,0.38,1.39,1,1.76
	l4.15,2.46c0.56,0.33,1.24,0.38,1.84,0.13l4.87-2.04c0.97-0.41,2.1-0.01,2.6,0.92l4.32,8.08c0.54,1.01,0.15,2.27-0.87,2.79
	l-4.09,2.1c-0.69,0.36-1.13,1.08-1.11,1.86l0.09,5.84c0.01,0.75,0.43,1.43,1.1,1.78l4.09,2.14c1,0.53,1.39,1.77,0.86,2.77
	l-4.25,8.05c-0.53,1-1.77,1.38-2.77,0.86l-4.58-2.41c-0.71-0.37-1.56-0.3-2.2,0.19l-4.23,3.23c-0.51,0.39-0.8,0.99-0.8,1.63l0,5.08
	c0,1.14-0.94,2.07-2.08,2.05l-9.29-0.15c-1.12-0.02-2.02-0.93-2.02-2.05l0-4.95c0-0.66-0.32-1.28-0.86-1.67l-4.47-3.2
	c-0.63-0.45-1.47-0.51-2.15-0.14l-4.79,2.55c-0.96,0.51-2.16,0.18-2.72-0.76L8.4,97.69c-0.61-1.02-0.23-2.33,0.82-2.87l5.29-2.72
	c0.68-0.35,1.11-1.05,1.11-1.82v-5.64c0-0.81-0.47-1.54-1.21-1.87l-5.08-2.29c-1.1-0.5-1.54-1.84-0.94-2.88l4.62-8.07
	c0.52-0.9,1.63-1.28,2.58-0.87l4.97,2.13c0.57,0.25,1.23,0.22,1.78-0.08l4.51-2.43C27.53,67.92,27.94,67.22,27.94,66.47z"/>
<polyline class="st1" points="24.13,31.7 31.8,39.7 44.91,23.52 "/>
<polyline class="st1" points="71.65,59.7 79.31,67.71 92.43,51.53 "/>
<polyline class="st1" points="24.13,89.05 31.8,97.06 44.91,80.88 "/>
</svg>
