<?xml version="1.0" encoding="utf-8"?>
<!-- Generator: Adobe Illustrator 23.0.3, SVG Export Plug-In . SVG Version: 6.00 Build 0)  -->
<svg version="1.1" id="Layer_1" xmlns="http://www.w3.org/2000/svg" xmlns:xlink="http://www.w3.org/1999/xlink" x="0px" y="0px"
	 viewBox="0 0 120 119" style="enable-background:new 0 0 120 119;" xml:space="preserve">
<style type="text/css">
	.st0{fill:none;stroke:#BC1818;stroke-width:3;stroke-miterlimit:10;}
	.st1{fill:#BC1818;stroke:#BC1818;stroke-width:3;stroke-miterlimit:10;}
	.st2{fill:#FFFFFF;}
</style>
<path class="st0" d="M46.5,38.5h-41c-1.1,0-2-0.9-2-2v-29c0-1.1,0.9-2,2-2h41c1.1,0,2,0.9,2,2v29C48.5,37.6,47.6,38.5,46.5,38.5z"/>
<rect x="13.08" y="23.24" class="st0" width="6.54" height="9.35"/>
<rect x="19.63" y="18.56" class="st0" width="6.54" height="14.02"/>
<rect x="26.17" y="14.82" class="st0" width="6.54" height="17.76"/>
<rect x="32.71" y="11.08" class="st0" width="6.54" height="21.5"/>
<path class="st1" d="M12.98,59.48h27.93V47.02c0-1.1-0.9-2-2-2H12.98c-1.1,0-2,0.9-2,2v10.47C10.98,58.59,11.88,59.48,12.98,59.48z"
	/>
<rect x="15.61" y="49.84" class="st2" width="4.49" height="4.49"/>
<rect x="23.61" y="49.84" class="st2" width="4.49" height="4.49"/>
<rect x="31.61" y="49.84" class="st2" width="4.49" height="4.49"/>
<path class="st0" d="M114.09,13.7H71.98c-1.66,0-3-1.34-3-3V8.72c0-1.66,1.34-3,3-3h42.11c1.66,0,3,1.34,3,3v1.98
	C117.09,12.36,115.74,13.7,114.09,13.7z"/>
<path class="st0" d="M114.09,28.7H71.98c-1.66,0-3-1.34-3-3v-1.98c0-1.66,1.34-3,3-3h42.11c1.66,0,3,1.34,3,3v1.98
	C117.09,27.36,115.74,28.7,114.09,28.7z"/>
<path class="st0" d="M114.09,43.7H71.98c-1.66,0-3-1.34-3-3v-1.98c0-1.66,1.34-3,3-3h42.11c1.66,0,3,1.34,3,3v1.98
	C117.09,42.36,115.74,43.7,114.09,43.7z"/>
<circle class="st1" cx="85.49" cy="59.83" r="7.1"/>
<path class="st0" d="M19.08,76.44h22.61c0.55,0,1,0.45,1,1v38.57c0,0.55-0.45,1-1,1H16.75c-0.55,0-1-0.45-1-1V87.19"/>
<path class="st0" d="M97.75,86.63v29.38c0,0.55-0.45,1-1,1H41.6c-0.55,0,1-0.45,1-1V77.44c0-0.55,0.45-1,1-1h51.73"/>
<path class="st0" d="M40.9,78.15l-8.16,8.16c-0.19,0.19-0.44,0.29-0.71,0.29H8.16c-0.89,0-1.33-1.07-0.71-1.7l8.01-8.16
	c0.19-0.19,0.44-0.3,0.71-0.3c2.71,0,22.04,0,28.04,0C45.09,76.44,41.53,77.52,40.9,78.15z"/>
<path class="st0" d="M73.22,76.44c0,0-20.55,0-27.99,0c-0.92,0-1.35,1.14-0.65,1.75l9.31,8.16c0.18,0.16,0.42,0.25,0.66,0.25h49.62
	c0.85,0,1.31-0.99,0.76-1.64l-6.88-8.16c-0.19-0.23-0.47-0.36-0.76-0.36L73.22,76.44z"/>
<path class="st0" d="M40.83,52.17h5.06c1.1,0,2,0.9,2,2v22.05"/>
<path class="st0" d="M49.24,24.28h4.2c1.11,0,2,0.9,2,2l-0.12,49.49"/>
<path class="st0" d="M79.38,59.92h-7.75c-1.1,0-2,0.9-2,2V76"/>
<path class="st0" d="M68.41,24.34h-4.1c-1.1,0-2,0.9-2,2V76"/>
<line class="st0" x1="77.27" y1="13.7" x2="77.27" y2="20.58"/>
<line class="st0" x1="77.27" y1="28.7" x2="77.27" y2="35.58"/>
<line class="st0" x1="108.27" y1="28.7" x2="108.27" y2="35.58"/>
<line class="st0" x1="108.27" y1="13.7" x2="108.27" y2="20.58"/>
</svg>
