<?xml version="1.0" encoding="utf-8"?>
<!-- Generator: Adobe Illustrator 23.0.3, SVG Export Plug-In . SVG Version: 6.00 Build 0)  -->
<svg version="1.1" id="Layer_1" xmlns="http://www.w3.org/2000/svg" xmlns:xlink="http://www.w3.org/1999/xlink" x="0px" y="0px"
	 viewBox="0 0 120 120" style="enable-background:new 0 0 120 120;" xml:space="preserve">
<style type="text/css">
	.st0{fill:none;stroke:#BC1818;stroke-width:3;stroke-linecap:round;stroke-linejoin:round;stroke-miterlimit:10;}
	.st1{fill:#BC1818;stroke:#BC1818;stroke-width:3;stroke-linecap:round;stroke-linejoin:round;stroke-miterlimit:10;}
</style>
<path class="st0" d="M96.36,56.51H77.11c-1.1,0-2-0.9-2-2v-4.32c0-1.1,0.9-2,2-2h19.24c1.1,0,2,0.9,2,2v4.32
	C98.36,55.61,97.46,56.51,96.36,56.51z"/>
<path class="st1" d="M96.36,75.51H77.11c-1.1,0-2-0.9-2-2v-4.32c0-1.1,0.9-2,2-2h19.24c1.1,0,2,0.9,2,2v4.32
	C98.36,74.61,97.46,75.51,96.36,75.51z"/>
<path class="st1" d="M42.97,75.51H23.73c-1.1,0-2-0.9-2-2v-4.32c0-1.1,0.9-2,2-2h19.24c1.1,0,2,0.9,2,2v4.32
	C44.97,74.61,44.07,75.51,42.97,75.51z"/>
<path class="st0" d="M42.97,94.75H23.73c-1.1,0-2-0.9-2-2v-4.32c0-1.1,0.9-2,2-2h19.24c1.1,0,2,0.9,2,2v4.32
	C44.97,93.85,44.07,94.75,42.97,94.75z"/>
<path class="st0" d="M45.02,52.91v8.35c0,0.27,0.22,0.48,0.48,0.48h21.56c0.27,0,0.48-0.22,0.48-0.48v-8.53
	c0-0.27,0.22-0.48,0.48-0.48h6.93"/>
<path class="st0" d="M67.54,60.73l0.02,29.43c0,0.27-0.22,0.48-0.48,0.48l-22.09-0.01"/>
<path class="st0" d="M55.71,90.47V72.13c0-0.27-0.22-0.48-0.48-0.48H45.18"/>
<line class="st0" x1="67.54" y1="71.12" x2="75.08" y2="71.12"/>
<line class="st0" x1="19.56" y1="30.49" x2="27.02" y2="32.41"/>
<line class="st0" x1="61.9" y1="40.51" x2="69.37" y2="42.43"/>
<line class="st0" x1="61.96" y1="33.02" x2="69.35" y2="30.84"/>
<line class="st0" x1="19.49" y1="42.37" x2="26.98" y2="40.56"/>
<path class="st0" d="M47.82,52.72c0.31,0,0.55-0.29,0.47-0.59c-0.1-0.4-0.11-0.83-0.09-1.23c0.03-0.47,0.09-0.94,0.23-1.38
	c0.14-0.42,0.39-0.75,0.69-1.07c0.6-0.63,1.34-1.1,2.06-1.58c0.31-0.21,0.63-0.42,0.93-0.65l0.01-0.01
	c2.92-2.25,4.51-5.84,4.35-9.85c-0.25-6.11-4.98-11.07-11.09-11.31c-6.74-0.26-12.04,5.12-12.04,11.8c0,2.49,0.56,4.95,2.03,6.96
	c0.68,0.93,1.5,1.76,2.41,2.46c0.67,0.51,1.41,0.92,2.09,1.42c0.63,0.46,1.36,1.02,1.57,1.81c0.18,0.7,0.31,1.45,0.23,2.17
	c-0.02,0.15-0.04,0.31-0.08,0.46c-0.08,0.3,0.16,0.59,0.47,0.59L47.82,52.72z"/>
<path class="st0" d="M115.61,103.11H4.14c-1.1,0-2-0.9-2-2V18.69c0-1.1,0.9-2,2-2h111.47c1.1,0,2,0.9,2,2v82.42
	C117.61,102.21,116.71,103.11,115.61,103.11z"/>
</svg>
