<?xml version="1.0" encoding="utf-8"?>
<!-- Generator: Adobe Illustrator 23.0.3, SVG Export Plug-In . SVG Version: 6.00 Build 0)  -->
<svg version="1.1" id="Layer_1" xmlns="http://www.w3.org/2000/svg" xmlns:xlink="http://www.w3.org/1999/xlink" x="0px" y="0px"
	 viewBox="0 0 120 120" style="enable-background:new 0 0 120 120;" xml:space="preserve">
<style type="text/css">
	.st0{fill:none;stroke:#BC181B;stroke-width:3;stroke-linecap:round;stroke-linejoin:round;stroke-miterlimit:10;}
	.st1{fill:#BC181B;stroke:#BC181B;stroke-width:3;stroke-linecap:round;stroke-linejoin:round;stroke-miterlimit:10;}
	.st2{fill:#BC191A;stroke:#BC181B;stroke-width:3;stroke-linecap:round;stroke-linejoin:round;stroke-miterlimit:10;}
	.st3{fill:#BC181B;stroke:#BC181B;stroke-width:3;stroke-miterlimit:10;}
	.st4{fill:none;stroke:#BC191A;stroke-width:3;stroke-linecap:round;stroke-linejoin:round;stroke-miterlimit:10;}
</style>
<g>
	<path class="st0" d="M47.44,117.34h17.11c0.26,0,0.47-0.21,0.47-0.47V36.23c0-0.26-0.21-0.47-0.47-0.47H18.47
		c-0.13,0-0.26,0.05-0.35,0.15L2.56,52.83c-0.08,0.09-0.12,35.83-0.12,35.95v28.56H47.44z"/>
	<path class="st1" d="M18.12,35.91V52.2c0,0.26-0.21,0.47-0.47,0.47H3.39L18.12,35.91z"/>
</g>
<circle class="st0" cx="7.07" cy="29.22" r="3.68"/>
<circle class="st0" cx="22.99" cy="19.24" r="3.68"/>
<circle class="st2" cx="66.97" cy="10.88" r="3.68"/>
<circle class="st0" cx="43.99" cy="19.24" r="3.68"/>
<path class="st3" d="M74.17,33.7l14.55-1.21l-10.84-9.65c-0.08-0.07-0.2-0.08-0.29-0.01c-0.76,0.56-4.06,3.4-3.67,10.66
	C73.92,33.61,74.04,33.71,74.17,33.7z"/>
<path class="st4" d="M83.73,22.81L97.9,35.77l-19.17,1.18c0.5,8.17,6.23,15.42,14.6,17.47c10.3,2.53,20.7-3.78,23.23-14.08
	c2.53-10.3-3.78-20.7-14.08-23.23C95.42,15.39,88.31,17.8,83.73,22.81z"/>
<circle class="st2" cx="50.34" cy="54.97" r="3.68"/>
<circle class="st2" cx="50.34" cy="99.97" r="3.68"/>
<rect x="77.11" y="85.8" class="st0" width="10" height="14.28"/>
<rect x="87.11" y="78.66" class="st0" width="10" height="21.43"/>
<rect x="97.11" y="72.94" class="st0" width="10" height="27.14"/>
<rect x="107.11" y="67.23" class="st0" width="10" height="32.85"/>
<line class="st0" x1="9.82" y1="26.78" x2="19.57" y2="20.59"/>
<line class="st0" x1="27.56" y1="19.24" x2="40.31" y2="19.24"/>
<line class="st0" x1="47.67" y1="19.24" x2="63.28" y2="11.88"/>
<polyline class="st0" points="54.02,54.97 70.65,54.98 82.11,46.71 "/>
<line class="st0" x1="117.11" y1="100.08" x2="54.02" y2="100.08"/>
<line class="st4" x1="9.82" y1="64.69" x2="43.99" y2="64.69"/>
<line class="st4" x1="9.82" y1="74.69" x2="43.99" y2="74.69"/>
<line class="st4" x1="9.82" y1="85.69" x2="55.99" y2="85.69"/>
</svg>
