<?xml version="1.0" encoding="utf-8"?>
<!-- Generator: Adobe Illustrator 23.0.3, SVG Export Plug-In . SVG Version: 6.00 Build 0)  -->
<svg version="1.1" id="Layer_1" xmlns="http://www.w3.org/2000/svg" xmlns:xlink="http://www.w3.org/1999/xlink" x="0px" y="0px"
	 viewBox="0 0 120 120" style="enable-background:new 0 0 120 120;" xml:space="preserve">
<style type="text/css">
	.st0{fill:none;stroke:#BC191A;stroke-width:3;stroke-miterlimit:10;}
	.st1{fill:none;stroke:#BC191A;stroke-width:3;stroke-linecap:round;stroke-miterlimit:10;}
	.st2{fill:none;stroke:#BC191A;stroke-width:3;stroke-linecap:round;stroke-linejoin:round;stroke-miterlimit:10;}
	.st3{fill:#BC1818;stroke:#BC191A;stroke-width:3;stroke-linecap:round;stroke-linejoin:round;stroke-miterlimit:10;}
	.st4{fill:none;stroke:#FFFFFF;stroke-width:3;stroke-linecap:round;stroke-linejoin:round;stroke-miterlimit:10;}
	.st5{fill:#FFFFFF;}
</style>
<path class="st0" d="M116.01,26.61H89.49c-1.1,0-2-0.9-2-2V6.41c0-1.1,0.9-2,2-2h26.52c1.1,0,2,0.9,2,2v18.2
	C118.01,25.72,117.12,26.61,116.01,26.61z"/>
<line class="st0" x1="95.49" y1="26.61" x2="95.49" y2="33.63"/>
<line class="st0" x1="110.21" y1="26.61" x2="110.21" y2="33.63"/>
<line class="st1" x1="91.24" y1="34.61" x2="114.38" y2="34.61"/>
<path class="st0" d="M73.8,26.61H47.28c-1.1,0-2-0.9-2-2V6.41c0-1.1,0.9-2,2-2H73.8c1.1,0,2,0.9,2,2v18.2
	C75.8,25.72,74.9,26.61,73.8,26.61z"/>
<line class="st0" x1="53.27" y1="26.61" x2="53.27" y2="33.63"/>
<line class="st0" x1="68" y1="26.61" x2="68" y2="33.63"/>
<line class="st1" x1="49.03" y1="34.61" x2="72.17" y2="34.61"/>
<path class="st0" d="M30.6,26.61H4.08c-1.1,0-2-0.9-2-2V6.41c0-1.1,0.9-2,2-2H30.6c1.1,0,2,0.9,2,2v18.2
	C32.6,25.72,31.71,26.61,30.6,26.61z"/>
<line class="st0" x1="10.08" y1="26.61" x2="10.08" y2="33.63"/>
<line class="st0" x1="24.8" y1="26.61" x2="24.8" y2="33.63"/>
<line class="st1" x1="5.83" y1="34.61" x2="28.97" y2="34.61"/>
<g>
	<polyline class="st2" points="17.34,41.14 17.34,48.98 103.69,48.98 103.69,41.14 	"/>
	<line class="st1" x1="60.6" y1="41.14" x2="60.6" y2="56.83"/>
</g>
<path class="st3" d="M61.06,117.06c23.54-9.44,21.51-39.2,21.51-39.2C65.1,72.32,61.06,64.66,61.06,64.66s-4.09,7.66-21.55,13.21
	c0,0-2.03,29.75,21.51,39.2"/>
<g>
	<path class="st4" d="M55.73,86.92v-4.11c0-2.89,2.34-5.23,5.23-5.23h0.12c2.89,0,5.23,2.34,5.23,5.23v4.11"/>
	<rect x="53.46" y="87.84" class="st4" width="15.2" height="15.2"/>
	<path class="st5" d="M61.01,98.08L61.01,98.08c-0.67,0-1.21-0.54-1.21-1.21v-1.92c0-0.67,0.54-1.21,1.21-1.21l0,0
		c0.67,0,1.21,0.54,1.21,1.21v1.92C62.22,97.54,61.68,98.08,61.01,98.08z"/>
</g>
</svg>
