<?xml version="1.0" encoding="utf-8"?>
<!-- Generator: Adobe Illustrator 23.0.3, SVG Export Plug-In . SVG Version: 6.00 Build 0)  -->
<svg version="1.1" id="Layer_1" xmlns="http://www.w3.org/2000/svg" xmlns:xlink="http://www.w3.org/1999/xlink" x="0px" y="0px"
	 viewBox="0 0 120 120" style="enable-background:new 0 0 120 120;" xml:space="preserve">
<style type="text/css">
	.st0{fill:none;stroke:#BC1818;stroke-width:3;stroke-miterlimit:10;}
	.st1{fill:#BC1818;stroke:#BC1818;stroke-width:3;stroke-linecap:round;stroke-linejoin:round;stroke-miterlimit:10;}
	.st2{fill:none;stroke:#000000;stroke-width:12;stroke-linecap:round;stroke-linejoin:round;stroke-miterlimit:10;}
	.st3{fill:none;stroke:#BC181A;stroke-width:3;stroke-linecap:round;stroke-linejoin:round;stroke-miterlimit:10;}
	.st4{fill:#BC1818;stroke:#BC181A;stroke-width:3;stroke-miterlimit:10;}
	.st5{fill:none;stroke:#BC181A;stroke-width:3;stroke-miterlimit:10;}
</style>
<g>
	<path d="M78.59,29.99"/>
</g>
<path class="st0" d="M36.66,97.94H16.55c-0.3,0-0.55-0.25-0.55-0.55V2.62c0-0.3,0.25-0.55,0.55-0.55h54.16
	c0.15,0,0.3,0.06,0.41,0.18l18.29,19.88c0.09,0.1,0.15,42.11,0.15,42.25"/>
<path class="st1" d="M71.12,2.25v19.14c0,0.3,0.25,0.55,0.55,0.55h16.76L71.12,2.25z"/>
<path class="st2" d="M56.09,20.74"/>
<path class="st2" d="M78.68,31.49"/>
<path class="st2" d="M78.68,41.13"/>
<line class="st3" x1="27.79" y1="31.73" x2="78.68" y2="31.73"/>
<path class="st4" d="M26.13,87.54l0.31,0.19c3.6,2.22,8.31,1.1,10.52-2.5l6.81-11.05c2.22-3.6,1.1-8.31-2.5-10.52l-0.31-0.19
	c-0.65-0.4-1.51-0.2-1.91,0.45L25.68,85.63C25.27,86.28,25.48,87.14,26.13,87.54z"/>
<path class="st5" d="M44.92,69.2c0,0,5.44,4.71,10.69,1.72c0,0,4.69-2.07,9.09,1.41"/>
<path class="st4" d="M102.96,87.42l-0.31,0.19c-3.6,2.22-8.31,1.1-10.52-2.5l-6.81-11.05c-2.22-3.6-1.1-8.31,2.5-10.52l0.31-0.19
	c0.65-0.4,1.51-0.2,1.91,0.45l13.37,21.71C103.81,86.16,103.61,87.01,102.96,87.42z"/>
<path class="st3" d="M69.23,80.67L92.01,94c0,0,1.89,2.2,0.24,4.58c0,0-1.65,2.75-4.95,0.86l-15.09-8.98"/>
<path class="st3" d="M83.43,71.28c-1.65,0.95-4.7,1.44-6.45,0.66c-0.77-0.34-1.48-0.81-2.24-1.19c-1.66-0.84-3.15-0.51-4.86,0
	c-1.79,0.53-3.57,1.06-5.36,1.56c0,0-2.99,0.55-3.05,4.7c-0.04,2.7,0,5.41,0,8.12c0,0.55,3.57-0.39,3.96-0.58
	c1.73-0.82,2.8-2.38,3.31-4.18l19.19,11.23l6.72-3.99L83.43,71.28z"/>
<path class="st3" d="M50.77,112.48l-0.25-0.18c-1.71-1.22-2.12-3.6-0.89-5.32l4.82-6.77c1.22-1.71,3.6-2.12,5.32-0.89l0.25,0.18
	c1.71,1.22,2.12,3.6,0.89,5.32l-4.82,6.77C54.86,113.31,52.48,113.71,50.77,112.48z"/>
<path class="st3" d="M44.4,107.62l-0.25-0.18c-1.71-1.22-2.12-3.6-0.89-5.32l4.82-6.77c1.22-1.71,3.6-2.12,5.32-0.89l0.25,0.18
	c1.71,1.22,2.12,3.6,0.89,5.32l-4.82,6.77C48.5,108.44,46.12,108.85,44.4,107.62z"/>
<path class="st3" d="M38.57,101.49l-0.25-0.18c-1.67-1.19-2.06-3.5-0.87-5.17l1.95-2.74c1.19-1.67,3.5-2.06,5.17-0.87l0.25,0.18
	c1.67,1.19,2.06,3.5,0.87,5.17l-1.95,2.74C42.55,102.28,40.24,102.67,38.57,101.49z"/>
<path class="st3" d="M57.14,117l-0.25-0.18c-1.67-1.19-2.06-3.5-0.87-5.17l1.95-2.74c1.19-1.67,3.5-2.06,5.17-0.87l0.25,0.18
	c1.67,1.19,2.06,3.5,0.87,5.17l-1.95,2.74C61.12,117.8,58.8,118.18,57.14,117z"/>
<line class="st3" x1="35.33" y1="89.27" x2="39.73" y2="92.69"/>
<path class="st3" d="M85,98.23c0,0,1.66,2.25,0.01,4.63c0,0-1.65,2.75-4.95,0.86l-15.09-8.98"/>
<path class="st3" d="M76.16,101.55c0,0,1.89,2.2,0.24,4.58c0,0-1.65,2.75-4.95,0.86l-10.55-6.74"/>
<path class="st3" d="M69.9,105.97c0,0,1.89,2.2,0.24,4.58c0,0-1.65,2.75-4.95,0.86"/>
<line class="st3" x1="88.58" y1="90.83" x2="93.35" y2="88.21"/>
<line class="st3" x1="27.79" y1="41.63" x2="78.68" y2="41.63"/>
<line class="st3" x1="27.79" y1="21.95" x2="54.88" y2="21.95"/>
</svg>
