<?xml version="1.0" encoding="utf-8"?>
<!-- Generator: Adobe Illustrator 23.0.3, SVG Export Plug-In . SVG Version: 6.00 Build 0)  -->
<svg version="1.1" id="Layer_1" xmlns="http://www.w3.org/2000/svg" xmlns:xlink="http://www.w3.org/1999/xlink" x="0px" y="0px"
	 viewBox="0 0 120 120" style="enable-background:new 0 0 120 120;" xml:space="preserve">
<style type="text/css">
	.st0{fill:#BC1818;}
	.st1{fill:none;stroke:#BC1818;stroke-width:3;stroke-miterlimit:10;}
	.st2{fill:#FFFFFF;}
</style>
<rect x="6.34" y="3.56" class="st0" width="108" height="22.72"/>
<path class="st1" d="M85.32,113.28H7.34c-1.1,0-2-0.9-2-2v-106c0-1.1,0.9-2,2-2h106c1.1,0,2,0.9,2,2v106c0,1.1-0.9,2-2,2H95.78"/>
<line class="st1" x1="6.34" y1="26.28" x2="114.34" y2="26.28"/>
<circle class="st2" cx="19.34" cy="15.28" r="5"/>
<circle class="st2" cx="35.34" cy="15.28" r="5"/>
<g>
	<path class="st1" d="M52.29,63.65l4.38,20.64c0.08,0.38,0.27,0.73,0.54,1l31.67,31.67c0.78,0.78,2.05,0.78,2.83,0L107,101.68
		c0.79-0.79,0.78-2.06-0.01-2.84L75.11,67.46c-0.29-0.28-0.65-0.47-1.04-0.54l-21.19-3.86C52.52,62.99,52.22,63.3,52.29,63.65z"/>
	<path class="st0" d="M57.21,85.29l17.89-17.83l-22.21-4.38c-0.35-0.07-0.66,0.25-0.58,0.6L57.21,85.29z"/>
</g>
</svg>
