<?xml version="1.0" encoding="utf-8"?>
<!-- Generator: Adobe Illustrator 23.0.3, SVG Export Plug-In . SVG Version: 6.00 Build 0)  -->
<svg version="1.1" id="Layer_1" xmlns="http://www.w3.org/2000/svg" xmlns:xlink="http://www.w3.org/1999/xlink" x="0px" y="0px"
	 viewBox="0 0 120 120" style="enable-background:new 0 0 120 120;" xml:space="preserve">
<style type="text/css">
	.st0{fill:none;stroke:#BC1818;stroke-width:3;stroke-miterlimit:10;}
	.st1{fill:#BC1818;}
</style>
<path class="st0" d="M85.32,113.28H7.34c-1.1,0-2-0.9-2-2v-106c0-1.1,0.9-2,2-2h106c1.1,0,2,0.9,2,2v106c0,1.1-0.9,2-2,2H95.78"/>
<line class="st0" x1="6.34" y1="26.28" x2="114.34" y2="26.28"/>
<circle class="st1" cx="19.34" cy="15.28" r="5"/>
<circle class="st1" cx="35.34" cy="15.28" r="5"/>
<g>
	<path class="st0" d="M52.14,62.92l4.53,21.37c0.08,0.38,0.27,0.73,0.54,1l31.67,31.67c0.78,0.78,2.05,0.78,2.83,0L107,101.68
		c0.79-0.79,0.78-2.06-0.01-2.84L75.11,67.46c-0.29-0.28-0.65-0.47-1.04-0.54L52.14,62.92z"/>
	<polygon class="st1" points="57.21,85.29 75.11,67.46 52.14,62.92 	"/>
</g>
</svg>
