<?xml version="1.0" encoding="utf-8"?>
<!-- Generator: Adobe Illustrator 17.0.0, SVG Export Plug-In . SVG Version: 6.00 Build 0)  -->
<!DOCTYPE svg PUBLIC "-//W3C//DTD SVG 1.1//EN" "http://www.w3.org/Graphics/SVG/1.1/DTD/svg11.dtd">
<svg version="1.1" id="Layer_1" xmlns="http://www.w3.org/2000/svg" xmlns:xlink="http://www.w3.org/1999/xlink" x="0px" y="0px"
	 width="750px" height="750px" viewBox="0 0 750 750" enable-background="new 0 0 750 750" xml:space="preserve">
<g id="surface1">
	<path fill="#FFFFFF" d="M562.5,0C458.945,0,375,83.945,375,187.5S458.945,375,562.5,375S750,291.055,750,187.5
		C749.883,83.992,666.008,0.117,562.5,0z M400.633,200h63.957c0.762,25.242,3.918,50.352,9.426,75h-48.23
		C411.309,252.48,402.66,226.703,400.633,200z M575,75V25.633c9.449,0.734,18.82,2.297,27.984,4.68
		c6.66,14.516,12.387,29.445,17.137,44.687H575z M627.051,100c5.914,24.59,9.32,49.719,10.16,75H575v-75H627.051z M550,75h-43.313
		c4.762-15.273,10.496-30.219,17.164-44.766L523.297,30c8.766-2.195,17.695-3.656,26.703-4.367V75z M550,100v75h-60.398
		c0.836-25.281,4.246-50.41,10.16-75H550z M464.59,175h-63.957c2.027-26.703,10.676-52.48,25.152-75h48.23
		C468.508,124.648,465.352,149.758,464.59,175z M489.59,200H550v75h-50.238c-5.914-24.59-9.324-49.719-10.16-75H489.59z M550,300
		v49.367c-9.004-0.703-17.938-2.156-26.703-4.344l0.555-0.258c-6.668-14.547-12.402-29.492-17.164-44.766H550z M575,300h45.121
		c-4.75,15.242-10.477,30.172-17.137,44.688c-9.164,2.383-18.535,3.945-27.984,4.68V300z M575,275v-75h62.211
		c-0.84,25.281-4.246,50.41-10.16,75H575z M662.227,200h62.141c-2.027,26.703-10.676,52.48-25.152,75h-46.41
		C658.305,250.352,661.465,225.242,662.227,200z M662.227,175c-0.762-25.242-3.922-50.352-9.422-75h46.41
		c14.477,22.52,23.125,48.297,25.152,75H662.227z M679.488,75H646.25c-3.227-10.977-6.875-21.875-11.051-32.613
		C651.703,50.672,666.676,61.699,679.488,75z M491.988,41.328c-4.348,11.086-8.113,22.336-11.441,33.672h-34.996
		C458.914,61.125,474.641,49.719,491.988,41.328z M445.512,300h35c3.324,11.336,7.086,22.586,11.438,33.672
		C474.605,325.281,458.883,313.875,445.512,300z M635.211,332.613c4.172-10.738,7.828-21.637,11.055-32.613h33.223
		C666.68,313.301,651.711,324.328,635.211,332.613z"/>
	<path fill="#FFFFFF" d="M50,662.5h83.422L115.566,725H87.5v25h200v-25h-28.066l-17.855-62.5H325c27.613,0,50-22.387,50-50V425
		c0-27.613-22.387-50-50-50H50c-27.613,0-50,22.387-50,50v187.5C0,640.113,22.387,662.5,50,662.5z M233.422,725h-91.844l17.844-62.5
		h56.156L233.422,725z M325,637.5H50c-13.809,0-25-11.191-25-25v-25h325v25C350,626.309,338.809,637.5,325,637.5z M50,400h275
		c13.809,0,25,11.191,25,25v137.5H25V425C25,411.191,36.191,400,50,400z"/>
	<path fill="#FFFFFF" d="M325,100h25v25h-25V100z"/>
	<path fill="#FFFFFF" d="M275,100h25v25h-25V100z"/>
	<path fill="#FFFFFF" d="M225,100h25v25h-25V100z"/>
	<path fill="#FFFFFF" d="M175,100h25v25h-25V100z"/>
	<path fill="#FFFFFF" d="M175,275h25v25h-25V275z"/>
	<path fill="#FFFFFF" d="M175,325h25v25h-25V325z"/>
	<path fill="#FFFFFF" d="M400,550h25v25h-25V550z"/>
	<path fill="#FFFFFF" d="M237.5,200c0-27.613-22.387-50-50-50s-50,22.387-50,50s22.387,50,50,50S237.5,227.613,237.5,200z
		 M187.5,225c-13.809,0-25-11.191-25-25s11.191-25,25-25s25,11.191,25,25S201.309,225,187.5,225z"/>
	<path fill="#FFFFFF" d="M600,562.5c0-27.613-22.387-50-50-50s-50,22.387-50,50s22.387,50,50,50S600,590.113,600,562.5z M525,562.5
		c0-13.809,11.191-25,25-25s25,11.191,25,25s-11.191,25-25,25S525,576.309,525,562.5z"/>
	<path fill="#FFFFFF" d="M450,550h25v25h-25V550z"/>
	<path fill="#FFFFFF" d="M625,550h25v25h-25V550z"/>
	<path fill="#FFFFFF" d="M625,500h25v25h-25V500z"/>
	<path fill="#FFFFFF" d="M625,450h25v25h-25V450z"/>
	<path fill="#FFFFFF" d="M625,400h25v25h-25V400z"/>
</g>
</svg>
