<?xml version="1.0" encoding="utf-8"?>
<!-- Generator: Adobe Illustrator 17.0.0, SVG Export Plug-In . SVG Version: 6.00 Build 0)  -->
<!DOCTYPE svg PUBLIC "-//W3C//DTD SVG 1.1//EN" "http://www.w3.org/Graphics/SVG/1.1/DTD/svg11.dtd">
<svg version="1.1" id="Capa_1" xmlns="http://www.w3.org/2000/svg" xmlns:xlink="http://www.w3.org/1999/xlink" x="0px" y="0px"
	 width="1024px" height="1024px" viewBox="0 0 1024 1024" enable-background="new 0 0 1024 1024" xml:space="preserve">
<g>
	<g>
		<g>
			<path fill="#2A1FBC" d="M119.466,68.266H102.4c-9.426,0-17.066,7.64-17.066,17.066S92.974,102.4,102.4,102.4h17.066
				c9.426,0,17.066-7.64,17.066-17.066S128.892,68.266,119.466,68.266z"/>
			<path fill="#2A1FBC" d="M204.8,68.266h-17.066c-9.426,0-17.066,7.64-17.066,17.066s7.642,17.066,17.066,17.066H204.8
				c9.426,0,17.066-7.64,17.066-17.066S214.226,68.266,204.8,68.266z"/>
			<path fill="#2A1FBC" d="M290.134,68.266h-17.066c-9.426,0-17.066,7.64-17.066,17.066s7.64,17.066,17.066,17.066h17.066
				c9.426,0,17.066-7.64,17.066-17.066S299.558,68.266,290.134,68.266z"/>
			<path fill="#2A1FBC" d="M819.2,68.266H358.4c-9.426,0-17.066,7.64-17.066,17.066s7.64,17.066,17.066,17.066h460.8
				c9.426,0,17.066-7.64,17.066-17.066S828.626,68.266,819.2,68.266z"/>
			<path fill="#2A1FBC" d="M989.866,614.4H972.8v-85.334c-0.014-47.786-18.336-93.752-51.2-128.444V85.334
				C921.544,38.228,883.372,0.056,836.266,0H85.334C38.228,0.056,0.056,38.228,0,85.334V768
				c0.056,47.104,38.228,85.276,85.334,85.334h460.8v51.2C546.21,970.482,599.652,1023.926,665.6,1024h238.934
				c65.948-0.076,119.392-53.518,119.466-119.466v-256C1024,629.682,1008.718,614.4,989.866,614.4z M938.666,529.066V614.4h-307.2
				v-85.334c0-84.83,68.77-153.6,153.6-153.6S938.666,444.236,938.666,529.066z M34.134,85.334c0-28.276,22.924-51.2,51.2-51.2
				h750.934c28.276,0,51.2,22.924,51.2,51.2v51.2H34.134V85.334z M546.134,648.534V819.2h-460.8c-28.276,0-51.2-22.924-51.2-51.2
				V170.666h853.334v201.25c-57.658-37.716-131.356-40.772-191.938-7.958s-98.286,96.21-98.196,165.108V614.4h-17.066
				C561.416,614.4,546.134,629.682,546.134,648.534z M989.866,682.666h-51.2c-9.426,0-17.066,7.64-17.066,17.066
				s7.64,17.066,17.066,17.066h51.2v34.134h-51.2c-9.426,0-17.066,7.64-17.066,17.066s7.64,17.066,17.066,17.066h51.2V819.2h-51.2
				c-9.426,0-17.066,7.64-17.066,17.066s7.64,17.066,17.066,17.066h51.2v34.134h-51.2c-9.426,0-17.066,7.642-17.066,17.066
				c0,9.426,7.64,17.066,17.066,17.066h49.494c-8.166,39.704-43.092,68.216-83.626,68.266H665.6
				c-40.534-0.052-75.462-28.562-83.626-68.266h49.494c9.426,0,17.066-7.642,17.066-17.066c0-9.426-7.64-17.066-17.066-17.066h-51.2
				v-34.134h51.2c9.426,0,17.066-7.64,17.066-17.066s-7.64-17.066-17.066-17.066h-51.2v-34.134h51.2
				c9.426,0,17.066-7.64,17.066-17.066s-7.64-17.066-17.066-17.066h-51.2V716.8h51.2c9.426,0,17.066-7.64,17.066-17.066
				s-7.64-17.066-17.066-17.066h-51.2v-34.134h409.6v34.132H989.866z"/>
			<path fill="#2A1FBC" d="M768,833.126V870.4c0,9.426,7.642,17.066,17.066,17.066c9.426,0,17.066-7.64,17.066-17.066v-37.274
				c23.494-8.274,37.592-32.288,33.372-56.836s-25.53-42.472-50.438-42.424c-24.908-0.048-46.218,17.878-50.438,42.424
				C730.408,800.838,744.506,824.852,768,833.126z M785.066,768c9.426,0,17.066,7.642,17.066,17.066
				c0,9.426-7.642,17.066-17.066,17.066c-9.426,0-17.066-7.642-17.066-17.066S775.642,768,785.066,768z"/>
			<path fill="#2A1FBC" d="M290.134,341.334c-9.426,0-17.066,7.64-17.066,17.066v51.2H136.534V273.066H204.8
				c9.426,0,17.066-7.64,17.066-17.066s-7.64-17.066-17.066-17.066h-68.266c-18.852,0-34.134,15.282-34.134,34.134V409.6
				c0,18.852,15.282,34.134,34.134,34.134h136.534c18.852,0,34.134-15.282,34.134-34.134v-51.2
				C307.2,348.974,299.558,341.334,290.134,341.334z"/>
			<path fill="#2A1FBC" d="M182.732,312.2c-6.696-6.468-17.342-6.376-23.924,0.208c-6.584,6.584-6.676,17.228-0.208,23.924
				l34.134,34.134c3.2,3.2,7.54,5,12.066,5h0.768c4.788-0.214,9.266-2.43,12.34-6.11l85.334-102.4
				c3.908-4.682,5.022-11.094,2.92-16.822c-2.102-5.726-7.098-9.896-13.108-10.94s-12.12,1.198-16.028,5.882L203.64,333.14
				L182.732,312.2z"/>
			<path fill="#2A1FBC" d="M290.134,631.466c-9.426,0-17.066,7.64-17.066,17.066v51.2H136.534V563.2H204.8
				c9.426,0,17.066-7.642,17.066-17.066c0-9.426-7.64-17.066-17.066-17.066h-68.266c-18.852,0-34.134,15.282-34.134,34.134v136.534
				c0,18.852,15.282,34.134,34.134,34.134h136.534c18.852,0,34.134-15.282,34.134-34.134v-51.2
				C307.2,639.108,299.558,631.466,290.134,631.466z"/>
			<path fill="#2A1FBC" d="M182.732,602.334c-6.696-6.468-17.342-6.376-23.924,0.208c-6.584,6.584-6.676,17.228-0.208,23.924
				l34.134,34.134c3.2,3.2,7.54,5,12.066,5h0.768c4.788-0.214,9.266-2.43,12.34-6.11l85.334-102.4
				c3.908-4.682,5.022-11.094,2.92-16.82s-7.098-9.896-13.108-10.94s-12.12,1.198-16.028,5.882l-73.386,88.064L182.732,602.334z"/>
			<path fill="#2A1FBC" d="M375.466,290.134H512c9.426,0,17.066-7.64,17.066-17.066S521.426,256,512,256H375.466
				c-9.426,0-17.066,7.64-17.066,17.066S366.042,290.134,375.466,290.134z"/>
			<path fill="#2A1FBC" d="M614.4,358.4c0-9.426-7.64-17.066-17.066-17.066H375.466c-9.426,0-17.066,7.64-17.066,17.066
				s7.64,17.066,17.066,17.066h221.866C606.76,375.466,614.4,367.826,614.4,358.4z"/>
			<path fill="#2A1FBC" d="M512,546.134H375.466c-9.426,0-17.066,7.642-17.066,17.066s7.64,17.066,17.066,17.066H512
				c9.426,0,17.066-7.64,17.066-17.066S521.426,546.134,512,546.134z"/>
			<path fill="#2A1FBC" d="M494.934,631.466H375.468c-9.426,0-17.066,7.64-17.066,17.066s7.64,17.066,17.066,17.066h119.466
				c9.426,0,17.066-7.64,17.066-17.066S504.36,631.466,494.934,631.466z"/>
		</g>
	</g>
</g>
</svg>
