<?xml version="1.0" encoding="utf-8"?>
<!-- Generator: Adobe Illustrator 17.0.0, SVG Export Plug-In . SVG Version: 6.00 Build 0)  -->
<!DOCTYPE svg PUBLIC "-//W3C//DTD SVG 1.1//EN" "http://www.w3.org/Graphics/SVG/1.1/DTD/svg11.dtd">
<svg version="1.1" id="Capa_1" xmlns="http://www.w3.org/2000/svg" xmlns:xlink="http://www.w3.org/1999/xlink" x="0px" y="0px"
	 width="512px" height="512px" viewBox="0 0 512 512" enable-background="new 0 0 512 512" xml:space="preserve">
<g>
	<path fill="#FFFFFF" d="M94.744,296.184C85.927,301.414,80,311.026,80,322c0,16.542,13.458,30,30,30
		c13.036,0,24.152-8.361,28.28-20H216c16.542,0,30,13.458,30,30s-13.458,30-30,30H96c-27.57,0-50,22.43-50,50s22.43,50,50,50h100
		c5.523,0,10-4.477,10-10s-4.477-10-10-10H96c-16.542,0-30-13.458-30-30s13.458-30,30-30h120c27.57,0,50-22.43,50-50
		s-22.43-50-50-50h-77.72c-2.365-6.668-7.023-12.257-13.024-15.816l76.378-125.316C213.649,152.808,220,131.764,220,110
		C220,49.346,170.654,0,110,0S0,49.346,0,110c0,21.764,6.351,42.808,18.366,60.868L94.744,296.184z M110,332
		c-5.514,0-10-4.486-10-10s4.486-10,10-10s10,4.486,10,10S115.514,332,110,332z M110,20c49.626,0,90,40.374,90,90
		c0,17.868-5.227,35.135-15.115,49.935c-0.077,0.115-0.152,0.232-0.224,0.351L110,282.785c0,0-74.808-122.735-74.885-122.85
		C25.227,145.135,20,127.868,20,110C20,60.374,60.374,20,110,20z"/>
	<path fill="#FFFFFF" d="M110,160c27.57,0,50-22.43,50-50s-22.43-50-50-50s-50,22.43-50,50S82.43,160,110,160z M110,80
		c16.542,0,30,13.458,30,30s-13.458,30-30,30s-30-13.458-30-30S93.458,80,110,80z"/>
	<path fill="#FFFFFF" d="M402,166c-60.654,0-110,49.346-110,110c0,21.799,6.371,42.875,18.424,60.954l76.093,119.36
		c-5.892,3.565-10.461,9.101-12.796,15.686H286c-5.523,0-10,4.477-10,10s4.477,10,10,10h87.72c4.128,11.639,15.243,20,28.28,20
		c16.542,0,30-13.458,30-30c0-10.881-5.823-20.426-14.516-25.686l76.093-119.36C505.629,318.875,512,297.799,512,276
		C512,215.346,462.654,166,402,166L402,166z M402,492c-5.514,0-10-4.486-10-10s4.486-10,10-10s10,4.486,10,10S407.514,492,402,492z
		 M476.885,325.935C476.846,325.995,402,443.397,402,443.397s-74.846-117.403-74.885-117.462C317.227,311.135,312,293.868,312,276
		c0-49.626,40.374-90,90-90s90,40.374,90,90C492,293.868,486.773,311.135,476.885,325.935z"/>
	<path fill="#FFFFFF" d="M402,226c-27.57,0-50,22.43-50,50s22.43,50,50,50s50-22.43,50-50S429.57,226,402,226z M402,306
		c-16.542,0-30-13.458-30-30s13.458-30,30-30s30,13.458,30,30S418.542,306,402,306z"/>
	<circle fill="#FFFFFF" cx="241" cy="482" r="10"/>
</g>
</svg>
