<?xml version="1.0" encoding="utf-8"?>
<!-- Generator: Adobe Illustrator 17.0.0, SVG Export Plug-In . SVG Version: 6.00 Build 0)  -->
<!DOCTYPE svg PUBLIC "-//W3C//DTD SVG 1.1//EN" "http://www.w3.org/Graphics/SVG/1.1/DTD/svg11.dtd">
<svg version="1.1" id="Layer_1" xmlns="http://www.w3.org/2000/svg" xmlns:xlink="http://www.w3.org/1999/xlink" x="0px" y="0px"
	 width="480px" height="480px" viewBox="0 0 480 480" enable-background="new 0 0 480 480" xml:space="preserve">
<path fill="#FFFFFF" d="M344.339,232.085h63.577c36.679,0.055,67.532-27.479,71.632-63.928s-19.861-70.152-55.638-78.247
	c0-0.601,0-1.191,0-1.777c-0.035-30.9-25.078-55.946-55.981-55.981c-6.064-0.004-12.09,1-17.826,2.968
	c-18.9-25.081-49.761-38.159-80.93-34.289c-31.169,3.866-57.899,24.086-70.098,53.029c-27.081-17.205-61.382-18.287-89.498-2.827
	c-28.112,15.46-45.567,45.005-45.547,77.088v0.441c-37.98,4.217-66.044,37.386-63.916,75.541c2.124,38.155,33.7,68.001,71.914,67.97
	h207.931C307.265,272.036,332.202,256.549,344.339,232.085z M279.958,16.157c24.515-0.031,47.344,12.457,60.535,33.118
	c2.191,3.409,6.584,4.639,10.227,2.862c5.358-2.628,11.246-3.991,17.209-3.991c11.859-0.09,23.141,5.127,30.748,14.226
	s10.746,21.122,8.56,32.778c-0.379,2.171,0.156,4.405,1.476,6.17c1.324,1.765,3.315,2.905,5.506,3.151
	c29.553,3.292,51.374,29.108,49.698,58.797c-1.675,29.685-26.265,52.881-56.001,52.822h-57.836
	c4.319-18.607,1.035-38.171-9.126-54.345c-10.165-16.178-26.358-27.631-45.001-31.818c0-0.605,0-1.207,0-1.808
	c-0.035-30.9-25.078-55.946-55.981-55.981c-6.068-0.004-12.101,0.992-17.85,2.952c-3.003-3.901-6.326-7.544-9.938-10.891
	C222.332,35.455,249.476,16.215,279.958,16.157z M16.045,200.095c0.043-14.901,6.006-29.178,16.584-39.682
	c10.575-10.5,24.894-16.362,39.799-16.299c2.261,0,4.413-0.953,5.932-2.632c1.515-1.675,2.249-3.913,2.027-6.162
	c-0.234-2.402-0.363-4.799-0.363-7.201c-0.023-31.942,21.024-60.074,51.674-69.071s63.561,3.3,80.805,30.189
	c2.183,3.393,6.553,4.627,10.188,2.878c5.385-2.62,11.293-3.979,17.279-3.983c22.075,0.027,39.963,17.916,39.987,39.987
	c-0.008,2.355-0.23,4.702-0.664,7.017c-0.391,2.175,0.137,4.42,1.46,6.197c1.324,1.773,3.323,2.921,5.522,3.167
	c29.4,3.456,51.026,29.205,49.351,58.762c-1.671,29.557-26.066,52.697-55.669,52.814H72.027
	C41.127,256.042,16.081,230.999,16.045,200.095z"/>
<path fill="#FFFFFF" d="M407.915,280.069h15.995v47.984h-15.995V280.069z"/>
<path fill="#FFFFFF" d="M407.915,344.047h15.995v15.995h-15.995V344.047z"/>
<path fill="#FFFFFF" d="M447.902,320.055h15.995v31.989h-15.995V320.055z"/>
<path fill="#FFFFFF" d="M447.902,368.039h15.995v15.995h-15.995V368.039z"/>
<path fill="#FFFFFF" d="M447.902,400.029h15.995v15.995h-15.995V400.029z"/>
<path fill="#FFFFFF" d="M367.928,328.053h15.995v47.984h-15.995V328.053z"/>
<path fill="#FFFFFF" d="M367.928,392.031h15.995v15.995h-15.995V392.031z"/>
<path fill="#FFFFFF" d="M367.928,440.015h15.995v15.995h-15.995V440.015z"/>
<path fill="#FFFFFF" d="M56.032,304.061h15.995v47.984H56.032V304.061z"/>
<path fill="#FFFFFF" d="M56.032,368.039h15.995v15.995H56.032V368.039z"/>
<path fill="#FFFFFF" d="M16.045,336.05H32.04v31.989H16.045V336.05z"/>
<path fill="#FFFFFF" d="M16.045,384.034H32.04v15.995H16.045V384.034z"/>
<path fill="#FFFFFF" d="M16.045,416.023H32.04v15.995H16.045V416.023z"/>
<path fill="#FFFFFF" d="M96.019,328.053h15.995v47.984H96.019V328.053z"/>
<path fill="#FFFFFF" d="M96.019,392.031h15.995v15.995H96.019V392.031z"/>
<path fill="#FFFFFF" d="M96.019,440.015h15.995v15.995H96.019V440.015z"/>
<path fill="#FFFFFF" d="M327.942,288.066H183.99c-13.25,0-23.992,10.743-23.992,23.992v7.997H152
	c-13.249,0-23.992,10.743-23.992,23.992V456.01c0,13.253,10.743,23.992,23.992,23.992h143.952c13.253,0,23.992-10.739,23.992-23.992
	v-7.997h7.997c13.253,0,23.992-10.739,23.992-23.992V312.058C351.934,298.809,341.195,288.066,327.942,288.066z M152,336.05h143.952
	c4.42,0,7.997,3.581,7.997,7.997v7.997H144.003v-7.997C144.003,339.631,147.584,336.05,152,336.05z M295.952,464.007H152
	c-4.417,0-7.997-3.581-7.997-7.997v-87.971H303.95v87.971C303.95,460.427,300.373,464.007,295.952,464.007z M335.939,424.021
	c0,4.417-3.577,7.997-7.997,7.997h-7.997v-87.971c0-13.249-10.739-23.992-23.992-23.992h-119.96v-7.997
	c0-4.417,3.581-7.997,7.997-7.997h143.952c4.42,0,7.997,3.581,7.997,7.997V424.021z"/>
<path fill="#FFFFFF" d="M215.979,400.029h15.995v15.995h-15.995V400.029z"/>
<path fill="#FFFFFF" d="M247.968,400.029h15.995v15.995h-15.995V400.029z"/>
<path fill="#FFFFFF" d="M183.99,400.029h15.995v15.995H183.99V400.029z"/>
</svg>
