<?xml version="1.0" encoding="utf-8"?>
<!-- Generator: Adobe Illustrator 17.0.0, SVG Export Plug-In . SVG Version: 6.00 Build 0)  -->
<!DOCTYPE svg PUBLIC "-//W3C//DTD SVG 1.1//EN" "http://www.w3.org/Graphics/SVG/1.1/DTD/svg11.dtd">
<svg version="1.1" id="Layer_1" xmlns="http://www.w3.org/2000/svg" xmlns:xlink="http://www.w3.org/1999/xlink" x="0px" y="0px"
	 width="1024px" height="882.05px" viewBox="0 158.974 1024 882.05" enable-background="new 0 158.974 1024 882.05"
	 xml:space="preserve">
<g>
	<g>
		<g>
			<rect x="890.352" y="532.132" fill="#291FBC" width="30.416" height="65.212"/>
			<path fill="#291FBC" d="M930.55,295.072v-96.598c0-21.78-17.718-39.5-39.498-39.5h-305.61c-21.78,0-39.5,17.72-39.5,39.5v96.596
				h-76.996v-96.596c0-21.78-17.72-39.5-39.5-39.5h-305.61c-21.782,0-39.5,17.72-39.5,39.5v96.596H0v745.954h1024V295.072H930.55z
				 M576.356,198.474c0-5.01,4.076-9.084,9.084-9.084h305.61c5.008,0,9.082,4.076,9.082,9.084v96.596H844.94v-78.534h-30.416v78.536
				H576.356V198.474z M114.748,198.474c0-5.01,4.076-9.084,9.084-9.084H429.44c5.008,0,9.084,4.076,9.084,9.084v96.596h-58.252
				v-78.534h-30.416v78.536H114.748V198.474z M993.584,1010.61h-72.808V626.596H890.36v384.014H30.416V325.486h53.918h384.61h76.996
				h384.61h63.034L993.584,1010.61L993.584,1010.61z"/>
			<path fill="#291FBC" d="M771.554,639.514c-2.056-0.156-4.134-0.236-6.184-0.236c-20.658,0-40.234,7.884-55.124,22.192
				c-0.108,0.102-0.21,0.202-0.318,0.3V499.714H547.874c0.1-0.108,0.198-0.21,0.298-0.316c15.676-16.312,23.68-38.66,21.956-61.312
				c-2.898-38.052-32.48-68.706-70.342-72.886c-2.988-0.328-6.016-0.496-9-0.496c-43.878,0-79.574,35.696-79.574,79.576
				c0,20.828,7.988,40.508,22.5,55.438H271.65v198.668h15.208c12.496,0,24.474-4.984,32.862-13.67
				c10.244-10.606,24.426-16.012,39.242-14.87c23.096,1.756,42.426,20.392,44.962,43.346c1.574,14.242-2.762,27.896-12.21,38.446
				c-9.322,10.408-22.674,16.378-36.634,16.378c-13.262,0-25.692-5.204-35.004-14.656c-6.372-6.464-14.354-10.926-23.084-12.898
				c-1.514-0.344-3.068-0.518-4.614-0.518c-11.43,0-20.728,9.278-20.728,20.686v177.362h177.982
				c11.406,0,20.686-9.278,20.686-20.684c0-12.496-4.984-24.476-13.672-32.864c-10.57-10.206-15.988-24.512-14.87-39.244
				c1.758-23.096,20.394-42.424,43.35-44.96c1.886-0.21,3.79-0.314,5.662-0.314c27.106,0,49.16,22.054,49.16,49.16
				c0,13.212-5.17,25.61-14.562,34.912c-9.11,9.028-14.13,20.792-14.13,33.13c0,11.506,9.36,20.866,20.868,20.866h177.8V775.932
				c14.93,14.51,34.608,22.5,55.438,22.5c22.598,0,44.21-9.66,59.292-26.502c15.074-16.83,22.284-39.456,19.786-62.074
				C840.26,671.99,809.606,642.41,771.554,639.514z M802.002,751.634c-9.322,10.41-22.676,16.38-36.634,16.38
				c-12.914,0-25.114-4.972-34.348-14c-9.686-9.474-22.574-14.688-36.296-14.688h-15.208v168.252H545.062
				c0.524-0.684,1.102-1.342,1.736-1.974c15.2-15.056,23.57-35.128,23.57-56.518c0-43.88-35.696-79.576-79.576-79.576
				c-2.982,0-6.01,0.168-9,0.496c-37.862,4.186-67.444,34.838-70.34,72.884c-1.81,23.796,6.964,46.916,24.072,63.436
				c0.404,0.39,0.782,0.808,1.138,1.25h-134.59V778.194c14.6,13.084,33.236,20.234,53.014,20.234
				c22.596,0,44.208-9.66,59.292-26.502c15.074-16.83,22.284-39.456,19.784-62.076c-4.184-37.86-34.838-67.44-72.888-70.336
				c-2.054-0.156-4.136-0.236-6.184-0.236c-19.812,0-38.424,7.142-53.016,20.232V530.132l168.252-0.01v-15.208
				c0-13.712-5.216-26.598-14.688-36.288c-9.03-9.236-14.002-21.432-14.002-34.348c0-27.106,22.052-49.16,49.158-49.16
				c1.872,0,3.776,0.106,5.662,0.314c22.956,2.534,41.592,21.864,43.35,44.962c1.082,14.234-3.734,27.702-13.56,37.928
				c-9.662,10.052-14.982,23.05-14.982,36.6v15.208h168.252v168.252h15.208c13.55,0,26.546-5.32,36.602-14.982
				c10.122-9.726,23.802-14.628,37.926-13.56c23.096,1.756,42.426,20.392,44.962,43.35
				C815.786,727.434,811.45,741.084,802.002,751.634z"/>
		</g>
	</g>
</g>
</svg>
