<?xml version="1.0" encoding="utf-8"?>
<!-- Generator: Adobe Illustrator 17.0.0, SVG Export Plug-In . SVG Version: 6.00 Build 0)  -->
<!DOCTYPE svg PUBLIC "-//W3C//DTD SVG 1.1//EN" "http://www.w3.org/Graphics/SVG/1.1/DTD/svg11.dtd">
<svg version="1.1" id="Layer_1" xmlns="http://www.w3.org/2000/svg" xmlns:xlink="http://www.w3.org/1999/xlink" x="0px" y="0px"
	 width="453px" height="453px" viewBox="0 0 453 453" enable-background="new 0 0 453 453" xml:space="preserve">
<path fill="#291FBC" d="M70.868,106.294h0.483c18.179-0.019,32.908-14.749,32.928-32.928V62.402
	c-0.019-18.175-14.749-32.905-32.928-32.928h-0.483C52.689,29.497,37.96,44.227,37.94,62.402v10.96
	C37.956,91.541,52.689,106.275,70.868,106.294z M51.91,62.406c0.012-10.465,8.489-18.947,18.959-18.959h0.483
	c10.465,0.012,18.947,8.493,18.959,18.959v10.96c-0.012,10.465-8.493,18.947-18.959,18.959h-0.483
	c-10.469-0.012-18.947-8.493-18.959-18.959V62.406z"/>
<path fill="#291FBC" d="M109.857,116.803H96.075c-1.777,0.004-3.485,0.682-4.779,1.898l-19.185,18l-18.413-17.922
	c-1.306-1.267-3.052-1.976-4.872-1.976H34.195c-9.604,0-18.764,4.038-25.242,11.124c-6.478,7.09-9.678,16.577-8.813,26.142v80.161
	c0,11.83,9.588,21.418,21.418,21.426h0.253c2.869-0.031,5.702-0.655,8.322-1.832l3.679,144.956
	c0.316,8.918,5.843,16.819,14.114,20.171c8.271,3.348,17.739,1.528,24.174-4.658c6.443,6.193,15.93,8.014,24.209,4.642
	c8.279-3.372,13.794-11.299,14.082-20.229l3.676-144.765c6.622,2.826,14.219,2.136,20.225-1.832
	c6.006-3.972,9.623-10.688,9.623-17.891v-80.145c0.861-9.565-2.335-19.052-8.813-26.142
	C128.621,120.841,119.461,116.803,109.857,116.803z M87.757,406.634c-4.79-0.004-8.672-3.886-8.676-8.672V252.755H65.112v145.206
	c-0.004,4.712-3.769,8.559-8.481,8.665c-4.712,0.105-8.645-3.57-8.86-8.279l-4.159-163.829h56.977l-4.163,163.751
	C96.274,402.942,92.431,406.649,87.757,406.634z M129.977,153.032c-0.023,0.234-0.035,0.472-0.035,0.705v80.48
	c-0.047,4.093-3.379,7.39-7.476,7.39c-4.093,0-7.425-3.297-7.472-7.39v-17.06l0.082-3.243h-0.082v-33.567h-13.969v36.646
	l-0.09,3.555H43.261l-0.175-6.985H43v-33.213H29.03v53.477c0.094,4.194-3.184,7.686-7.374,7.862
	c-1.992,0.023-3.909-0.752-5.328-2.152c-1.415-1.403-2.214-3.309-2.214-5.305v-80.492c0-0.238-0.012-0.472-0.035-0.705
	c-0.577-5.691,1.282-11.358,5.118-15.599c3.835-4.241,9.284-6.661,15.002-6.661h11.795l21.157,20.588
	c0.031,0.031,0.066,0.051,0.101,0.082c0.21,0.199,0.429,0.382,0.663,0.553c0.016,0.012,0.031,0.027,0.051,0.039
	c0.253,0.179,0.518,0.343,0.791,0.487c0.055,0.027,0.109,0.055,0.168,0.082c0.253,0.129,0.515,0.238,0.78,0.335
	c0.023,0.008,0.047,0.019,0.074,0.027c0.285,0.094,0.573,0.172,0.869,0.23c0.07,0.012,0.14,0.023,0.207,0.035
	c0.261,0.047,0.526,0.074,0.791,0.09c0.039,0,0.078,0.008,0.121,0.012c0.296,0.008,0.592,0,0.889-0.027
	c0.07-0.008,0.14-0.016,0.21-0.023c0.292-0.035,0.585-0.086,0.869-0.156l0.031-0.008c0.308-0.082,0.612-0.183,0.908-0.308
	c0.023-0.008,0.047-0.012,0.07-0.023c0.027-0.008,0.051-0.027,0.074-0.035c0.573-0.253,1.111-0.577,1.598-0.971
	c0.062-0.055,0.125-0.105,0.187-0.16s0.14-0.113,0.207-0.175l22.034-20.674h11.023c5.714,0,11.163,2.42,14.998,6.661
	C128.695,141.678,130.554,147.345,129.977,153.032z"/>
<path fill="#291FBC" d="M379.822,106.294h0.487c18.175-0.019,32.905-14.749,32.928-32.928V62.402
	c-0.023-18.175-14.753-32.905-32.928-32.928h-0.487c-18.179,0.023-32.909,14.753-32.928,32.928v10.96
	C346.913,91.541,361.643,106.275,379.822,106.294z M360.863,62.406c0.012-10.465,8.493-18.947,18.959-18.959h0.487
	c10.465,0.012,18.947,8.493,18.959,18.959v10.96c-0.012,10.465-8.493,18.947-18.959,18.959h-0.487
	c-10.465-0.012-18.947-8.493-18.959-18.959V62.406z"/>
<path fill="#291FBC" d="M418.814,116.803h-13.786c-1.777,0.004-3.485,0.682-4.779,1.898l-19.185,17.996l-18.413-17.918
	c-1.306-1.267-3.052-1.976-4.872-1.976h-14.632c-9.604,0-18.764,4.038-25.246,11.124c-6.478,7.09-9.674,16.577-8.813,26.142v80.161
	c0.004,11.83,9.592,21.418,21.422,21.426h0.249c2.869-0.035,5.702-0.659,8.318-1.832l3.679,144.952
	c0.316,8.918,5.843,16.819,14.114,20.171c8.271,3.352,17.739,1.528,24.174-4.654c6.447,6.193,15.93,8.01,24.209,4.638
	c8.279-3.368,13.798-11.296,14.082-20.229l3.676-144.762c6.622,2.822,14.219,2.132,20.225-1.836
	c6.006-3.972,9.623-10.688,9.623-17.887v-80.145c0.865-9.565-2.335-19.052-8.809-26.138
	C437.574,120.845,428.415,116.806,418.814,116.803z M396.71,406.634c-4.79-0.004-8.672-3.886-8.676-8.672V252.755h-13.969v145.206
	c0.012,4.72-3.757,8.583-8.478,8.688c-4.72,0.105-8.657-3.586-8.86-8.302l-4.163-163.829h56.977l-4.163,163.751
	C405.227,402.942,401.388,406.649,396.71,406.634z M438.931,153.032c-0.023,0.234-0.035,0.472-0.035,0.705v80.48
	c0,4.128-3.344,7.472-7.472,7.472c-4.128,0-7.472-3.344-7.472-7.472v-17.06l0.082-3.243h-0.082v-33.567h-13.969v36.643l-0.09,3.555
	H352.21l-0.175-6.985h-0.086v-33.213H337.98v53.481c0.094,4.194-3.184,7.686-7.374,7.862c-1.992,0.023-3.909-0.752-5.324-2.152
	c-1.419-1.403-2.218-3.313-2.218-5.305v-80.492c0-0.238-0.012-0.472-0.035-0.705c-0.577-5.691,1.282-11.358,5.118-15.599
	c3.831-4.241,9.284-6.661,15.002-6.661h11.791l21.169,20.588c0.027,0.027,0.066,0.051,0.097,0.078
	c0.21,0.203,0.433,0.386,0.667,0.557c0.016,0.012,0.031,0.027,0.047,0.039c0.257,0.179,0.522,0.343,0.799,0.487
	c0.055,0.027,0.109,0.055,0.164,0.082c0.253,0.129,0.518,0.238,0.787,0.335l0.066,0.023c0.285,0.097,0.577,0.175,0.873,0.234
	c0.066,0.012,0.136,0.023,0.207,0.035c0.261,0.043,0.526,0.074,0.791,0.09c0.039,0,0.078,0.008,0.121,0.012
	c0.296,0.008,0.592,0,0.885-0.031c0.074-0.004,0.144-0.012,0.214-0.023c0.292-0.031,0.581-0.086,0.865-0.156
	c0.012,0,0.023,0,0.031-0.004c0.312-0.082,0.612-0.183,0.908-0.308c0.023-0.008,0.051-0.012,0.074-0.023
	c0.023-0.008,0.047-0.027,0.07-0.039c0.573-0.249,1.111-0.573,1.598-0.967c0.062-0.055,0.125-0.101,0.187-0.16
	c0.062-0.058,0.14-0.113,0.207-0.175l22.034-20.674h11.023c5.718,0,11.167,2.42,14.998,6.661c3.835,4.241,5.691,9.908,5.114,15.595
	H438.931z"/>
<path fill="#291FBC" d="M225.343,106.294h0.487c18.175-0.019,32.908-14.749,32.928-32.928V62.402
	c-0.02-18.175-14.753-32.905-32.928-32.928h-0.487c-18.175,0.023-32.905,14.753-32.928,32.928v10.96
	C192.435,91.541,207.164,106.275,225.343,106.294z M206.385,62.406c0.012-10.465,8.493-18.947,18.959-18.959h0.487
	c10.465,0.012,18.947,8.493,18.959,18.959v10.96c-0.012,10.465-8.493,18.947-18.959,18.959h-0.487
	c-10.465-0.012-18.947-8.493-18.959-18.959V62.402V62.406z"/>
<path fill="#291FBC" d="M264.34,116.803h-13.79c-1.777,0.004-3.485,0.682-4.779,1.898l-19.185,18l-18.413-17.922
	c-1.302-1.267-3.052-1.976-4.868-1.976h-14.632c-9.604,0-18.764,4.038-25.242,11.124c-6.482,7.09-9.678,16.577-8.817,26.142v80.161
	c0.004,11.83,9.592,21.418,21.422,21.426h0.249c2.869-0.035,5.702-0.659,8.318-1.832l3.683,144.952
	c0.312,8.922,5.843,16.823,14.114,20.171c8.271,3.352,17.739,1.528,24.174-4.654c6.443,6.193,15.93,8.01,24.209,4.642
	c8.275-3.372,13.794-11.299,14.082-20.233l3.672-144.762c6.626,2.822,14.223,2.132,20.229-1.836
	c6.006-3.968,9.62-10.688,9.62-17.887v-80.145c0.865-9.565-2.331-19.052-8.809-26.142C283.1,120.845,273.94,116.806,264.34,116.803z
	 M242.232,406.634c-4.786-0.004-8.669-3.886-8.672-8.672V252.755H219.59v145.206c-0.004,4.712-3.769,8.559-8.481,8.665
	c-4.712,0.105-8.645-3.57-8.86-8.279l-4.159-163.829h56.973L250.9,398.269C250.752,402.942,246.909,406.649,242.232,406.634z
	 M284.456,153.032c-0.027,0.234-0.039,0.472-0.039,0.705v80.48c0,4.128-3.344,7.472-7.472,7.472c-4.128,0-7.472-3.344-7.472-7.472
	v-17.06l0.082-3.243h-0.082v-33.567h-13.969v36.643l-0.09,3.555h-57.679l-0.179-6.985h-0.082v-33.213h-13.969v53.481
	c0.094,4.194-3.188,7.686-7.374,7.862c-1.992,0.023-3.913-0.752-5.328-2.152c-1.419-1.403-2.214-3.313-2.218-5.305v-80.492
	c0-0.238-0.012-0.472-0.035-0.705c-0.577-5.691,1.286-11.358,5.118-15.599c3.835-4.245,9.288-6.665,15.006-6.661h11.795
	l21.165,20.588c0.031,0.027,0.066,0.051,0.101,0.078c0.207,0.199,0.429,0.386,0.663,0.557c0.016,0.012,0.031,0.027,0.051,0.039
	c0.253,0.179,0.518,0.343,0.791,0.483c0.055,0.031,0.109,0.058,0.168,0.086c0.253,0.129,0.514,0.238,0.78,0.331
	c0.023,0.012,0.047,0.023,0.074,0.031c0.285,0.094,0.573,0.172,0.869,0.23c0.07,0.012,0.136,0.023,0.207,0.035
	c0.261,0.047,0.526,0.074,0.791,0.09c0.039,0,0.082,0.008,0.121,0.012c0.296,0.008,0.592,0,0.889-0.031
	c0.07-0.004,0.14-0.012,0.21-0.023c0.296-0.031,0.585-0.086,0.869-0.156l0.031-0.004c0.308-0.082,0.612-0.183,0.908-0.308
	c0.023-0.008,0.047-0.012,0.07-0.023c0.023-0.008,0.051-0.027,0.074-0.039c0.573-0.249,1.111-0.573,1.598-0.967
	c0.062-0.055,0.125-0.101,0.187-0.16c0.062-0.058,0.14-0.113,0.203-0.175l22.034-20.674h11.023c5.718,0,11.167,2.42,15.002,6.661
	C283.178,141.678,285.037,147.345,284.456,153.032z"/>
<path fill="#291FBC" d="M182.433,44.843v-10.96c-0.019-18.179-14.749-32.908-32.928-32.928h-0.483
	c-18.179,0.019-32.908,14.749-32.928,32.928v10.96c0.019,18.175,14.749,32.905,32.928,32.928h0.483
	C167.684,77.751,182.414,63.018,182.433,44.843z M168.464,44.843c-0.012,10.465-8.489,18.947-18.959,18.959h-0.483
	c-10.465-0.012-18.947-8.493-18.959-18.959v-10.96c0.012-10.465,8.493-18.947,18.959-18.959h0.483
	c10.469,0.012,18.947,8.493,18.959,18.959V44.843z"/>
<path fill="#291FBC" d="M336.912,44.843v-10.96c-0.02-18.179-14.749-32.908-32.928-32.928h-0.487
	c-18.175,0.019-32.905,14.749-32.928,32.928v10.96c0.023,18.175,14.753,32.905,32.928,32.928h0.487
	C322.163,77.751,336.892,63.018,336.912,44.843z M322.942,44.843c-0.012,10.465-8.493,18.947-18.959,18.959h-0.487
	c-10.465-0.012-18.947-8.493-18.959-18.959v-10.96c0.012-10.465,8.493-18.947,18.959-18.959h0.487
	c10.465,0.012,18.947,8.493,18.959,18.959V44.843z"/>
</svg>
