<?xml version="1.0" encoding="utf-8"?>
<!-- Generator: Adobe Illustrator 17.0.0, SVG Export Plug-In . SVG Version: 6.00 Build 0)  -->
<!DOCTYPE svg PUBLIC "-//W3C//DTD SVG 1.1//EN" "http://www.w3.org/Graphics/SVG/1.1/DTD/svg11.dtd">
<svg version="1.1" id="Layer_1" xmlns="http://www.w3.org/2000/svg" xmlns:xlink="http://www.w3.org/1999/xlink" x="0px" y="0px"
	 width="1024px" height="1024px" viewBox="0 0 1024 1024" enable-background="new 0 0 1024 1024" xml:space="preserve">
<g>
	<g>
		<path fill="#291FBC" d="M642.713,127.592c-112.636-56.916-248.318-35.154-337.621,54.15
			c-103.79,103.788-114.178,269.281-24.162,384.949c3.182,4.088,7.938,6.228,12.746,6.228c3.464,0,6.954-1.11,9.9-3.404
			c7.034-5.474,8.298-15.612,2.826-22.646c-80.038-102.844-70.788-250.004,21.514-342.307
			c79.42-79.424,200.076-98.78,300.245-48.166c7.952,4.024,17.66,0.828,21.68-7.126C653.859,141.316,650.671,131.61,642.713,127.592
			z"/>
	</g>
</g>
<g>
	<g>
		<path fill="#291FBC" d="M771.576,256.479c-4.02-7.954-13.722-11.146-21.682-7.13c-7.954,4.018-11.148,13.722-7.13,21.68
			c50.578,100.152,31.212,220.792-48.19,300.193c-92.304,92.3-239.462,101.548-342.307,21.514
			c-7.036-5.472-17.172-4.208-22.646,2.824c-5.474,7.034-4.208,17.172,2.826,22.646c52.688,41.004,115.71,61.172,178.532,61.172
			c75.094,0,149.904-28.822,206.418-85.336C806.68,504.761,828.452,369.105,771.576,256.479z"/>
	</g>
</g>
<g>
	<g>
		<path fill="#291FBC" d="M729.881,195.016c-3.998-4.524-8.198-8.992-12.484-13.276c-4.286-4.286-8.752-8.486-13.276-12.484
			c-6.678-5.904-16.878-5.272-22.776,1.406c-5.906,6.676-5.278,16.874,1.4,22.776c4.03,3.56,8.01,7.304,11.83,11.122
			c3.816,3.82,7.56,7.798,11.122,11.828c3.188,3.608,7.632,5.45,12.098,5.45c3.798,0,7.61-1.334,10.68-4.046
			C735.155,211.892,735.783,201.694,729.881,195.016z"/>
	</g>
</g>
<g>
	<g>
		<path fill="#291FBC" d="M892.134,416.821c10.76-17.654,10.76-39.582-0.004-57.232l-21.23-34.814
			c-2.796-4.588-3.878-10.036-3.042-15.34l6.328-40.206c3.226-20.49-5.192-40.796-21.964-52.998l-32.902-23.932
			c-4.35-3.166-7.442-7.784-8.708-13.012l-9.582-39.598c-4.864-20.114-20.382-35.63-40.494-40.498l-39.6-9.584
			c-5.228-1.266-9.85-4.358-13.012-8.708l-23.936-32.91c-12.2-16.772-32.508-25.194-52.992-21.966l-40.22,6.328
			c-5.304,0.834-10.754-0.246-15.338-3.042l-34.82-21.236c-17.652-10.764-39.58-10.762-57.232,0l-34.816,21.23
			c-4.584,2.798-10.03,3.874-15.34,3.042l-40.208-6.328c-20.484-3.224-40.794,5.194-52.994,21.966l-23.932,32.902
			c-3.166,4.35-7.786,7.442-13.016,8.708l-39.598,9.582c-20.11,4.864-35.63,20.382-40.498,40.494l-9.584,39.6
			c-1.266,5.228-4.356,9.85-8.708,13.012l-32.91,23.936c-16.772,12.198-25.188,32.502-21.966,52.992l6.328,40.222
			c0.834,5.306-0.246,10.754-3.042,15.338l-21.234,34.822c-10.76,17.652-10.76,39.58,0.002,57.23l21.23,34.816
			c2.796,4.588,3.878,10.036,3.042,15.34l-6.328,40.208c-3.226,20.488,5.192,40.796,21.964,52.996l32.902,23.932
			c4.35,3.162,7.442,7.784,8.708,13.012l9.582,39.598c4.864,20.114,20.382,35.63,40.494,40.498l16.536,4.002L168.09,930.852
			c-2.378,5.306-1.72,11.478,1.726,16.162c3.444,4.684,9.138,7.154,14.914,6.462l90.044-10.766l51.872,74.382
			c3.036,4.35,7.99,6.906,13.232,6.906c0.502,0,1.01-0.024,1.514-0.07c5.788-0.544,10.838-4.162,13.216-9.464l114.29-254.959
			l14.482,8.83c8.826,5.382,18.72,8.072,28.616,8.072s19.79-2.692,28.616-8.072l15.004-9.148l114.434,255.277
			c2.378,5.306,7.426,8.92,13.216,9.464c0.506,0.048,1.012,0.072,1.514,0.072c5.242,0,10.198-2.556,13.232-6.906l51.872-74.382
			l90.044,10.766c5.772,0.686,11.47-1.778,14.914-6.462c3.444-4.684,4.106-10.856,1.726-16.162L744.604,681.087l15.914-3.85
			c20.11-4.864,35.63-20.382,40.498-40.494l9.584-39.6c1.266-5.228,4.358-9.85,8.708-13.012l32.91-23.936
			c16.772-12.198,25.188-32.502,21.966-52.992l-6.328-40.222c-0.834-5.306,0.246-10.754,3.042-15.338L892.134,416.821z
			 M336.817,975.256l-41.108-58.948c-3.408-4.888-9.236-7.504-15.152-6.792l-71.358,8.532l101.958-227.446
			c1.864,1.37,3.536,3.012,4.914,4.91l23.936,32.91c2.274,3.126,4.83,5.96,7.616,8.484L293.957,856.62
			c-3.644,8.134-0.008,17.68,8.124,21.326c2.144,0.962,4.386,1.416,6.59,1.416c6.164,0,12.052-3.552,14.734-9.54l53.476-119.288
			c5.262,0.722,10.68,0.71,16.118-0.146l40.22-6.328c2.408-0.378,4.842-0.344,7.212,0.048L336.817,975.256z M815.466,918.044
			l-71.36-8.528c-5.922-0.71-11.744,1.904-15.152,6.792l-41.108,58.948L584.187,744.018c2.174-0.296,4.392-0.296,6.586,0.048
			l40.206,6.328c5.658,0.89,11.296,0.862,16.758,0.048l53.516,119.384c2.686,5.99,8.57,9.54,14.734,9.54
			c2.206,0,4.448-0.454,6.59-1.416c8.132-3.644,11.77-13.194,8.124-21.326l-53.87-120.17c2.598-2.412,5-5.082,7.142-8.026
			l23.932-32.902c1.508-2.074,3.356-3.852,5.432-5.29L815.466,918.044z M864.576,400.017l-21.234,34.822
			c-6.77,11.108-9.39,24.304-7.368,37.156l6.328,40.22c1.33,8.458-2.146,16.84-9.068,21.876l-32.912,23.938
			c-10.534,7.664-18.026,18.858-21.09,31.52l-9.584,39.6c-2.01,8.302-8.414,14.708-16.718,16.718l-39.6,9.582
			c-12.664,3.064-23.86,10.556-31.524,21.092l-23.932,32.902c-5.036,6.926-13.416,10.398-21.878,9.066l-40.208-6.328
			c-12.854-2.022-26.052,0.594-37.162,7.368l-34.814,21.23c-7.286,4.44-16.342,4.44-23.624,0l-34.822-21.232
			c-8.66-5.282-18.588-8.034-28.634-8.034c-2.84,0-5.694,0.22-8.524,0.666l-40.222,6.328c-8.46,1.332-16.84-2.146-21.876-9.068
			l-23.938-32.91c-7.664-10.534-18.858-18.026-31.52-21.09l-39.6-9.584c-8.302-2.01-14.708-8.414-16.718-16.718l-9.582-39.598
			c-3.064-12.664-10.554-23.862-21.092-31.526l-32.9-23.934c-6.924-5.036-10.398-13.42-9.066-21.878l6.328-40.208
			c2.022-12.854-0.594-26.05-7.368-37.16l-21.23-34.818c-4.442-7.286-4.442-16.34,0-23.624l21.234-34.822
			c6.772-11.108,9.39-24.304,7.368-37.156l-6.328-40.22c-1.33-8.458,2.146-16.84,9.068-21.876l32.912-23.938
			c10.534-7.664,18.026-18.858,21.09-31.52l9.584-39.6c2.01-8.302,8.414-14.708,16.718-16.718l39.6-9.582
			c12.664-3.064,23.86-10.556,31.522-21.092l23.932-32.902c5.036-6.924,13.416-10.402,21.878-9.068l40.208,6.328
			c12.856,2.026,26.054-0.594,37.162-7.368l34.814-21.23c7.286-4.44,16.342-4.44,23.624,0l34.822,21.232
			c11.108,6.776,24.308,9.394,37.158,7.37l40.222-6.328c8.456-1.326,16.84,2.146,21.876,9.068l23.938,32.91
			c7.664,10.534,18.858,18.026,31.52,21.09l39.6,9.584c8.302,2.01,14.708,8.414,16.718,16.718l9.582,39.598
			c3.064,12.664,10.554,23.862,21.092,31.526l32.902,23.932c6.924,5.036,10.398,13.42,9.066,21.878l-6.328,40.208
			c-2.022,12.854,0.594,26.05,7.368,37.16l21.23,34.818C869.02,383.677,869.02,392.731,864.576,400.017z"/>
	</g>
</g>
<g>
	<g>
		<path fill="#291FBC" d="M700.833,337.995c-3.556-10.948-12.866-18.592-24.298-19.948l-97.102-11.514l-40.956-88.79
			c-4.822-10.452-14.968-16.946-26.48-16.946c-11.51,0-21.658,6.494-26.48,16.946l-40.956,88.792l-97.102,11.514
			c-11.432,1.356-20.744,9-24.298,19.948c-3.556,10.942-0.516,22.6,7.932,30.414l71.79,66.39l-19.056,95.908
			c-2.242,11.292,2.15,22.508,11.464,29.272c5.138,3.732,11.1,5.622,17.1,5.622c4.878,0,9.778-1.248,14.28-3.768l85.324-47.758
			l85.324,47.758c10.046,5.624,22.068,4.914,31.382-1.852c9.314-6.766,13.706-17.984,11.462-29.274l-19.056-95.906l71.79-66.39
			C701.349,360.599,704.389,348.943,700.833,337.995z M592.565,417.241c-4.12,3.81-5.964,9.488-4.872,14.992l19.5,98.142
			l-87.316-48.874c-2.448-1.37-5.164-2.056-7.882-2.056s-5.432,0.684-7.882,2.056l-87.316,48.874l19.5-98.142
			c1.096-5.506-0.75-11.182-4.872-14.992l-73.464-67.94l99.372-11.782c5.572-0.66,10.402-4.17,12.754-9.264l41.91-90.862
			l41.91,90.862c2.352,5.094,7.18,8.604,12.754,9.264l99.368,11.782L592.565,417.241z"/>
	</g>
</g>
</svg>
