<?xml version="1.0" encoding="utf-8"?>
<!-- Generator: Adobe Illustrator 17.0.0, SVG Export Plug-In . SVG Version: 6.00 Build 0)  -->
<!DOCTYPE svg PUBLIC "-//W3C//DTD SVG 1.1//EN" "http://www.w3.org/Graphics/SVG/1.1/DTD/svg11.dtd">
<svg version="1.1" id="Layer_1" xmlns="http://www.w3.org/2000/svg" xmlns:xlink="http://www.w3.org/1999/xlink" x="0px" y="0px"
	 width="480px" height="480px" viewBox="16 16 480 480" enable-background="new 16 16 480 480" xml:space="preserve">
<path fill="#2A1FBC" d="M48,48h16v16H48V48z"/>
<path fill="#2A1FBC" d="M80,48h16v16H80V48z"/>
<path fill="#2A1FBC" d="M112,48h16v16h-16V48z"/>
<path fill="#2A1FBC" d="M488,16H24c-4.418,0-8,3.582-8,8v464c0,4.418,3.582,8,8,8h464c4.418,0,8-3.582,8-8V24
	C496,19.582,492.418,16,488,16z M480,80H160V32h320V80z M32,32h112v48H32V32z M32,480V96h448v384H32z"/>
<path fill="#2A1FBC" d="M424,176H88c-22.08,0.026-39.974,17.92-40,40v96c0.026,22.08,17.92,39.974,40,40h336
	c22.08-0.026,39.974-17.92,40-40v-96C463.974,193.92,446.08,176.026,424,176z M448,312c0,13.255-10.745,24-24,24H88
	c-13.255,0-24-10.745-24-24v-96c0-13.255,10.745-24,24-24h336c13.255,0,24,10.745,24,24V312z"/>
<path fill="#2A1FBC" d="M411.312,392l10.344-10.344c3.124-3.125,3.123-8.19-0.002-11.314c-1.5-1.499-3.534-2.342-5.654-2.342h-56
	c-4.418,0-8,3.582-8,8v56c0.001,4.418,3.583,7.999,8.002,7.998c2.121,0,4.154-0.843,5.654-2.342L376,427.312l26.344,26.344
	c3.124,3.123,8.188,3.123,11.312,0l24-24c3.123-3.124,3.123-8.188,0-11.312L411.312,392z M408,436.688l-26.344-26.344
	c-3.124-3.123-8.188-3.123-11.312,0L368,412.688V384h28.688l-2.344,2.344c-3.123,3.124-3.123,8.188,0,11.312L420.688,424
	L408,436.688z"/>
<path fill="#2A1FBC" d="M248,120h16v32h-16V120z"/>
<path fill="#2A1FBC" d="M274.3,154.356l23.998-23.998l11.312,11.312l-23.998,23.998L274.3,154.356z"/>
<path fill="#2A1FBC" d="M202.308,141.668l11.312-11.312l23.998,23.998l-11.312,11.312L202.308,141.668z"/>
<path fill="#2A1FBC" d="M248,384h16v32h-16V384z"/>
<path fill="#2A1FBC" d="M274.276,381.652l11.312-11.312l23.998,23.998l-11.312,11.312L274.276,381.652z"/>
<path fill="#2A1FBC" d="M202.284,394.324l23.998-23.998l11.312,11.312l-23.998,23.998L202.284,394.324z"/>
<path fill="#2A1FBC" d="M80,232v32c0,4.418,3.582,8,8,8h24v16H80v16h40c4.418,0,8-3.582,8-8v-32c0-4.418-3.582-8-8-8H96v-16h32v-16
	H88C83.582,224,80,227.582,80,232z"/>
<path fill="#2A1FBC" d="M184,288h-24v-64h-16v72c0,4.418,3.582,8,8,8h40c4.418,0,8-3.582,8-8v-72h-16V288z"/>
<path fill="#2A1FBC" d="M272,224h-48c-4.418,0-8,3.582-8,8v64c0,4.418,3.582,8,8,8h48c4.418,0,8-3.582,8-8v-64
	C280,227.582,276.418,224,272,224z M232,240h32v16h-32V240z M264,288h-32v-16h32V288z"/>
<path fill="#2A1FBC" d="M424,216h-96c-4.418,0-8,3.582-8,8v30.112l-23.2,46.312c-1.975,3.952-0.372,8.757,3.58,10.732
	c1.124,0.562,2.364,0.851,3.62,0.844c0.859-0.001,1.712-0.139,2.528-0.408L353.296,296H424c4.418,0,8-3.582,8-8v-64
	C432,219.582,428.418,216,424,216L424,216z M416,280h-64c-0.859-0.001-1.713,0.137-2.528,0.408l-29.68,9.896l15.408-30.728
	c0.54-1.114,0.814-2.338,0.8-3.576v-24h80L416,280z"/>
<path fill="#2A1FBC" d="M384,248h16v16h-16V248z"/>
<path fill="#2A1FBC" d="M352,248h16v16h-16V248z"/>
</svg>
