<?xml version="1.0" encoding="utf-8"?>
<!-- Generator: Adobe Illustrator 17.0.0, SVG Export Plug-In . SVG Version: 6.00 Build 0)  -->
<!DOCTYPE svg PUBLIC "-//W3C//DTD SVG 1.1//EN" "http://www.w3.org/Graphics/SVG/1.1/DTD/svg11.dtd">
<svg version="1.1" id="Layer_1" xmlns="http://www.w3.org/2000/svg" xmlns:xlink="http://www.w3.org/1999/xlink" x="0px" y="0px"
	 width="480px" height="479.683px" viewBox="16 16.166 480 479.683" enable-background="new 16 16.166 480 479.683"
	 xml:space="preserve">
<g id="Global">
	<path fill="#2A1FBC" d="M256,232c9.768,0,16,4.736,16,8c0,4.418,3.582,8,8,8s8-3.582,8-8c0-11.368-10.072-20.568-24-23.2V208
		c0-4.418-3.582-8-8-8s-8,3.582-8,8v8.8c-13.928,2.616-24,11.816-24,23.2c0,13.456,14.056,24,32,24c9.768,0,16,4.736,16,8
		s-6.232,8-16,8s-16-4.736-16-8c0-4.418-3.582-8-8-8s-8,3.582-8,8c0,11.368,10.072,20.568,24,23.2v8.8c0,4.418,3.582,8,8,8
		s8-3.582,8-8v-8.8c13.928-2.616,24-11.816,24-23.2c0-13.456-14.056-24-32-24c-9.768,0-16-4.736-16-8S246.232,232,256,232z"/>
	<path fill="#2A1FBC" d="M231.04,33.328c0.289,0,0.577-0.016,0.864-0.048c5.192-0.56,10.4-0.936,15.576-1.112
		c4.416-0.152,7.872-3.854,7.721-8.27c0-0.006,0-0.012-0.001-0.018c-0.207-4.393-3.884-7.817-8.28-7.712
		c-5.52,0.2-11.136,0.608-16.704,1.2c-4.418,0.232-7.812,4.002-7.58,8.42s4.002,7.812,8.42,7.58L231.04,33.328z"/>
	<path fill="#2A1FBC" d="M139.464,63.352c1.406-0.005,2.785-0.38,4-1.088c4.48-2.608,9.112-5.096,13.744-7.376
		c3.972-1.934,5.624-6.723,3.69-10.695s-6.723-5.624-10.695-3.69c-0.017,0.008-0.034,0.017-0.051,0.025
		c-4.976,2.448-9.936,5.112-14.744,7.912c-3.817,2.225-5.109,7.122-2.884,10.94c1.428,2.451,4.048,3.962,6.884,3.972L139.464,63.352
		z"/>
	<path fill="#2A1FBC" d="M183.664,43.504c0.848-0.004,1.69-0.139,2.496-0.4c4.896-1.6,9.944-3.072,15.008-4.344
		c4.286-1.08,6.884-5.43,5.804-9.716c-1.08-4.286-5.43-6.884-9.716-5.804l0,0c-5.424,1.368-10.832,2.936-16.088,4.656
		c-4.202,1.366-6.501,5.88-5.135,10.081C177.107,41.281,180.19,43.514,183.664,43.504z"/>
	<path fill="#2A1FBC" d="M100.344,92c1.984-0.001,3.898-0.739,5.368-2.072c3.824-3.464,7.84-6.856,11.936-10.072
		c3.495-2.73,4.115-7.777,1.384-11.272s-7.777-4.115-11.272-1.384l0,0c-4.392,3.448-8.696,7.088-12.8,10.8
		c-3.274,2.967-3.523,8.026-0.556,11.3c1.517,1.674,3.672,2.629,5.932,2.628L100.344,92z"/>
	<path fill="#2A1FBC" d="M27.28,216.096c0.542,0.111,1.094,0.167,1.648,0.168c3.796-0.007,7.065-2.681,7.824-6.4
		c1.056-5.048,2.304-10.152,3.728-15.2c0.962-4.312-1.755-8.588-6.067-9.549c-4.006-0.893-8.038,1.39-9.333,5.285
		c-1.52,5.376-2.864,10.848-4,16.256C20.193,210.973,22.966,215.194,27.28,216.096z"/>
	<path fill="#2A1FBC" d="M40.544,169.416c1.019,0.458,2.123,0.696,3.24,0.696c3.174-0.008,6.043-1.891,7.312-4.8
		c2.096-4.72,4.4-9.456,6.84-14.064c2.068-3.906,0.578-8.748-3.328-10.816c-3.906-2.068-8.748-0.578-10.816,3.328
		c-2.616,4.936-5.072,10.008-7.32,15.072c-1.804,4.033,0.004,8.765,4.038,10.569C40.521,169.406,40.533,169.411,40.544,169.416z"/>
	<path fill="#2A1FBC" d="M68,128.064c2.568,0.004,4.981-1.225,6.488-3.304c3.048-4.216,6.28-8.368,9.6-12.344
		c2.832-3.398,2.374-8.448-1.024-11.28c-3.398-2.832-8.448-2.374-11.28,1.024l0,0c-3.56,4.256-7.016,8.704-10.288,13.216
		c-2.6,3.572-1.813,8.576,1.759,11.176c0.011,0.008,0.022,0.016,0.033,0.024C64.66,127.562,66.311,128.084,68,128.064z"/>
	<path fill="#2A1FBC" d="M416.6,99.848c3.048,3.199,8.112,3.321,11.31,0.273s3.321-8.112,0.273-11.31
		c-0.037-0.039-0.074-0.077-0.112-0.115c-3.856-4-7.912-7.864-12.08-11.592c-3.319-2.916-8.374-2.59-11.29,0.729
		c-2.878,3.275-2.603,8.252,0.618,11.191C409.208,92.504,413,96.152,416.6,99.848z"/>
	<path fill="#2A1FBC" d="M278.736,33.136c5.128,0.52,10.336,1.224,15.472,2.104c4.343,0.813,8.522-2.049,9.335-6.392
		s-2.049-8.522-6.392-9.335c-0.079-0.015-0.159-0.028-0.238-0.041c-5.496-0.944-11.08-1.704-16.584-2.256
		c-4.396-0.442-8.318,2.764-8.76,7.16s2.764,8.318,7.16,8.76H278.736z"/>
	<path fill="#2A1FBC" d="M474.96,208.528c1.088,5.04,2.016,10.216,2.76,15.384c0.565,3.936,3.935,6.861,7.912,6.864
		c0.386-0.002,0.771-0.031,1.152-0.088c4.376-0.607,7.432-4.647,6.825-9.023c-0.003-0.022-0.006-0.043-0.009-0.065
		c-0.8-5.536-1.792-11.08-2.96-16.472c-0.988-4.306-5.28-6.996-9.587-6.008c-4.224,0.969-6.908,5.127-6.053,9.376L474.96,208.528z"
		/>
	<path fill="#2A1FBC" d="M445.552,136.608c2.355,3.742,7.298,4.867,11.04,2.512c3.742-2.355,4.867-7.298,2.512-11.04
		c-2.952-4.68-6.128-9.336-9.424-13.84c-2.45-3.677-7.417-4.671-11.094-2.221c-3.677,2.45-4.671,7.417-2.221,11.094
		c0.136,0.204,0.281,0.401,0.434,0.591C439.856,127.904,442.816,132.24,445.552,136.608z"/>
	<path fill="#2A1FBC" d="M460.344,164.104c2.12,4.696,4.104,9.56,5.912,14.448c1.425,4.182,5.97,6.418,10.152,4.993
		c4.182-1.425,6.418-5.97,4.993-10.152c-0.045-0.132-0.093-0.263-0.145-0.393c-1.928-5.232-4.064-10.4-6.32-15.464
		c-1.814-4.029-6.551-5.826-10.58-4.012C460.327,155.338,458.53,160.075,460.344,164.104L460.344,164.104z"/>
	<path fill="#2A1FBC" d="M32,256c0-5.099,0.168-10.149,0.504-15.152c0.293-4.407-3.041-8.217-7.448-8.512
		c-4.347-0.347-8.152,2.896-8.499,7.243c-0.005,0.066-0.01,0.131-0.013,0.197c-0.36,5.36-0.544,10.816-0.544,16v0.68
		c0.021,4.303,3.526,7.775,7.829,7.755c0.057,0,0.114-0.001,0.171-0.003C28.452,264.095,32.001,260.453,32,256z"/>
	<path fill="#2A1FBC" d="M324.536,42.672c4.96,1.6,9.92,3.376,14.72,5.304c4.066,1.729,8.764-0.166,10.492-4.232
		s-0.166-8.764-4.232-10.492c-0.102-0.043-0.205-0.085-0.309-0.124c-5.152-2.072-10.464-4-15.776-5.688
		c-4.282-1.091-8.637,1.496-9.727,5.778c-0.996,3.91,1.075,7.949,4.831,9.422V42.672z"/>
	<path fill="#2A1FBC" d="M367.368,61.6c4.496,2.576,8.96,5.36,13.272,8.248c3.667,2.474,8.646,1.507,11.12-2.16
		s1.507-8.646-2.16-11.12l0,0c-4.624-3.096-9.4-6.072-14.224-8.8c-3.833-2.209-8.731-0.893-10.94,2.94s-0.893,8.731,2.94,10.94
		L367.368,61.6z"/>
	<path fill="#2A1FBC" d="M325.4,469.04c-4.96,1.6-10.016,3.064-15.008,4.304c-4.295,1.035-6.938,5.357-5.903,9.652
		c1.035,4.295,5.357,6.938,9.652,5.903c0.036-0.009,0.071-0.017,0.107-0.027c5.36-1.328,10.784-2.88,16.104-4.616
		c4.254-1.194,6.735-5.61,5.541-9.864c-1.194-4.254-5.61-6.735-9.864-5.541c-0.212,0.06-0.422,0.128-0.629,0.205V469.04z"/>
	<path fill="#2A1FBC" d="M437.272,387.624c-3.032,4.168-6.272,8.312-9.6,12.328c-2.896,3.336-2.54,8.389,0.797,11.286
		c3.336,2.896,8.389,2.54,11.286-0.797c0.062-0.071,0.122-0.144,0.182-0.217c3.592-4.296,7.064-8.728,10.304-13.192
		c2.684-3.509,2.015-8.53-1.494-11.215s-8.53-2.015-11.215,1.494c-0.078,0.102-0.154,0.207-0.227,0.313L437.272,387.624z"/>
	<path fill="#2A1FBC" d="M471.28,343.032c-4.036-1.795-8.764,0.02-10.56,4.056c-2.104,4.704-4.416,9.432-6.872,14.056
		c-2.071,3.901-0.589,8.743,3.312,10.816c1.151,0.617,2.438,0.938,3.744,0.936c2.96,0.004,5.681-1.627,7.072-4.24
		c2.632-4.944,5.112-10.008,7.352-15.064C477.124,349.558,475.313,344.832,471.28,343.032z"/>
	<path fill="#2A1FBC" d="M484.632,296.384c-4.321-0.908-8.56,1.856-9.472,6.176c-1.064,5.04-2.328,10.136-3.768,15.2
		c-1.213,4.246,1.243,8.671,5.488,9.888c0.72,0.209,1.466,0.314,2.216,0.312c3.57-0.002,6.706-2.368,7.688-5.8
		c1.536-5.384,2.888-10.856,4-16.264c0.932-4.319-1.813-8.576-6.132-9.508C484.645,296.387,484.639,296.385,484.632,296.384z"/>
	<path fill="#2A1FBC" d="M405.944,422.4c-3.856,3.48-7.888,6.864-12,10.064c-3.571,2.602-4.355,7.607-1.753,11.177
		c2.602,3.571,7.607,4.355,11.177,1.753c0.148-0.108,0.292-0.22,0.432-0.338c4.376-3.424,8.688-7.048,12.8-10.76
		c3.107-3.142,3.079-8.207-0.063-11.314C413.661,420.138,409.115,419.888,405.944,422.4z"/>
	<path fill="#2A1FBC" d="M279.632,478.768c-5.168,0.544-10.4,0.904-15.576,1.08c-4.418,0.073-7.941,3.714-7.868,8.132
		c0.073,4.418,3.714,7.941,8.132,7.868h0.28c5.544-0.184,11.16-0.576,16.704-1.16c4.391-0.493,7.55-4.452,7.057-8.843
		c-0.488-4.346-4.376-7.495-8.729-7.069L279.632,478.768z"/>
	<path fill="#2A1FBC" d="M488,247.032c-4.418,0-8,3.582-8,8V256c0,5.192-0.176,10.456-0.536,15.616
		c-0.306,4.408,3.018,8.229,7.426,8.536c0.002,0,0.004,0,0.006,0h0.56c4.211,0.01,7.709-3.247,8-7.448
		C495.808,267.2,496,261.6,496,256v-0.968C496,250.614,492.418,247.032,488,247.032z"/>
	<path fill="#2A1FBC" d="M368.128,449.968c-4.496,2.6-9.128,5.072-13.776,7.352c-3.977,1.926-5.639,6.711-3.713,10.687
		c1.342,2.771,4.155,4.526,7.233,4.513c1.217,0.008,2.419-0.266,3.512-0.8c4.984-2.4,9.944-5.08,14.76-7.864
		c3.757-2.325,4.919-7.255,2.594-11.012c-2.226-3.598-6.869-4.841-10.594-2.836L368.128,449.968z"/>
	<path fill="#2A1FBC" d="M187.016,469.176c-4.944-1.6-9.888-3.384-14.704-5.328c-4.072-1.714-8.763,0.198-10.477,4.27
		c-1.714,4.072,0.198,8.763,4.27,10.477c0.076,0.032,0.153,0.063,0.231,0.093c5.16,2.08,10.464,4,15.76,5.72
		c0.797,0.255,1.628,0.387,2.464,0.392c4.418,0.018,8.014-3.549,8.032-7.968C192.607,473.336,190.348,470.235,187.016,469.176z"/>
	<path fill="#2A1FBC" d="M232.8,478.816c-5.12-0.528-10.328-1.248-15.48-2.136c-4.354-0.753-8.495,2.166-9.248,6.52
		c-0.753,4.354,2.166,8.495,6.52,9.248c5.512,0.952,11.088,1.72,16.576,2.28c0.266,0.031,0.533,0.047,0.8,0.048
		c4.418,0.221,8.179-3.182,8.4-7.6c0.221-4.418-3.182-8.179-7.6-8.4L232.8,478.816z"/>
	<path fill="#2A1FBC" d="M95.072,411.816c-3.093-3.156-8.158-3.207-11.313-0.114c-3.128,3.066-3.21,8.077-0.183,11.242
		c3.88,4,7.928,7.904,12.056,11.616c3.337,2.895,8.39,2.537,11.285-0.801c2.823-3.254,2.562-8.159-0.589-11.095
		C102.48,419.2,98.688,415.544,95.072,411.816z"/>
	<path fill="#2A1FBC" d="M51.464,347.472c-2.128-4.736-4.104-9.6-5.88-14.456c-1.52-4.149-6.115-6.28-10.264-4.76
		c-4.149,1.52-6.28,6.115-4.76,10.264l0,0c1.912,5.2,4,10.4,6.296,15.488c1.289,2.884,4.153,4.739,7.312,4.736
		c4.418-0.002,7.998-3.586,7.996-8.004C52.163,349.613,51.925,348.5,51.464,347.472z"/>
	<path fill="#2A1FBC" d="M66.184,374.992c-2.427-3.692-7.387-4.718-11.079-2.291c-3.586,2.357-4.674,7.124-2.465,10.803
		c2.952,4.704,6.112,9.368,9.384,13.848c2.55,3.608,7.542,4.466,11.15,1.916c3.608-2.55,4.466-7.542,1.916-11.15
		c-0.045-0.064-0.091-0.127-0.138-0.189C71.896,383.736,68.944,379.384,66.184,374.992z"/>
	<path fill="#2A1FBC" d="M36.936,303.008c-1.08-5.032-1.992-10.208-2.728-15.376c-0.565-4.382-4.576-7.476-8.958-6.91
		s-7.476,4.576-6.91,8.958c0.009,0.067,0.018,0.134,0.028,0.2c0.8,5.536,1.768,11.08,2.92,16.472
		c0.788,3.688,4.045,6.325,7.816,6.328c0.565,0.005,1.128-0.054,1.68-0.176c4.321-0.923,7.075-5.174,6.152-9.495L36.936,303.008z"/>
	<path fill="#2A1FBC" d="M144.224,450.168c-4.48-2.592-8.944-5.376-13.264-8.288c-3.665-2.47-8.638-1.501-11.108,2.164
		s-1.501,8.638,2.164,11.108c4.632,3.12,9.416,6.104,14.208,8.872c3.811,2.235,8.713,0.957,10.948-2.854s0.957-8.713-2.854-10.948
		C144.286,450.204,144.255,450.186,144.224,450.168L144.224,450.168z"/>
	<path fill="#2A1FBC" d="M456,256c0-110.457-89.543-200-200-200S56,145.543,56,256s89.543,200,200,200
		C366.406,455.877,455.877,366.406,456,256z M72.2,264h55.928c0.581,27.139,4.943,54.065,12.96,80H94.456
		C80.997,319.394,73.382,292.021,72.2,264z M94.456,168h46.632c-8.017,25.935-12.379,52.861-12.96,80H72.2
		C73.382,219.979,80.997,192.606,94.456,168z M439.8,248h-55.928c-0.581-27.139-4.943-54.065-12.96-80h46.64
		C431.005,192.608,438.617,219.98,439.8,248z M367.88,248h-32.288c-3.852-37.829-33.763-67.74-71.592-71.592V168h90.336
		C362.743,193.86,367.306,220.814,367.88,248z M256,320c-35.346,0-64-28.654-64-64s28.654-64,64-64s64,28.654,64,64
		C319.96,291.33,291.33,319.96,256,320z M264,152V72.52c34.968,4.08,65.544,34.608,84.328,79.48H264z M248,72.52V152h-84.328
		C182.456,107.128,213.032,76.6,248,72.52z M248,168v8.408c-37.829,3.852-67.74,33.763-71.592,71.592H144.12
		c0.574-27.186,5.137-54.14,13.544-80H248z M144.12,264h32.288c3.852,37.829,33.763,67.74,71.592,71.592V344h-90.336
		C149.257,318.14,144.694,291.186,144.12,264z M248,360v79.48c-34.968-4.08-65.544-34.608-84.328-79.48H248z M264,439.48V360h84.328
		C329.544,404.872,298.968,435.4,264,439.48z M264,344v-8.408c37.829-3.852,67.74-33.763,71.592-71.592h32.288
		c-0.574,27.186-5.137,54.14-13.544,80H264z M383.872,264H439.8c-1.183,28.02-8.795,55.392-22.248,80h-46.64
		C378.929,318.065,383.291,291.139,383.872,264z M407.68,152h-42.4c-9.464-25.663-24.531-48.893-44.104-68
		C356.241,97.366,386.412,121.082,407.68,152z M190.824,84c-19.576,19.106-34.645,42.336-44.112,68h-42.4
		C125.585,121.083,155.757,97.367,190.824,84z M104.32,360h42.4c9.461,25.678,24.531,48.923,44.112,68.04
		C155.76,414.662,125.587,390.932,104.32,360z M321.176,428.04c19.581-19.117,34.651-42.362,44.112-68.04h42.4
		C386.423,390.934,356.25,414.665,321.176,428.04z"/>
</g>
</svg>
