<?xml version="1.0" encoding="utf-8"?>
<!-- Generator: Adobe Illustrator 17.0.0, SVG Export Plug-In . SVG Version: 6.00 Build 0)  -->
<!DOCTYPE svg PUBLIC "-//W3C//DTD SVG 1.1//EN" "http://www.w3.org/Graphics/SVG/1.1/DTD/svg11.dtd">
<svg version="1.1" id="Capa_1" xmlns="http://www.w3.org/2000/svg" xmlns:xlink="http://www.w3.org/1999/xlink" x="0px" y="0px"
	 width="1024px" height="1024px" viewBox="0 0 1024 1024" enable-background="new 0 0 1024 1024" xml:space="preserve">
<g>
	<g>
		<path fill="#2A1FBC" d="M1020.724,431.142l-163.98-250.05c-3.698-5.636-9.982-9.032-16.722-9.032H184.756
			c-6.726,0-13,3.38-16.7,8.998L3.812,430.362c-0.782,1.078-1.46,2.242-2.026,3.486c-3.242,7.148-2.002,15.53,3.17,21.434
			l83.25,95.054c7.278,8.31,19.91,9.146,28.218,1.87c8.308-7.278,9.144-19.912,1.868-28.218l-54.194-61.882H333.1L468.274,923.6
			l-152.75-174.41c-7.276-8.31-19.912-9.146-28.218-1.87c-8.308,7.278-9.144,19.912-1.868,28.218l211.58,241.582
			c3.796,4.336,9.282,6.824,15.044,6.824c5.764,0,11.246-2.488,15.042-6.826l225.26-257.264c7.278-8.31,6.44-20.944-1.872-28.218
			c-8.312-7.278-20.946-6.44-28.218,1.872l-166.42,190.066l135.168-461.47h268.89l-124.366,142.04
			c-7.278,8.31-6.44,20.944,1.872,28.218c3.794,3.324,8.49,4.954,13.166,4.954c5.564,0,11.1-2.31,15.052-6.826l153.412-175.21
			C1024.964,448.524,1025.65,438.652,1020.724,431.142z M57.146,422.11l127.57-193.642l126.99,193.642H57.146z M221.784,212.058
			H475.03L348.408,405.14L221.784,212.058z M512.06,228.526L639.01,422.11h-253.9L512.06,228.526z M512.06,930.806l-137.284-468.7
			h274.568L512.06,930.806z M676.04,405.642L549.09,212.058h253.904L676.04,405.642z M713.07,422.11l126.952-193.584L966.97,422.11
			H713.07z"/>
	</g>
</g>
<g>
	<g>
		<path fill="#2A1FBC" d="M314.378,654.034c-51.586,0-93.556-41.97-93.556-93.556c0-11.044-8.954-19.998-19.998-19.998
			s-19.998,8.954-19.998,19.998c0,51.586-41.97,93.556-93.556,93.556c-11.042,0-19.998,8.954-19.998,19.998
			s8.956,19.998,19.998,19.998c51.586,0,93.556,41.97,93.556,93.556c0,11.044,8.956,19.998,19.998,19.998
			s19.998-8.954,19.998-19.998c0-51.586,41.97-93.556,93.556-93.556c11.044,0,19.998-8.954,19.998-19.998
			C334.376,662.988,325.422,654.034,314.378,654.034z M200.824,717.354c-10.902-17.564-25.758-32.418-43.32-43.322
			c17.562-10.902,32.416-25.756,43.32-43.322c10.902,17.564,25.758,32.418,43.32,43.322
			C226.582,684.936,211.728,699.788,200.824,717.354z"/>
	</g>
</g>
<g>
	<g>
		<path fill="#2A1FBC" d="M1004.002,80.046c-33.08,0-59.994-26.914-59.994-59.994c0-11.044-8.956-19.998-19.998-19.998
			s-19.998,8.954-19.998,19.998c0,33.08-26.914,59.994-59.994,59.994c-11.042,0-19.998,8.954-19.998,19.998
			s8.956,19.998,19.998,19.998c33.08,0,59.994,26.914,59.994,59.994c0,11.044,8.956,19.998,19.998,19.998
			s19.998-8.954,19.998-19.998c0-33.08,26.914-59.994,59.994-59.994c11.042,0,19.998-8.954,19.998-19.998
			S1015.044,80.046,1004.002,80.046z M924.01,120.104c-5.706-7.596-12.464-14.354-20.06-20.06
			c7.596-5.706,14.354-12.464,20.06-20.06c5.706,7.596,12.464,14.354,20.06,20.06C936.474,105.748,929.714,112.508,924.01,120.104z"
			/>
	</g>
</g>
<g>
	<g>
		<path fill="#2A1FBC" d="M805.566,670.742c-3.718-3.74-8.878-5.86-14.136-5.86c-5.262,0-10.398,2.12-14.138,5.86
			c-3.72,3.72-5.86,8.88-5.86,14.138s2.138,10.418,5.86,14.138c3.72,3.72,8.876,5.86,14.138,5.86c5.26,0,10.418-2.14,14.136-5.86
			c3.72-3.72,5.862-8.88,5.862-14.138S809.288,674.462,805.566,670.742z"/>
	</g>
</g>
</svg>
