<?xml version="1.0" encoding="utf-8"?>
<!-- Generator: Adobe Illustrator 17.0.0, SVG Export Plug-In . SVG Version: 6.00 Build 0)  -->
<!DOCTYPE svg PUBLIC "-//W3C//DTD SVG 1.1//EN" "http://www.w3.org/Graphics/SVG/1.1/DTD/svg11.dtd">
<svg version="1.1" id="Layer_1" xmlns="http://www.w3.org/2000/svg" xmlns:xlink="http://www.w3.org/1999/xlink" x="0px" y="0px"
	 width="1024px" height="1024px" viewBox="0 0 1024 1024" enable-background="new 0 0 1024 1024" xml:space="preserve">
<g>
	<g>
		<path fill="#2A1FBC" d="M1007.966,818.772c8.856,0,16.034-7.176,16.034-16.034V238.364c0-4.252-1.688-8.328-4.694-11.338
			L848.284,56.004c-3.01-3.006-7.086-4.694-11.338-4.694h-360.22V48.1c0-26.522-21.578-48.1-48.1-48.1H48.1
			C21.578,0,0,21.578,0,48.1v517.344c0,26.522,21.578,48.1,48.1,48.1h122.922v394.422c0,8.856,7.176,16.034,16.034,16.034h820.91
			c8.856,0,16.034-7.176,16.034-16.034V888.25c0-8.856-7.176-16.034-16.034-16.034c-8.856,0-16.034,7.176-16.034,16.034v103.682
			H203.09V613.544h225.536c26.522,0,48.1-21.578,48.1-48.1V289.66c0-8.856-7.176-16.034-16.034-16.034s-16.034,7.176-16.034,16.034
			v275.786c0,8.842-7.192,16.034-16.034,16.034H48.1c-8.842,0-16.034-7.192-16.034-16.034V48.1c0-8.842,7.192-16.034,16.034-16.034
			h380.526c8.842,0,16.034,7.192,16.034,16.034v156.058c0,8.856,7.176,16.034,16.034,16.034s16.034-7.176,16.034-16.034V83.374
			h344.238c-0.024,0.354-0.054,0.708-0.054,1.068v153.92c0,8.856,7.176,16.034,16.034,16.034h153.92c0.362,0,0.714-0.03,1.068-0.054
			V802.74C991.934,811.596,999.11,818.772,1007.966,818.772z M852.978,222.33V106.048L969.26,222.33L852.978,222.33L852.978,222.33z
			"/>
	</g>
</g>
<g>
	<g>
		<path fill="#2A1FBC" d="M396.56,735.398H289.67c-8.856,0-16.034,7.176-16.034,16.034c0,8.856,7.176,16.034,16.034,16.034h106.89
			c8.856,0,16.034-7.176,16.034-16.034C412.592,742.576,405.416,735.398,396.56,735.398z"/>
	</g>
</g>
<g>
	<g>
		<path fill="#2A1FBC" d="M396.56,820.91H289.67c-8.856,0-16.034,7.176-16.034,16.034c0,8.856,7.176,16.034,16.034,16.034h106.89
			c8.856,0,16.034-7.176,16.034-16.034C412.592,828.086,405.416,820.91,396.56,820.91z"/>
	</g>
</g>
<g>
	<g>
		<path fill="#2A1FBC" d="M717.228,495.966c-65.532,0-126.616,26.046-172.002,73.342c-6.132,6.39-5.924,16.538,0.466,22.67
			c6.392,6.134,16.54,5.924,22.67-0.466c39.282-40.934,92.152-63.478,148.866-63.478c113.752,0,206.296,92.544,206.296,206.296
			S830.98,940.626,717.228,940.626S510.932,848.082,510.932,734.33c0-33.596,7.816-65.626,23.232-95.202
			c4.092-7.854,1.044-17.536-6.806-21.63c-7.852-4.086-17.536-1.044-21.63,6.808c-17.572,33.718-26.862,71.764-26.862,110.024
			c0,131.434,106.93,238.364,238.364,238.364s238.364-106.93,238.364-238.364S848.66,495.966,717.228,495.966z"/>
	</g>
</g>
<g>
	<g>
		<path fill="#2A1FBC" d="M753.83,720.434l-24.846-0.732v-89.056h56.652c8.856,0,16.034-7.176,16.034-16.034
			c0-8.856-7.176-16.034-16.034-16.034h-56.652v-18.172c0-8.856-7.176-16.034-16.034-16.034c-8.856,0-16.034,7.176-16.034,16.034
			v18.172h-16.034c-26.522,0-48.1,21.578-48.1,48.1v55.582c0,26.434,21.438,47.96,47.84,48.1l16.294,0.478v87.17h-48.1
			c-8.856,0-16.034,7.176-16.034,16.034c0,8.856,7.176,16.034,16.034,16.034h48.1v18.172c0,8.856,7.176,16.034,16.034,16.034
			c8.856,0,16.034-7.176,16.034-16.034v-18.172h24.584c26.522,0,48.1-21.578,48.1-48.1v-53.444
			C801.67,742.1,780.232,720.576,753.83,720.434z M696.918,718.76l-15.56-0.458c-0.156-0.004-0.314-0.006-0.472-0.006
			c-8.842,0-16.034-7.192-16.034-16.034V646.68c0-8.842,7.192-16.034,16.034-16.034h16.034v88.114H696.918z M769.604,821.98
			c0,8.842-7.192,16.034-16.034,16.034h-24.584v-86.228l24.112,0.71c0.156,0.004,0.314,0.006,0.472,0.006
			c8.842,0,16.034,7.192,16.034,16.034V821.98z"/>
	</g>
</g>
<g>
	<g>
		<path fill="#2A1FBC" d="M409.386,51.306H67.34c-8.856,0-16.034,7.176-16.034,16.034v85.512c0,8.856,7.176,16.034,16.034,16.034
			h342.046c8.856,0,16.034-7.176,16.034-16.034V67.34C425.42,58.484,418.244,51.306,409.386,51.306z M393.352,136.818H83.374V83.374
			h309.98v53.444H393.352z"/>
	</g>
</g>
<g>
	<g>
		<path fill="#2A1FBC" d="M135.75,188.126H67.34c-8.856,0-16.034,7.176-16.034,16.034v68.41c0,8.856,7.176,16.034,16.034,16.034
			h68.41c8.856,0,16.034-7.176,16.034-16.034v-68.41C151.782,195.302,144.606,188.126,135.75,188.126z M119.716,256.534H83.374
			v-36.342h36.342V256.534z"/>
	</g>
</g>
<g>
	<g>
		<path fill="#2A1FBC" d="M272.568,188.126h-68.41c-8.856,0-16.034,7.176-16.034,16.034v68.41c0,8.856,7.176,16.034,16.034,16.034
			h68.41c8.856,0,16.034-7.176,16.034-16.034v-68.41C288.602,195.302,281.424,188.126,272.568,188.126z M256.534,256.534h-36.342
			v-36.342h36.342V256.534z"/>
	</g>
</g>
<g>
	<g>
		<path fill="#2A1FBC" d="M409.386,188.126h-68.41c-8.856,0-16.034,7.176-16.034,16.034v68.41c0,8.856,7.176,16.034,16.034,16.034
			h68.41c8.856,0,16.034-7.176,16.034-16.034v-68.41C425.42,195.302,418.244,188.126,409.386,188.126z M393.352,256.534H357.01
			v-36.342h36.342V256.534z"/>
	</g>
</g>
<g>
	<g>
		<path fill="#2A1FBC" d="M135.75,324.944H67.34c-8.856,0-16.034,7.176-16.034,16.034v68.41c0,8.856,7.176,16.034,16.034,16.034
			h68.41c8.856,0,16.034-7.176,16.034-16.034v-68.41C151.782,332.12,144.606,324.944,135.75,324.944z M119.716,393.352H83.374
			V357.01h36.342V393.352z"/>
	</g>
</g>
<g>
	<g>
		<path fill="#2A1FBC" d="M272.568,324.944h-68.41c-8.856,0-16.034,7.176-16.034,16.034v68.41c0,8.856,7.176,16.034,16.034,16.034
			h68.41c8.856,0,16.034-7.176,16.034-16.034v-68.41C288.602,332.12,281.424,324.944,272.568,324.944z M256.534,393.352h-36.342
			V357.01h36.342V393.352z"/>
	</g>
</g>
<g>
	<g>
		<path fill="#2A1FBC" d="M135.75,461.762H67.34c-8.856,0-16.034,7.176-16.034,16.034v68.41c0,8.856,7.176,16.034,16.034,16.034
			h68.41c8.856,0,16.034-7.176,16.034-16.034v-68.41C151.782,468.938,144.606,461.762,135.75,461.762z M119.716,530.172H83.374
			V493.83h36.342V530.172z"/>
	</g>
</g>
<g>
	<g>
		<path fill="#2A1FBC" d="M272.568,461.762h-68.41c-8.856,0-16.034,7.176-16.034,16.034v68.41c0,8.856,7.176,16.034,16.034,16.034
			h68.41c8.856,0,16.034-7.176,16.034-16.034v-68.41C288.602,468.938,281.424,461.762,272.568,461.762z M256.534,530.172h-36.342
			V493.83h36.342V530.172z"/>
	</g>
</g>
<g>
	<g>
		<path fill="#2A1FBC" d="M409.386,324.944h-68.41c-8.856,0-16.034,7.176-16.034,16.034v205.228c0,8.856,7.176,16.034,16.034,16.034
			h68.41c8.856,0,16.034-7.176,16.034-16.034V340.978C425.42,332.12,418.244,324.944,409.386,324.944z M393.352,530.172H357.01
			v-173.16h36.342V530.172z"/>
	</g>
</g>
<g>
	<g>
		<path fill="#2A1FBC" d="M950.594,378.08l-87.336-82.934c-6.418-6.1-16.566-5.834-22.666,0.586
			c-6.1,6.42-5.834,16.568,0.586,22.666l75.402,71.604l-13.308,13.308L672.754,172.782c-2.24-2.238-5.09-3.764-8.194-4.384
			l-59.412-11.882l-28.602-31.538c-5.95-6.562-16.094-7.058-22.648-1.108c-6.558,5.948-7.054,16.086-1.108,22.648
			c0,0,32.968,36.074,34.064,36.796l10.464,52.322c0.62,3.104,2.146,5.954,4.384,8.194l255.47,255.472
			c9.378,9.376,21.694,14.062,34.012,14.062c12.318,0,24.634-4.686,34.01-14.062c0,0,0,0,0.002,0l3.022-3.024
			c18.75-18.754,18.75-49.27,0-68.022l-2.268-2.268l24.942-24.942C957.178,394.758,957.042,384.2,950.594,378.08z M627.81,224.592
			l-6.422-32.124l32.122,6.424l154.532,154.536l-25.696,25.696L627.81,224.592z M905.546,473.602l-3.02,3.022
			c-6.256,6.248-16.426,6.254-22.676,0l-74.824-74.826l25.694-25.696l74.826,74.826C911.798,457.178,911.796,467.35,905.546,473.602
			z"/>
	</g>
</g>
</svg>
