<?xml version="1.0" encoding="utf-8"?>
<!-- Generator: Adobe Illustrator 17.0.0, SVG Export Plug-In . SVG Version: 6.00 Build 0)  -->
<!DOCTYPE svg PUBLIC "-//W3C//DTD SVG 1.1//EN" "http://www.w3.org/Graphics/SVG/1.1/DTD/svg11.dtd">
<svg version="1.1" id="Layer_1" xmlns="http://www.w3.org/2000/svg" xmlns:xlink="http://www.w3.org/1999/xlink" x="0px" y="0px"
	 width="512px" height="512px" viewBox="0 0 512 512" enable-background="new 0 0 512 512" xml:space="preserve">
<g>
	<path fill="#2A1FBC" d="M485,58.992H27C12.093,59.01,0.013,71.092,0,86v342.112c0.015,13.748,11.156,24.889,24.904,24.904h462.192
		c13.751-0.015,24.893-11.161,24.904-24.912V86C511.987,71.092,499.908,59.01,485,58.992z M14,86c0.009-7.176,5.824-12.991,13-13
		h458c7.176,0.009,12.991,5.824,13,13v48.492H14V86z M498,428.112c-0.007,6.019-4.885,10.897-10.904,10.904H24.904
		c-6.022-0.007-10.902-4.889-10.904-10.912v-279.6h484V428.112z"/>
	<path fill="#2A1FBC" d="M473,96.744H198.748c-3.866,0-7,3.134-7,7s3.134,7,7,7H473c3.866,0,7-3.134,7-7S476.866,96.744,473,96.744z
		"/>
	<path fill="#2A1FBC" d="M57.508,96.744H39c-3.866,0-7,3.134-7,7s3.134,7,7,7h18.508c3.866,0,7-3.134,7-7
		S61.374,96.744,57.508,96.744z"/>
	<path fill="#2A1FBC" d="M110.756,96.744H92.248c-3.866,0-7,3.134-7,7s3.134,7,7,7h18.508c3.866,0,7-3.134,7-7
		S114.622,96.744,110.756,96.744z"/>
	<path fill="#2A1FBC" d="M164,96.744h-18.5c-3.866,0-7,3.134-7,7s3.134,7,7,7H164c3.866,0,7-3.134,7-7S167.866,96.744,164,96.744z"
		/>
	<path fill="#2A1FBC" d="M197.484,374.264l28.576,14.4c3.454,1.693,7.628,0.318,9.4-3.096l82.14-162.932
		c1.684-3.455,0.311-7.622-3.096-9.4l-28.576-14.4c-3.451-1.74-7.658-0.354-9.4,3.096L194.4,364.864
		C192.714,368.316,194.081,372.482,197.484,374.264z M285.884,214.48l16.072,8.104L226.112,373.02l-16.072-8.104L285.884,214.48z"/>
	<path fill="#2A1FBC" d="M374.216,296.152l-36.876,37.1c-2.724,2.737-2.713,7.164,0.024,9.888c0.003,0.003,0.005,0.005,0.008,0.008
		l22.692,22.56c2.759,2.681,7.155,2.667,9.896-0.032l64.376-64.756c2.679-2.76,2.665-7.154-0.032-9.896l-70.272-69.856
		c-2.739-2.725-7.169-2.713-9.894,0.026c-0.002,0.002-0.004,0.004-0.006,0.006l-22.556,22.692c-2.725,2.739-2.713,7.169,0.026,9.894
		c0.001,0.001,0.001,0.001,0.002,0.002L374.216,296.152z M359.128,236.032l60.344,60l-54.504,54.812l-12.764-12.692l36.876-37.096
		c2.723-2.743,2.709-7.174-0.032-9.9L346.436,248.8L359.128,236.032z"/>
	<path fill="#2A1FBC" d="M142.468,366.348c2.76,2.682,7.157,2.668,9.9-0.032l22.556-22.692c2.725-2.739,2.713-7.169-0.026-9.894
		c-0.001-0.001-0.001-0.001-0.002-0.002l-37.096-36.88l42.36-42.612c2.725-2.739,2.713-7.169-0.026-9.894
		c-0.002-0.002-0.004-0.004-0.006-0.006l-22.692-22.56c-2.737-2.724-7.164-2.713-9.888,0.024c-0.003,0.003-0.005,0.005-0.008,0.008
		L77.68,292.08c-5.2,5.24,0.248,10.112,3.88,13.724L142.468,366.348z M152.532,236.64l12.764,12.692l-42.36,42.612
		c-2.723,2.743-2.709,7.174,0.032,9.9l37.096,36.876l-12.692,12.764L92.544,296.98L152.532,236.64z"/>
</g>
</svg>
