<?xml version="1.0" encoding="utf-8"?>
<!-- Generator: Adobe Illustrator 23.0.3, SVG Export Plug-In . SVG Version: 6.00 Build 0)  -->
<svg version="1.1" id="Layer_1" xmlns="http://www.w3.org/2000/svg" xmlns:xlink="http://www.w3.org/1999/xlink" x="0px" y="0px"
	 viewBox="0 0 600 451" style="enable-background:new 0 0 600 451;" xml:space="preserve">
<style type="text/css">
	.st0{fill:#BC1818;}
	.st1{opacity:0.55;fill:#8C0D0D;}
	.st2{fill:#727272;}
	.st3{fill:#FFD2D2;}
	.st4{fill:#FFFFFF;}
	.st5{fill:#FFBF4D;}
	.st6{fill:#1C181A;}
	.st7{fill:#352E2F;}
	.st8{fill:#F98D3D;}
	.st9{fill:#ED701B;}
	.st10{fill:none;}
	.st11{fill:#EFAA3A;}
	.st12{opacity:0.29;fill:#F98D2B;}
	.st13{fill:#619961;}
	.st14{fill:#488748;}
	.st15{fill:#49B4D6;}
	.st16{fill:#FF9F50;}
	.st17{fill:#F77E2D;}
	.st18{fill:#424242;}
	.st19{fill:#8C0D0D;}
	.st20{opacity:0.55;}
	.st21{fill:#7F0000;}
	.st22{opacity:0.55;fill:url(#SVGID_1_);}
	.st23{fill:#891F2C;}
</style>
<g>
	<g>
		<path class="st0" d="M577.33,449c9.51,0,17.27-7.63,17.42-17.13c0.73-47.4,4.55-117.31-84.72-136.65
			c-72.24-15.65-29.41-144.02-223.95-135.73c-139.65,5.95-102.55,123.66-211.13,133.47c-72.25,6.52-72.88,97.9-70.1,139.77
			c0.61,9.16,8.2,16.27,17.38,16.27H577.33z"/>
		<g>
			<path class="st1" d="M510.03,295.22c-72.24-15.65-29.41-144.02-223.95-135.73c-33.21,1.42-56.42,9.16-73.97,20.27
				c5.91-0.77,12.19-1.32,18.88-1.61c194.54-8.29,151.71,120.08,223.95,135.73c88.31,19.13,85.52,87.76,84.74,135.12h37.65
				c9.51,0,17.27-7.63,17.42-17.13C595.47,384.47,599.29,314.55,510.03,295.22z"/>
		</g>
		<g>
			<rect x="200.69" y="3.56" class="st2" width="3.07" height="131.1"/>
			<rect x="420.93" y="3.56" class="st2" width="3.07" height="165.53"/>
			<g>
				<path class="st3" d="M423.71,154.01L195.3,127.35c-9.76-1.14-18.6,5.85-19.74,15.61l-17.05,146.06
					c-1.14,9.76,5.85,18.6,15.61,19.74l228.41,26.66c9.76,1.14,18.6-5.85,19.74-15.61l17.05-146.06
					C440.46,163.99,433.47,155.15,423.71,154.01z"/>
				<path class="st0" d="M437.63,188.21l1.69-14.46c1.14-9.76-5.85-18.6-15.61-19.74L195.3,127.35c-9.76-1.14-18.6,5.85-19.74,15.61
					l-1.69,14.46L437.63,188.21z"/>
				<g>
					<path class="st0" d="M210.83,245.86l28.95-51.01c1.86-3.27,5.49-5.11,9.22-4.67l0,0c5.13,0.6,8.8,5.24,8.21,10.37l-6.02,51.6
						l0.26,0.03c3.56,0.41,6.1,3.63,5.69,7.19l0,0c-0.41,3.56-3.63,6.1-7.19,5.69l-0.26-0.03l-1.1,9.4
						c-0.45,3.84-3.92,6.59-7.76,6.14l0,0c-3.84-0.45-6.59-3.92-6.14-7.76l1.1-9.4l-20.84-2.43c-3.56-0.42-6.11-3.64-5.7-7.2
						l0.55-4.74C209.92,247.92,210.27,246.84,210.83,245.86z M237.38,249.68l3.74-32c0.03-0.22-0.27-0.32-0.38-0.12l-17.11,30.19
						c-0.3,0.53,0.04,1.2,0.65,1.27l12.16,1.42C236.9,250.48,237.32,250.15,237.38,249.68z"/>
					<path class="st0" d="M338.61,260.78l28.95-51.01c1.85-3.27,5.49-5.11,9.22-4.67l0,0c5.13,0.6,8.8,5.24,8.21,10.37l-6.02,51.6
						l0.26,0.03c3.56,0.41,6.1,3.63,5.69,7.19l0,0c-0.41,3.56-3.63,6.1-7.19,5.69l-0.26-0.03l-1.1,9.4
						c-0.45,3.84-3.92,6.59-7.76,6.14l0,0c-3.84-0.45-6.59-3.92-6.14-7.76l1.1-9.4l-20.84-2.43c-3.56-0.42-6.11-3.64-5.7-7.2
						l0.55-4.74C337.7,262.83,338.05,261.75,338.61,260.78z M365.16,264.59l3.74-32c0.03-0.22-0.27-0.32-0.38-0.12l-17.11,30.19
						c-0.3,0.53,0.04,1.2,0.65,1.27l12.16,1.42C364.68,265.4,365.1,265.06,365.16,264.59z"/>
					<path class="st0" d="M281.16,215.85c1.68-14.42,10.24-21.77,24.14-20.15c13.9,1.62,20.54,10.75,18.85,25.17l-5.47,46.86
						c-1.68,14.42-10.24,21.77-24.14,20.15c-13.9-1.62-20.54-10.75-18.85-25.17L281.16,215.85z M289.75,265.26
						c-0.75,6.44,1.8,9.21,6.3,9.74c4.51,0.53,7.62-1.59,8.37-8.03l5.68-48.66c0.75-6.44-1.8-9.21-6.3-9.74
						c-4.51-0.53-7.62,1.59-8.37,8.03L289.75,265.26z"/>
				</g>
				<g>
					<path class="st4" d="M200.8,147.54c-0.31,2.62-2.68,4.5-5.3,4.2c-2.62-0.31-4.5-2.68-4.2-5.3c0.31-2.62,2.68-4.5,5.3-4.2
						C199.23,142.54,201.1,144.91,200.8,147.54z"/>
					<path class="st3" d="M223.71,150.21c-0.31,2.62-2.68,4.5-5.3,4.2c-2.62-0.31-4.5-2.68-4.2-5.3c0.31-2.62,2.68-4.5,5.3-4.2
						C222.14,145.21,224.01,147.59,223.71,150.21z"/>
					<path class="st5" d="M247.46,152.98c-0.31,2.62-2.68,4.5-5.3,4.2c-2.62-0.31-4.5-2.68-4.2-5.3c0.31-2.62,2.68-4.5,5.3-4.2
						C245.89,147.99,247.76,150.36,247.46,152.98z"/>
				</g>
			</g>
		</g>
		<g>
			<path class="st6" d="M155.57,319.35c0,0-3.09,13.68-2.57,27.67c0.46,12.52-1.03,94.83-1.03,94.83h10.05
				c0,0,14.31-64.46,14.85-69.55c0.53-5.09,7.73-56,7.73-56L155.57,319.35z"/>
			<path class="st7" d="M162.26,315.59c0,0,2.31,17.59,6.25,30.08c3.93,12.5,23.27,96.16,23.27,96.16h10.05
				c0,0-1.85-64.46-2.55-69.55c-0.69-5.09-5.78-56-5.78-56L162.26,315.59z"/>
			<path class="st7" d="M192.6,441.82v7.02h19.14c1.09,0,1.51-1.41,0.61-2.01c-2.8-1.86-7.28-4.43-11.45-5H192.6z"/>
			<path class="st7" d="M152.49,441.82v7.02h19.14c1.09,0,1.51-1.41,0.61-2.01c-2.8-1.86-7.28-4.43-11.45-5H152.49z"/>
			<g>
				<path class="st7" d="M187.02,233.79c0,0,6.58-9.99-0.98-10.97c-5.8-0.75-8.19,0.98-8.19,0.98s-6.68-0.74-10.34,2.43
					c-2.51,2.17-11.7,19.01,3.17,25.11s11.7-9.51,11.7-9.51L187.02,233.79z"/>
				<path class="st6" d="M186.04,222.82c-5.8-0.75-8.19,0.98-8.19,0.98s-6.68-0.74-10.34,2.43c-2.51,2.17-11.7,19.01,3.17,25.11
					c6.99,2.86,9.99,0.93,11.21-1.91c-14.11,3.97-15.64-13.04-13.31-17.87c2.36-4.92,8.04-2.65,8.04-2.65
					c2.22-5.58,9.45-4.98,12.43-4.55C188.51,223.58,187.57,223.02,186.04,222.82z"/>
				<path class="st8" d="M177.75,238.66c0,0-1.95-1.95-3.41,0c-1.46,1.95-0.49,6.34,1.95,6.58c0,0-0.73,6.34-5.61,6.09v5.12h11.46
					v-3.9c0,0,7.07-2.93,6.83-8.78c-0.24-5.85-1.95-9.99-1.95-9.99S183.11,238.18,177.75,238.66z"/>
				<path class="st9" d="M179.5,254.2c1.13,0.47,0.94,1.19,0.99,2.26h1.65v-3.9c0,0-2.78,0.88-6.84-1.43
					C175.3,251.13,177.66,253.43,179.5,254.2z"/>
			</g>
			<path class="st8" d="M181.85,229.33c0,0-5.94-2.37-6.63-0.59c-0.45,1.16,0.7,2.16,2.29,3.17l-1.4,0.23
				c-0.31,0.05-0.42,0.45-0.18,0.65c0.39,0.31,1.47,0.53,3.71,0.6L181.85,229.33z"/>
			<g>
				<polygon class="st10" points="146.52,293.74 154.48,319.38 154.34,318.09 154.48,319.38 157.17,282.04 				"/>
				<path class="st5" d="M224.26,244.21c-11.32-8.39-42.25-15.1-42.25-15.1l-2.55,4.64c0,0,28.08,10.88,26.22,12.5
					c-1.09,0.96-14.81,7.24-19.45,9.36c-1,0.45-2.09,0.68-3.19,0.65l-14.22-0.08c0,0-10.26-1.22-18.33,8.05
					c-7.21,8.3-19.47,27.52-19.47,27.52l20.65,30.38l2.29,3.35l0.02-0.04l-0.02,0.28c0,0,0.74,0.08,2.03,0.2
					c6.64,0.61,27.92,2.3,39.18-0.09l0.31-0.07l-0.53-49.83c17.98-14.24,26.57-25.23,29.64-28.68
					C225.4,246.34,225.24,244.94,224.26,244.21z M154.95,312.16l-2.02-4.4l-6.42-14.02l10.65-11.93l-1.91,26.17L154.95,312.16z"/>
			</g>
			<polygon class="st11" points="152.94,307.76 154.95,312.16 153.98,325.45 153.96,325.49 151.67,322.14 			"/>
			<path class="st12" d="M190.15,274.15c-1.91,1.39-1.43,13.71-1.9,21.42c-0.79,12.9-1.56,24.07-0.99,31.27
				c2.92-0.19,5.63-0.51,7.92-0.99l0.31-0.07l-0.53-49.83c17.98-14.24,26.57-25.23,29.64-28.68c0.81-0.92,0.65-2.32-0.33-3.05
				C224.26,244.21,210.04,259.71,190.15,274.15z"/>
			<path class="st6" d="M199.28,372.29c-0.5-3.67-3.29-31.2-4.81-46.24l-7.23,0.8c0,0,10.54,86.65,11.23,115h3.34
				C201.83,441.84,199.98,377.38,199.28,372.29z"/>
			<g>
				<path class="st0" d="M154.35,241.09l-2.38-4.27c1.19-2.25,1.88-4.81,1.88-7.54c0-8.91-7.22-16.12-16.12-16.12
					s-16.12,7.22-16.12,16.12c0,8.91,7.22,16.12,16.12,16.12c4.48,0,8.54-1.83,11.46-4.79L154.35,241.09z"/>
				<g>
					<path class="st4" d="M126.5,225.94h1.07v3.82c0,1.17,0.35,1.67,1.17,1.67c0.64,0,1.09-0.32,1.68-1.05v-4.43h1.05v6.25h-0.87
						l-0.09-0.98h-0.04c-0.58,0.68-1.19,1.13-2.06,1.13c-1.32,0-1.91-0.85-1.91-2.44V225.94z"/>
					<path class="st4" d="M134.33,232.71v2.11h-1.05v-8.88h0.88l0.09,0.72h0.04c0.57-0.48,1.26-0.87,1.99-0.87
						c1.61,0,2.47,1.25,2.47,3.19c0,2.12-1.27,3.37-2.7,3.37c-0.58,0-1.16-0.27-1.74-0.72L134.33,232.71z M135.86,231.45
						c1.03,0,1.79-0.94,1.79-2.48c0-1.38-0.46-2.3-1.64-2.3c-0.53,0-1.05,0.29-1.67,0.85v3.28
						C134.9,231.27,135.45,231.45,135.86,231.45z"/>
					<path class="st4" d="M139.94,230.77c0.54,0.44,1.09,0.75,1.84,0.75c0.82,0,1.23-0.44,1.23-0.98c0-0.64-0.74-0.93-1.43-1.18
						c-0.89-0.32-1.86-0.75-1.86-1.8c0-1,0.8-1.77,2.15-1.77c0.78,0,1.46,0.32,1.94,0.71l-0.5,0.67c-0.42-0.32-0.87-0.55-1.43-0.55
						c-0.78,0-1.14,0.42-1.14,0.9c0,0.58,0.68,0.81,1.39,1.08c0.9,0.33,1.9,0.71,1.9,1.89c0,1.01-0.81,1.86-2.29,1.86
						c-0.89,0-1.73-0.37-2.33-0.86L139.94,230.77z"/>
					<path class="st4" d="M145.74,230.72c0.41,0,0.76,0.33,0.76,0.82c0,0.46-0.35,0.8-0.76,0.8c-0.42,0-0.77-0.34-0.77-0.8
						C144.97,231.05,145.32,230.72,145.74,230.72z"/>
					<path class="st4" d="M148.64,230.72c0.41,0,0.76,0.33,0.76,0.82c0,0.46-0.35,0.8-0.76,0.8c-0.42,0-0.77-0.34-0.77-0.8
						C147.87,231.05,148.21,230.72,148.64,230.72z"/>
				</g>
			</g>
		</g>
		<g>
			<g>
				<g>
					<path class="st13" d="M96.4,417.45c0,0-3.1-2.89-1.02-13.87c2.08-10.98,7.36-21.52,4.77-33.43
						c-2.59-11.91-22.88-41.94-22.95-43.94c-0.07-2-6.26,34.94,4.23,49.48c10.49,14.55,11.76,19.6,11.29,27.25
						c-0.47,7.65,0.11,13.81,1.26,15.59L96.4,417.45z"/>
					<path class="st14" d="M94.48,395.37c-1.22,4.9-1.96,17.18-0.01,20.12c0.18,0.27,0.44,0.12,0.77-0.39
						c-0.59-2.03-0.98-5.59,0.14-11.52c2.08-10.98,7.36-21.52,4.77-33.43c-2.59-11.91-22.88-41.94-22.95-43.94
						c0,0,3.06,25.02,13.36,42.24C97.93,380.78,95.7,390.47,94.48,395.37z"/>
				</g>
				<g>
					<path class="st13" d="M100.1,416.69c0,0-5.96-14.89,4.14-27.77c10.1-12.89,26.26-29.44,26.59-35.99c0,0,4.15,31.13-9,39.94
						c-13.15,8.81-22.38,10.22-20.09,23.77L100.1,416.69z"/>
					<path class="st14" d="M114.3,386.6c-14.66,10.67-15.86,22.97-13.59,28.67c0.18,0.44,0.51,0.71,0.95,0.86
						c-1.97-13.09,7.18-14.57,20.17-23.27c13.15-8.81,9-39.94,9-39.94S128.96,375.93,114.3,386.6z"/>
				</g>
				<g>
					<path class="st13" d="M90.3,417.02c0,0,1.91-7.88,0.89-16.39c-1.02-8.51-9.91-13.3-18.21-22.28
						c-4.27-4.62-5.54-29.08-2.89-31.35c0,0-14.66,17.77-12.4,30.78c2.26,13.01,26.18,21.47,28.4,27.75
						c2.21,6.29,2.03,11.57,2.03,11.57L90.3,417.02z"/>
					<g>
						<path class="st14" d="M65.14,353.99c-4.85,13.12,0.12,29.02,16.22,38.89c11.85,7.27,8.08,22.38,8.08,22.38l1.94-5.96
							c0.17-2.58,0.19-5.58-0.18-8.67c-1.02-8.51-9.91-13.3-18.21-22.28c-4.12-4.46-5.44-27.36-3.15-31.02
							C69.15,348.17,67.26,350.63,65.14,353.99z"/>
						<path class="st15" d="M69.83,347.33c0.17-0.21,0.27-0.33,0.27-0.33C70,347.07,69.91,347.19,69.83,347.33z"/>
					</g>
				</g>
				<g>
					<path class="st13" d="M103.17,416.04c0,0,3.44-12.75,11.94-14.47c8.5-1.72,18.26-14.28,18.79-16.74
						C133.9,384.83,132.46,408.52,103.17,416.04z"/>
					<path class="st14" d="M114.62,405.78c-5.21,2.6-7.37,6.11-8.14,9.29c26.08-8.39,27.42-30.24,27.42-30.24
						c-0.1,0.49-0.58,1.38-1.33,2.49C130.02,391.8,123.82,401.18,114.62,405.78z"/>
				</g>
			</g>
			<path class="st5" d="M121.57,411.34H77.11l5.28,33.21c0.4,2.52,2.57,4.37,5.12,4.37h23.65c2.55,0,4.72-1.85,5.12-4.37
				L121.57,411.34z"/>
			<polygon class="st16" points="120.69,416.83 121.57,411.34 77.11,411.34 77.98,416.83 			"/>
			<path class="st16" d="M110.8,411.34l-5.28,33.21c-0.4,2.52-2.57,4.37-5.12,4.37h10.77c2.55,0,4.72-1.85,5.12-4.37l5.28-33.21
				H110.8z"/>
		</g>
		<g>
			<rect x="227.28" y="352.12" class="st5" width="200.93" height="40.85"/>
			<rect x="227.28" y="352.12" class="st12" width="200.93" height="9.92"/>
			<polygon class="st17" points="244.75,352.12 263.09,352.12 258.17,362.04 239.82,362.04 			"/>
			<polygon class="st17" points="286.07,352.12 304.4,352.12 299.49,362.04 281.15,362.04 			"/>
			<polygon class="st17" points="327.38,352.12 345.72,352.12 340.81,362.04 322.47,362.04 			"/>
			<polygon class="st17" points="368.7,352.12 387.03,352.12 382.11,362.04 363.78,362.04 			"/>
			<polygon class="st17" points="428.21,352.12 428.21,352.4 423.42,362.04 405.1,362.04 410.02,352.12 			"/>
			<rect x="252.29" y="392.98" class="st2" width="14.16" height="55.86"/>
			<rect x="263.24" y="392.98" class="st18" width="3.22" height="55.86"/>
			<rect x="390.13" y="392.98" class="st2" width="14.16" height="55.86"/>
			<rect x="400.11" y="392.98" class="st18" width="4.19" height="55.86"/>
			<rect x="252.29" y="392.94" class="st18" width="14.16" height="7.03"/>
			<rect x="390.13" y="392.94" class="st18" width="14.16" height="7.03"/>
			<rect x="252.29" y="345.74" class="st2" width="14.16" height="6.34"/>
			<rect x="263.24" y="345.74" class="st18" width="3.22" height="6.34"/>
			<rect x="390.13" y="345.74" class="st2" width="14.16" height="6.34"/>
			<rect x="400.11" y="345.74" class="st18" width="4.19" height="6.34"/>
			<rect x="252.29" y="351.29" class="st18" width="14.16" height="0.8"/>
			<rect x="390.13" y="351.29" class="st18" width="14.16" height="0.8"/>
			<g>
				<g>
					<polygon class="st19" points="263.09,352.12 242.82,392.98 227.28,392.98 227.28,387.34 244.75,352.12 					"/>
					<polygon class="st19" points="286.07,352.12 265.8,392.98 284.14,392.98 304.4,352.12 					"/>
					<polygon class="st19" points="345.72,352.12 325.46,392.98 307.12,392.98 327.38,352.12 					"/>
					<polygon class="st19" points="387.03,352.12 366.78,392.98 348.44,392.98 368.7,352.12 					"/>
					<polygon class="st19" points="410.02,352.12 389.75,392.98 408.08,392.98 428.21,352.4 					"/>
				</g>
			</g>
			<g class="st20">
				<g>
					<polygon class="st21" points="263.09,352.12 258.17,362.04 239.82,362.04 244.75,352.12 					"/>
					<polygon class="st21" points="304.4,352.12 299.49,362.04 281.15,362.04 286.07,352.12 					"/>
					<polygon class="st21" points="345.72,352.12 340.81,362.04 322.47,362.04 327.38,352.12 					"/>
					<polygon class="st21" points="387.03,352.12 382.11,362.04 363.78,362.04 368.7,352.12 					"/>
					<polygon class="st21" points="428.21,352.4 423.42,362.04 405.1,362.04 410.02,352.12 					"/>
				</g>
			</g>
			<linearGradient id="SVGID_1_" gradientUnits="userSpaceOnUse" x1="328.8109" y1="404.9277" x2="328.8109" y2="372.0178">
				<stop  offset="0" style="stop-color:#FFFFFF"/>
				<stop  offset="1" style="stop-color:#FFFFFF;stop-opacity:0"/>
			</linearGradient>
			<rect x="232.88" y="369.8" class="st22" width="191.87" height="20.43"/>
			
				<ellipse transform="matrix(0.987 -0.1606 0.1606 0.987 -50.7532 45.9824)" class="st5" cx="259" cy="336.87" rx="12.63" ry="12.63"/>
			<path class="st23" d="M264.73,336.87c0-3.16-2.56-5.72-5.72-5.72s-5.72,2.56-5.72,5.72c0,3.16,2.56,5.72,5.72,5.72
				S264.73,340.04,264.73,336.87z"/>
			
				<ellipse transform="matrix(0.987 -0.1606 0.1606 0.987 -48.9592 68.1721)" class="st5" cx="397.13" cy="336.87" rx="12.63" ry="12.63"/>
			<path class="st23" d="M402.86,336.87c0-3.16-2.56-5.72-5.72-5.72s-5.72,2.56-5.72,5.72c0,3.16,2.56,5.72,5.72,5.72
				S402.86,340.04,402.86,336.87z"/>
		</g>
		<g>
			<path class="st5" d="M504.33,444.51h-63.99l9.79-23.73v-0.01l3.94-9.57l1.08-2.62l1.77-4.27l0.36-0.87l3.94-9.57l0.72-1.74
				l6.98-16.94c1.26-3.05,5.58-3.05,6.84,0l6.98,16.94l0.72,1.74l3.94,9.57l0.36,0.87l1.77,4.27l1.08,2.62l3.94,9.57v0.01
				L504.33,444.51z"/>
			<polygon class="st12" points="444.53,434.34 440.34,444.51 504.34,444.51 500.15,434.34 			"/>
			<rect x="435.23" y="438.43" class="st2" width="73.29" height="10.36"/>
			<rect x="492.68" y="438.43" class="st18" width="15.84" height="10.36"/>
			<g>
				<path class="st12" d="M501.82,438.42h-9.05l-7.27-17.64v-0.01l-3.94-9.57l-1.08-2.62l-1.77-4.27l-0.36-0.87l-3.94-9.57
					l-0.72-1.74l-5.87-14.26l1.1-2.68c1.26-3.05,5.58-3.05,6.84,0l6.98,16.94l0.72,1.74l3.94,9.57l0.36,0.87l1.77,4.27l1.08,2.62
					l3.94,9.57v0.01L501.82,438.42z"/>
				<g>
					<polygon class="st19" points="487.39,403.43 457.28,403.43 461.22,393.85 483.46,393.85 					"/>
					<polygon class="st19" points="494.54,420.77 494.54,420.78 450.13,420.78 450.13,420.77 454.06,411.2 490.61,411.2 					"/>
					<polygon class="st21" points="487.39,403.43 478.34,403.43 474.4,393.85 483.46,393.85 					"/>
					<polygon class="st21" points="494.54,420.77 494.54,420.78 485.49,420.78 485.49,420.77 481.56,411.2 490.61,411.2 					"/>
				</g>
			</g>
		</g>
		<g>
			<path class="st3" d="M96.42,211.83c4.78,0,8.94-3.47,9.58-8.21c0.12-0.85,0.18-1.72,0.18-2.6c0-10.55-8.55-19.1-19.1-19.1
				c-0.43,0-0.86,0.02-1.29,0.05c-0.87-10.4-9.58-18.57-20.21-18.57c-11.2,0-20.29,9.08-20.29,20.29c0,0.5,0.02,0.99,0.06,1.48
				c-3.18-1.78-6.89-2.73-10.83-2.55c-10.19,0.47-18.56,8.62-19.28,18.79c-0.01,0.08-0.01,0.16-0.02,0.24
				c-0.33,5.53,4.15,10.17,9.69,10.17H96.42z"/>
			<path class="st3" d="M552.2,226.83c15.1,0,15.94-22.73,0.85-23.46c-0.41-0.02-0.83-0.03-1.24-0.03c-2.69,0-5.28,0.43-7.72,1.21
				c-2.02-12.3-12.69-21.69-25.57-21.69c-13.16,0-24.02,9.81-25.69,22.51c-3.12-1.5-6.62-2.34-10.31-2.34
				c-2.06,0-4.06,0.26-5.97,0.75c-13.2,3.4-10.43,23.05,3.2,23.05H552.2z"/>
			<path class="st3" d="M370.84,114.85c15.1,0,15.93-22.72,0.85-23.45c-0.41-0.02-0.83-0.03-1.24-0.03c-2.69,0-5.28,0.43-7.72,1.21
				c-2.02-12.3-12.69-21.68-25.56-21.68c-13.15,0-24.01,9.8-25.68,22.5c-3.12-1.5-6.62-2.33-10.31-2.33c-2.06,0-4.06,0.26-5.97,0.75
				c-13.2,3.4-10.43,23.04,3.2,23.04H370.84z"/>
			<circle class="st5" cx="130.47" cy="120.65" r="36.19"/>
			<path class="st16" d="M130.77,84.47c9.84,6.47,16.35,17.6,16.35,30.26c0,19.99-16.2,36.19-36.19,36.19c-0.1,0-0.2-0.01-0.3-0.01
				c5.7,3.75,12.52,5.93,19.85,5.93c19.99,0,36.19-16.2,36.19-36.19C166.67,100.76,150.62,84.63,130.77,84.47z"/>
		</g>
	</g>
</g>
</svg>
