<?xml version="1.0" encoding="utf-8"?>
<!-- Generator: Adobe Illustrator 23.0.3, SVG Export Plug-In . SVG Version: 6.00 Build 0)  -->
<svg version="1.1" id="Layer_1" xmlns="http://www.w3.org/2000/svg" xmlns:xlink="http://www.w3.org/1999/xlink" x="0px" y="0px"
	 viewBox="0 0 600 300" style="enable-background:new 0 0 600 300;" xml:space="preserve">
<style type="text/css">
	.st0{fill:#FFD2D2;}
	.st1{fill:#FFFFFF;}
	.st2{fill:#333333;}
	.st3{fill:#F99746;}
	.st4{fill:#FFB27D;}
	.st5{fill:#E2915A;}
	.st6{fill:#ED7D2B;}
	.st7{fill:#F9DDBF;}
	.st8{fill:#F2CCAA;}
	.st9{fill:#E8945B;}
	.st10{fill:#EBF3FA;}
	.st11{fill:#233862;}
	.st12{fill:#BC1818;}
	.st13{fill:#FFC0C0;}
	.st14{fill:#ED975D;}
	.st15{fill:#EBF3FF;}
	.st16{fill:#8C0D0D;}
	.st17{fill:#2E3552;}
	.st18{fill:#3D723D;}
	.st19{fill:#2E542E;}
	.st20{fill:#619961;}
	.st21{fill:#488748;}
	.st22{fill:#D4E4F8;}
</style>
<path class="st0" d="M281.69,30.51c0,7.12,2.52,13.65,6.72,18.75c3.63,4.41,5.65,9.93,5.65,15.64v8.24c0,5.24,4.28,9.52,9.52,9.52
	h15.24c5.24,0,9.52-4.28,9.52-9.52v-8.25c0-5.72,2.05-11.24,5.68-15.66c4.22-5.14,6.74-11.72,6.69-18.89
	C340.62,14.06,327.48,1,311.2,1c-1.81,0-3.58,0.16-5.3,0.48c-0.38,0.07-0.76,0.14-1.13,0.23C291.56,4.64,281.69,16.42,281.69,30.51z
	"/>
<g>
	<polygon class="st1" points="305.25,82.77 298.86,45.01 300.17,44.79 306.57,83.44 	"/>
</g>
<g>
	<polygon class="st1" points="316.55,82.78 315.24,83.43 322.04,45.38 323.36,45.62 	"/>
</g>
<g>
	<path class="st1" d="M314.72,51.75c-0.17,0-0.36-0.02-0.58-0.07c-0.36-0.08-0.58-0.33-0.65-0.72c-0.15-0.83,0.5-2.36,1.42-3.66
		c-0.48-0.84-1.12-1.53-1.79-1.73c-0.99-0.3-2.51,0.61-3.57,1.78c0.19,0.27,0.37,0.56,0.52,0.85c0.54,1.02,0.93,2.33,0.4,2.94
		c-0.2,0.22-0.6,0.43-1.4,0.13c-1-0.38-1.36-1.22-0.99-2.32c0.18-0.54,0.52-1.1,0.95-1.62c-0.82-1.07-1.92-1.88-3-1.75
		c-0.58,0.07-1.07,0.27-1.48,0.56c0.69,1.29,0.85,2.92,0.37,3.79c-0.33,0.6-0.9,0.78-1.61,0.53c-0.51-0.18-0.78-0.88-0.68-1.79
		c0.1-0.93,0.56-1.94,1.38-2.64c-0.21-0.33-0.47-0.63-0.77-0.86c-1.86-1.44-3.4,0.11-3.46,0.17l-0.29-0.28
		c0.02-0.02,1.86-1.87,4-0.21c0.32,0.25,0.61,0.57,0.84,0.93c0.46-0.31,1-0.53,1.64-0.61c1.21-0.15,2.42,0.7,3.32,1.84
		c1.15-1.25,2.79-2.18,3.94-1.83c0.72,0.22,1.41,0.92,1.93,1.78c0.49-0.63,1.03-1.18,1.55-1.53c0.84-0.56,1.39-0.43,1.7-0.22
		c0.32,0.21,0.59,0.49,0.82,0.82c0.25-0.2,0.52-0.37,0.78-0.5c0.98-0.49,1.87-0.45,2.53,0.1l-0.26,0.31
		c-0.7-0.59-1.61-0.28-2.08-0.05c-0.26,0.13-0.52,0.3-0.75,0.49c0.65,1.17,0.78,2.7,0.4,3.44c-0.23,0.47-0.65,0.63-1.14,0.45
		c-0.88-0.32-1.1-0.93-1.12-1.38c-0.05-0.87,0.55-1.85,1.34-2.58c-0.2-0.3-0.45-0.56-0.73-0.75c-0.38-0.25-0.9-0.02-1.26,0.22
		c-0.53,0.35-1.07,0.92-1.56,1.57c0.61,1.15,0.92,2.5,0.69,3.36C315.96,51.12,315.64,51.75,314.72,51.75z M315.12,47.7
		c-0.8,1.17-1.36,2.49-1.23,3.19c0.04,0.22,0.15,0.35,0.35,0.39c0.79,0.18,1.28-0.05,1.45-0.69
		C315.88,49.87,315.62,48.72,315.12,47.7z M309.28,47.67c-0.37,0.46-0.66,0.95-0.82,1.4c-0.31,0.9-0.06,1.51,0.75,1.82
		c0.32,0.12,0.75,0.22,0.96-0.02c0.32-0.36,0.13-1.38-0.45-2.48C309.59,48.15,309.44,47.91,309.28,47.67z M304.23,46.39
		c-0.71,0.63-1.1,1.52-1.19,2.33c-0.08,0.69,0.09,1.25,0.41,1.36c0.51,0.18,0.89,0.07,1.12-0.35
		C304.98,48.99,304.83,47.54,304.23,46.39z M319.14,46.65c-0.7,0.67-1.18,1.54-1.14,2.2c0.03,0.48,0.32,0.83,0.86,1.03
		c0.3,0.11,0.5,0.03,0.64-0.25C319.81,49.01,319.68,47.68,319.14,46.65z"/>
</g>
<g>
	<path d="M45.75,296.5c0,0-0.55-4.29-1.83-6.84c-1.28-2.55-9.4-0.93-9.4-0.93s-1.62,1.39-1.97,7.89L45.75,296.5z"/>
	<path d="M73.41,296.44c-1.91-1.16-0.82-9.85-0.82-9.85s8.89-7.11,10.11-1.67c1.22,5.45,8.45,7.89,12.56,8.56
		c2.84,0.46,3.72,2.03,3.99,2.96H73.41z"/>
	<path class="st2" d="M55,233.25c0.36,1.99,0.59,3.63,0.65,4.8c0.83,16.12,13.57,52.98,15.85,53.84c3.53,1.33,9.08-1.5,11.99-2.42
		c1.2-0.38,2.02-1.6,1.75-2.83c-6.31-29.01-8.63-70.79-9.47-95.52c-0.43-12.46-2.56-21.06-2.56-21.06s-31.08-8.29-31.26,2.2
		C41.77,181.53,52.23,217.94,55,233.25z"/>
	<path d="M55,233.25l20.76-42.13c-0.43-12.46-2.56-21.06-2.56-21.06s-31.08-8.29-31.26,2.2C41.77,181.53,52.23,217.94,55,233.25z"/>
	<path class="st2" d="M61.91,172.29L45.48,291.37c0,0-7.22,1.74-12.83,0.35c0,0-4.81-63.33-4.41-78.64
		c0.4-15.31-3.45-40.97,0.88-43.8C33.46,166.44,61.91,172.29,61.91,172.29z"/>
	<path class="st3" d="M25.92,170.3c-0.08,1.08,0.61,2.05,1.65,2.36c2.29,0.66,4.93,1.13,10.03,2.18c4.79,0.99,11.23,1.87,19.14,1.92
		c12.59,0.08,17.35-4.26,17.35-4.26c0.54,0.01-0.29-2.62-1.03-15.15c-0.25-4.24-0.5-9.62-0.67-16.42c-0.16-6.12-0.27-13.38-0.28-22
		c-0.01-10.37-16.06-21.52-16.36-21.52l0,0c0,1.49-2.35,4.25-5.98,4.49c-4.3,0.28-9.58-1.86-9.58-4.34
		c0-0.03-7.78,12.44-10.54,25.72c-0.35,1.68-0.62,3.46-0.84,5.33C28.16,134.26,28.79,130.24,25.92,170.3z"/>
	<path class="st3" d="M55.75,97.42c0,0,14.92-0.13,18.51,4.91c3.59,5.04,11.47,32.13,7.36,41.15c-4.11,9.02-11.8-3.73-16.07-9.25
		C61.29,128.71,55.75,97.42,55.75,97.42z"/>
	<path class="st4" d="M55.9,95.15l-0.01,1.54c0,0,0.42,4.82-5.52,5.53c-5.94,0.71-10.36-0.89-10.2-4.61
		c0.54-2.88,1.04-5.86,1.08-8.24c0.01-0.89-0.05-1.83-0.21-2.89l11.51-0.23l3.39,0.55L55.9,95.15z"/>
	<path class="st5" d="M55.95,86.8l-0.04,8.34c-1.22,0.57-2.6,0.92-4.15,0.92c-5.29,0-8.71-3.88-10.5-6.7
		c0.01-0.89-0.05-1.83-0.21-2.89l11.51-0.23L55.95,86.8z"/>
	<path class="st4" d="M40.16,84.62c1.34,7.19,10.61,6.95,14.62,6.5c1.13-0.13,1.84-0.27,1.84-0.27c1.27-0.34,1.98-2.34,2.31-4.97
		c0.65-5.19-0.17-12.82-1.05-14.77c-1.32-2.93-3.81-6.11-13.15-3.82C35.39,69.6,38.45,75.41,40.16,84.62z"/>
	<path class="st6" d="M71.01,117.62c0,0,5.77,12.75,5.6,16.57c0,0-2.86-0.1-5.6,0.72C66.5,136.25,71.01,117.62,71.01,117.62z"/>
	<path class="st2" d="M60.75,64.28c0,0-4.11-0.32-8.96-2.42c-3.94-1.71-8.9,0.17-10.51,1.02c0.04-0.26,0.15-0.61,0.39-0.97
		c0,0-0.72,0.51-0.83,1.23c-0.07,0.05-0.11,0.09-0.09,0.11c0,0-0.82-0.15-1.35,0.09c0,0,0.37-0.05,0.5,0.18
		c0.01,0.03,0.03,0.05,0.06,0.07c-6.14,2.97-6.71,12.67-4.73,14.91c2.38,2.7,5.9,8.71,5.9,8.71s0.37-1.36-0.06-3.74
		c-0.43-2.38,1.62-2.38,4.21-3.46c2.59-1.08,0.43-4.11,2.7-5.94c2.27-1.84,10.59-0.76,10.48-2.16
		C61.55,70.78,60.75,64.6,60.75,64.28z"/>
	<path class="st6" d="M38.28,141.49c2.44,9.78,28.79,14.84,34.78,15.87c-0.25-4.24-0.5-9.62-0.67-16.42L38.28,141.49z"/>
	<path class="st4" d="M44.07,144.67c-0.25,0-5.86-0.84-6.86-1.34c-1-0.5-5.6-7.03-2.59-8.7c3.01-1.67,11.08,5.02,11.08,5.02
		L44.07,144.67z"/>
	<path class="st3" d="M78.17,146.61c0,0-21.68,1.18-36.24-1.94c0,0-0.37-4.2,4.21-6.07c0,0,22.68-4.81,28.13-3.47
		C79.71,136.47,78.17,146.61,78.17,146.61z"/>
	<path class="st3" d="M28.37,129.6c4.5,5.43,10.38,9.86,16.87,10.89l0,0c0.05-0.08,1.96-2.98,1.61-7.24
		c-0.17-1.97-0.82-4.24-2.36-6.65c-0.48-0.74-0.9-1.61-1.28-2.57c-3.54-9.04-3.01-26.45-3.01-26.45s-15.04,1.57-19.73,8.27
		C17.6,109.95,21.26,121.02,28.37,129.6z"/>
	<path class="st5" d="M54.78,91.12c1.13-0.13,1.84-0.27,1.84-0.27c1.27-0.34,1.98-2.34,2.31-4.97c-2.38,0.59-3.48,2.43-3.93,3.22
		C54.79,89.46,54.75,90.25,54.78,91.12z"/>
	<path class="st4" d="M60.84,95.19c0,0,5.19-8.57,1.15-8.94c-4.04-0.37-5.66,2.36-6.25,3.36c-0.58,1,0.15,5.53,0.15,5.53
		L60.84,95.19z"/>
	<path class="st3" d="M41.04,132.96c0.16,1.09,0.48,2.09,0.89,2.98c1.27,2.82,3.31,4.56,3.31,4.56l0,0
		c13.49-6.09,16.22-27,16.68-38.48c0.18-4.62,0-7.71,0-7.71c-6.09-2.02-7.8,1.49-7.8,1.49s-7.18,17.09-10.91,28.25
		C41.78,128.3,40.86,131.71,41.04,132.96z"/>
	<path class="st6" d="M28.37,129.6c4.5,5.43,10.38,9.86,16.87,10.89l0,0c13.49-6.09,16.22-27,16.68-38.48
		c0,0-6.38,23.15-15.07,31.24c-1.57,1.46-3.22,2.44-4.91,2.69c0,0-10.96-3.1-13.25-6.01C28.51,129.71,28.41,129.61,28.37,129.6z"/>
</g>
<g>
	<path class="st2" d="M477.54,86.91c-3.99-2.07-7.18-0.77-7.18-0.77c-12.2-1.43-15.77,12.8-15.6,17.7
		c0.16,4.9,0.72,10.16-4.73,16.52c-15.74,18.38,17.23,19.19,17.23,19.19c0.28-14.68,17.88-9.33,17.11-7.84
		C506.93,137.13,486.61,91.62,477.54,86.91z"/>
	<path class="st4" d="M430.46,148.13c0,0-2.15-3.27-3.88-3.33c-1.73-0.06-4.93-0.96-4.68-0.32c0.26,0.64,2.24,0.7,2.43,1.09
		c0.19,0.38-2.95,0.96-3.84,1.03c-0.9,0.06-3.01,0-2.95,0.45c0.06,0.45,3.81,2.31,6.45,2.05c2.64-0.26,5.91,0.77,5.91,0.77
		L430.46,148.13z"/>
	<path class="st7" d="M461.5,149.19c0,0-1.17,2.31-3.28,4.96c-2.55,3.19-6.48,6.88-11.42,7.61c-2.36,0.35-4.66-0.16-6.78-1.1
		c-0.01,0-0.01,0-0.01,0c-6-2.66-10.51-8.78-10.51-8.78c-1.06-2.88,0.67-4.84,0.67-4.84s12.11,2.72,13.26,2.15
		c1.15-0.58,7.88-19.96,9.48-22.39c1.6-2.44,7.06-3.7,7.06-3.7L461.5,149.19z"/>
	<path class="st8" d="M458.21,154.15c-2.55,3.19-6.48,6.88-11.42,7.61c-2.36,0.35-4.66-0.16-6.78-1.1c0.23,0.03,6.22,0.77,8.61-3.5
		c2.43-4.36,5.07-11.28,8.69-8.97C458.87,149.19,458.8,151.66,458.21,154.15z"/>
	<path d="M506.67,279.89c0,0,3.69,3.37,2.97,5.77c-0.72,2.4-4.06,3.99-4.51,6.92c-0.45,2.93-2.25,4.53-3.87,4.53
		c-1.62,0-7.73,0-7.73,0s-1.19-2.06,1.69-2.68c2.88-0.62,3.97-4.06,3.79-7.26c-0.18-3.19,0.27-7.45,0.27-7.45l6.13-1.42
		L506.67,279.89z"/>
	<path d="M475.4,281.32c0,0,1.33,14.28-0.29,15.08l-20.76-0.04c0,0,0-2.4,3.33-2.93c3.33-0.53,9.19-2.48,10.18-6.83
		C468.86,282.26,475.4,281.32,475.4,281.32z"/>
	<path class="st4" d="M490.19,178.84c-4.27-9.58-6.89-12.33-6.39-15.3c0.37-2.21-1.13-41.26-1.13-41.26
		c-0.51-0.16-1.52-0.3-2.08-0.42c-1.75-0.39-3.2-1.62-3.81-3.31c-0.73-2.04-1.31-5.04-1.29-8.81l-0.55,0.11l-9.2,1.82
		c0,0,0.21,2.9,0.22,5.62c0,0.02,0,0.05,0,0.07c0.01,2.37-1.54,4.46-3.82,5.12c-1.16,0.34-2.17,0.62-2.17,0.62
		s-3.38,9.65-4.02,19.56c-0.65,9.91,6.14,14.21-0.05,34.02C449.57,196.89,492.55,184.14,490.19,178.84z"/>
	<path class="st9" d="M465.75,111.66c0,0,0.21,2.9,0.22,5.62c5.15-0.15,7.87-4.84,8.99-7.45L465.75,111.66z"/>
	<path class="st4" d="M464.03,114.25c0,0,12.18,0.2,12.19-7.39c0.01-7.59,1.59-12.67-6.19-13.12c-7.78-0.45-9.29,2.44-9.91,4.98
		C459.5,101.25,460.86,114,464.03,114.25z"/>
	<path class="st2" d="M464.48,93.55c0,0,3.34,8.9,8.45,10.22c5.12,1.32,7.34-0.06,7.34-0.06s-3.93-3.12-4.74-8.56
		C475.53,95.15,467,89.32,464.48,93.55z"/>
	<path class="st2" d="M465.31,94.28c0,0-2.47,0.92-3.49,2.73c-1,1.76-1.84,4.1-1.65,6.97c0,0-2.51-6.05,0.31-9.47
		C463.48,90.87,465.31,94.28,465.31,94.28z"/>
	<path class="st10" d="M466.68,109.54c0,0-0.84,1.11-2.52,1.03c-1.35-0.06-1.88-1.24-1.88-1.24S464.77,108.73,466.68,109.54z"/>
	<path class="st7" d="M491.37,139.55c0,0,0.31,4.36,0,9.59c-0.21,3.47-3.72,8.12-4.21,9.27c-1.25,2.88-2.66,3.35-2.66,3.35
		l-10.9,2.67l-3.83,0.94l-12.09-3.61c0,0-5.5-15.36-3.29-24.01c2.21-8.65,5.59-14.66,5.59-14.66s9.86,9.66,22.7-0.82L491.37,139.55z
		"/>
	<path class="st8" d="M488.18,150.56c-0.21,3.47-0.52,6.7-1.02,7.85c-1.25,2.88-2.66,3.35-2.66,3.35l-10.9,2.67l-4.73-1.39
		c0,0,15.8-2.39,14.05-15.99L488.18,150.56z"/>
	<path class="st6" d="M458.45,164.1c0,0-5.99,18.63-6.37,24.97c-0.38,6.34,11.44,90.1,11.92,93.03c0.45,2.75,3.87,4.51,3.87,4.51
		s1.57,0.93,3.82,0.29c3.12-0.88,4.1-1.93,4.1-1.93s4.66-59.74,1.78-81.08c-2.88-21.34-2.92-39.79-2.92-39.79H458.45z"/>
	<path class="st3" d="M483.81,163.54c0,0,9.13,12.25,9.98,20.53c0.85,8.28,1.33,37.37,3.15,45.44c1.81,8.07,8.48,23.61,8.48,48.79
		c0,0-0.69,1.44-2.83,2.21c-0.68,0.25-1.6,0.48-2.49,0.69c-1.76,0.4-3.57-0.46-4.38-2.08c-4.5-9.07-18.85-38.32-19.59-44.39
		c-0.52-4.3-5.05-32.73-14.93-49.42c-2.37-4.01,1.46-19.94,1.46-19.94L483.81,163.54z"/>
	<path class="st1" d="M466.41,109.74c0,0-0.21,0.89-2.44,0.76c0,0-1.87-0.12-1.81-1.1C462.16,109.4,463.98,108.7,466.41,109.74z"/>
	<path class="st11" d="M457.49,161.22c0,0,2.4,1.9,7.18,2c5.7,0.11,19.83-1.45,19.83-1.45s0.63,1.75,0.6,3.61
		c0,0-17.25,4.35-27.25,0.64C457.85,166,456.56,163.58,457.49,161.22z"/>
	<g>
		<path class="st1" d="M463.3,168.13c-1.43,0-2.6-1.32-2.6-2.94c0-1.62,1.17-2.94,2.6-2.94c1.43,0,2.6,1.32,2.6,2.94
			C465.9,166.81,464.73,168.13,463.3,168.13z M463.3,163.1c-0.96,0-1.74,0.93-1.74,2.08c0,1.15,0.78,2.08,1.74,2.08
			s1.74-0.93,1.74-2.08C465.04,164.04,464.26,163.1,463.3,163.1z"/>
	</g>
	
		<rect x="471.98" y="144.15" transform="matrix(0.7542 -0.6567 0.6567 0.7542 13.7164 357.0163)" class="st12" width="23.44" height="32.09"/>
	<path class="st4" d="M480.51,164.65c0,0-6.48,0.76-6.46,2.29c0.02,1.54,1.61,4.7,2.41,4.84c0.8,0.14,5.27-4.27,5.27-4.27
		L480.51,164.65z"/>
	<path class="st7" d="M482.68,122.28c0,0,8.65,0.61,11.96,8.66c3.31,8.06,9.6,21.59,9.6,23.86c0,2.28-3.51,9.29-22.38,13.33
		c0,0-1.95-2.05-1.83-3.68c0,0,11.78-10.12,11.75-11.3c-0.06-2.24-1.93-5.19-12.27-15.53C476.69,134.81,482.68,122.28,482.68,122.28
		z"/>
</g>
<g>
	<g>
		<path class="st0" d="M303.48,296.61h-0.09c-0.53,0-0.95-0.43-0.94-0.96l1.42-61.55l4.18-0.49l-3.57,62.05
			C304.46,296.19,304.02,296.61,303.48,296.61z"/>
	</g>
	<g>
		<path class="st13" d="M279.1,296.61h-0.09c-0.53,0-0.95-0.43-0.94-0.96l1.42-61.55l4.18-0.49l-3.57,62.05
			C280.08,296.19,279.64,296.61,279.1,296.61z"/>
	</g>
	<g>
		<path class="st0" d="M346.37,296.61h0.09c0.53,0,0.95-0.43,0.94-0.96l-1.42-61.55l-4.18-0.49l3.57,62.05
			C345.39,296.19,345.83,296.61,346.37,296.61z"/>
	</g>
	<path class="st0" d="M276.33,230.28V188.1c0-7.42,6.02-13.44,13.44-13.44h30.39c7.42,0,13.44,6.02,13.44,13.44v43.79L276.33,230.28
		z"/>
	<path class="st13" d="M339.04,236.94h-56.22c-3.58,0-6.49-2.9-6.49-6.49v-0.17h62.71V236.94z"/>
	<path class="st0" d="M345.81,236.94h-43.87c-1.79,0-3.24-1.45-3.24-3.24v-0.17c0-1.79,1.45-3.24,3.24-3.24h43.87
		c1.79,0,3.24,1.45,3.24,3.24v0.17C349.06,235.49,347.6,236.94,345.81,236.94z"/>
</g>
<g>
	<path d="M344.35,219.77c-4.35,7.58-9.83,10.5-9.83,10.5h-22.78C311.74,230.28,347.67,213.99,344.35,219.77z"/>
	<g>
		<path class="st4" d="M326.85,278.4c-0.59,0.68-0.67,1.44-0.38,2.25c0,0,0,0.01,0.01,0.01c0.54,1.5,2.34,3.18,4.42,4.85
			c0.27,0.22,0.5,0.41,0.71,0.59c0.05,0.05,0.11,0.1,0.16,0.14c0.04,0.04,0.08,0.08,0.12,0.11c1.94,1.79,1.21,2.2,4.71,5.84
			c3.98,4.14,6.73,4.22,7.51,3.84c0.66-0.32-0.68-2.52-2.17-4.99c-0.07-0.12-0.14-0.24-0.22-0.36c-0.2-0.33-0.39-0.66-0.59-0.99
			c-1.74-2.97-1.29-4.37-0.88-8.79c0.34-3.6,5.59-20.09,5.59-20.09l-7.63-1.31c0,0-2.3,13.13-4.83,15.15
			c-1.35,1.08-2.87,1.09-4.17,1.89c-0.09,0.06-0.18,0.11-0.27,0.17C328.2,277.21,327.45,277.72,326.85,278.4z"/>
		<path d="M326.85,278.4c-0.59,0.68-0.67,1.44-0.38,2.25c0,0,0,0.01,0.01,0.01c0.67,1.5,2.42,3.17,4.43,4.84
			c0.26,0.22,0.5,0.42,0.7,0.61c0.05,0.05,0.11,0.1,0.16,0.14c0.04,0.04,0.08,0.08,0.12,0.11c1.94,1.79,1.21,2.2,4.71,5.84
			c3.98,4.14,6.73,4.22,7.51,3.84c0.66-0.32-0.68-2.52-2.17-4.99c-0.78-0.28-4.38-1.75-7.1-5.23c-2.4-3.06-4-6.99-5.63-9.27
			c-0.09,0.06-0.18,0.11-0.27,0.17C328.2,277.21,327.45,277.72,326.85,278.4z"/>
		<path class="st4" d="M388.4,273.63c0.47,2.36,3.83,1.96,7.58,1.05c3.75-0.92,2.86,0.17,8.2-0.42c5.34-0.59,6.96-2.58,7.12-3.38
			c0.15-0.7-2.49-0.95-5.32-1.28c-0.36-0.04-0.71-0.08-1.07-0.13c-3.2-0.4-5.54-2.46-8.44-4.16c-2.75-1.6-6.85-8.14-6.85-8.14
			l-7.32,0.58c0,0,3.84,5.84,5.33,8.37c0.87,1.49,0.83,3.47,0.72,4.99C388.29,271.95,388.23,272.8,388.4,273.63z"/>
		<path d="M395.98,274.68c3.75-0.92,2.86,0.17,8.2-0.42c5.34-0.59,6.96-2.58,7.12-3.38c0.15-0.7-2.49-0.95-5.32-1.28l-0.03,0.05
			c0,0-3.2,2.27-7.65,2.38c-3.62,0.09-7.46-0.95-9.96-0.91c-0.06,0.83-0.11,1.68,0.06,2.51
			C388.87,275.99,392.23,275.59,395.98,274.68z"/>
		<path d="M360.33,226.8l-6.85,18.42l-8.94,24.05c0,0-2.43,0.23-4.75-0.43c-2.14-0.62-4.59-2.24-4.59-2.24s2.48-25.83,7.11-40.65
			c1.19-3.81,2.52-6.88,3.98-8.62C353.48,208.86,360.33,226.8,360.33,226.8z"/>
		<path class="st2" d="M353.37,197.55c-4.48-1.45-17.28,0.41-30.13,2.93l-2.69-4.44l-27.76-2.17c0,0-9.16,20.31-4.14,33.25
			c0.74,1.9,2.2,3.12,4.7,3.16c0,0,0.4,0,0.41,0c0,0,16.52-0.01,21.88-0.01c13.8,0,29.21-9.49,31.21-9.89
			c3.26-0.65,4.57,5.87,7.83,12.72c3.26,6.85,30.67,30.34,30.67,30.34s4.21,0.04,5.95-0.61c1.87-0.7,2.56-1.61,2.56-1.61
			S363.49,200.81,353.37,197.55z"/>
		<path class="st2" d="M319.46,115.22c-3.56-1.87-8.97-2.12-9.84-2.24c-10.52-1.41-16.85,13.87-17.22,18.5
			c-0.69,8.54-5.2,9.84-11.56,15.18c-12.74,10.72-9.01,23.17-2.04,27.8c4.18,2.78,11.55,0,11.55,0c0.1,0.07,20.15-11.21,30.04-16.65
			C335.21,155.71,328.52,119.98,319.46,115.22z"/>
		<path class="st4" d="M312.11,153.18c0.04,0.03-4.86,1.7-8.14,0.25c-3.09-1.36-5.42-6.44-5.38-6.44c1.4-0.06,2.95-1.29,4.13-9.35
			l0.6,0.21l10.05,3.62c0,0-0.73,3.23-1.2,6.3C311.77,150.35,311.56,152.82,312.11,153.18z"/>
		<path class="st14" d="M313.37,141.47c0,0-0.73,3.23-1.2,6.3c-5.77-1.04-8.04-6.79-8.85-9.91L313.37,141.47z"/>
		<path class="st4" d="M314.87,144.67c0,0-13.75-1.85-12.47-10.39c1.28-8.55,0.37-14.54,9.2-13.72c8.84,0.82,10.05,4.33,10.31,7.29
			C322.18,130.8,318.48,144.93,314.87,144.67z"/>
		<path class="st2" d="M321.41,123.16c0,0-8.8,7.59-14.79,8.2c-5.99,0.61-8.26-1.31-8.26-1.31s3.53-2.93,5.65-7.66
			c0.63-1.39,1.95-2.35,3.47-2.48C311.76,119.54,319.87,119.37,321.41,123.16z"/>
		<path class="st2" d="M315.91,122.48c0,0,2.95,2.85,3.87,4.96c0.9,2.04,1.16,6.91,0.45,8.85c0,0,4.59-8.92,1.99-13.26
			C319.47,118.44,315.91,122.48,315.91,122.48z"/>
		<path class="st1" d="M323.69,173.44c-0.42,27.84-0.11,22.02-3.16,24.66c-0.73,0.64-2.8,1.02-5.51,1.19
			c-8.54,0.57-23.54-0.84-24.11-2.42c-1.97-5.46-0.58-7.15-2.22-15.51c-0.17-0.89-0.38-1.85-0.63-2.9
			c-1.37-5.74-2.7-7.69,2.16-16.91c4.41-8.35,8.99-15.13,9.4-14.89c11.63,6.9,12.56,1.1,12.56,1.1S323.89,159.86,323.69,173.44z"/>
		<path class="st2" d="M353.49,245.23l-8.94,24.05c0,0-2.43,0.23-4.75-0.43c-2.14-0.62-4.59-2.24-4.59-2.24s2.48-25.83,7.11-40.65
			L353.49,245.23z"/>
		<path class="st1" d="M312.17,147.77c0,0,11.96,2.03,13.37,7.18c1.4,5.15,9.67,35.43,9.67,35.43s-6.08,1.09-8.89-1.72
			c-2.81-2.81-9.78-26.07-9.78-26.07L312.17,147.77z"/>
		<path class="st15" d="M315.02,199.3c-8.54,0.57-23.54-0.84-24.11-2.42c-1.97-5.46-0.58-7.15-2.22-15.51l4.12-11.59
			c0,0-0.68,12.91,3.13,16.31c3.8,3.4,15.59,6.56,17.44,9.39C314.26,196.84,314.85,198.2,315.02,199.3z"/>
		<path class="st4" d="M305.24,193.87c0,0,8.42-1.88,9.78-1.13c1.36,0.75,4.68,3.47,5.1,4.42c0.42,0.95-3.03-0.72-4.14-1.02
			c-0.72-0.19-2.63,0.47-3.58,0.78c-3.97,1.32-6.41,0.64-6.41,0.64L305.24,193.87z"/>
		<path class="st1" d="M299.6,146.66c0,0-11.31,0.7-15.22,6.16c-5.51,7.69-16.44,40.44-10.18,44.81c7.06,4.92,32.11,1.29,32.11,1.29
			s0.83-3.9-0.33-5.78c-1.16-1.89-20.01-4.93-20.88-5.8c-0.87-0.87,10.88-16.97,10.88-19.58
			C295.98,165.15,299.6,146.66,299.6,146.66z"/>
		<path class="st4" d="M315.43,195.09c0,0,1.76,2.28,2.34,2.55c0.58,0.27,0.95,0.2,0.95,0.2l-1.19-2.14L315.43,195.09z"/>
		<path class="st4" d="M315.02,192.74l5.13,2.49c0,0-0.22,0.36-0.85,0.33c-0.63-0.03-2.23-0.61-2.23-0.61L315.02,192.74z"/>
	</g>
	<g>
		<g>
			<polygon class="st3" points="317.77,201.12 358.35,201.12 370.56,170.76 330.04,170.76 			"/>
			<polygon class="st6" points="358.83,199.94 305.24,199.94 305.24,201.12 358.35,201.12 			"/>
		</g>
		<path class="st1" d="M348.11,185.94c0.31-1.07-0.31-1.93-1.38-1.93c-1.07,0-2.18,0.87-2.49,1.93c-0.31,1.07,0.31,1.93,1.38,1.93
			C346.69,187.87,347.8,187.01,348.11,185.94z"/>
	</g>
</g>
<g>
	<path class="st0" d="M130.08,235.5h-0.14c-1.5,0-2.72-1.22-2.72-2.72v-57.67c0-1.5,1.22-2.72,2.72-2.72h0.14
		c1.5,0,2.72,1.22,2.72,2.72v57.67C132.81,234.28,131.59,235.5,130.08,235.5z"/>
	<g>
		<path class="st13" d="M129.99,296.61h-0.09c-0.53,0-0.95-0.43-0.94-0.96l1.42-61.55l4.18-0.49L131,295.66
			C130.97,296.19,130.52,296.61,129.99,296.61z"/>
	</g>
	<g>
		<path class="st0" d="M197.26,296.61h0.09c0.53,0,0.95-0.43,0.94-0.96l-1.42-61.55l-4.18-0.49l3.57,62.05
			C196.28,296.19,196.72,296.61,197.26,296.61z"/>
	</g>
	<path class="st0" d="M196.96,230.28h-7.03h-37.36h-25.35v2.62c0,2.23,1.81,4.03,4.03,4.03h21.32h37.36h7.03
		c1.65,0,2.98-1.34,2.98-2.98v-0.69C199.94,231.62,198.6,230.28,196.96,230.28z"/>
	<path d="M231.87,283.45c0,0-1.03,12.76,1.26,12.93c0.3,0.02,11.59,0.02,11.59,0.02l14.41-0.08c0,0-0.09-3.47-4.31-4.21
		c-4.21-0.73-12.55-4.28-15.1-9.84C237.04,276.42,231.87,283.45,231.87,283.45z"/>
	<path class="st2" d="M145.19,213.54c0,0,0.48,12.54,2.69,16.75h50.96c0,0,12.24,1.27,13.36,2.09c1.41,1.04-4.9,11.38,18.76,51.77
		l11.59-0.3c0,0-12.12-65.5-14.27-67.16c-3.22-2.48-40.92-11.11-47.37-11.3C174.45,205.2,145.19,213.54,145.19,213.54z"/>
	<path class="st4" d="M173.76,139.22c3.93,2.44,4.15,7.29,4.15,7.29c-9.59,2.48-23.55-8.17-23.55-8.17s6.17-4.15,8.46-13.26
		c0.12-0.46,0.22-0.93,0.31-1.41c0.3-1.54,0.49-3.2,0.52-4.99l4.41,3.95l7.33,6.56c0,0-0.17,2.72-1.08,7.41
		C174.15,137.41,173.97,138.28,173.76,139.22z"/>
	<path class="st12" d="M179.18,189.57c-0.33,2.14,0.34,3.86,0.65,5.45c0.12,0.61,0.2,1.2,0.14,1.78c-0.52,5.92,1.59,6.67,0.93,8.58
		c0,0-2.26,1.32-6.38,2.88c-1.8,0.68-3.95,1.41-6.42,2.09c-0.13,0.04-0.26,0.07-0.39,0.11c-9.59,2.59-19.67,3.15-22.51,3.07
		c-5.44-0.15-6.54-13.93-4.52-31.3c3.14-27.05,7.39-40.17,18.6-49.65c0.71-0.6,0.23,1.43,3.99,3.25c3.48,1.67,7.68,2.07,10.93,1.34
		l2.56,2.63c5.09,8.04,5.62,17.58,5.19,25.53C181.39,175.39,180.12,183.41,179.18,189.57z"/>
	<path class="st14" d="M175.39,129.18c0,0,0.39-0.41-0.53,4.27c-8.12-2.35-10.76-6.48-11.84-9.22c-0.31-0.77,3.02-1.19,5.04-1.62
		L175.39,129.18z"/>
	<path class="st4" d="M179.17,129.2c0,0-15.66,2.24-16.9-7.53c-1.25-9.77-4.11-16.06,5.84-17.91c9.94-1.84,12.37,1.64,13.58,4.8
		C182.88,111.72,183.21,128.37,179.17,129.2z"/>
	<g>
		
			<rect x="242.97" y="169.71" transform="matrix(-0.9544 -0.2985 0.2985 -0.9544 420.5178 436.5156)" class="st3" width="1.25" height="32.85"/>
		
			<rect x="204.83" y="199.76" transform="matrix(-0.9999 -0.0104 0.0104 -0.9999 442.0332 403.8866)" class="st6" width="34.48" height="2.06"/>
	</g>
	<path class="st2" d="M157.27,103.96c-0.13-0.15-0.42-0.27-1.07-0.31c0,0,0.52-0.32,1.22-0.33c0.14-0.9,0.64-2.5,2.2-2.88
		c0,0-0.84,0.44-0.96,1.4c1.82-1.84,5.69-3.16,16.39-2.23c14.09,1.22,9.38,10.22,7.54,11.28c-1.83,1.06-6.41-1.93-9.81-1.68
		c-3.4,0.24-4.09,5.15-5.25,5.82c-1.16,0.67-0.7-0.52-2.25-1.24c-1.56-0.72-1.72,1.87-1.29,3.55c0.44,1.69-1.73,3.89-1.73,3.89
		s0,0-2.15-2.35c-2.15-2.35-4.12-12.26-3.11-14.36C157.09,104.34,157.18,104.15,157.27,103.96z"/>
	<path class="st16" d="M180.9,205.39c0,0-2.26,1.32-6.38,2.88c-17.87-13.03-17.77-43.89-17.87-44.42l22.44,19.76l0.74,11.41
		c0.12,0.61,0.2,1.2,0.14,1.78C179.45,202.72,181.56,203.48,180.9,205.39z"/>
	<g>
		<path class="st4" d="M213.25,190.87c0,0,1.44,0.23,2.95-0.48c1.52-0.71,6.75-2.96,7.73-2.65c0.98,0.31,4.19,2.12,4.94,2.46
			c0.75,0.34,2.09,2.11,2.09,2.11c-0.55,0.56-2.5-0.72-3.37-0.7c-0.87,0.02-7.3,3.54-9.21,3.61c-1.91,0.08-4.89-0.32-4.89-0.32
			L213.25,190.87z"/>
		<path class="st4" d="M224.9,191.15c0.02,0.1,2.35,2.7,4.13,1.88l-1.95-1.92L224.9,191.15z"/>
		<path class="st4" d="M216.2,190.39c0,0,2.09-1.94,2.79-2.87c0,0,0.42,0.19,0.43,0.54c0.03,0.59-0.55,1.67-0.55,1.67L216.2,190.39z
			"/>
	</g>
	<path class="st12" d="M175.04,144.36c-11.5-7-25.07,5.23-19.37,17.43c6.62,14.14,17.63,31.39,26.39,32.41
		c6.24,0.73,24.07,3.01,31.62,1.6c0,0,3.66,0.18,1.67-5.71c0,0-24.4-6.8-28.45-12.07c-2.17-2.83-5.87-8.55-11.6-33.49
		C175.29,144.42,175.13,144.41,175.04,144.36z"/>
</g>
<g>
	<g>
		<path class="st12" d="M484.24,296.61h0.12c0.73,0,1.31-0.6,1.29-1.32l-1.96-85.03l-5.78-0.67l4.93,85.71
			C482.89,296.03,483.5,296.61,484.24,296.61z"/>
	</g>
	<g>
		<g>
			<path class="st12" d="M200.11,296.61h-0.12c-0.73,0-1.31-0.6-1.29-1.32l1.96-85.03l5.78-0.67l-4.93,85.71
				C201.47,296.03,200.85,296.61,200.11,296.61z"/>
		</g>
		<path class="st12" d="M488.17,211.82H195.45c-2.76,0-5-2.24-5-5v-0.27c0-2.76,2.24-5,5-5h292.72c2.76,0,5,2.24,5,5v0.27
			C493.17,209.58,490.93,211.82,488.17,211.82z"/>
	</g>
</g>
<path class="st12" d="M318.76,82.66l-0.03,0.25l-0.42,3.21l-0.11,0.85v0.01l-0.11,0.85l-0.42,3.21l-0.11,0.85l0,0.01l-0.11,0.85
	l-0.06,0.47c-0.21,1.63-2.07,2.87-4.3,2.87h-5.01c-0.53,0-1.04-0.07-1.51-0.2h0c-0.42-0.12-0.82-0.28-1.17-0.49l-0.03-0.02
	c-0.29-0.17-0.54-0.36-0.76-0.58c-0.45-0.44-0.75-0.98-0.83-1.56l-0.18-1.24l-0.11-0.78v0l0-0.02v0l-0.11-0.77l-0.43-2.97
	l-0.11-0.78l0-0.02l-0.11-0.77l-0.46-3.22H318.76z"/>
<g>
	<path class="st16" d="M316.78,82.66h-0.03h-2.8c-4.57,1.32-9.11,2.63-11.21,3.22l0.11,0.77l0,0.02l0.11,0.78
		c1.7-0.47,5.79-1.64,15.78-4.54l0.03-0.25H316.78z"/>
	<path class="st16" d="M303.49,91.19L303.49,91.19l0,0.02v0l0.11,0.78c1.97-0.55,6.03-1.72,14.49-4.17l0.11-0.85v-0.01l0.11-0.85
		c-5.34,1.55-11.81,3.42-14.93,4.3L303.49,91.19z"/>
	<path class="st16" d="M305.37,95.38l0.03,0.02c0.35,0.2,0.74,0.37,1.17,0.49h0c2.32-0.66,5.76-1.66,10.88-3.14l0.11-0.85l0-0.01
		l0.11-0.85c-4.57,1.32-9.82,2.84-13.06,3.77C304.83,95.01,305.09,95.21,305.37,95.38z"/>
</g>
<g>
	<g>
		<polygon class="st3" points="445.47,201.56 404.89,201.56 392.68,171.2 433.2,171.2 		"/>
		<polygon class="st6" points="404.41,200.38 458.01,200.38 458.01,201.56 404.89,201.56 		"/>
	</g>
	<path class="st1" d="M415.13,186.38c-0.31-1.07,0.31-1.93,1.38-1.93s2.18,0.87,2.49,1.93c0.31,1.07-0.31,1.93-1.38,1.93
		C416.55,188.31,415.44,187.45,415.13,186.38z"/>
</g>
<path class="st17" d="M591,297.5v0.33c0,0.53-0.41,0.97-0.9,0.97H9.54c-0.49,0-0.9-0.44-0.9-0.97v-0.33c0-0.53,0.41-0.97,0.9-0.97
	H590.1C590.59,296.53,591,296.97,591,297.5z"/>
<g>
	<path class="st18" d="M555.86,266.03c0,0-4.93-5.75-0.3-9.4c0,0,3.38-2.04,6.13-1.88c0,0-3.9,6.54-2.64,7.19
		c1.26,0.65,3.82-7.6,3.82-7.6s7.68-0.75,10.16,0.44c0,0-6.57,5.38-5.19,5.7c1.38,0.32,8.48-4.96,8.48-4.96s7.15,1.22,6.77,5.58
		s-2.85,5.71-3.93,5.59c-1.08-0.12-7.42-2.53-7.56-1.65c-0.14,0.89,3.68,3.79,6.35,3.92c0,0-5.04,5.56-8.39,3.96
		c-3.35-1.6-3.64-4.15-5.73-5.1c-2.09-0.95-3.87-0.95-3.01,0.02c0.86,0.97,4.64,1.92,5.84,4.03s2.27,3.54-1.2,3.02
		c-3.47-0.52-9.1-3.06-9.35-5.96C555.86,266.03,555.86,266.03,555.86,266.03z"/>
	<g>
		<path class="st19" d="M579.58,261.23c0,0-19.42-0.75-23.71,4.81c0,0-0.95,2.84-3.87,5.43l-0.46,1.24c0,0,3.37-3.55,4.57-3.76
			C556.11,268.94,554.23,262.06,579.58,261.23z"/>
		<path class="st19" d="M552,271.46c0,0-4.17,3.08-4.46,8.59l0.76,0.07c0,0,1.33-5.7,3.74-7.92C554.44,269.97,552,271.46,552,271.46
			z"/>
	</g>
</g>
<g>
	<path class="st20" d="M538.64,258.8c0,0,7.84-4.39,4.18-10.34c0,0-2.93-3.66-6.06-4.6c0,0,1.67,8.88,0,9.09
		c-1.67,0.21-1.15-10.03-1.15-10.03s-8.26-3.97-11.49-3.66c0,0,5.12,8.67,3.45,8.46c-1.67-0.21-7.42-8.99-7.42-8.99
		s-8.46-1.57-9.82,3.45c-1.36,5.02,0.84,7.52,2.09,7.84c1.25,0.31,9.3,0.21,9.09,1.25c-0.21,1.04-5.64,2.72-8.67,1.78
		c0,0,3.34,8.26,7.73,7.84c4.39-0.42,5.75-3.13,8.46-3.34c2.72-0.21,4.7,0.52,3.34,1.25c-1.36,0.73-5.96,0.24-8.15,2.11
		c-2.19,1.87-3.97,3.01,0.1,3.85c4.08,0.84,11.39,0.31,12.85-2.82C538.64,258.8,538.64,258.8,538.64,258.8z"/>
	<g>
		<path class="st21" d="M514.19,243.76c0,0,21.94,7.11,24.45,15.05c0,0-0.1,3.55,2.09,7.63V268c0,0-2.3-5.33-3.55-6.06
			C537.18,261.94,542.09,255.04,514.19,243.76z"/>
		<path class="st21" d="M540.73,266.43c0,0,3.38,5.14,1.45,11.39l-0.87-0.23c0,0,0.85-6.89-0.93-10.36
			C538.62,263.77,540.73,266.43,540.73,266.43z"/>
	</g>
</g>
<g>
	<path class="st20" d="M551.11,252.75c0,0-10.33-5.79-5.51-13.64c0,0,3.86-4.82,7.99-6.06c0,0-2.2,11.71,0,11.98
		c2.2,0.28,1.52-13.22,1.52-13.22s10.88-5.23,15.15-4.82c0,0-6.75,11.43-4.55,11.16c2.2-0.28,9.78-11.85,9.78-11.85
		s11.16-2.07,12.95,4.55c1.79,6.61-1.1,9.92-2.75,10.33c-1.65,0.41-12.26,0.28-11.98,1.65c0.28,1.38,7.44,3.58,11.43,2.34
		c0,0-4.41,10.88-10.19,10.33c-5.79-0.55-7.58-4.13-11.16-4.41s-6.2,0.69-4.41,1.65c1.79,0.96,7.85,0.32,10.74,2.78
		c2.89,2.46,5.23,3.97-0.14,5.08c-5.37,1.1-15.01,0.41-16.94-3.72C551.11,252.75,551.11,252.75,551.11,252.75z"/>
	<g>
		<path class="st21" d="M583.34,232.92c0,0-28.93,9.37-32.23,19.83c0,0,0.14,4.68-2.75,10.06v2.07c0,0,3.03-7.02,4.68-7.99
			C553.04,256.88,546.56,247.79,583.34,232.92z"/>
		<path class="st21" d="M548.35,262.81c0,0-4.46,6.77-1.92,15.02l1.15-0.31c0,0-1.11-9.08,1.22-13.65
			C551.14,259.3,548.35,262.81,548.35,262.81z"/>
	</g>
</g>
<path class="st3" d="M550.76,295.71c11.18,0,20.24-9.06,20.24-20.24h-40.47C530.52,286.65,539.58,295.71,550.76,295.71z"/>
<polyline class="st22" points="579.27,296.74 579.27,296.74 538.24,296.74 538.24,296.74 "/>
<path class="st6" d="M530.24,296.74c0-1.38,1.12-2.5,2.5-2.5h36.04c1.38,0,2.5,1.12,2.5,2.5"/>
<rect x="529.86" y="275.47" class="st6" width="41.6" height="0.62"/>
</svg>
