<?xml version="1.0" encoding="utf-8"?>
<!-- Generator: Adobe Illustrator 23.0.3, SVG Export Plug-In . SVG Version: 6.00 Build 0)  -->
<svg version="1.1" id="Layer_1" xmlns="http://www.w3.org/2000/svg" xmlns:xlink="http://www.w3.org/1999/xlink" x="0px" y="0px"
	 viewBox="0 0 600 300" style="enable-background:new 0 0 600 300;" xml:space="preserve">
<style type="text/css">
	.st0{fill:#CE5B5B;}
	.st1{fill:#BC1818;}
	.st2{fill:#FFD2D2;}
	.st3{fill:#F99746;}
	.st4{fill:#ED7D2B;}
	.st5{opacity:0.5;fill:#FFFFFF;}
	.st6{fill:#BDD0FB;}
	.st7{fill:#DCE5FE;}
	.st8{fill:#333333;}
	.st9{fill:#FFCAA6;}
	.st10{fill:url(#SVGID_1_);}
	.st11{fill:url(#SVGID_2_);}
	.st12{fill:url(#SVGID_3_);}
	.st13{fill:#9B0404;}
	.st14{fill:url(#SVGID_4_);}
	.st15{fill:url(#SVGID_5_);}
	.st16{fill:#FFFFFF;}
	.st17{fill:#619961;stroke:#619961;stroke-width:2;stroke-linecap:round;stroke-linejoin:round;stroke-miterlimit:10;}
	.st18{fill:#3D723D;stroke:#3D723D;stroke-miterlimit:10;}
	.st19{fill:#3D723D;stroke:#3D723D;stroke-width:0.75;stroke-miterlimit:10;}
</style>
<path class="st0" d="M238.28,186.38c-0.11,0.03-0.23,0.03-0.35-0.02l-1.16-0.5c-0.26-0.11-0.37-0.41-0.26-0.66
	c0.11-0.26,0.41-0.37,0.66-0.26l1.16,0.5c0.26,0.11,0.37,0.41,0.26,0.66C238.53,186.24,238.41,186.34,238.28,186.38z M233.89,184.46
	c-0.11,0.04-0.24,0.03-0.36-0.02c-0.46-0.21-0.92-0.41-1.38-0.62c-0.25-0.11-0.37-0.41-0.25-0.67c0.11-0.25,0.41-0.37,0.67-0.25
	c0.46,0.21,0.92,0.41,1.38,0.62c0.25,0.11,0.37,0.41,0.25,0.67C234.14,184.32,234.02,184.42,233.89,184.46z M229.3,182.37
	c-0.12,0.04-0.25,0.03-0.36-0.02c-0.46-0.21-0.92-0.43-1.37-0.65c-0.25-0.12-0.36-0.42-0.24-0.67c0.12-0.25,0.42-0.36,0.67-0.24
	c0.46,0.22,0.91,0.43,1.37,0.64c0.25,0.12,0.36,0.42,0.24,0.67C229.54,182.23,229.43,182.33,229.3,182.37z M224.76,180.19
	c-0.12,0.04-0.25,0.03-0.37-0.03c-0.45-0.22-0.91-0.45-1.36-0.67c-0.25-0.12-0.35-0.43-0.23-0.68c0.12-0.25,0.43-0.35,0.68-0.23
	c0.45,0.22,0.9,0.45,1.35,0.67c0.25,0.12,0.35,0.42,0.23,0.67C224.99,180.06,224.88,180.15,224.76,180.19z M220.26,177.92
	c-0.12,0.04-0.26,0.03-0.38-0.03c-0.45-0.23-0.9-0.47-1.34-0.7c-0.25-0.13-0.34-0.43-0.21-0.68c0.13-0.25,0.43-0.34,0.68-0.21
	c0.44,0.23,0.89,0.47,1.34,0.7c0.25,0.13,0.34,0.43,0.22,0.68C220.49,177.8,220.38,177.88,220.26,177.92z M215.81,175.56
	c-0.13,0.04-0.27,0.03-0.39-0.04c-0.44-0.24-0.89-0.49-1.33-0.73c-0.24-0.14-0.33-0.44-0.2-0.69c0.14-0.24,0.44-0.33,0.69-0.2
	c0.44,0.24,0.88,0.49,1.32,0.73c0.24,0.13,0.33,0.44,0.2,0.68C216.03,175.44,215.93,175.52,215.81,175.56z M211.42,173.09
	c-0.13,0.04-0.28,0.03-0.4-0.04c-0.44-0.25-0.87-0.51-1.31-0.76c-0.24-0.14-0.32-0.45-0.18-0.69c0.14-0.24,0.45-0.32,0.69-0.18
	c0.43,0.25,0.87,0.51,1.3,0.76c0.24,0.14,0.32,0.45,0.18,0.69C211.64,172.98,211.53,173.06,211.42,173.09z M207.09,170.52
	c-0.13,0.04-0.29,0.03-0.42-0.05c-0.43-0.26-0.86-0.53-1.29-0.8c-0.24-0.15-0.31-0.46-0.16-0.69c0.15-0.24,0.46-0.31,0.69-0.16
	c0.42,0.27,0.85,0.53,1.28,0.79c0.24,0.15,0.31,0.46,0.17,0.69C207.3,170.41,207.2,170.48,207.09,170.52z M202.84,167.82
	c-0.14,0.04-0.3,0.03-0.43-0.06c-0.42-0.28-0.84-0.56-1.26-0.84c-0.23-0.15-0.29-0.47-0.14-0.7c0.15-0.23,0.47-0.29,0.7-0.14
	c0.42,0.28,0.83,0.56,1.25,0.83c0.23,0.15,0.3,0.46,0.15,0.7C203.05,167.71,202.95,167.78,202.84,167.82z M198.68,164.99
	c-0.14,0.05-0.31,0.03-0.44-0.07c-0.41-0.29-0.82-0.58-1.23-0.88c-0.23-0.16-0.28-0.48-0.11-0.7c0.16-0.23,0.48-0.28,0.7-0.11
	c0.41,0.29,0.81,0.58,1.22,0.87c0.23,0.16,0.28,0.47,0.12,0.7C198.88,164.89,198.78,164.96,198.68,164.99z M194.62,162.02
	c-0.15,0.05-0.32,0.02-0.46-0.08c-0.4-0.31-0.8-0.61-1.2-0.92c-0.22-0.17-0.26-0.49-0.09-0.71c0.17-0.22,0.49-0.26,0.71-0.09
	c0.4,0.31,0.79,0.61,1.19,0.92c0.22,0.17,0.26,0.48,0.1,0.71C194.81,161.93,194.72,161.99,194.62,162.02z M190.67,158.9
	c-0.16,0.05-0.34,0.02-0.47-0.09c-0.39-0.32-0.78-0.65-1.17-0.97c-0.21-0.18-0.24-0.5-0.06-0.71c0.18-0.21,0.5-0.24,0.71-0.06
	c0.38,0.32,0.77,0.64,1.16,0.96c0.21,0.18,0.25,0.49,0.07,0.71C190.84,158.82,190.76,158.87,190.67,158.9z M186.85,155.61
	c-0.16,0.05-0.35,0.02-0.49-0.11c-0.38-0.34-0.75-0.68-1.12-1.02c-0.2-0.19-0.22-0.51-0.03-0.71c0.19-0.2,0.51-0.22,0.71-0.03
	c0.37,0.34,0.74,0.68,1.11,1.01c0.21,0.19,0.22,0.5,0.04,0.71C187.01,155.54,186.94,155.59,186.85,155.61z M183.19,152.15
	c-0.17,0.05-0.37,0.01-0.51-0.12c-0.36-0.36-0.72-0.72-1.07-1.08c-0.19-0.2-0.19-0.52,0.01-0.71c0.2-0.2,0.52-0.19,0.71,0.01
	c0.35,0.36,0.7,0.71,1.06,1.07c0.2,0.2,0.2,0.52,0,0.71C183.34,152.08,183.27,152.13,183.19,152.15z M179.72,148.5
	c-0.18,0.06-0.39,0.01-0.53-0.14c-0.34-0.38-0.68-0.76-1.01-1.14c-0.18-0.21-0.16-0.53,0.05-0.71c0.21-0.18,0.53-0.16,0.71,0.05
	c0.33,0.38,0.66,0.75,1,1.12c0.19,0.21,0.17,0.53-0.04,0.71C179.85,148.45,179.79,148.48,179.72,148.5z M176.46,144.67
	c-0.19,0.06-0.41,0-0.54-0.17c-0.32-0.4-0.63-0.8-0.94-1.2c-0.17-0.22-0.13-0.54,0.09-0.71c0.22-0.17,0.54-0.13,0.71,0.09
	c0.3,0.4,0.61,0.79,0.93,1.18c0.17,0.22,0.14,0.53-0.08,0.71C176.57,144.62,176.51,144.65,176.46,144.67z M173.45,140.63
	c-0.2,0.06-0.44-0.01-0.57-0.19c-0.22-0.31-0.43-0.63-0.64-0.94c-0.29,0.12-0.59,0.24-0.88,0.36c-0.26,0.1-0.55-0.03-0.65-0.29
	c-0.1-0.26,0.03-0.55,0.29-0.65c0.46-0.18,0.92-0.37,1.38-0.57c0.26-0.11,0.55,0.01,0.66,0.26c0.04,0.1,0.05,0.21,0.03,0.31
	c0.21,0.32,0.43,0.64,0.65,0.95c0.16,0.23,0.1,0.54-0.13,0.7C173.54,140.59,173.49,140.61,173.45,140.63z M167.98,140.98
	c0,0-0.01,0-0.01,0c-0.49,0.14-0.99,0.27-1.48,0.39c-0.27,0.07-0.54-0.1-0.61-0.37c-0.07-0.27,0.1-0.54,0.37-0.61
	c0.48-0.12,0.96-0.24,1.44-0.38c0.27-0.08,0.55,0.08,0.62,0.35C168.39,140.63,168.24,140.9,167.98,140.98z M163.06,142.02
	c-0.03,0.01-0.05,0.01-0.08,0.02c-0.51,0.07-1.02,0.13-1.52,0.17c-0.28,0.03-0.52-0.18-0.55-0.46c-0.03-0.28,0.18-0.52,0.46-0.55
	c0.49-0.04,0.99-0.1,1.48-0.17c0.28-0.04,0.53,0.16,0.57,0.43C163.44,141.72,163.29,141.94,163.06,142.02z M175.89,137.75
	c-0.23,0.07-0.48-0.03-0.59-0.24c-0.13-0.25-0.04-0.55,0.21-0.68c0.44-0.24,0.87-0.48,1.3-0.73c0.24-0.14,0.55-0.06,0.69,0.18
	c0.14,0.24,0.06,0.55-0.18,0.69c-0.44,0.26-0.89,0.51-1.33,0.75C175.95,137.72,175.92,137.74,175.89,137.75z M158.04,142.32
	c-0.05,0.02-0.1,0.02-0.16,0.02l-0.35-0.01c-0.4-0.01-0.79-0.03-1.19-0.05c-0.28-0.02-0.49-0.26-0.47-0.54
	c0.02-0.28,0.26-0.49,0.54-0.47c0.38,0.02,0.76,0.04,1.15,0.05l0.34,0.01c0.28,0,0.5,0.23,0.49,0.51
	C158.38,142.07,158.24,142.25,158.04,142.32z M180.19,135.12c-0.21,0.06-0.44-0.01-0.57-0.19c-0.16-0.23-0.1-0.54,0.13-0.7
	c0.41-0.28,0.81-0.57,1.22-0.87c0.22-0.17,0.54-0.12,0.7,0.11c0.17,0.22,0.12,0.54-0.11,0.7c-0.41,0.3-0.82,0.6-1.24,0.89
	C180.28,135.08,180.23,135.1,180.19,135.12z M170.74,136.38c-0.22,0.07-0.47-0.02-0.59-0.23c-0.26-0.44-0.5-0.88-0.75-1.33
	c-0.13-0.24-0.04-0.55,0.2-0.68c0.24-0.13,0.55-0.04,0.68,0.2c0.24,0.44,0.48,0.87,0.73,1.31c0.14,0.24,0.06,0.55-0.18,0.69
	C170.81,136.35,170.78,136.37,170.74,136.38z M184.17,132.04c-0.19,0.06-0.4,0.01-0.53-0.15c-0.18-0.21-0.16-0.53,0.05-0.71
	c0.38-0.32,0.75-0.66,1.12-0.99c0.21-0.19,0.52-0.17,0.71,0.03c0.19,0.21,0.17,0.52-0.03,0.71c-0.38,0.34-0.76,0.68-1.14,1.01
	C184.29,131.98,184.23,132.02,184.17,132.04z M153.03,141.83c-0.07,0.02-0.16,0.03-0.24,0.02c-0.5-0.09-1.01-0.19-1.5-0.3
	c-0.27-0.06-0.44-0.33-0.38-0.6c0.06-0.27,0.33-0.44,0.6-0.38c0.48,0.11,0.97,0.21,1.46,0.29c0.27,0.05,0.46,0.31,0.41,0.58
	C153.34,141.63,153.2,141.78,153.03,141.83z M187.82,128.57c-0.17,0.05-0.36,0.02-0.5-0.12c-0.2-0.19-0.21-0.51-0.02-0.71
	c0.34-0.36,0.68-0.73,1.02-1.1c0.19-0.21,0.5-0.22,0.71-0.04c0.21,0.19,0.22,0.5,0.04,0.71c-0.34,0.38-0.69,0.75-1.04,1.12
	C187.98,128.5,187.9,128.55,187.82,128.57z M148.16,140.57c-0.1,0.03-0.21,0.03-0.31,0c-0.48-0.16-0.96-0.34-1.44-0.53
	c-0.26-0.1-0.39-0.39-0.29-0.65c0.1-0.26,0.39-0.39,0.65-0.29c0.46,0.18,0.93,0.35,1.4,0.51c0.26,0.09,0.4,0.38,0.31,0.64
	C148.43,140.41,148.31,140.52,148.16,140.57z M168.42,131.91c-0.24,0.07-0.5-0.04-0.61-0.27c-0.21-0.46-0.42-0.93-0.62-1.4
	c-0.11-0.26,0.01-0.55,0.27-0.66c0.26-0.11,0.55,0.01,0.66,0.27c0.2,0.46,0.4,0.91,0.61,1.37c0.12,0.25,0.01,0.55-0.25,0.67
	C168.46,131.9,168.44,131.9,168.42,131.91z M191.12,124.76c-0.15,0.05-0.33,0.02-0.46-0.08c-0.22-0.17-0.26-0.49-0.09-0.71
	c0.31-0.39,0.61-0.79,0.91-1.19c0.17-0.22,0.48-0.27,0.7-0.11c0.22,0.17,0.27,0.48,0.11,0.7c-0.3,0.41-0.61,0.81-0.92,1.21
	C191.3,124.68,191.21,124.73,191.12,124.76z M143.53,138.61c-0.12,0.04-0.26,0.03-0.38-0.03c-0.45-0.23-0.91-0.47-1.35-0.72
	c-0.24-0.14-0.33-0.44-0.19-0.69c0.14-0.24,0.44-0.33,0.69-0.19c0.43,0.24,0.87,0.48,1.32,0.7c0.25,0.13,0.35,0.43,0.22,0.68
	C143.76,138.48,143.65,138.57,143.53,138.61z M194.03,120.65c-0.14,0.04-0.29,0.03-0.42-0.06c-0.23-0.15-0.3-0.46-0.16-0.7
	c0.27-0.42,0.53-0.85,0.78-1.28c0.14-0.24,0.45-0.32,0.69-0.18c0.24,0.14,0.32,0.45,0.18,0.69c-0.26,0.44-0.53,0.87-0.8,1.3
	C194.24,120.55,194.14,120.62,194.03,120.65z M139.21,136.02c-0.14,0.04-0.3,0.03-0.44-0.07c-0.42-0.29-0.83-0.59-1.24-0.89
	c-0.22-0.17-0.27-0.48-0.1-0.71c0.17-0.22,0.48-0.27,0.71-0.1c0.4,0.3,0.8,0.59,1.21,0.87c0.23,0.16,0.29,0.47,0.13,0.7
	C139.4,135.92,139.31,135.99,139.21,136.02z M166.55,127.24c-0.26,0.08-0.54-0.06-0.63-0.32c-0.11-0.33-0.22-0.66-0.32-0.99
	c-0.05-0.16-0.1-0.31-0.15-0.47c-0.08-0.26,0.07-0.54,0.33-0.63c0,0,0,0,0.01,0c0.27-0.08,0.55,0.07,0.63,0.34
	c0.05,0.15,0.09,0.31,0.14,0.46c0.1,0.32,0.21,0.64,0.32,0.96c0.09,0.26-0.05,0.55-0.31,0.64
	C166.55,127.23,166.55,127.24,166.55,127.24z M196.48,116.25c-0.12,0.04-0.25,0.03-0.37-0.03c-0.25-0.12-0.36-0.42-0.24-0.67
	c0.21-0.45,0.42-0.9,0.61-1.36c0.11-0.26,0.4-0.38,0.66-0.27c0.26,0.11,0.38,0.4,0.27,0.66c-0.2,0.47-0.41,0.94-0.63,1.4
	C196.72,116.12,196.61,116.21,196.48,116.25z M135.25,132.91c-0.16,0.05-0.35,0.02-0.49-0.1c-0.38-0.34-0.76-0.69-1.13-1.04
	c-0.2-0.19-0.21-0.51-0.02-0.71c0.19-0.2,0.51-0.21,0.71-0.02c0.36,0.34,0.73,0.68,1.1,1.01c0.21,0.18,0.23,0.5,0.04,0.71
	C135.41,132.83,135.33,132.88,135.25,132.91z M165.21,122.38c-0.02,0-0.03,0.01-0.05,0.01c-0.27,0.06-0.54-0.12-0.6-0.39
	c-0.11-0.5-0.2-1-0.29-1.5c-0.05-0.27,0.14-0.53,0.41-0.58c0.27-0.05,0.53,0.14,0.58,0.41c0.08,0.49,0.18,0.98,0.28,1.47
	C165.6,122.06,165.45,122.31,165.21,122.38z M198.3,111.56c-0.09,0.03-0.19,0.03-0.29,0c-0.27-0.08-0.42-0.36-0.34-0.63
	c0.14-0.48,0.27-0.96,0.38-1.43c0.06-0.27,0.34-0.44,0.61-0.37c0.27,0.06,0.44,0.34,0.37,0.61c-0.12,0.49-0.25,0.99-0.4,1.49
	C198.58,111.39,198.45,111.51,198.3,111.56z M131.69,129.35c-0.18,0.06-0.39,0.01-0.53-0.15c-0.34-0.38-0.67-0.77-1-1.16
	c-0.18-0.21-0.15-0.53,0.07-0.71c0.21-0.18,0.53-0.15,0.71,0.07c0.32,0.38,0.64,0.76,0.98,1.13c0.18,0.21,0.17,0.53-0.04,0.71
	C131.82,129.29,131.75,129.33,131.69,129.35z M199.26,106.62c-0.06,0.02-0.13,0.03-0.2,0.02c-0.28-0.03-0.48-0.27-0.46-0.55
	c0.04-0.49,0.07-0.99,0.09-1.47c0.01-0.28,0.24-0.5,0.52-0.49c0.28,0.01,0.5,0.24,0.49,0.52c-0.01,0.51-0.04,1.03-0.09,1.54
	C199.6,106.4,199.45,106.57,199.26,106.62z M164.49,117.4c-0.04,0.01-0.07,0.02-0.11,0.02c-0.28,0.02-0.52-0.19-0.54-0.46
	c-0.04-0.51-0.07-1.02-0.09-1.53c-0.01-0.28,0.2-0.51,0.48-0.52c0.28-0.01,0.51,0.21,0.52,0.48c0.02,0.5,0.05,0.99,0.09,1.49
	C164.86,117.12,164.71,117.33,164.49,117.4z M128.55,125.4c-0.2,0.06-0.43-0.01-0.56-0.19c-0.29-0.42-0.58-0.84-0.86-1.26
	c-0.15-0.23-0.09-0.54,0.14-0.7c0.23-0.15,0.54-0.09,0.7,0.14c0.27,0.42,0.55,0.83,0.84,1.24c0.16,0.23,0.11,0.54-0.12,0.7
	C128.65,125.36,128.6,125.39,128.55,125.4z M199.13,101.6c-0.02,0.01-0.05,0.01-0.07,0.02c-0.27,0.04-0.53-0.14-0.58-0.42
	c-0.08-0.48-0.17-0.97-0.29-1.44c-0.07-0.27,0.1-0.54,0.37-0.61c0.27-0.07,0.54,0.1,0.61,0.37c0.12,0.5,0.23,1.01,0.31,1.52
	C199.52,101.29,199.37,101.53,199.13,101.6z M164.44,112.37c-0.06,0.02-0.12,0.03-0.18,0.02c-0.28-0.02-0.49-0.25-0.47-0.53
	c0.03-0.51,0.07-1.02,0.12-1.53c0.03-0.28,0.27-0.48,0.55-0.45c0.28,0.03,0.48,0.27,0.45,0.55c-0.05,0.49-0.09,0.99-0.12,1.49
	C164.77,112.13,164.63,112.31,164.44,112.37z M125.88,121.13c-0.22,0.07-0.47-0.02-0.59-0.24c-0.25-0.45-0.48-0.9-0.72-1.35
	c-0.13-0.25-0.03-0.55,0.22-0.68c0.25-0.12,0.55-0.03,0.68,0.22c0.23,0.44,0.46,0.88,0.7,1.32c0.13,0.24,0.05,0.55-0.2,0.68
	C125.94,121.11,125.91,121.12,125.88,121.13z M165.08,107.38c-0.08,0.02-0.17,0.03-0.25,0.01c-0.27-0.06-0.45-0.32-0.39-0.59
	c0.1-0.5,0.22-1.01,0.34-1.5c0.07-0.27,0.34-0.43,0.61-0.36c0.27,0.07,0.43,0.34,0.36,0.61c-0.12,0.47-0.23,0.96-0.33,1.45
	C165.39,107.18,165.25,107.32,165.08,107.38z M197.68,96.79c-0.24,0.08-0.5-0.04-0.61-0.27c-0.2-0.45-0.42-0.89-0.66-1.31
	c-0.14-0.24-0.05-0.55,0.2-0.68c0.24-0.14,0.55-0.05,0.68,0.2c0.25,0.45,0.48,0.92,0.7,1.39c0.11,0.25,0,0.55-0.25,0.67
	C197.72,96.78,197.7,96.79,197.68,96.79z M123.7,116.59c-0.25,0.08-0.52-0.05-0.62-0.29c-0.19-0.47-0.38-0.95-0.56-1.42
	c-0.1-0.26,0.04-0.55,0.3-0.65c0.25-0.1,0.55,0.04,0.65,0.3c0.17,0.47,0.36,0.93,0.55,1.39c0.11,0.26-0.02,0.55-0.27,0.66
	C123.73,116.59,123.71,116.59,123.7,116.59z M166.48,102.54c-0.1,0.03-0.22,0.03-0.33-0.01c-0.26-0.1-0.39-0.39-0.29-0.65
	c0.18-0.48,0.38-0.95,0.58-1.42c0.11-0.26,0.41-0.37,0.66-0.26c0.25,0.11,0.37,0.41,0.26,0.66c-0.2,0.45-0.39,0.91-0.56,1.37
	C166.75,102.39,166.62,102.5,166.48,102.54z M195,92.55c-0.19,0.06-0.4,0.01-0.53-0.15c-0.32-0.37-0.66-0.73-1-1.07
	c-0.2-0.19-0.21-0.51-0.01-0.71c0.19-0.2,0.51-0.21,0.71-0.01c0.37,0.36,0.73,0.74,1.07,1.13c0.18,0.21,0.16,0.53-0.05,0.71
	C195.12,92.5,195.06,92.53,195,92.55z M168.67,98.01c-0.13,0.04-0.28,0.03-0.41-0.05c-0.24-0.14-0.32-0.45-0.17-0.69
	c0.26-0.44,0.54-0.88,0.83-1.3c0.16-0.23,0.47-0.29,0.7-0.13c0.23,0.16,0.29,0.47,0.13,0.7c-0.28,0.41-0.54,0.83-0.8,1.25
	C168.89,97.9,168.79,97.98,168.67,98.01z M122.05,111.84c0,0-0.01,0-0.01,0c-0.27,0.08-0.55-0.08-0.62-0.35
	c-0.14-0.49-0.27-0.98-0.39-1.48c-0.07-0.27,0.1-0.55,0.37-0.61c0.27-0.07,0.54,0.1,0.61,0.37c0.12,0.48,0.24,0.96,0.38,1.44
	C122.46,111.48,122.31,111.76,122.05,111.84z M191.16,89.33c-0.13,0.04-0.28,0.03-0.4-0.04c-0.42-0.24-0.86-0.46-1.3-0.65
	c-0.26-0.11-0.37-0.41-0.26-0.66c0.11-0.26,0.41-0.37,0.66-0.26c0.48,0.2,0.95,0.44,1.4,0.7c0.24,0.14,0.32,0.45,0.19,0.69
	C191.38,89.21,191.27,89.29,191.16,89.33z M171.67,93.98c-0.17,0.05-0.36,0.02-0.49-0.11c-0.2-0.19-0.22-0.51-0.03-0.71
	c0.35-0.38,0.71-0.75,1.09-1.1c0.2-0.19,0.52-0.18,0.71,0.02c0.19,0.2,0.18,0.52-0.02,0.71c-0.36,0.34-0.71,0.69-1.04,1.05
	C171.83,93.9,171.75,93.95,171.67,93.98z M186.42,87.73c-0.07,0.02-0.14,0.03-0.22,0.02c-0.48-0.06-0.96-0.1-1.45-0.1
	c-0.28,0-0.5-0.23-0.5-0.51c0-0.28,0.23-0.5,0.51-0.5c0.52,0.01,1.05,0.04,1.56,0.11c0.28,0.04,0.47,0.29,0.44,0.56
	C186.74,87.51,186.6,87.67,186.42,87.73z M175.48,90.7c-0.21,0.07-0.44-0.01-0.57-0.2c-0.16-0.23-0.1-0.54,0.13-0.7
	c0.43-0.29,0.87-0.57,1.31-0.82c0.24-0.14,0.55-0.06,0.69,0.19c0.14,0.24,0.06,0.55-0.19,0.69c-0.42,0.24-0.84,0.5-1.25,0.78
	C175.57,90.66,175.52,90.68,175.48,90.7z M181.42,88.02c-0.01,0-0.02,0.01-0.04,0.01c-0.46,0.11-0.94,0.25-1.41,0.41
	c-0.26,0.09-0.55-0.05-0.64-0.32c-0.09-0.26,0.05-0.55,0.32-0.64c0.5-0.17,1-0.31,1.5-0.43c0.27-0.06,0.54,0.1,0.61,0.37
	C181.82,87.68,181.67,87.94,181.42,88.02z M120.97,106.92c-0.02,0.01-0.04,0.01-0.07,0.02c-0.27,0.05-0.53-0.14-0.58-0.41
	c-0.08-0.5-0.16-1-0.23-1.51c-0.04-0.28,0.15-0.53,0.43-0.57c0.28-0.04,0.53,0.15,0.57,0.43c0.07,0.49,0.14,0.99,0.22,1.48
	C121.35,106.61,121.2,106.85,120.97,106.92z M120.38,101.92c-0.04,0.01-0.08,0.02-0.12,0.02c-0.28,0.02-0.52-0.19-0.54-0.47
	c-0.03-0.51-0.06-1.01-0.08-1.52c-0.01-0.28,0.21-0.51,0.48-0.52c0.28-0.01,0.51,0.21,0.52,0.48c0.02,0.5,0.05,1,0.08,1.49
	C120.75,101.65,120.6,101.86,120.38,101.92z M120.27,96.89c-0.05,0.02-0.11,0.02-0.16,0.02c-0.28-0.01-0.5-0.24-0.49-0.52
	c0.01-0.51,0.03-1.02,0.06-1.52c0.01-0.28,0.25-0.49,0.53-0.48c0.28,0.01,0.49,0.25,0.48,0.53c-0.03,0.5-0.04,1-0.06,1.5
	C120.62,96.64,120.47,96.83,120.27,96.89z M120.61,91.87c-0.06,0.02-0.13,0.03-0.21,0.02c-0.28-0.03-0.48-0.28-0.45-0.56
	c0.06-0.5,0.12-1.01,0.19-1.51c0.04-0.28,0.29-0.47,0.57-0.43c0.28,0.04,0.47,0.29,0.43,0.57c-0.07,0.5-0.13,0.99-0.18,1.49
	C120.94,91.65,120.8,91.81,120.61,91.87z M121.37,86.89c-0.08,0.02-0.16,0.03-0.25,0.01c-0.27-0.05-0.45-0.32-0.4-0.59
	c0.1-0.5,0.2-1,0.31-1.49c0.06-0.27,0.33-0.44,0.6-0.39c0.27,0.06,0.44,0.33,0.39,0.6c-0.11,0.49-0.21,0.98-0.3,1.47
	C121.68,86.69,121.54,86.83,121.37,86.89z M122.5,81.98c-0.09,0.03-0.19,0.03-0.28,0.01c-0.27-0.07-0.43-0.35-0.35-0.62
	c0.13-0.49,0.27-0.98,0.41-1.47c0.08-0.27,0.36-0.42,0.63-0.34c0.27,0.08,0.42,0.36,0.34,0.63c-0.14,0.48-0.28,0.96-0.41,1.45
	C122.79,81.8,122.66,81.93,122.5,81.98z M123.99,77.16c-0.1,0.03-0.21,0.03-0.32,0c-0.26-0.09-0.4-0.38-0.31-0.64
	c0.17-0.48,0.34-0.96,0.51-1.43c0.1-0.26,0.39-0.4,0.65-0.3c0.26,0.1,0.39,0.39,0.3,0.65c-0.17,0.47-0.34,0.94-0.5,1.41
	C124.26,77,124.14,77.12,123.99,77.16z M125.79,72.46c-0.11,0.03-0.23,0.03-0.35-0.02c-0.26-0.11-0.38-0.4-0.27-0.66
	c0.2-0.47,0.4-0.93,0.6-1.4c0.11-0.25,0.41-0.37,0.66-0.26c0.25,0.11,0.37,0.41,0.26,0.66c-0.2,0.46-0.4,0.92-0.59,1.38
	C126.04,72.31,125.93,72.41,125.79,72.46z"/>
<g>
	<g>
		<g>
			<path class="st1" d="M510.11,187.63c-0.09-0.01-0.18-0.04-0.25-0.09c-0.51-0.38-1.02-0.77-1.52-1.17
				c-0.21-0.16-0.24-0.46-0.07-0.67c0.16-0.2,0.46-0.24,0.67-0.07c0.49,0.39,0.99,0.78,1.49,1.15c0.21,0.16,0.26,0.45,0.1,0.66
				C510.42,187.57,510.26,187.64,510.11,187.63z"/>
			<path class="st1" d="M503.88,182.18c-0.11-0.01-0.23-0.06-0.31-0.14c-0.91-0.94-1.8-1.94-2.64-2.96c-0.17-0.2-0.14-0.5,0.06-0.67
				c0.2-0.17,0.5-0.14,0.67,0.06c0.83,1,1.7,1.98,2.59,2.9c0.18,0.19,0.18,0.49-0.01,0.67
				C504.14,182.14,504.01,182.18,503.88,182.18z M497.52,174.08c-0.15-0.01-0.29-0.09-0.37-0.22c-0.71-1.12-1.38-2.27-1.99-3.43
				c-0.12-0.23-0.03-0.52,0.2-0.64c0.23-0.12,0.52-0.03,0.64,0.2c0.6,1.14,1.26,2.27,1.95,3.37c0.14,0.22,0.07,0.52-0.15,0.66
				C497.72,174.06,497.62,174.08,497.52,174.08z M492.93,164.86c-0.18-0.01-0.35-0.13-0.42-0.31c-0.46-1.23-0.88-2.5-1.25-3.76
				c-0.07-0.25,0.07-0.52,0.33-0.59c0.25-0.07,0.52,0.07,0.59,0.33c0.36,1.24,0.77,2.48,1.22,3.69c0.09,0.25-0.03,0.52-0.28,0.61
				C493.06,164.86,492.99,164.87,492.93,164.86z M490.32,154.9c-0.22-0.01-0.41-0.18-0.44-0.4c-0.2-1.3-0.35-2.63-0.45-3.94
				c-0.02-0.26,0.18-0.49,0.44-0.51c0.26-0.02,0.49,0.18,0.51,0.44c0.1,1.29,0.24,2.59,0.44,3.87c0.04,0.26-0.14,0.5-0.4,0.54
				C490.39,154.9,490.35,154.9,490.32,154.9z M489.81,144.62c-0.26-0.02-0.46-0.24-0.45-0.5l0.03-0.45c0.07-1.17,0.19-2.34,0.34-3.5
				c0.03-0.26,0.27-0.44,0.53-0.41c0.26,0.03,0.44,0.27,0.41,0.53c-0.15,1.13-0.26,2.29-0.33,3.44l-0.03,0.44
				C490.3,144.43,490.08,144.63,489.81,144.62C489.81,144.62,489.81,144.62,489.81,144.62z M491.4,134.45
				c-0.03,0-0.06-0.01-0.09-0.01c-0.25-0.07-0.41-0.33-0.34-0.58c0.33-1.27,0.72-2.55,1.16-3.79c0.09-0.25,0.36-0.38,0.61-0.29
				c0.25,0.09,0.38,0.36,0.29,0.61c-0.43,1.22-0.81,2.47-1.14,3.72C491.83,134.32,491.63,134.46,491.4,134.45z M495.03,124.81
				c-0.06,0-0.12-0.02-0.18-0.05c-0.24-0.12-0.33-0.4-0.21-0.64c0.59-1.18,1.23-2.35,1.91-3.48c0.14-0.23,0.43-0.3,0.65-0.16
				c0.23,0.14,0.3,0.43,0.16,0.65c-0.66,1.11-1.29,2.25-1.87,3.41C495.39,124.73,495.21,124.83,495.03,124.81z M500.54,116.12
				c-0.09-0.01-0.19-0.04-0.26-0.1c-0.21-0.16-0.24-0.46-0.08-0.67c0.82-1.03,1.68-2.04,2.58-3.01c0.18-0.19,0.48-0.2,0.67-0.03
				c0.19,0.18,0.2,0.48,0.03,0.67c-0.88,0.95-1.73,1.94-2.53,2.95C500.84,116.07,500.69,116.13,500.54,116.12z M507.72,108.75
				c-0.13-0.01-0.25-0.07-0.34-0.17c-0.17-0.2-0.14-0.5,0.06-0.67c1.01-0.84,2.07-1.66,3.14-2.42c0.21-0.15,0.51-0.1,0.66,0.11
				c0.15,0.21,0.1,0.51-0.11,0.66c-1.05,0.75-2.09,1.55-3.08,2.38C507.96,108.72,507.84,108.76,507.72,108.75z M516.25,102.99
				c-0.16-0.01-0.31-0.1-0.39-0.25c-0.12-0.23-0.04-0.52,0.19-0.64c1.16-0.62,2.36-1.21,3.56-1.74c0.24-0.11,0.52,0,0.63,0.24
				c0.11,0.24,0,0.52-0.24,0.63c-1.18,0.52-2.36,1.09-3.5,1.71C516.42,102.97,516.34,102.99,516.25,102.99z M525.77,99.07
				c-0.19-0.01-0.37-0.14-0.43-0.34c-0.07-0.25,0.07-0.52,0.32-0.59c1.26-0.37,2.55-0.7,3.84-0.97c0.26-0.05,0.51,0.11,0.56,0.37
				c0.05,0.26-0.11,0.51-0.37,0.56c-1.27,0.27-2.53,0.59-3.77,0.95C525.88,99.07,525.83,99.08,525.77,99.07z"/>
			<path class="st1" d="M535.92,97.2c-0.23-0.01-0.42-0.2-0.44-0.44c-0.02-0.26,0.17-0.49,0.44-0.51c0.64-0.05,1.28-0.09,1.91-0.12
				c0.27-0.01,0.48,0.19,0.49,0.46c0.01,0.26-0.19,0.48-0.46,0.49c-0.62,0.03-1.25,0.06-1.88,0.11
				C535.97,97.2,535.94,97.2,535.92,97.2z"/>
		</g>
		<g>
			<path class="st1" d="M574.49,110.81c-0.11-0.01-0.21-0.05-0.3-0.13c-0.45-0.43-0.92-0.86-1.39-1.27
				c-0.2-0.17-0.22-0.47-0.04-0.67c0.17-0.2,0.47-0.22,0.67-0.04c0.48,0.42,0.96,0.86,1.42,1.29c0.19,0.18,0.2,0.48,0.02,0.67
				C574.76,110.77,574.62,110.82,574.49,110.81z"/>
			<path class="st1" d="M547.92,196.81c-0.22-0.01-0.4-0.18-0.44-0.4c-0.04-0.26,0.13-0.5,0.39-0.54c1.26-0.2,2.52-0.45,3.75-0.75
				c0.25-0.06,0.51,0.1,0.57,0.35c0.06,0.26-0.1,0.51-0.35,0.57c-1.26,0.3-2.55,0.56-3.83,0.77
				C547.99,196.82,547.95,196.82,547.92,196.81z M557.71,194.2c-0.18-0.01-0.35-0.13-0.42-0.31c-0.09-0.25,0.03-0.52,0.28-0.61
				c1.19-0.45,2.37-0.95,3.52-1.5c0.24-0.11,0.52-0.01,0.63,0.23c0.11,0.24,0.01,0.52-0.23,0.63c-1.17,0.55-2.38,1.07-3.59,1.52
				C557.84,194.2,557.77,194.21,557.71,194.2z M566.77,189.67c-0.15-0.01-0.29-0.09-0.37-0.22c-0.14-0.22-0.07-0.52,0.15-0.66
				c0.23-0.14,0.45-0.29,0.68-0.44c0.84-0.55,1.67-1.13,2.48-1.73c0.21-0.16,0.51-0.11,0.67,0.1c0.16,0.21,0.11,0.51-0.1,0.67
				c-0.82,0.61-1.67,1.2-2.52,1.76c-0.23,0.15-0.46,0.3-0.69,0.45C566.96,189.65,566.86,189.68,566.77,189.67z M574.74,183.43
				c-0.11-0.01-0.23-0.06-0.31-0.15c-0.18-0.19-0.18-0.49,0.01-0.67c0.92-0.88,1.81-1.81,2.66-2.75c0.18-0.2,0.48-0.21,0.67-0.04
				c0.2,0.17,0.21,0.48,0.04,0.67c-0.86,0.97-1.77,1.91-2.71,2.81C575,183.39,574.87,183.44,574.74,183.43z M581.3,175.71
				c-0.08-0.01-0.17-0.03-0.24-0.08c-0.22-0.15-0.27-0.44-0.12-0.66c0.72-1.05,1.41-2.13,2.04-3.23c0.13-0.23,0.42-0.3,0.65-0.17
				c0.23,0.13,0.3,0.42,0.17,0.65c-0.65,1.12-1.35,2.23-2.08,3.3C581.62,175.65,581.46,175.72,581.3,175.71z M586.17,166.83
				c-0.05,0-0.1-0.02-0.16-0.04c-0.24-0.1-0.35-0.38-0.25-0.62c0.49-1.17,0.95-2.37,1.35-3.58c0.08-0.25,0.35-0.38,0.6-0.3
				c0.25,0.08,0.38,0.35,0.3,0.6c-0.41,1.23-0.88,2.46-1.38,3.65C586.55,166.73,586.36,166.84,586.17,166.83z M589.15,157.15
				c-0.02,0-0.04,0-0.07-0.01c-0.26-0.05-0.42-0.3-0.37-0.56c0.25-1.25,0.46-2.52,0.61-3.78c0.03-0.26,0.27-0.45,0.53-0.41
				c0.26,0.03,0.45,0.27,0.41,0.53c-0.16,1.29-0.37,2.58-0.62,3.85C589.6,157.01,589.39,157.16,589.15,157.15z M590.14,147.07
				c-0.25-0.02-0.44-0.22-0.45-0.47c0-1.27-0.06-2.56-0.16-3.83c-0.02-0.26,0.17-0.49,0.44-0.51c0.26-0.02,0.49,0.17,0.51,0.44
				c0.1,1.29,0.16,2.6,0.16,3.9c0,0.26-0.21,0.48-0.47,0.48C590.16,147.07,590.15,147.07,590.14,147.07z M589.09,136.99
				c-0.21-0.01-0.39-0.16-0.44-0.38c-0.26-1.24-0.57-2.49-0.93-3.71c-0.07-0.25,0.07-0.52,0.32-0.59c0.25-0.07,0.52,0.07,0.59,0.32
				c0.36,1.24,0.68,2.52,0.94,3.79c0.05,0.26-0.11,0.51-0.37,0.56C589.18,136.99,589.14,137,589.09,136.99z M586.03,127.34
				c-0.17-0.01-0.33-0.12-0.41-0.29c-0.51-1.17-1.06-2.33-1.66-3.45c-0.12-0.23-0.03-0.52,0.2-0.64c0.23-0.12,0.52-0.03,0.64,0.2
				c0.61,1.15,1.17,2.33,1.69,3.52c0.1,0.24-0.01,0.52-0.25,0.63C586.18,127.33,586.1,127.34,586.03,127.34z M581.09,118.49
				c-0.14-0.01-0.27-0.08-0.36-0.2c-0.73-1.04-1.51-2.07-2.31-3.05c-0.17-0.2-0.14-0.5,0.07-0.67c0.2-0.17,0.5-0.14,0.67,0.07
				c0.82,1,1.61,2.05,2.35,3.11c0.15,0.22,0.1,0.51-0.12,0.66C581.3,118.47,581.19,118.5,581.09,118.49z"/>
			<path class="st1" d="M539.74,197.44c-0.25-0.02-0.45-0.22-0.45-0.48c0-0.26,0.22-0.47,0.48-0.47c0.62,0,1.26-0.01,1.88-0.03
				c0.26-0.01,0.48,0.2,0.49,0.46c0.01,0.26-0.2,0.48-0.46,0.49c-0.64,0.02-1.28,0.03-1.92,0.03
				C539.76,197.45,539.75,197.45,539.74,197.44z"/>
		</g>
		<g>
			<g>
				<path class="st1" d="M534.96,185c0.25,0.06,0.51-0.04,0.65-0.26l3.95-6.18c3.42,0.02,6.88-0.5,10.22-1.6l5.65,4.67
					c0.2,0.16,0.48,0.18,0.7,0.05l7.51-4.58c0.22-0.13,0.33-0.39,0.27-0.64l-1.57-7.16c2.51-2.47,4.55-5.31,6.09-8.36l7.3-0.69
					c0.26-0.02,0.47-0.21,0.53-0.46l2.07-8.55c0.06-0.25-0.04-0.51-0.26-0.65l-6.18-3.95c0.02-3.42-0.5-6.88-1.6-10.22l4.67-5.65
					c0.16-0.2,0.18-0.48,0.05-0.7l-4.58-7.51c-0.13-0.22-0.39-0.33-0.64-0.27l-7.16,1.57c-2.47-2.51-5.31-4.55-8.36-6.09l-0.69-7.3
					c-0.02-0.26-0.21-0.47-0.46-0.53l-8.55-2.07c-0.25-0.06-0.51,0.04-0.65,0.26l-3.95,6.18c-3.42-0.02-6.88,0.5-10.22,1.6
					l-5.65-4.67c-0.2-0.16-0.48-0.18-0.7-0.05l-7.51,4.58c-0.22,0.13-0.33,0.39-0.27,0.64l1.57,7.16c-2.51,2.47-4.55,5.31-6.09,8.36
					l-7.3,0.69c-0.26,0.02-0.47,0.21-0.53,0.46l-2.07,8.55c-0.06,0.25,0.04,0.51,0.26,0.65l6.18,3.95c-0.02,3.42,0.5,6.88,1.6,10.22
					l-4.67,5.65c-0.16,0.2-0.18,0.48-0.05,0.7l4.58,7.51c0.13,0.22,0.39,0.33,0.64,0.27l7.16-1.57c2.47,2.51,5.31,4.55,8.36,6.09
					l0.69,7.3c0.02,0.26,0.21,0.47,0.46,0.53L534.96,185z"/>
			</g>
			<path class="st2" d="M539.22,154.94c-2.04-0.13-3.95-0.97-5.43-2.42c-1.63-1.59-2.53-3.72-2.56-6c-0.02-2.28,0.84-4.43,2.44-6.05
				c3.29-3.36,8.7-3.41,12.05-0.12c3.36,3.29,3.41,8.7,0.12,12.05c-1.59,1.63-3.72,2.53-6,2.56
				C539.64,154.96,539.43,154.95,539.22,154.94z M540.2,139.35c-1.99-0.12-4.01,0.58-5.51,2.11c-2.74,2.79-2.69,7.3,0.1,10.04
				c1.35,1.33,3.14,2.05,5.04,2.03c1.9-0.02,3.67-0.78,5-2.13l0,0c2.74-2.79,2.69-7.3-0.1-10.04
				C543.46,140.12,541.85,139.45,540.2,139.35z"/>
			<path class="st2" d="M547,166.97l-0.47-1.35c1.37-0.48,2.7-1.11,3.95-1.87l0,0c8.74-5.33,12.07-16.2,8.26-25.37
				c-0.4-0.96-0.88-1.91-1.44-2.82c-5.89-9.65-18.54-12.71-28.19-6.82c-5.94,3.62-9.38,9.8-9.78,16.27
				c-0.25,4.05,0.69,8.21,2.96,11.92c1.94,3.17,4.69,5.76,7.97,7.47l-0.66,1.26c-3.5-1.84-6.45-4.6-8.52-7.99
				c-2.43-3.97-3.43-8.42-3.17-12.75c0.43-6.92,4.11-13.52,10.46-17.4c10.32-6.3,23.85-3.03,30.15,7.29
				c2.43,3.97,3.43,8.42,3.17,12.75c-0.43,6.92-4.11,13.52-10.46,17.4c-0.13,0.08-0.26,0.15-0.39,0.23c0,0,0,0,0,0
				c-0.01,0-0.01,0.01-0.02,0.01c0,0,0,0,0,0c0,0-0.01,0-0.01,0.01c-0.97,0.57-1.99,1.06-3.03,1.46c-0.01,0-0.02,0.01-0.03,0.01
				c-0.02,0.01-0.03,0.01-0.05,0.02c-0.04,0.02-0.08,0.03-0.12,0.04C547.38,166.84,547.19,166.9,547,166.97z"/>
		</g>
	</g>
	<g>
		<path class="st1" d="M551.29,95.29l1.93-3.63c1.91-0.14,3.82-0.58,5.64-1.35l3.36,2.36c0.12,0.08,0.28,0.08,0.39,0l3.99-2.89
			c0.12-0.08,0.17-0.23,0.12-0.37l-1.2-3.93c1.29-1.49,2.31-3.17,3.03-4.94l4.05-0.71c0.14-0.02,0.25-0.14,0.27-0.28l0.77-4.87
			c0.02-0.14-0.05-0.28-0.17-0.35l-3.63-1.93c-0.14-1.91-0.58-3.82-1.35-5.64l2.36-3.36c0.08-0.12,0.08-0.28,0-0.39l-2.89-3.99
			c-0.08-0.12-0.23-0.17-0.37-0.12l-3.93,1.2c-1.49-1.29-3.17-2.31-4.94-3.03L558.03,53c-0.03-0.14-0.14-0.25-0.28-0.27l-4.87-0.77
			c-0.14-0.02-0.28,0.05-0.35,0.17l-1.93,3.63c-1.91,0.14-3.82,0.58-5.64,1.35l-3.36-2.36c-0.12-0.08-0.28-0.08-0.39,0l-3.99,2.89
			c-0.12,0.08-0.17,0.23-0.12,0.37l1.2,3.93c-1.29,1.49-2.31,3.17-3.03,4.94l-4.05,0.71c-0.14,0.02-0.25,0.14-0.27,0.28l-0.77,4.87
			c-0.02,0.14,0.05,0.28,0.17,0.35l3.63,1.93c0.14,1.91,0.58,3.82,1.35,5.64l-2.36,3.36c-0.08,0.12-0.08,0.28,0,0.39l2.89,3.99
			c0.08,0.12,0.23,0.17,0.37,0.12l3.93-1.2c1.49,1.29,3.17,2.31,4.94,3.03l0.71,4.05c0.02,0.14,0.14,0.25,0.28,0.27l4.87,0.77
			C551.08,95.49,551.23,95.42,551.29,95.29z"/>
	</g>
	<path class="st2" d="M551.59,78.79c-1.07-0.07-2.1-0.47-2.94-1.17c-2.15-1.8-2.44-5.01-0.64-7.17c1.8-2.15,5.01-2.44,7.17-0.64
		c2.15,1.8,2.44,5.01,0.64,7.17c-0.87,1.04-2.1,1.68-3.45,1.81C552.1,78.8,551.84,78.81,551.59,78.79z M552.14,70.06
		c-1.12-0.07-2.27,0.38-3.04,1.31c-1.3,1.55-1.09,3.86,0.46,5.16c1.55,1.29,3.86,1.09,5.16-0.46c0.63-0.75,0.92-1.7,0.84-2.68
		c-0.09-0.97-0.55-1.86-1.3-2.48C553.64,70.38,552.9,70.1,552.14,70.06z"/>
	<g>
		<path class="st1" d="M543.03,99.08c-0.04,0-0.09-0.01-0.13-0.03c-0.61-0.22-1.21-0.46-1.8-0.71c-0.24-0.11-0.35-0.39-0.24-0.63
			c0.11-0.24,0.39-0.35,0.63-0.24c0.57,0.25,1.15,0.48,1.73,0.69c0.25,0.09,0.38,0.36,0.29,0.61
			C543.43,98.97,543.24,99.09,543.03,99.08z"/>
		<path class="st1" d="M536.31,95.52c-0.09-0.01-0.17-0.04-0.25-0.09c-0.47-0.35-0.94-0.71-1.39-1.09c-0.46-0.39-0.92-0.8-1.36-1.21
			c-0.19-0.18-0.2-0.48-0.02-0.67c0.18-0.19,0.48-0.2,0.67-0.02c0.42,0.4,0.86,0.8,1.31,1.17c0.43,0.36,0.89,0.72,1.34,1.05
			c0.21,0.15,0.26,0.45,0.1,0.66C536.62,95.46,536.47,95.53,536.31,95.52z M529.93,88.89c-0.14-0.01-0.28-0.08-0.37-0.21
			c-0.66-0.99-1.27-2.04-1.79-3.11c-0.12-0.24-0.02-0.52,0.22-0.64c0.24-0.12,0.52-0.02,0.64,0.22c0.51,1.03,1.09,2.04,1.73,3
			c0.15,0.22,0.09,0.51-0.13,0.66C530.13,88.87,530.03,88.89,529.93,88.89z M526.22,80.46c-0.2-0.01-0.38-0.15-0.43-0.36
			c-0.28-1.16-0.49-2.35-0.62-3.53c-0.03-0.26,0.16-0.5,0.42-0.52c0.26-0.03,0.5,0.16,0.52,0.42c0.12,1.15,0.32,2.29,0.59,3.41
			c0.06,0.25-0.09,0.51-0.35,0.57C526.31,80.46,526.27,80.46,526.22,80.46z M525.62,71.27c-0.01,0-0.02,0-0.02,0
			c-0.26-0.03-0.45-0.26-0.42-0.52c0.13-1.19,0.34-2.37,0.63-3.53c0.06-0.25,0.32-0.41,0.58-0.35c0.25,0.06,0.41,0.32,0.35,0.58
			c-0.28,1.12-0.48,2.26-0.61,3.41C526.1,71.1,525.87,71.29,525.62,71.27z M528.21,62.44c-0.06,0-0.12-0.02-0.18-0.05
			c-0.24-0.12-0.33-0.4-0.21-0.64c0.53-1.07,1.14-2.11,1.81-3.1c0.15-0.22,0.44-0.27,0.66-0.13c0.22,0.15,0.27,0.44,0.13,0.66
			c-0.65,0.95-1.23,1.96-1.74,2.99C528.58,62.35,528.39,62.45,528.21,62.44z M533.68,55.03c-0.12-0.01-0.23-0.06-0.31-0.15
			c-0.18-0.19-0.17-0.49,0.02-0.67c0.86-0.82,1.79-1.6,2.76-2.3c0.21-0.15,0.51-0.11,0.66,0.11c0.15,0.21,0.11,0.51-0.11,0.66
			c-0.93,0.67-1.82,1.42-2.66,2.21C533.93,55,533.8,55.04,533.68,55.03z"/>
		<path class="st1" d="M541.37,49.94c-0.17-0.01-0.33-0.12-0.41-0.29c-0.1-0.24,0.01-0.52,0.25-0.63c0.59-0.26,1.2-0.49,1.8-0.7
			c0.25-0.09,0.52,0.04,0.61,0.29c0.09,0.25-0.04,0.52-0.29,0.61c-0.58,0.2-1.17,0.43-1.74,0.68
			C541.52,49.93,541.45,49.94,541.37,49.94z"/>
	</g>
	<g>
		<path class="st1" d="M564.51,50.97c-0.07,0-0.13-0.02-0.2-0.06c-0.54-0.3-1.11-0.58-1.67-0.83c-0.24-0.11-0.34-0.39-0.24-0.63
			c0.11-0.24,0.39-0.35,0.63-0.24c0.59,0.27,1.17,0.56,1.73,0.86c0.23,0.13,0.32,0.41,0.19,0.64
			C564.86,50.89,564.68,50.98,564.51,50.97z"/>
		<path class="st1" d="M567.12,95.77c-0.14-0.01-0.27-0.08-0.36-0.2c-0.15-0.21-0.1-0.51,0.11-0.66c1.09-0.77,2.12-1.63,3.08-2.56
			c0.19-0.18,0.49-0.18,0.67,0.01c0.18,0.19,0.18,0.49-0.01,0.67c-0.99,0.96-2.07,1.86-3.2,2.65
			C567.33,95.75,567.22,95.77,567.12,95.77z M574.4,88c-0.08,0-0.15-0.03-0.22-0.07c-0.22-0.14-0.29-0.43-0.16-0.65
			c0.7-1.14,1.31-2.34,1.83-3.56c0.1-0.24,0.38-0.36,0.62-0.26c0.24,0.1,0.36,0.38,0.26,0.62c-0.53,1.27-1.17,2.52-1.9,3.7
			C574.74,87.93,574.57,88.01,574.4,88z M578.03,77.99c-0.01,0-0.03,0-0.04,0c-0.26-0.04-0.44-0.28-0.4-0.54
			c0.1-0.7,0.17-1.41,0.22-2.12c0.04-0.62,0.05-1.26,0.05-1.88c0-0.26,0.21-0.48,0.47-0.48c0.27,0,0.48,0.21,0.48,0.47
			c0.01,0.65-0.01,1.3-0.05,1.95c-0.05,0.73-0.12,1.47-0.23,2.19C578.49,77.83,578.27,78.01,578.03,77.99z M577.41,67.36
			c-0.2-0.01-0.38-0.15-0.43-0.35c-0.34-1.29-0.79-2.56-1.33-3.78c-0.11-0.24,0-0.52,0.24-0.63c0.24-0.11,0.52,0,0.63,0.24
			c0.56,1.26,1.02,2.58,1.38,3.92c0.07,0.25-0.08,0.51-0.34,0.58C577.51,67.36,577.46,67.36,577.41,67.36z M572.65,57.84
			c-0.13-0.01-0.26-0.07-0.34-0.18c-0.82-1.04-1.74-2.03-2.72-2.95c-0.19-0.18-0.2-0.48-0.02-0.67c0.18-0.19,0.48-0.2,0.67-0.02
			c1.02,0.94,1.96,1.97,2.82,3.05c0.16,0.21,0.13,0.51-0.08,0.67C572.87,57.81,572.76,57.84,572.65,57.84z"/>
		<path class="st1" d="M559.45,99.49c-0.19-0.01-0.37-0.14-0.43-0.34c-0.07-0.25,0.07-0.52,0.32-0.59c0.59-0.18,1.19-0.38,1.77-0.6
			c0.24-0.09,0.52,0.03,0.61,0.28c0.09,0.25-0.03,0.52-0.28,0.61c-0.6,0.23-1.22,0.44-1.83,0.62
			C559.56,99.49,559.51,99.5,559.45,99.49z"/>
	</g>
	<path class="st2" d="M546.96,85.2c-2.09-0.89-3.9-2.34-5.25-4.19c-1.78-2.46-2.55-5.35-2.37-8.17c0.23-3.63,2.01-7.14,5.18-9.43
		c5.63-4.08,13.52-2.82,17.6,2.8c1.78,2.46,2.55,5.35,2.37,8.17c-0.23,3.63-2.01,7.14-5.18,9.43v0c-0.68,0.5-1.41,0.92-2.18,1.27
		c-0.01,0.01-0.02,0.01-0.04,0.02c-0.04,0.02-0.08,0.03-0.11,0.05l-0.57-1.3c0.72-0.32,1.42-0.72,2.06-1.19l0,0
		c4.78-3.46,6-10.03,2.92-14.96c-0.14-0.22-0.28-0.44-0.44-0.65c-3.62-4.99-10.62-6.1-15.61-2.49c-2.81,2.04-4.39,5.15-4.59,8.37
		c-0.15,2.5,0.52,5.06,2.1,7.24c1.19,1.64,2.8,2.93,4.65,3.72L546.96,85.2z"/>
</g>
<g>
	<g>
		<g>
			<path class="st3" d="M356.28,290.16l146.63,0v-29.35l-146.63,0C359.41,260.81,359.41,290.16,356.28,290.16z"/>
			<path class="st4" d="M502.9,282.81v-13.43c0-4.73-2.9-8.57-6.47-8.57H356.89c-2.81,0-5.09-2.28-5.09-5.09v0
				c0-0.85,0.69-1.55,1.55-1.55h152.5c3.5,0,9.05,5.5,9.05,12.28v18.76c0,6.4-5.39,11.58-8.69,11.58H354.15
				c-1.3,0-2.35-1.05-2.35-2.35c0-2.37,1.92-4.29,4.29-4.29h141.27C500.42,290.16,502.9,286.87,502.9,282.81z"/>
		</g>
		<path class="st5" d="M498.84,267.35H361.35c-0.29,0-0.52-0.23-0.52-0.52c0-0.29,0.23-0.52,0.52-0.52h137.48
			c0.29,0,0.52,0.23,0.52,0.52C499.36,267.12,499.12,267.35,498.84,267.35z"/>
		<path class="st5" d="M498.84,271.71H361.35c-0.29,0-0.52-0.23-0.52-0.52c0-0.29,0.23-0.52,0.52-0.52h137.48
			c0.29,0,0.52,0.23,0.52,0.52C499.36,271.47,499.12,271.71,498.84,271.71z"/>
		<path class="st5" d="M498.84,276.06H361.35c-0.29,0-0.52-0.23-0.52-0.52s0.23-0.52,0.52-0.52h137.48c0.29,0,0.52,0.23,0.52,0.52
			S499.12,276.06,498.84,276.06z"/>
		<path class="st5" d="M498.84,280.42H361.35c-0.29,0-0.52-0.23-0.52-0.52s0.23-0.52,0.52-0.52h137.48c0.29,0,0.52,0.23,0.52,0.52
			S499.12,280.42,498.84,280.42z"/>
		<path class="st5" d="M498.84,284.77H361.35c-0.29,0-0.52-0.23-0.52-0.52c0-0.29,0.23-0.52,0.52-0.52h137.48
			c0.29,0,0.52,0.23,0.52,0.52C499.36,284.54,499.12,284.77,498.84,284.77z"/>
	</g>
	<g>
		<path class="st3" d="M385.46,254.17H488c8.12,0,14.7-6.58,14.7-14.7v-2.45c0-8.12-6.58-14.7-14.7-14.7H385.46
			c-8.12,0-14.7,6.58-14.7,14.7v2.45C370.76,247.59,377.34,254.17,385.46,254.17z"/>
		<path class="st5" d="M480.04,250.51L480.04,250.51c4.28,0,7.75-3.47,7.75-7.75v-9.03c0-4.28-3.47-7.75-7.75-7.75h0
			c-4.28,0-7.75,3.47-7.75,7.75v9.03C472.29,247.04,475.76,250.51,480.04,250.51z"/>
		<path class="st5" d="M467.1,250.51L467.1,250.51c1.61,0,2.91-1.3,2.91-2.91v-18.71c0-1.61-1.3-2.91-2.91-2.91l0,0
			c-1.61,0-2.91,1.3-2.91,2.91v18.71C464.19,249.21,465.49,250.51,467.1,250.51z"/>
	</g>
</g>
<g>
	<path class="st6" d="M351.55,288.94c15.87-3.97,59.7-22.21,42.37-100.97c-0.49-2.24-3.63-2.38-4.3-0.19
		c-3.17,10.25-9.08,27.9-17.18,36.26c-25.11,25.89-27.43,49.84-26.99,60.34C345.59,287.49,348.53,289.69,351.55,288.94z"/>
	<path class="st7" d="M349.2,287.68c-0.3,0.12-0.65,0.04-0.87-0.21c-0.28-0.32-0.25-0.82,0.07-1.1
		c35.2-30.75,40.65-73.16,40.7-73.58c0.05-0.43,0.44-0.73,0.87-0.68c0.43,0.05,0.73,0.44,0.68,0.87
		c-0.01,0.11-1.36,10.96-7.08,25.49c-5.29,13.41-15.5,32.8-34.14,49.09C349.36,287.6,349.28,287.65,349.2,287.68z"/>
</g>
<g>
	<path class="st0" d="M343.01,270.44l70.12-134.34h-14.37c-2.65,0-4.11-3.08-2.43-5.13l74.74-91.09c3.24-3.95,9.64-1.44,9.34,3.65
		l-5.25,89.08c-0.3,5.1-4.82,8.9-9.9,8.32l-10.02-1.15l-69.58,150.68c-1.81,3.92-5.74,6.43-10.06,6.43H351.5L343.01,270.44z"/>
	<path class="st2" d="M285.04,176.22l49.51,109.97c2.93,6.51,9.41,10.7,16.56,10.7h25.52c3.39,0,6.51-1.84,8.15-4.8l0.91-1.64l0,0
		c-2.74,0-5.25-1.54-6.5-3.98l-65.96-129.24L285.04,176.22z"/>
	<path class="st0" d="M319.88,170.29L319.88,170.29c-4.96-3.92-12.22-2.77-15.72,2.5l-72.79,109.36
		c-5.83,8.76-15.65,14.02-26.18,14.02h-10.24l-8.34-24.01c0,0,67.67-103.76,85.11-119.45c0,0,17.37-15.65,34.49-3.82
		c4.52,3.13,7.96,7.59,10.06,12.67L319.88,170.29z"/>
	<path class="st2" d="M107.45,207.58c0,0,12.18-15.23,35.79-17.6c0,0,11.21,3.82,33.55,43.85c22.34,40.03,37.17,58.29,54.57,48.32
		l-1.44,2.39c-4.75,7.88-13.28,12.7-22.48,12.7h-9.62c-10.6,0-20.54-5.09-26.73-13.7C153.7,259.38,118.13,211.34,107.45,207.58z"/>
	<path class="st2" d="M471.99,71.78c-0.03,0-0.06,0-0.09-0.01c-0.43-0.05-0.73-0.43-0.69-0.86l0.49-4.35
		c0.05-0.43,0.43-0.74,0.86-0.69c0.43,0.05,0.74,0.43,0.69,0.86l-0.49,4.35C472.72,71.49,472.38,71.78,471.99,71.78z"/>
	<path class="st2" d="M409.6,126.69c-0.17,0-0.33-0.05-0.47-0.16c-0.34-0.26-0.4-0.75-0.14-1.09l61.72-80.19
		c0.74-0.96,1.99-1.3,3.12-0.85c1.13,0.46,1.79,1.57,1.65,2.78l-1.09,9.61c-0.05,0.43-0.43,0.74-0.86,0.69
		c-0.43-0.05-0.74-0.43-0.69-0.86l1.09-9.61c0.07-0.62-0.31-1.01-0.69-1.16c-0.38-0.15-0.92-0.14-1.3,0.35l-61.72,80.19
		C410.06,126.58,409.83,126.69,409.6,126.69z"/>
	<path class="st2" d="M269.59,210.75c-0.15,0-0.3-0.04-0.44-0.13c-0.36-0.24-0.45-0.73-0.21-1.08l31.92-47.31
		c1.16-1.72,3.09-2.66,5.17-2.5c2.07,0.16,3.84,1.37,4.73,3.25c0.18,0.39,0.02,0.85-0.37,1.04c-0.39,0.18-0.85,0.02-1.04-0.37
		c-0.65-1.37-1.93-2.25-3.44-2.36c-1.51-0.11-2.91,0.57-3.76,1.82l-31.92,47.31C270.09,210.63,269.84,210.75,269.59,210.75z"/>
	<path class="st2" d="M261.3,223.05c-0.15,0-0.3-0.04-0.44-0.13c-0.36-0.24-0.45-0.72-0.21-1.08l2.05-3.03
		c0.24-0.36,0.72-0.45,1.08-0.21c0.36,0.24,0.45,0.72,0.21,1.08l-2.05,3.03C261.79,222.93,261.55,223.05,261.3,223.05z"/>
</g>
<g>
	<path d="M260.48,236.69c0.15-2.06,0.83-3.51,1.54-4.5c-1.53,0.5-2.11,1.64-2.47,4.69c-0.42,3.63-1.19,13.44-1.39,15.62
		c-0.2,2.17,0.7,3.24,1.39,3.94c0.23,0.23,0.58,0.12,1.01-0.21c-0.86-1.1-1.21-2.22-1.38-3.15
		C258.91,251.63,260.13,241.48,260.48,236.69z"/>
	<path class="st8" d="M270.51,233.84l-2.66-3.45c0,0-2.56,1.22-4.85,1.58c-0.36,0.06-0.69,0.13-0.98,0.23
		c-0.72,0.99-1.39,2.44-1.54,4.5c-0.36,4.8-1.57,14.94-1.3,16.4c0.17,0.93,0.52,2.05,1.38,3.15c0.86-0.67,1.99-2.29,2.84-3.94
		c1.28-2.46,5.6-9.82,6.61-12.57C271.03,236.97,270.51,233.84,270.51,233.84z"/>
</g>
<g>
	<path d="M306.77,202.45c0.49-2.01,1.39-3.32,2.27-4.18c-1.6,0.24-2.35,1.27-3.21,4.22c-1.02,3.51-3.39,13.06-3.95,15.17
		c-0.56,2.11,0.15,3.31,0.71,4.12c0.19,0.27,0.56,0.22,1.03-0.04c-0.67-1.23-0.82-2.39-0.84-3.33
		C302.75,216.93,305.63,207.13,306.77,202.45z"/>
	<path class="st8" d="M317.14,201.3l-2.06-3.85c0,0-2.72,0.78-5.04,0.76c-0.37,0-0.7,0.02-1,0.06c-0.87,0.85-1.77,2.17-2.27,4.18
		c-1.15,4.67-4.02,14.47-3.99,15.96c0.02,0.94,0.17,2.11,0.84,3.33c0.96-0.52,2.34-1.93,3.46-3.41c1.67-2.22,7.15-8.76,8.6-11.31
		C317.13,204.48,317.14,201.3,317.14,201.3z"/>
</g>
<path class="st9" d="M270.51,225.43c-0.47,0.61-3.87,6.81-4.61,8.15c-0.12,0.23-0.21,0.47-0.24,0.72c-0.08,0.7-0.01,2.03,1.45,3
	c0.9,0.59,2.1,0.39,2.75-0.47l6.19-8.15L270.51,225.43z"/>
<path class="st9" d="M318.53,193.02c-0.56,0.53-4.94,6.07-5.89,7.27c-0.16,0.2-0.28,0.43-0.35,0.68c-0.2,0.67-0.35,2,0.94,3.2
	c0.79,0.73,2.01,0.73,2.79-0.01l6.65-7.68L318.53,193.02z"/>
<path d="M326.87,163.81c0-1.72,9.86-1.11,18.51-2.11c4.54-0.52,7.23,4.94,4.05,8.22l-26.19,27.02c-0.55,0.57-1.37,0.78-2.12,0.53
	c-1.03-0.34-2.52-0.95-3.84-1.99c-0.77-0.61-0.91-1.73-0.35-2.54l12.04-17.14l-10.98,3.17l-41.68,51.55
	c-0.69,0.85-1.9,1.05-2.83,0.47c-1.23-0.77-2.86-1.93-3.94-3.21c-0.57-0.68-0.61-1.65-0.12-2.39c4.6-7.02,29.58-45.3,30.77-49.27
	c1.31-4.38,6.1-12.4,10.58-12.68C315.26,163.15,326.87,163.81,326.87,163.81z"/>
<linearGradient id="SVGID_1_" gradientUnits="userSpaceOnUse" x1="334.1254" y1="174.3764" x2="323.1554" y2="183.859">
	<stop  offset="0" style="stop-color:#09005D"/>
	<stop  offset="1" style="stop-color:#1A0F91"/>
</linearGradient>
<path class="st10" d="M329.63,175.58c-0.12,0-0.24-0.08-0.27-0.21c-0.04-0.15,0.05-0.3,0.2-0.34l9.88-2.62
	c0.15-0.04,0.3,0.05,0.34,0.2c0.04,0.15-0.05,0.3-0.2,0.34l-9.88,2.62C329.68,175.58,329.65,175.58,329.63,175.58z"/>
<linearGradient id="SVGID_2_" gradientUnits="userSpaceOnUse" x1="321.354" y1="174.9946" x2="315.4661" y2="183.4236">
	<stop  offset="0" style="stop-color:#09005D"/>
	<stop  offset="1" style="stop-color:#1A0F91"/>
</linearGradient>
<path class="st11" d="M318.97,178.26c-0.07,0-0.14-0.02-0.19-0.07c-0.11-0.1-0.12-0.28-0.02-0.39l2.47-2.68
	c0.1-0.11,0.28-0.12,0.39-0.02c0.11,0.1,0.12,0.28,0.02,0.39l-2.47,2.68C319.12,178.23,319.05,178.26,318.97,178.26z"/>
<path class="st1" d="M279.48,180.96l-5.26,13.02c-0.92,2.27,0.13,4.86,2.38,5.87l30.66,13.77c1.5,0.67,3.26,0.15,4.14-1.24
	c1.91-3.03,5.09-8.56,6.81-14.31L279.48,180.96z"/>
<linearGradient id="SVGID_3_" gradientUnits="userSpaceOnUse" x1="274.9383" y1="197.0607" x2="316.6638" y2="197.0607">
	<stop  offset="0" style="stop-color:#FF928E"/>
	<stop  offset="1" style="stop-color:#FEB3B1"/>
</linearGradient>
<path class="st12" d="M308.15,212.94c-0.47,0-0.94-0.1-1.37-0.29l-0.06-0.03c-0.1-0.04-0.14-0.16-0.1-0.26
	c0.04-0.1,0.16-0.14,0.26-0.1l0.06,0.03c0.43,0.19,0.89,0.28,1.36,0.26c0.11-0.01,0.2,0.08,0.2,0.18c0.01,0.11-0.08,0.2-0.18,0.2
	C308.26,212.93,308.2,212.94,308.15,212.94z M303.48,211.14c-0.03,0-0.05-0.01-0.08-0.02l-1.42-0.64c-0.1-0.04-0.14-0.16-0.1-0.26
	c0.04-0.1,0.16-0.14,0.26-0.1l1.42,0.64c0.1,0.04,0.14,0.16,0.1,0.26C303.62,211.1,303.55,211.14,303.48,211.14z M311.14,210.93
	c-0.04,0-0.07-0.01-0.1-0.03c-0.09-0.06-0.12-0.18-0.06-0.27c0.25-0.41,0.52-0.85,0.8-1.33c0.05-0.09,0.17-0.12,0.27-0.07
	c0.09,0.05,0.12,0.17,0.07,0.27c-0.28,0.48-0.55,0.93-0.81,1.34C311.27,210.9,311.2,210.93,311.14,210.93z M298.74,209.01
	c-0.03,0-0.05-0.01-0.08-0.02l-1.42-0.64c-0.1-0.04-0.14-0.16-0.1-0.26c0.04-0.1,0.16-0.14,0.26-0.1l1.42,0.64
	c0.1,0.04,0.14,0.16,0.1,0.26C298.88,208.97,298.81,209.01,298.74,209.01z M294,206.89c-0.03,0-0.05-0.01-0.08-0.02l-1.42-0.64
	c-0.1-0.04-0.14-0.16-0.1-0.26c0.04-0.1,0.16-0.14,0.26-0.1l1.42,0.64c0.1,0.04,0.14,0.16,0.1,0.26
	C294.14,206.84,294.07,206.89,294,206.89z M313.71,206.42c-0.03,0-0.06-0.01-0.09-0.02c-0.1-0.05-0.13-0.17-0.08-0.26
	c0.23-0.45,0.47-0.91,0.7-1.39c0.05-0.1,0.16-0.14,0.26-0.09c0.1,0.05,0.14,0.16,0.09,0.26c-0.23,0.48-0.47,0.94-0.7,1.4
	C313.85,206.38,313.78,206.42,313.71,206.42z M289.26,204.76c-0.03,0-0.05-0.01-0.08-0.02l-1.42-0.64c-0.1-0.04-0.14-0.16-0.1-0.26
	c0.04-0.1,0.16-0.14,0.26-0.1l1.42,0.64c0.1,0.04,0.14,0.16,0.1,0.26C289.41,204.71,289.33,204.76,289.26,204.76z M284.52,202.63
	c-0.03,0-0.05-0.01-0.08-0.02l-1.42-0.64c-0.1-0.04-0.14-0.16-0.1-0.26c0.04-0.1,0.16-0.14,0.26-0.1l1.42,0.64
	c0.1,0.04,0.14,0.16,0.1,0.26C284.67,202.59,284.6,202.63,284.52,202.63z M315.9,201.71c-0.02,0-0.05,0-0.07-0.01
	c-0.1-0.04-0.15-0.15-0.11-0.25c0.2-0.48,0.38-0.96,0.56-1.45c0.04-0.1,0.15-0.15,0.25-0.11c0.1,0.04,0.15,0.15,0.11,0.25
	c-0.18,0.49-0.37,0.98-0.57,1.46C316.05,201.67,315.98,201.71,315.9,201.71z M279.78,200.5c-0.03,0-0.05-0.01-0.08-0.02l-1.42-0.64
	c-0.1-0.04-0.14-0.16-0.1-0.26c0.04-0.1,0.16-0.14,0.26-0.1l1.42,0.64c0.1,0.04,0.14,0.16,0.1,0.26
	C279.93,200.46,279.86,200.5,279.78,200.5z M275.61,197.62c-0.07,0-0.14-0.04-0.17-0.1c-0.26-0.48-0.42-1-0.49-1.54
	c-0.01-0.11,0.06-0.2,0.17-0.22c0.11-0.01,0.2,0.06,0.22,0.17c0.06,0.49,0.22,0.97,0.45,1.41c0.05,0.09,0.01,0.21-0.08,0.26
	C275.67,197.61,275.64,197.62,275.61,197.62z M316.26,197.41c-0.03,0-0.05-0.01-0.08-0.02l-1.43-0.63c-0.1-0.04-0.14-0.16-0.1-0.26
	c0.04-0.1,0.16-0.14,0.26-0.1l1.43,0.63c0.1,0.04,0.14,0.16,0.1,0.26C316.4,197.37,316.33,197.41,316.26,197.41z M311.51,195.31
	c-0.03,0-0.05-0.01-0.08-0.02l-1.43-0.63c-0.1-0.04-0.14-0.16-0.1-0.26c0.04-0.1,0.16-0.14,0.26-0.1l1.43,0.63
	c0.1,0.04,0.14,0.16,0.1,0.26C311.65,195.27,311.58,195.31,311.51,195.31z M306.76,193.21c-0.03,0-0.05-0.01-0.08-0.02l-1.43-0.63
	c-0.1-0.04-0.14-0.16-0.1-0.26c0.04-0.1,0.16-0.14,0.26-0.1l1.43,0.63c0.1,0.04,0.14,0.16,0.1,0.26
	C306.9,193.17,306.83,193.21,306.76,193.21z M275.94,192.65c-0.02,0-0.05,0-0.07-0.01c-0.1-0.04-0.15-0.15-0.11-0.25l0.58-1.44
	c0.04-0.1,0.15-0.15,0.25-0.11c0.1,0.04,0.15,0.15,0.11,0.25l-0.58,1.44C276.09,192.61,276.02,192.65,275.94,192.65z M302,191.11
	c-0.03,0-0.05-0.01-0.08-0.02l-1.43-0.63c-0.1-0.04-0.14-0.16-0.1-0.26c0.04-0.1,0.16-0.14,0.26-0.1l1.43,0.63
	c0.1,0.04,0.14,0.16,0.1,0.26C302.15,191.07,302.08,191.11,302,191.11z M297.25,189.01c-0.03,0-0.05-0.01-0.08-0.02l-1.43-0.63
	c-0.1-0.04-0.14-0.16-0.1-0.26c0.04-0.1,0.16-0.14,0.26-0.1l1.43,0.63c0.1,0.04,0.14,0.16,0.1,0.26
	C297.4,188.97,297.33,189.01,297.25,189.01z M277.89,187.84c-0.02,0-0.05,0-0.07-0.01c-0.1-0.04-0.15-0.15-0.11-0.25l0.58-1.45
	c0.04-0.1,0.15-0.15,0.25-0.11c0.1,0.04,0.15,0.15,0.11,0.25l-0.58,1.45C278.04,187.79,277.97,187.84,277.89,187.84z M292.5,186.91
	c-0.03,0-0.05-0.01-0.08-0.02l-1.43-0.63c-0.1-0.04-0.14-0.16-0.1-0.26c0.04-0.1,0.16-0.14,0.26-0.1l1.43,0.63
	c0.1,0.04,0.14,0.16,0.1,0.26C292.65,186.87,292.58,186.91,292.5,186.91z M287.75,184.81c-0.03,0-0.05-0.01-0.08-0.02l-1.43-0.63
	c-0.1-0.04-0.14-0.16-0.1-0.26c0.04-0.1,0.16-0.14,0.26-0.1l1.43,0.63c0.1,0.04,0.14,0.16,0.1,0.26
	C287.89,184.77,287.82,184.81,287.75,184.81z M279.84,183.02c-0.02,0-0.05,0-0.07-0.01c-0.1-0.04-0.15-0.15-0.11-0.25l0.58-1.45
	c0.04-0.1,0.15-0.15,0.25-0.11c0.1,0.04,0.15,0.15,0.11,0.25l-0.58,1.45C279.99,182.97,279.91,183.02,279.84,183.02z M283,182.71
	c-0.03,0-0.05-0.01-0.08-0.02l-1.43-0.63c-0.1-0.04-0.14-0.16-0.1-0.26c0.04-0.1,0.16-0.14,0.26-0.1l1.43,0.63
	c0.1,0.04,0.14,0.16,0.1,0.26C283.14,182.67,283.07,182.71,283,182.71z"/>
<path class="st13" d="M292.61,175.63l0.53-0.95c0.21-0.19,0.5-0.26,0.77-0.19c1.03,0.27,3.52,1.05,4.29,2.41l-0.34,1.23
	L292.61,175.63z"/>
<path class="st13" d="M296.02,175.99c-0.24-0.04-0.47-0.14-0.66-0.29c-0.24-0.18-0.32-0.51-0.2-0.78l1.37-3.1l1.58,0.7l-1.37,3.1
	C296.61,175.89,296.32,176.05,296.02,175.99z"/>
<path class="st13" d="M307.89,182.38l0.53-0.95c0.21-0.19,0.5-0.26,0.77-0.19c1.03,0.27,3.52,1.05,4.29,2.41l-0.34,1.23
	L307.89,182.38z"/>
<path class="st13" d="M311.3,182.75c-0.24-0.04-0.47-0.14-0.66-0.29c-0.24-0.18-0.32-0.51-0.2-0.78l1.51-3.43l1.58,0.7l-1.51,3.42
	C311.9,182.64,311.6,182.8,311.3,182.75z"/>
<path class="st1" d="M296.03,172.51l17.22,6.94c0.39,0.16,0.84,0.02,1.08-0.33c0.33-0.49,0.76-1.25,1-2.13
	c0.28-1-0.22-2.05-1.17-2.5c-3.13-1.47-11.19-5.03-16.41-5.24c-0.55-0.02-1.08,0.23-1.41,0.66c-0.32,0.42-0.67,1.01-0.8,1.71
	C295.47,172,295.68,172.37,296.03,172.51z"/>
<path class="st1" d="M284.9,171.76c5.51,2.35,29.34,12.58,35.86,16.46c0.56,0.33,0.85,0.98,0.73,1.62
	c-0.41,2.02-1.48,6.66-3.45,10.85c-0.27,0.57-0.91,0.87-1.52,0.73l-17.04-3.97l-5.59-2.47l-15.28-10.74
	c-0.54-0.38-0.75-1.07-0.52-1.68c0.83-2.18,2.87-7.26,4.87-10.22C283.39,171.7,284.2,171.46,284.9,171.76z"/>
<linearGradient id="SVGID_4_" gradientUnits="userSpaceOnUse" x1="280.1388" y1="186.6765" x2="320.2303" y2="186.6765">
	<stop  offset="0" style="stop-color:#FF928E"/>
	<stop  offset="1" style="stop-color:#FEB3B1"/>
</linearGradient>
<path class="st14" d="M316.91,199.81c-0.03,0-0.05-0.01-0.08-0.02c-0.1-0.04-0.14-0.16-0.1-0.26c0.2-0.45,0.41-0.94,0.6-1.43
	c0.04-0.1,0.15-0.15,0.25-0.11c0.1,0.04,0.15,0.15,0.11,0.25c-0.2,0.5-0.4,0.98-0.61,1.44
	C317.05,199.76,316.98,199.81,316.91,199.81z M313.57,199.4c-0.01,0-0.03,0-0.04-0.01l-1.52-0.35c-0.1-0.02-0.17-0.13-0.15-0.23
	c0.02-0.11,0.13-0.17,0.23-0.15l1.52,0.35c0.1,0.02,0.17,0.13,0.15,0.23C313.74,199.34,313.66,199.4,313.57,199.4z M308.51,198.22
	c-0.01,0-0.03,0-0.04-0.01l-1.52-0.35c-0.11-0.02-0.17-0.13-0.15-0.23c0.02-0.1,0.13-0.17,0.23-0.15l1.52,0.35
	c0.1,0.02,0.17,0.13,0.15,0.23C308.68,198.16,308.6,198.22,308.51,198.22z M303.46,197.04c-0.01,0-0.03,0-0.04-0.01l-1.52-0.35
	c-0.1-0.02-0.17-0.13-0.15-0.23c0.02-0.11,0.13-0.17,0.23-0.15l1.52,0.35c0.1,0.02,0.17,0.13,0.15,0.23
	C303.62,196.98,303.54,197.04,303.46,197.04z M298.49,195.58c-0.03,0-0.05-0.01-0.08-0.02l-1.43-0.63c-0.1-0.04-0.14-0.16-0.1-0.26
	c0.04-0.1,0.16-0.14,0.26-0.1l1.43,0.63c0.1,0.04,0.14,0.16,0.1,0.26C298.64,195.54,298.56,195.58,298.49,195.58z M318.71,194.94
	c-0.02,0-0.04,0-0.06-0.01c-0.1-0.03-0.16-0.14-0.13-0.24c0.16-0.52,0.3-1.02,0.43-1.49c0.03-0.1,0.14-0.17,0.24-0.14
	c0.1,0.03,0.16,0.14,0.14,0.24c-0.13,0.48-0.28,0.98-0.44,1.5C318.88,194.88,318.8,194.94,318.71,194.94z M294.63,193.87
	c-0.04,0-0.08-0.01-0.11-0.04l-1.28-0.9c-0.09-0.06-0.11-0.18-0.05-0.27c0.06-0.09,0.18-0.11,0.27-0.05l1.28,0.9
	c0.09,0.06,0.11,0.18,0.05,0.27C294.75,193.84,294.69,193.87,294.63,193.87z M290.37,190.89c-0.04,0-0.08-0.01-0.11-0.04l-1.28-0.9
	c-0.09-0.06-0.11-0.18-0.05-0.27c0.06-0.09,0.18-0.11,0.27-0.05l1.28,0.9c0.09,0.06,0.11,0.18,0.05,0.27
	C290.5,190.86,290.44,190.89,290.37,190.89z M320,189.9c-0.01,0-0.03,0-0.04,0c-0.11-0.02-0.17-0.12-0.15-0.23l0.01-0.06
	c-0.31-0.18-0.67-0.38-1.07-0.6c-0.09-0.05-0.13-0.17-0.08-0.26c0.05-0.09,0.17-0.13,0.26-0.08c0.44,0.24,0.83,0.46,1.16,0.66
	c0.08,0.05,0.13,0.13,0.13,0.22l-0.04,0.2C320.17,189.84,320.09,189.9,320,189.9z M319.9,189.66L319.9,189.66L319.9,189.66z
	 M286.12,187.9c-0.04,0-0.08-0.01-0.11-0.04l-1.28-0.9c-0.09-0.06-0.11-0.18-0.05-0.27c0.06-0.09,0.18-0.11,0.27-0.05l1.28,0.9
	c0.09,0.06,0.11,0.18,0.05,0.27C286.25,187.87,286.18,187.9,286.12,187.9z M315.62,187.37c-0.03,0-0.06-0.01-0.09-0.02
	c-0.44-0.22-0.91-0.45-1.4-0.69c-0.1-0.05-0.14-0.16-0.09-0.26c0.05-0.1,0.16-0.14,0.26-0.09c0.49,0.24,0.96,0.47,1.4,0.69
	c0.1,0.05,0.14,0.16,0.09,0.26C315.76,187.33,315.69,187.37,315.62,187.37z M310.93,185.12c-0.03,0-0.06-0.01-0.08-0.02
	c-0.46-0.21-0.93-0.43-1.41-0.66c-0.1-0.05-0.14-0.16-0.09-0.26c0.05-0.1,0.16-0.14,0.26-0.09c0.49,0.23,0.96,0.44,1.41,0.66
	c0.1,0.05,0.14,0.16,0.09,0.26C311.08,185.07,311.01,185.12,310.93,185.12z M281.87,184.91c-0.04,0-0.08-0.01-0.11-0.04l-1.28-0.9
	c-0.09-0.06-0.11-0.18-0.05-0.27c0.06-0.09,0.18-0.11,0.27-0.05l1.28,0.9c0.09,0.06,0.11,0.18,0.05,0.27
	C281.99,184.89,281.93,184.91,281.87,184.91z M306.22,182.94c-0.03,0-0.05-0.01-0.08-0.02l-1.42-0.64c-0.1-0.04-0.14-0.16-0.1-0.26
	c0.04-0.1,0.16-0.14,0.26-0.1l1.42,0.64c0.1,0.04,0.14,0.16,0.1,0.26C306.36,182.89,306.29,182.94,306.22,182.94z M280.33,181.12
	c-0.02,0-0.05,0-0.07-0.01c-0.1-0.04-0.15-0.15-0.11-0.25c0.19-0.45,0.39-0.94,0.61-1.44c0.04-0.1,0.16-0.14,0.26-0.1
	c0.1,0.04,0.14,0.16,0.1,0.26c-0.22,0.5-0.42,0.98-0.6,1.43C280.48,181.07,280.41,181.12,280.33,181.12z M301.48,180.8
	c-0.03,0-0.05-0.01-0.08-0.02l-1.42-0.63c-0.1-0.04-0.14-0.16-0.1-0.26c0.04-0.1,0.16-0.14,0.26-0.1l1.42,0.63
	c0.1,0.04,0.14,0.16,0.1,0.26C301.63,180.76,301.56,180.8,301.48,180.8z M296.73,178.7c-0.03,0-0.05-0.01-0.08-0.02l-1.43-0.63
	c-0.1-0.04-0.14-0.16-0.1-0.26c0.04-0.1,0.16-0.14,0.26-0.1l1.43,0.63c0.1,0.04,0.14,0.16,0.1,0.26
	C296.88,178.65,296.81,178.7,296.73,178.7z M291.97,176.61c-0.03,0-0.05-0.01-0.08-0.02l-1.43-0.62c-0.1-0.04-0.14-0.16-0.1-0.26
	c0.04-0.1,0.16-0.14,0.26-0.1l1.43,0.62c0.1,0.04,0.14,0.16,0.1,0.26C292.12,176.57,292.05,176.61,291.97,176.61z M282.47,176.38
	c-0.03,0-0.06-0.01-0.09-0.02c-0.1-0.05-0.13-0.17-0.09-0.26c0.24-0.48,0.48-0.94,0.73-1.39c0.05-0.09,0.17-0.13,0.26-0.08
	c0.09,0.05,0.13,0.17,0.08,0.26c-0.24,0.44-0.49,0.9-0.72,1.37C282.61,176.34,282.54,176.38,282.47,176.38z M287.2,174.55
	c-0.03,0-0.05-0.01-0.08-0.02l-1.43-0.62c-0.1-0.04-0.14-0.16-0.1-0.26c0.04-0.1,0.16-0.15,0.26-0.1l1.43,0.62
	c0.1,0.04,0.14,0.16,0.1,0.26C287.35,174.51,287.28,174.55,287.2,174.55z"/>
<path class="st0" d="M297.92,199.56l-4.89-2.16c-0.64-0.28-0.97-1-0.77-1.67l1.52-4.96c0.24-0.79,1.12-1.19,1.88-0.85l5.88,2.6
	c0.74,0.33,1.05,1.22,0.66,1.93l-2.5,4.52C299.34,199.59,298.57,199.85,297.92,199.56z"/>
<path class="st2" d="M297.7,198.42l-3.72-1.65c-0.49-0.22-0.74-0.76-0.58-1.27l1.15-3.77c0.18-0.6,0.85-0.91,1.43-0.65l4.47,1.98
	c0.57,0.25,0.8,0.93,0.5,1.47l-1.9,3.44C298.78,198.45,298.2,198.64,297.7,198.42z"/>
<path class="st9" d="M381.55,84.79l21.11-16.48c0.13-0.1,0.23-0.24,0.27-0.4l2.23-7.29c0.06-0.2,0.19-0.36,0.37-0.46l1.45-0.82
	c0.14-0.08,0.31-0.12,0.48-0.1l4.51,0.44c0.36,0.04,0.66,0.31,0.72,0.67l0.34,2.11c0.03,0.21-0.01,0.42-0.13,0.59l-0.6,0.87
	c-0.17,0.25-0.19,0.58-0.04,0.85l0,0c0.16,0.3,0.13,0.67-0.1,0.92c-0.75,0.83-2.62,2.67-5.63,3.96c-0.1,0.04-0.2,0.11-0.27,0.19
	l-18.98,20.63c-0.31,0.33-0.83,0.35-1.15,0.03L381.49,86C381.14,85.66,381.17,85.09,381.55,84.79z"/>
<path class="st4" d="M350.55,109.98L380.6,84.8c0.59-0.49,1.45-0.49,2.03,0.03c1.27,1.13,3.38,3.15,4.36,4.97
	c0.37,0.68,0.23,1.52-0.32,2.05l-31.08,29.76L350.55,109.98z"/>
<path class="st3" d="M355.58,109.49c0,0,5.22,5.33,4.32,14.53c-0.26,2.71-1.32,5.27-2.99,7.42l-26.35,34
	c-0.61,0.78-1.5,1.3-2.49,1.42c-3.88,0.48-14.18,1.4-21.48-1.01c-0.58-0.19-0.83-0.87-0.53-1.41l23.96-42.15l14.51-16.88
	C344.54,105.4,351.45,103.02,355.58,109.49z"/>
<path class="st4" d="M322.66,153.95c-0.11,0-0.22-0.03-0.31-0.1c-0.23-0.17-0.28-0.5-0.11-0.73c0.23-0.31,22.94-30.89,24.47-34.62
	c1.41-3.41-1.9-6.03-2.04-6.14c-0.23-0.18-0.27-0.5-0.09-0.73c0.18-0.23,0.5-0.27,0.73-0.09c0.04,0.03,4.07,3.21,2.36,7.36
	c-1.58,3.84-23.66,33.58-24.6,34.84C322.98,153.88,322.82,153.95,322.66,153.95z"/>
<path class="st9" d="M321.87,154.26l-11.09,13.77c0,0-1.63,8.9-3.04,10.11c-1.42,1.21-5.44,2.01-6.5,0
	c-0.93-1.77-1.31-3.65-1.39-4.07l3.6,1.53c0,0-0.08-0.54-0.18-1.21c0-0.01,0-0.02,0-0.03c-0.02-0.08-0.04-0.18-0.06-0.29
	c-0.11-0.57-0.25-1.42-0.29-2.33c-0.08-1.68,0.14-3.6,1.36-4.54c2.43-1.89,3.05-2.19,3.05-2.19l6.42-13.89
	C313.75,151.1,318.19,153.88,321.87,154.26z"/>
<path class="st1" d="M272.74,149.73c-0.61,0.12-0.94,0.79-0.67,1.35c1.28,2.58,5.04,8.26,12.8,6.47
	c9.93-2.29,40.22-25.19,47.08-31.45c6.86-6.26,15.94-14.05,20.38-12.96c4.44,1.09,1.76-1.49-1.31-3.55
	c-2.39-1.6-3.61-3.79-2.97-4.42c0.05-0.05,0.07-0.13,0.05-0.21c-0.02-0.07-0.09-0.12-0.16-0.13c-2.04-0.27-6.65-0.31-12.81,3.09
	c-8.25,4.55-48.53,20.09-62.02,15.59c-0.5-0.17-1.03,0.15-1.12,0.67c-0.54,3.07-1.35,12.69,6.53,23.51
	C278.52,147.68,275.45,149.22,272.74,149.73z"/>
<path class="st13" d="M279.97,147.4l-0.25-0.46c0.1-0.06,10.22-5.57,12.38-7.35l0.33,0.4C290.23,141.81,280.38,147.18,279.97,147.4z
	"/>
<g>
	<path class="st9" d="M356.85,93.63l-7.88,11.12c-0.51,0.72-0.44,1.7,0.16,2.35c1.06,1.13,2.85,2.73,4.78,3.09
		c0.6,0.11,1.21-0.14,1.54-0.65l4.19-6.43C359.65,103.12,360.45,93.02,356.85,93.63z"/>
	<path class="st9" d="M359.07,84.34c0.16,0.15,6.72,13.03,6.72,13.03l-7.44,3.59l-8.03-11.29
		C350.33,89.67,356.41,81.83,359.07,84.34z"/>
	<path class="st8" d="M353.61,89.99c-0.13,0.34-0.1,0.73,0.09,1.04l3.71,6.18c0.06,0.09,0.12,0.18,0.2,0.25
		c0.44,0.41,1.95,1.61,3.12-0.02c1-1.39,1.93-2.65,2.93-3.17c0.58-0.3,1.3-0.06,1.6,0.53c0.61,1.21,1.79,3.68,2.54,6.02
		c0.19,0.59-0.12,1.22-0.69,1.45c-1.51,0.61-4.48,1.71-7.12,2.08c-0.43,0.06-0.86-0.12-1.12-0.48c-1.14-1.56-4.34-5.91-5.43-6.99
		c-1.02-1.01-2.89-0.63-3.73-0.39c-0.32,0.09-0.66,0.05-0.95-0.12c-0.86-0.52-2.35-1.8-0.98-3.98c0.34-0.54,0.17-1.26-0.37-1.61
		c-0.96-0.63-1.99-1.81-1.01-3.72c1-1.94,2.79-2.11,4.01-1.96c0.54,0.07,1.09-0.22,1.29-0.72c0.09-0.22,0.27-0.41,0.61-0.48
		c0.64-0.13,1.06-0.71,0.93-1.35c-0.21-1.1-0.05-2.52,1.7-3.48c3.21-1.76,6.02,1.11,6.73,3.54c0.71,2.43-2.87,4.14-5.13,4.43
		C354.89,87.23,353.98,89.04,353.61,89.99z"/>
	<path class="st9" d="M354.83,99.15c0,0-1.43-4.17-3.25-4.02c-1.83,0.15-3.26,1.97-1,4.02C353.4,101.69,354.83,99.15,354.83,99.15z"
		/>
</g>
<linearGradient id="SVGID_5_" gradientUnits="userSpaceOnUse" x1="407.7686" y1="64.6395" x2="411.8643" y2="64.6395">
	<stop  offset="0" style="stop-color:#FF928E"/>
	<stop  offset="1" style="stop-color:#FEB3B1"/>
</linearGradient>
<path class="st15" d="M407.95,65.59c-0.03,0-0.06-0.01-0.09-0.02c-0.09-0.05-0.12-0.16-0.07-0.25c0.04-0.08,1.11-1.99,2.45-1.58
	c1.05,0.32,1.34,0.2,1.34,0.2c0.08-0.06,0.19-0.03,0.25,0.06c0.06,0.09,0.03,0.21-0.06,0.26c-0.08,0.06-0.45,0.21-1.65-0.16
	c-1.05-0.33-2,1.38-2.01,1.4C408.08,65.56,408.02,65.59,407.95,65.59z"/>
<g>
	<g>
		<path class="st4" d="M94.13,244.87c-1.07,1.58-5.3,37.3-5.97,50.49c-0.04,0.89,0.67,1.64,1.56,1.64l0,0
			c0.77,0,1.43-0.56,1.54-1.32l7.75-49.67L94.13,244.87z"/>
		<path class="st4" d="M128.2,244.87c1.07,1.58,5.3,37.3,5.97,50.49c0.04,0.89-0.67,1.64-1.56,1.64l0,0c-0.77,0-1.43-0.56-1.54-1.32
			l-7.75-49.67L128.2,244.87z"/>
		<path class="st4" d="M87.72,242.09l0,0.39c-0.03,2.8,2.39,5.1,5.41,5.15l35.82,0.61c2.98,0.05,5.46-2.1,5.61-4.86l0.02-0.36
			c0.15-2.88-2.29-5.3-5.4-5.36l-35.84-0.64C90.27,236.96,87.74,239.24,87.72,242.09z"/>
	</g>
	<g>
		<g>
			<path d="M157.41,296.07c-6.37,0-9.19-0.55-10.45-1.04c0.24,1.05,1.18,1.87,2.35,1.87h22.53c0.76,0,1.24-0.73,1.06-1.38
				C170.34,295.72,164.88,296.07,157.41,296.07z"/>
			<path class="st8" d="M172.91,295.51c-0.04-0.13-0.09-0.26-0.18-0.38c-1.72-2.19-5.16-5.63-9.85-5.57
				c-6.87,0.1-9.27,0.84-14.6,0.04l-1.26,4.17c-0.13,0.43-0.13,0.85-0.04,1.25c1.26,0.5,4.08,1.04,10.45,1.04
				C164.88,296.07,170.34,295.72,172.91,295.51z"/>
		</g>
		<path class="st9" d="M149.81,284.1l-1.55,6.26c0,0,3.42,1.56,6.44,0.31l0.59-5.56L149.81,284.1z"/>
		<g>
			<path d="M196.51,290.76c-4.96,3.99-7.5,5.33-8.79,5.73c0.84,0.66,2.08,0.72,3-0.02l17.56-14.11c0.59-0.48,0.51-1.34-0.04-1.74
				C206.36,282.39,202.33,286.08,196.51,290.76z"/>
			<path class="st8" d="M208.24,280.62c-0.11-0.08-0.23-0.15-0.38-0.18c-2.7-0.62-7.54-1.14-11.15,1.85
				c-5.3,4.38-6.7,6.46-11.36,9.18l1.62,4.03c0.17,0.41,0.43,0.74,0.75,0.99c1.29-0.4,3.83-1.74,8.79-5.73
				C202.33,286.08,206.36,282.39,208.24,280.62z"/>
		</g>
		<path d="M116.74,223.2c0,0,38.13,3.11,45.95,6.8c7.82,3.68-6.38,55.29-6.38,55.29s-2.13,1.02-6.87-0.45c0,0,4.86-38.08,1.24-46.34
			l-41.28-6.75L116.74,223.2z"/>
		<path class="st9" d="M181.56,284.22c0.35,0.32,3.79,7.25,3.79,7.25s3.82-0.83,4.6-3.25l-3.44-6.25L181.56,284.22z"/>
		<path class="st8" d="M93.78,222.88c0,0-1.24,2.99-1.19,6.96c0.07,5.49,4.49,9.95,9.98,10.23l45.07,2.06c0.95,0.04,1.76,0.7,2,1.62
			c1.06,4.1,6.24,16.68,31.54,41.78c0.67,0.67,1.72,0.78,2.52,0.28l3.6-2.28c0.38-0.24,0.5-0.73,0.27-1.12l-26.24-44.82
			c-1.38-2.27-3.59-3.92-6.17-4.58l-38.42-9.82L93.78,222.88z"/>
		<path class="st9" d="M146.06,153.88c0,0-12.7,7.53-17.62,11.67l10.18,5.68c0,0,5.5-6.35,10.74-9L146.06,153.88z"/>
		<path class="st1" d="M92.96,223.2c0,0,12.17,2.97,23.78,0c0,0,16.25-21.85,22.54-27.79c0,0,10.03,15.83,32.35,18.07l1.24-2.78
			c0,0-17.77-8.19-23.24-20.78c-5.47-12.59-7.67-17.96-12.65-21.24c-3.1-2.05-4.96-3.44-5.92-4.21c-0.53-0.42-1.25-0.46-1.82-0.12
			C123.97,167.57,99.11,184.59,92.96,223.2z"/>
		<path class="st13" d="M138.62,194.84c-0.16,0-0.31-0.07-0.41-0.2c-3.85-5.02-6.06-10.73-6.09-10.79c-0.1-0.27,0.03-0.57,0.3-0.67
			c0.27-0.1,0.57,0.03,0.67,0.3c0.02,0.06,2.18,5.63,5.94,10.53c0.17,0.23,0.13,0.55-0.1,0.73
			C138.84,194.8,138.73,194.84,138.62,194.84z"/>
		<path class="st9" d="M170.29,209.24l2.51-0.67l7.63-1.77c0.92-0.21,1.88-0.05,2.68,0.45l6.56,4.13l-18.12-0.03L170.29,209.24z"/>
		<g>
			<path class="st9" d="M158.46,148.36c0.04,0.25-3.25,16.36-3.25,16.36l-9.16-2.07l0.85-15.73
				C146.9,146.91,157.86,144.24,158.46,148.36z"/>
			<path class="st8" d="M148.96,150.41l-1.09,8.25c-0.01,0.11-0.01,0.21,0,0.32c0.09,0.65,0.57,2.85,2.79,2.22
				c2.02-0.57,3.86-1.06,5.14-0.67c0.57,0.18,0.92,0.76,0.8,1.34c-0.3,1.46-1.03,4.75-2.11,7.51c-0.22,0.56-0.83,0.85-1.41,0.69
				c-1.74-0.51-5.37-1.68-8.07-3.3c-0.37-0.22-0.58-0.62-0.57-1.05c0.09-2.08,0.33-8.41,0.13-10.18c-0.19-1.67-2.24-2.66-3.12-3.02
				c-0.29-0.12-0.52-0.35-0.64-0.64c-0.41-1.03-0.98-3.41,2.03-4.39c0.63-0.2,0.96-0.88,0.74-1.5c-0.44-1.24-0.63-3.13,1.69-4.17
				c2.36-1.06,4.13,0.2,5.08,1.22c0.39,0.41,1,0.48,1.48,0.17c0.27-0.17,0.62-0.23,1.05,0.04c0.57,0.36,1.33,0.11,1.62-0.49
				c0.57-1.16,1.72-2.41,4.03-2.01c4.1,0.7,4.57,5.25,3.49,7.92c-1.08,2.66-5.49,1.65-7.7,0.31c-1.68-1.02-3.86,0.05-4.81,0.62
				C149.2,149.76,149,150.07,148.96,150.41z"/>
			<path class="st9" d="M144.2,158.53c0,0,1.69-4.72-0.05-5.88c-1.73-1.16-4.3-0.56-3.74,2.87
				C141.12,159.77,144.2,158.53,144.2,158.53z"/>
		</g>
	</g>
	<g>
		<g>
			<path class="st13" d="M163.29,214.94c0.03,0,0.06,0,0.09,0l38.7-0.04c0.96,0,1.73-0.78,1.73-1.73c0-0.96-0.78-1.74-1.73-1.73
				l-38.7,0.04c-0.96,0-1.73,0.78-1.73,1.73C161.65,214.14,162.38,214.89,163.29,214.94z"/>
		</g>
		<g>
			<path class="st13" d="M217.07,177.04c-0.01,0.03-0.03,0.05-0.04,0.08l-16.28,35.11c-0.4,0.87-0.03,1.9,0.84,2.3
				c0.87,0.4,1.91,0.03,2.3-0.84l16.28-35.11c0.4-0.87,0.03-1.9-0.84-2.3C218.49,175.88,217.49,176.23,217.07,177.04z"/>
		</g>
	</g>
	<g>
		<path class="st3" d="M180.52,216.88c-0.17,0.7-16.32,61.26-20.41,76.62c-0.47,1.77,0.85,3.51,2.66,3.51l0,0
			c1.26,0,2.36-0.87,2.67-2.11l17.93-72.68L180.52,216.88z"/>
		<path class="st3" d="M189.36,216.88c0.17,0.7,16.32,61.26,20.41,76.62c0.47,1.77-0.85,3.51-2.66,3.51l0,0
			c-1.26,0-2.36-0.87-2.67-2.11l-17.93-72.68L189.36,216.88z"/>
		<path class="st3" d="M190.04,214.9h-10.06v8.08c0,1.16,0.93,2.1,2.08,2.1h1.38v18.14c0,0.88,0.7,1.59,1.57,1.59l0,0
			c0.87,0,1.57-0.71,1.57-1.59v-18.14h0.7c1.52,0,2.76-1.25,2.76-2.79V214.9z"/>
		<path class="st4" d="M155.25,212.96h56.15c0.78,0,1.47,0.54,1.67,1.31l0.78,3.07c0.28,1.11-0.55,2.18-1.68,2.18l-57.62-0.34
			c-1.12-0.01-1.93-1.07-1.66-2.17l0.68-2.74C153.78,213.5,154.46,212.96,155.25,212.96z"/>
	</g>
</g>
<g>
	<path class="st0" d="M126.5,68.25c0,0,0.06-0.3,0.18-0.85c0.05-0.24,0.29-0.39,0.53-0.34c0.15,0.03,0.27,0.14,0.32,0.28
		c0.24-0.17,0.51-0.37,0.83-0.58c0.2-0.14,0.48-0.08,0.61,0.12c0.14,0.2,0.08,0.48-0.12,0.62c-0.75,0.51-1.27,0.9-1.52,1.09
		c-0.07,0.05-0.12,0.09-0.14,0.11l-0.89,0.63L126.5,68.25z M127.37,64.56c0.25-0.93,0.52-1.87,0.81-2.81
		c0.07-0.23,0.32-0.36,0.55-0.29c0.24,0.07,0.36,0.32,0.29,0.55c-0.29,0.92-0.56,1.86-0.8,2.77c-0.06,0.24-0.31,0.38-0.54,0.31
		c-0.04-0.01-0.08-0.03-0.11-0.05C127.41,64.95,127.32,64.75,127.37,64.56z M130.7,65.83c-0.12-0.22-0.04-0.48,0.18-0.6
		c0.88-0.48,1.78-0.91,2.66-1.28c0.23-0.09,0.48,0.01,0.58,0.24c0.09,0.23-0.01,0.49-0.24,0.58c-0.85,0.36-1.72,0.77-2.57,1.24
		c-0.14,0.08-0.31,0.07-0.44-0.01C130.79,65.95,130.74,65.9,130.7,65.83z M136.01,63.51c-0.07-0.24,0.07-0.48,0.31-0.55
		c0.99-0.28,1.96-0.47,2.91-0.58c0.24-0.03,0.46,0.14,0.49,0.39c0.03,0.24-0.15,0.46-0.39,0.49c-0.9,0.11-1.83,0.29-2.78,0.56
		c-0.12,0.03-0.25,0.01-0.35-0.05C136.12,63.72,136.04,63.63,136.01,63.51z M129.09,58.98c0.32-0.92,0.66-1.84,1.01-2.74
		c0.09-0.23,0.35-0.34,0.57-0.25c0.23,0.09,0.34,0.35,0.25,0.57c-0.35,0.89-0.68,1.8-1,2.71c-0.08,0.23-0.33,0.35-0.56,0.27
		c-0.03-0.01-0.06-0.02-0.08-0.04C129.11,59.4,129.02,59.18,129.09,58.98z M141.73,62.72c0.02-0.24,0.23-0.43,0.47-0.41
		c0.72,0.05,1.43,0.16,2.11,0.32c0.27,0.06,0.54,0.12,0.8,0.17c0.24,0.05,0.4,0.28,0.35,0.52c-0.05,0.24-0.28,0.4-0.52,0.35
		c-0.27-0.05-0.55-0.11-0.83-0.18c-0.64-0.15-1.3-0.25-1.97-0.3c-0.07-0.01-0.14-0.03-0.2-0.06
		C141.81,63.05,141.72,62.89,141.73,62.72z M151.98,67.74c0.08-0.18,0.27-0.28,0.45-0.26c0.41-0.33,0.93-0.56,1.58-0.72
		c0.24-0.06,0.48,0.09,0.54,0.32c0.06,0.24-0.08,0.48-0.32,0.54c-0.83,0.21-1.34,0.52-1.71,1.04l-0.76-0.44L151.98,67.74z
		 M147.46,63.56c0.01-0.24,0.21-0.44,0.46-0.43c1,0.03,1.93-0.06,2.76-0.26c0.24-0.06,0.48,0.09,0.53,0.33
		c0.06,0.24-0.09,0.48-0.33,0.54c-0.9,0.22-1.91,0.31-2.99,0.28c-0.08,0-0.15-0.02-0.22-0.06
		C147.55,63.87,147.46,63.72,147.46,63.56z M131.22,53.54c0.39-0.9,0.8-1.79,1.22-2.65c0.11-0.22,0.37-0.31,0.59-0.2
		c0.22,0.11,0.31,0.37,0.21,0.59c-0.41,0.85-0.82,1.73-1.21,2.62c-0.1,0.22-0.36,0.33-0.58,0.23c-0.02-0.01-0.04-0.02-0.05-0.03
		C131.21,53.98,131.13,53.75,131.22,53.54z M153.17,65.09c0.45-1.03,0.83-1.92,1.14-2.66c0.09-0.23,0.35-0.34,0.58-0.24
		c0.22,0.09,0.34,0.35,0.24,0.58c-0.3,0.75-0.69,1.65-1.14,2.69c-0.1,0.22-0.36,0.33-0.58,0.23c-0.02-0.01-0.03-0.02-0.05-0.03
		C153.16,65.53,153.08,65.3,153.17,65.09z M156.55,66.83c-0.03-0.24,0.15-0.46,0.39-0.49c0.85-0.1,1.78-0.22,2.83-0.43
		c0.24-0.05,0.47,0.11,0.52,0.35c0.05,0.24-0.11,0.47-0.35,0.52c-1.09,0.22-2.04,0.34-2.9,0.45c-0.1,0.01-0.2-0.01-0.28-0.06
		C156.65,67.09,156.56,66.97,156.55,66.83z M153.05,62.38c-0.14-0.2-0.1-0.48,0.1-0.62c0.77-0.56,1.24-1.17,1.55-1.58
		c0.13-0.16,0.23-0.3,0.31-0.38c0.04-0.04,0.08-0.08,0.11-0.11c0.19-0.16,0.45-0.11,0.6,0.08c0.16,0.19,0.11,0.49-0.08,0.64
		c-0.07,0.07-0.15,0.18-0.25,0.31c-0.32,0.42-0.86,1.12-1.73,1.75c-0.15,0.11-0.34,0.11-0.49,0.02
		C153.13,62.46,153.09,62.42,153.05,62.38z M133.78,48.29c0.42-0.77,0.85-1.52,1.29-2.25l0.17-0.28c0.13-0.21,0.4-0.27,0.61-0.15
		c0,0,0,0,0,0c0.21,0.13,0.28,0.4,0.15,0.61l-0.17,0.28c-0.43,0.71-0.86,1.46-1.27,2.21c-0.12,0.21-0.39,0.29-0.6,0.18
		c-0.01,0-0.01-0.01-0.02-0.01C133.74,48.76,133.66,48.5,133.78,48.29z M162.23,65.74c-0.07-0.23,0.05-0.48,0.29-0.56
		c0.88-0.28,1.78-0.62,2.67-1.01c0.22-0.1,0.49,0,0.58,0.23c0.1,0.22,0,0.49-0.23,0.58c-0.92,0.4-1.84,0.75-2.75,1.04
		c-0.13,0.04-0.26,0.02-0.36-0.04C162.34,65.93,162.27,65.85,162.23,65.74z M167.58,63.51c-0.12-0.21-0.04-0.48,0.18-0.6
		c0.18-0.1,0.36-0.2,0.54-0.3c0.65-0.37,1.28-0.78,1.87-1.21c0.2-0.14,0.47-0.1,0.62,0.1c0.14,0.2,0.1,0.48-0.1,0.62
		c-0.62,0.45-1.27,0.88-1.95,1.26c-0.19,0.11-0.37,0.21-0.55,0.31c-0.14,0.08-0.31,0.07-0.44-0.01
		C167.67,63.64,167.62,63.58,167.58,63.51z M136.94,43.92c-0.2-0.14-0.25-0.42-0.11-0.62c0.56-0.81,1.15-1.61,1.74-2.36
		c0.15-0.19,0.43-0.23,0.62-0.07c0.19,0.15,0.23,0.43,0.07,0.62c-0.58,0.74-1.15,1.51-1.7,2.31c-0.13,0.19-0.39,0.25-0.59,0.13
		C136.96,43.93,136.95,43.92,136.94,43.92z M172.31,60.19c-0.17-0.17-0.17-0.45,0-0.63c0.67-0.66,1.29-1.38,1.85-2.14
		c0.15-0.2,0.42-0.23,0.62-0.09c0.2,0.15,0.24,0.42,0.09,0.62c-0.59,0.8-1.24,1.55-1.94,2.25c-0.15,0.15-0.37,0.17-0.54,0.07
		C172.37,60.24,172.34,60.22,172.31,60.19z M140.49,39.33c-0.18-0.16-0.2-0.44-0.03-0.63c0.66-0.73,1.35-1.44,2.05-2.1
		c0.18-0.17,0.46-0.16,0.63,0.02c0.17,0.18,0.16,0.46-0.02,0.63c-0.68,0.64-1.35,1.33-2,2.05c-0.14,0.16-0.38,0.19-0.56,0.08
		C140.53,39.37,140.51,39.35,140.49,39.33z M175.67,55.02c0.44-0.83,0.83-1.7,1.16-2.59c0.08-0.23,0.34-0.35,0.57-0.26
		c0.23,0.08,0.35,0.34,0.26,0.57c-0.34,0.93-0.75,1.84-1.21,2.7c-0.12,0.22-0.38,0.3-0.6,0.18c-0.01,0-0.01-0.01-0.02-0.01
		C175.64,55.49,175.56,55.23,175.67,55.02z M144.65,35.3c-0.15-0.19-0.12-0.47,0.07-0.62c0.77-0.62,1.58-1.19,2.39-1.72
		c0.21-0.13,0.48-0.07,0.61,0.13c0.13,0.21,0.07,0.48-0.13,0.61c-0.79,0.51-1.56,1.07-2.32,1.67c-0.15,0.12-0.35,0.13-0.5,0.03
		C144.73,35.38,144.69,35.34,144.65,35.3z M177.63,49.71c0.31-1.44,0.35-2.43,0.34-2.65l-0.27-1.27c-0.05-0.24,0.1-0.47,0.34-0.53
		c0.24-0.05,0.47,0.1,0.53,0.34l0.26,1.23l-0.01,0c0.14,0.63-0.19,2.42-0.32,3.06c-0.05,0.24-0.29,0.39-0.53,0.34
		c-0.05-0.01-0.09-0.03-0.14-0.05C177.67,50.09,177.59,49.9,177.63,49.71z M149.46,32.08c-0.11-0.22-0.03-0.48,0.19-0.6
		c0.88-0.45,1.78-0.85,2.69-1.2c0.23-0.09,0.48,0.03,0.57,0.26c0.09,0.23-0.03,0.48-0.26,0.57c-0.88,0.34-1.75,0.73-2.6,1.16
		c-0.14,0.07-0.3,0.06-0.43-0.01C149.56,32.22,149.5,32.16,149.46,32.08z M154.84,29.93c-0.06-0.24,0.08-0.48,0.32-0.54
		c0.94-0.24,1.91-0.44,2.89-0.58c0.24-0.04,0.47,0.13,0.5,0.37c0.04,0.24-0.13,0.47-0.37,0.5c-0.94,0.14-1.88,0.33-2.79,0.57
		c-0.12,0.03-0.24,0.01-0.34-0.05C154.94,30.14,154.87,30.04,154.84,29.93z M177.09,42.95l-0.6-2.84c-0.05-0.24,0.1-0.47,0.34-0.53
		c0.24-0.05,0.47,0.1,0.53,0.34l0.6,2.84c0.05,0.24-0.1,0.48-0.34,0.53c-0.11,0.02-0.23,0-0.32-0.05
		C177.2,43.18,177.12,43.08,177.09,42.95z M160.55,28.99c-0.01-0.24,0.18-0.45,0.42-0.46c0.96-0.04,1.95-0.03,2.94,0.02
		c0.24,0.01,0.43,0.22,0.42,0.47c-0.01,0.24-0.22,0.43-0.47,0.42c-0.96-0.05-1.92-0.06-2.85-0.02c-0.09,0-0.18-0.02-0.25-0.06
		C160.64,29.27,160.55,29.14,160.55,28.99z M175.89,37.28l-0.6-2.84c-0.05-0.24,0.1-0.47,0.34-0.53c0.24-0.05,0.47,0.1,0.53,0.34
		l0.6,2.84c0.05,0.24-0.1,0.47-0.34,0.53c-0.11,0.02-0.23,0-0.32-0.05C175.99,37.51,175.91,37.4,175.89,37.28z M166.33,29.22
		c0.03-0.24,0.26-0.41,0.5-0.38c0.94,0.14,1.91,0.32,2.88,0.53c0.24,0.05,0.39,0.29,0.34,0.53c-0.05,0.24-0.29,0.39-0.53,0.33
		c-0.95-0.21-1.89-0.39-2.81-0.52c-0.06-0.01-0.12-0.03-0.17-0.06C166.39,29.57,166.3,29.4,166.33,29.22z M171.99,30.42
		c0.07-0.23,0.32-0.37,0.55-0.3c0.89,0.27,1.8,0.57,2.71,0.91l0.23,0.08l0.07,0.31c0.05,0.24-0.1,0.47-0.34,0.53
		c-0.17,0.04-0.33-0.03-0.43-0.15c-0.83-0.3-1.67-0.58-2.48-0.83c-0.04-0.01-0.07-0.03-0.1-0.04
		C172.02,30.82,171.93,30.62,171.99,30.42z"/>
</g>
<path class="st0" d="M176.37,40.81c0,0-1.62,12.75-11.11,12.58c-9.49-0.18-19.02-2.71-22.25,0.37c0,0,7.84-23.88,31.93-17.25
	L176.37,40.81z"/>
<path class="st2" d="M203,45.67c0,0,2.9,12.28-0.3,15.12c-3.04,2.7-30.63,10.16-33.31,10.88c-0.12,0.03-0.24-0.03-0.28-0.15l0,0
	c-0.35-0.97-0.21-2.05,0.38-2.91c2.82-4.12,11.33-16.37,15.09-19.24C189.11,45.9,203,45.67,203,45.67z"/>
<path class="st16" d="M178.71,67.38c0.07,0.04,0.15,0.05,0.23,0.03c0.15-0.04,15.19-4.39,21.59-6.51c1.14-0.38,1.95-1.39,2.06-2.58
	c0.22-2.3,0.4-5.75-0.01-9.17c-0.02-0.16-0.16-0.27-0.32-0.25c-0.16,0.02-0.27,0.16-0.25,0.32c0.42,3.54,0.19,7.19,0.01,9.04
	c-0.09,0.96-0.75,1.78-1.67,2.09c-6.39,2.12-21.42,6.46-21.57,6.5c-0.15,0.04-0.24,0.2-0.2,0.36
	C178.6,67.29,178.65,67.34,178.71,67.38z"/>
<path class="st2" d="M193.2,18.03c0,0-5.49-11.37-9.76-11.56c-4.07-0.18-30.19,11.4-32.73,12.54c-0.11,0.05-0.17,0.18-0.12,0.3l0,0
	c0.35,0.97,1.13,1.72,2.12,2.02c4.79,1.43,19.11,5.57,23.84,5.44C182.27,26.61,193.2,18.03,193.2,18.03z"/>
<path class="st16" d="M160.78,16.82c0.08,0.05,0.17,0.06,0.26,0.02c0.14-0.06,14.55-6.15,20.85-8.53c0.91-0.34,1.93-0.12,2.61,0.57
	c1.31,1.33,3.79,4.01,5.69,7.03c0.08,0.14,0.26,0.18,0.4,0.09c0.14-0.09,0.18-0.26,0.09-0.4c-1.93-3.06-4.44-5.78-5.77-7.13
	c-0.84-0.85-2.11-1.13-3.23-0.71c-6.31,2.38-20.72,8.48-20.87,8.54c-0.15,0.06-0.22,0.23-0.15,0.38
	C160.69,16.74,160.73,16.79,160.78,16.82z"/>
<path class="st1" d="M242.9,31.35c-4.86,3.74-10.78,7.23-17.86,9.77c-21.98,7.86-39.5,9.84-44.49,10.27
	c-0.9,0.08-1.77-0.35-2.27-1.11c-3.95-5.95-6.32-12.48-7.11-19.57c-0.15-1.33,0.47-2.64,1.59-3.38
	c4.85-3.23,19.35-12.24,40.43-19.65c7.04-2.47,13.78-3.49,19.88-3.66C239.99,13.85,242.08,24.98,242.9,31.35z"/>
<path class="st2" d="M233.07,4.03c13.47-0.37,23.79,3.41,27.17,4.84c0.66,0.28,0.94,1.06,0.6,1.7c-1.73,3.23-7.32,12.61-17.95,20.79
	C242.08,24.98,239.99,13.85,233.07,4.03z"/>
<g>
	
		<ellipse transform="matrix(0.9425 -0.3341 0.3341 0.9425 4.6886 75.0748)" class="st0" cx="220.57" cy="23.91" rx="10.95" ry="11.75"/>
	<path class="st2" d="M217.62,14.67c-4.54,1.61-6.82,6.87-5.09,11.74c1.73,4.87,6.81,7.52,11.35,5.91
		c4.54-1.61,6.82-6.87,5.09-11.74C227.24,15.71,222.16,13.06,217.62,14.67z"/>
	<path class="st16" d="M224.47,29.14c0.1,0.06,0.23,0.06,0.32-0.02c2.49-1.85,3.47-5.26,2.4-8.31c-0.27-0.77-0.66-1.48-1.15-2.11
		c-0.1-0.13-0.28-0.15-0.41-0.05c-0.13,0.1-0.15,0.28-0.05,0.41c0.45,0.59,0.81,1.24,1.06,1.95c0.99,2.81,0.09,5.95-2.19,7.64
		c-0.13,0.1-0.16,0.28-0.06,0.41C224.41,29.09,224.44,29.12,224.47,29.14z"/>
</g>
<g>
	
		<ellipse transform="matrix(0.9425 -0.3342 0.3342 0.9425 1.0413 68.575)" class="st0" cx="199.83" cy="31.26" rx="7.23" ry="7.76"/>
	<path class="st2" d="M197.88,25.16c-3,1.06-4.51,4.54-3.37,7.76c1.14,3.22,4.5,4.97,7.5,3.9c3-1.06,4.51-4.54,3.37-7.76
		C204.24,25.84,200.88,24.09,197.88,25.16z"/>
	<path class="st16" d="M202.36,34.8c0.1,0.06,0.23,0.06,0.32-0.02c1.68-1.24,2.34-3.55,1.62-5.6c-0.18-0.52-0.44-1-0.77-1.42
		c-0.1-0.13-0.28-0.15-0.41-0.05c-0.13,0.1-0.15,0.28-0.05,0.41c0.29,0.38,0.52,0.8,0.69,1.26c0.64,1.81,0.06,3.84-1.42,4.94
		c-0.13,0.1-0.16,0.28-0.06,0.41C202.3,34.75,202.33,34.78,202.36,34.8z"/>
</g>
<g>
	<g>
		<g>
			<path class="st17" d="M44.13,245.52c-0.04-7.18-4.74-11.78-4.74-11.78C37.96,239.66,44.13,245.52,44.13,245.52z"/>
		</g>
	</g>
</g>
<g>
	<g>
		<g>
			<path class="st17" d="M37.25,242.19c-6.6-2.83-12.69-0.35-12.69-0.35C29.41,245.51,37.25,242.19,37.25,242.19z"/>
		</g>
	</g>
</g>
<g>
	<g>
		<g>
			<path class="st17" d="M36.47,238.36c1.15-5.55-1.73-9.86-1.73-9.86C32.66,232.83,36.47,238.36,36.47,238.36z"/>
		</g>
	</g>
</g>
<g>
	<g>
		<g>
			<path class="st17" d="M63.08,224.55c-10.06,2.68-15.46,11.42-15.46,11.42C56.22,235.98,63.08,224.55,63.08,224.55z"/>
		</g>
	</g>
</g>
<g>
	<g>
		<g>
			<path class="st17" d="M47.01,228.67c0.52-10.84-10.08-23.12-10.08-23.12C38.54,219.02,47.01,228.67,47.01,228.67"/>
		</g>
	</g>
</g>
<g>
	<g>
		<g>
			<path class="st17" d="M47.07,197.79c-0.45,8.79,3.81,15.53,3.81,15.53C52.37,206.35,47.07,197.79,47.07,197.79z"/>
		</g>
	</g>
</g>
<g>
	<g>
		<g>
			<path class="st17" d="M51.15,219.82c7.93-0.85,12.24-8.74,12.24-8.74C53.8,213.77,51.15,219.82,51.15,219.82z"/>
		</g>
	</g>
</g>
<g>
	<g>
		<g>
			<path class="st17" d="M68.25,252.97c-6.06-3.86-12.47-2.4-12.47-2.4C59.97,254.98,68.25,252.97,68.25,252.97z"/>
		</g>
	</g>
</g>
<g>
	<g>
		<g>
			<path class="st17" d="M47.71,256.53c1.5,4.14,5.33,6,5.33,6C52.7,258.87,47.71,256.53,47.71,256.53z"/>
		</g>
	</g>
</g>
<g>
	<g>
		<g>
			<path class="st17" d="M48.73,255.36c4.51,2.78,9.48,1.69,9.48,1.69C55.16,253.88,48.73,255.36,48.73,255.36z"/>
		</g>
	</g>
</g>
<g>
	<g>
		<g>
			<path class="st17" d="M69.4,241.87c0,0-8.19-0.16-11.66,6.29C57.74,248.16,64.73,248.39,69.4,241.87z"/>
		</g>
	</g>
</g>
<g>
	<g>
		<g>
			<path class="st17" d="M58.21,238.58c0,0-6.67,4.76-5.61,12C52.6,250.58,58.35,246.6,58.21,238.58z"/>
		</g>
	</g>
</g>
<g>
	<g>
		<g>
			<path class="st17" d="M23.07,226.86c0,0,2.63,9.17,11,10.82C34.07,237.68,31.93,229.82,23.07,226.86z"/>
		</g>
	</g>
</g>
<g>
	<g>
		<g>
			<path class="st17" d="M61.85,192.76c0,0-10.45,6.82-9.3,17.91C52.56,210.67,61.56,204.97,61.85,192.76z"/>
		</g>
	</g>
</g>
<g>
	<g>
		<g>
			<path class="st17" d="M36.16,260.22c1.33-7.06-2.4-12.46-2.4-12.46C32.63,255.53,36.16,260.22,36.16,260.22z"/>
		</g>
	</g>
</g>
<g>
	<g>
		<g>
			<path class="st17" d="M29.12,256.38c-4.51-2.64-9.12-1.41-9.12-1.41C25.05,257.65,29.12,256.38,29.12,256.38z"/>
		</g>
	</g>
</g>
<g>
	<g>
		<g>
			<g>
				<path class="st18" d="M44.67,269.96c0.01,0,0.01-0.05,0.02-0.16c0-0.13,0.01-0.28,0.01-0.47c0-0.45,0-1.05,0-1.82
					c-0.01-0.79-0.01-1.75,0.02-2.87c0.02-1.12,0.02-2.4,0.08-3.8c0.07-2.82,0.27-6.17,0.56-9.89c0.32-3.71,0.77-7.79,1.39-12.04
					c1.25-8.52,2.96-16.13,4.34-21.6c0.69-2.73,1.28-4.94,1.7-6.46c0.2-0.74,0.36-1.32,0.47-1.75c0.05-0.18,0.08-0.33,0.11-0.46
					c0.02-0.1,0.03-0.16,0.03-0.16c-0.01,0-0.03,0.05-0.06,0.15c-0.04,0.12-0.09,0.27-0.15,0.45c-0.13,0.43-0.31,1.01-0.54,1.74
					c-0.47,1.51-1.09,3.71-1.81,6.44c-1.44,5.46-3.19,13.07-4.45,21.61c-0.62,4.26-1.06,8.35-1.37,12.07
					c-0.27,3.72-0.45,7.08-0.48,9.91c-0.04,1.41-0.03,2.69-0.03,3.81c0,1.12,0.02,2.09,0.04,2.88c0.03,0.77,0.05,1.37,0.06,1.82
					c0.01,0.19,0.02,0.34,0.03,0.47C44.66,269.91,44.67,269.96,44.67,269.96z"/>
			</g>
		</g>
	</g>
</g>
<g>
	<g>
		<g>
			<g>
				<path class="st19" d="M59.22,247.01c-0.06-0.08-3.26,2.02-7.16,4.69c-3.9,2.67-7.01,4.9-6.96,4.98
					c0.06,0.08,3.26-2.02,7.16-4.69C56.17,249.32,59.28,247.09,59.22,247.01z"/>
			</g>
		</g>
	</g>
</g>
<g>
	<g>
		<g>
			<g>
				<path class="st19" d="M45.11,248.16c0.02-0.02-0.16-0.21-0.49-0.54c-0.39-0.38-0.87-0.84-1.43-1.37
					c-1.28-1.2-2.94-2.75-4.76-4.47c-1.83-1.71-3.48-3.26-4.77-4.47c-0.56-0.53-1.05-0.98-1.44-1.35c-0.34-0.32-0.54-0.48-0.56-0.47
					c-0.02,0.02,0.15,0.22,0.46,0.56c0.31,0.35,0.78,0.84,1.37,1.44c1.17,1.19,2.83,2.8,4.7,4.55c1.87,1.74,3.58,3.29,4.84,4.4
					c0.63,0.55,1.14,0.99,1.5,1.29C44.89,248.03,45.1,248.18,45.11,248.16z"/>
			</g>
		</g>
	</g>
</g>
<g>
	<g>
		<g>
			<g>
				<path class="st19" d="M27.06,253.41c-0.01,0.02,0.23,0.21,0.68,0.54c0.45,0.33,1.1,0.81,1.88,1.43
					c1.56,1.24,3.63,3.06,5.66,5.32c2.03,2.26,3.62,4.51,4.68,6.2c0.53,0.84,0.95,1.53,1.22,2.02c0.28,0.48,0.45,0.74,0.47,0.73
					c0.02-0.01-0.1-0.29-0.35-0.8c-0.24-0.51-0.62-1.22-1.13-2.08c-1.01-1.73-2.59-4.02-4.63-6.3c-2.05-2.28-4.16-4.09-5.77-5.28
					c-0.8-0.6-1.47-1.06-1.95-1.35C27.34,253.54,27.08,253.39,27.06,253.41z"/>
			</g>
		</g>
	</g>
</g>
<g>
	<g>
		<g>
			<g>
				<g>
					<path class="st3" d="M58.98,276.94l-2.31,15.19c-0.39,2.57-2.6,4.47-5.2,4.47H37.48c-2.49,0-4.64-1.75-5.15-4.19l-3.11-14.96
						c-0.67-3.24,1.78-6.29,5.09-6.33l19.42-0.23C56.97,270.85,59.47,273.73,58.98,276.94z"/>
				</g>
			</g>
		</g>
	</g>
	<g>
		<g>
			<g>
				<g>
					<path class="st4" d="M62.53,269.12L62.53,269.12c0,2.38-1.93,4.31-4.31,4.31H30.05c-2.38,0-4.31-1.93-4.31-4.31v0
						c0-1.33,1.08-2.41,2.41-2.41h31.97C61.45,266.71,62.53,267.79,62.53,269.12z"/>
				</g>
			</g>
		</g>
	</g>
</g>
<path d="M595.68,297v0.33c0,0.53-0.41,0.97-0.9,0.97H6.23c-0.49,0-0.9-0.44-0.9-0.97V297c0-0.53,0.41-0.97,0.9-0.97h588.56
	C595.28,296.03,595.68,296.47,595.68,297z"/>
</svg>
