<?xml version="1.0" encoding="utf-8"?>
<!-- Generator: Adobe Illustrator 23.0.3, SVG Export Plug-In . SVG Version: 6.00 Build 0)  -->
<svg version="1.1" id="Layer_1" xmlns="http://www.w3.org/2000/svg" xmlns:xlink="http://www.w3.org/1999/xlink" x="0px" y="0px"
	 viewBox="0 0 600 300" style="enable-background:new 0 0 600 300;" xml:space="preserve">
<style type="text/css">
	.st0{fill:#3D723D;}
	.st1{fill:#619961;}
	.st2{stroke:#3D723D;stroke-width:0.5;stroke-miterlimit:10;}
	.st3{fill:#3D723D;stroke:#619961;stroke-width:0.5;stroke-miterlimit:10;}
	.st4{fill:#ED7D2B;}
	.st5{fill:#F99746;}
	.st6{fill:#FF9C60;}
	.st7{fill:#FFAE73;}
	.st8{fill:#333333;}
	.st9{fill:#FFA05E;}
	.st10{fill:#F48F4E;}
	.st11{fill:#E8F2FA;}
	.st12{fill:#F8CAA4;}
	.st13{fill:#FFFFFF;}
	.st14{fill:#BC1818;}
	.st15{fill:#BC1818;stroke:#BC1818;stroke-width:0.5;stroke-miterlimit:10;}
	.st16{fill:#CE5B5B;}
	.st17{fill:#FFD2D2;}
	.st18{fill:#FFBBBB;}
	.st19{fill:#F99352;}
	.st20{fill:#9B0404;}
</style>
<g>
	<path class="st0" d="M584.21,193.93c-5.32,2.76-9.41,7.51-12.34,12.73c-2.94,5.23-4.83,10.96-6.7,16.66l-1.64,29.37
		c6.19-10.54,11.17-22.93,12.51-35.07c-1.37-0.12-2.75-0.24-4.12-0.37c2.76-0.42,5.08-2.42,6.56-4.8c1.48-2.37,2.24-5.11,2.98-7.81
		c-1.68,0.25-3.35,0.5-5.03,0.75C580.36,202.76,583.22,198.56,584.21,193.93z"/>
	<path class="st1" d="M562.61,259.57c0,0-13.44-16.09-13.29-31.45h5.43c0,0-5.9-3.88-5.43-6.05c0.47-2.17,0.62-10.4,0.62-10.4
		l4.97,1.24c0,0-3.72-1.86-4.19-4.81c-0.47-2.95,1.09-16.6,1.09-16.6s6.05,6.36,7.91,12.88c1.86,6.52,6.75,14.12,5.31,33.98
		C563.6,258.22,562.61,259.57,562.61,259.57z"/>
	<path class="st1" d="M569.43,261.09c0,0,14.57-9.7,17.8-22.09l-4.37-1.19c0,0,5.59-1.83,5.69-3.68c0.1-1.85,1.77-8.49,1.77-8.49
		l-4.26-0.09c0,0,3.4-0.68,4.42-2.95c1.02-2.27,2.76-13.59,2.76-13.59s-6.26,3.79-9.18,8.62c-2.92,4.83-8.52,9.88-11.71,26.16
		C569.17,260.08,569.43,261.09,569.43,261.09z"/>
	<g>
		<path class="st2" d="M555.48,205.53c0,0,0.02,0.06,0.05,0.17c0.03,0.12,0.07,0.29,0.12,0.5c0.1,0.45,0.24,1.09,0.43,1.91
			c0.19,0.83,0.4,1.85,0.64,3.03c0.24,1.18,0.52,2.53,0.79,4.02c0.58,2.98,1.18,6.55,1.81,10.52c0.61,3.97,1.21,8.35,1.75,12.95
			c0.53,4.61,0.94,9.01,1.25,13.01c0.3,4.01,0.52,7.62,0.64,10.66c0.08,1.52,0.11,2.89,0.15,4.1c0.04,1.21,0.06,2.25,0.07,3.09
			c0.01,0.84,0.02,1.49,0.02,1.96c0,0.21,0,0.38,0,0.51c0,0.11,0,0.17-0.01,0.17c0,0-0.01-0.06-0.02-0.17
			c-0.01-0.13-0.01-0.29-0.02-0.51c-0.02-0.46-0.04-1.12-0.07-1.95c-0.02-0.85-0.06-1.89-0.11-3.09c-0.05-1.21-0.1-2.58-0.18-4.09
			c-0.14-3.03-0.38-6.64-0.69-10.65c-0.33-4-0.74-8.4-1.27-13c-0.54-4.6-1.14-8.98-1.73-12.95c-0.61-3.97-1.2-7.54-1.76-10.52
			c-0.26-1.5-0.53-2.84-0.75-4.03c-0.22-1.19-0.42-2.2-0.6-3.04c-0.16-0.82-0.29-1.47-0.38-1.92c-0.04-0.21-0.07-0.38-0.09-0.5
			C555.48,205.59,555.47,205.53,555.48,205.53z"/>
	</g>
	<path class="st0" d="M560.75,269.43c0,0-12.3-13.96-16.12-22.4l2.88-1.23c-2.09,0.34-4.23-0.55-5.85-1.92
		c-1.62-1.36-2.81-3.16-3.98-4.93l3.8-0.64c-3.45-0.97-6.5-3.33-8.3-6.43c4.48,0.74,8.54,3.2,11.88,6.28c2.71,2.49,5,5.39,7.2,8.34
		c1.07,1.44,2.01,2.98,2.8,4.6C557.12,255.37,560.75,264.3,560.75,269.43z"/>
	<g>
		<path class="st2" d="M587.42,217.15c0,0-0.02,0.05-0.06,0.14c-0.05,0.1-0.11,0.24-0.19,0.41c-0.18,0.37-0.43,0.89-0.75,1.55
			c-0.66,1.34-1.59,3.29-2.73,5.71c-1.13,2.42-2.44,5.32-3.84,8.56c-1.39,3.25-2.87,6.83-4.35,10.63c-1.47,3.8-2.78,7.46-3.94,10.79
			c-1.14,3.34-2.13,6.37-2.91,8.92c-0.79,2.55-1.41,4.62-1.82,6.06c-0.21,0.7-0.37,1.26-0.49,1.65c-0.06,0.18-0.1,0.32-0.13,0.43
			c-0.03,0.1-0.05,0.14-0.05,0.14c0,0,0.01-0.05,0.03-0.15c0.03-0.11,0.06-0.25,0.11-0.43c0.11-0.4,0.25-0.95,0.44-1.66
			c0.38-1.44,0.98-3.52,1.75-6.08c0.77-2.56,1.73-5.59,2.87-8.94c1.14-3.34,2.46-7,3.92-10.81c1.47-3.8,2.96-7.39,4.37-10.63
			c1.42-3.24,2.74-6.13,3.89-8.54c1.15-2.41,2.11-4.35,2.8-5.68c0.34-0.65,0.6-1.16,0.79-1.53c0.09-0.16,0.16-0.29,0.21-0.39
			C587.39,217.19,587.42,217.14,587.42,217.15z"/>
	</g>
	<g>
		<path class="st3" d="M561.79,275.41c-0.01,0-0.03-0.09-0.06-0.26c-0.03-0.2-0.07-0.44-0.12-0.74c-0.05-0.32-0.11-0.72-0.19-1.17
			c-0.08-0.46-0.16-0.98-0.29-1.54c-0.22-1.14-0.54-2.49-0.94-3.98c-0.42-1.48-0.93-3.09-1.55-4.76c-0.63-1.66-1.31-3.21-1.98-4.59
			c-0.68-1.38-1.33-2.6-1.92-3.61c-0.28-0.51-0.57-0.95-0.81-1.35c-0.24-0.4-0.45-0.73-0.63-1.01c-0.16-0.26-0.29-0.47-0.4-0.64
			c-0.09-0.15-0.13-0.23-0.13-0.23c0.01,0,0.06,0.07,0.17,0.2c0.12,0.16,0.26,0.36,0.44,0.61c0.19,0.27,0.42,0.59,0.67,0.99
			c0.25,0.39,0.55,0.83,0.84,1.33c0.61,1,1.28,2.21,1.98,3.59c0.68,1.39,1.37,2.94,2.01,4.61c0.63,1.67,1.13,3.29,1.54,4.78
			c0.39,1.49,0.69,2.85,0.89,4c0.11,0.57,0.18,1.1,0.25,1.56c0.07,0.46,0.12,0.85,0.15,1.18c0.03,0.3,0.05,0.55,0.07,0.75
			C561.8,275.32,561.8,275.41,561.79,275.41z"/>
	</g>
	<rect x="551.1" y="272.13" class="st4" width="26.93" height="5.49"/>
	<polygon class="st5" points="553.66,277.62 556.58,296.09 572.85,296.09 575.56,277.62 	"/>
</g>
<path class="st6" d="M214.15,205.83c0,0-0.73-0.88-1.82-1.16c-1.09-0.27-3.45-1.43-3.17-0.82c0.27,0.6,1.59,1.32,1.37,1.75
	c0,0-3.75-1.04-3.86-0.38c-0.11,0.66,1.32,3.17,2.92,3.71c0.53,0.18,4.22-0.53,4.22-0.53L214.15,205.83z"/>
<path class="st7" d="M334.65,216.93c0,0-1.47-1.6-3.43-1.35c-1,0.13-2.45-1.45-2.38-0.42c0.07,1.02,1.52,3.39,2.02,3.8
	c0.97,0.8,3.1,0.53,3.1,0.53l2.61,1.61L334.65,216.93z"/>
<g>
	<path class="st4" d="M22.66,173.38c0,0-10.82,11.22-11.33,15.44c-0.51,4.22,5.18,10.81,5.18,10.81L22.66,173.38z"/>
	<path d="M27.55,289.64c0,0,0.38,5.95,1.53,6.03c0.15,0.01,5.84,0,5.84,0l7.26-0.06c0,0-0.05-1.75-2.17-2.11
		c-2.12-0.37-5.68-1.85-6.97-4.65C31.68,285.9,27.55,289.64,27.55,289.64z"/>
	<path d="M11.38,289.68c0,0,0.38,5.95,1.53,6.03c0.15,0.01,5.84,0,5.84,0l7.26-0.06c0,0-0.05-1.75-2.17-2.11
		c-2.12-0.37-5.68-1.85-6.97-4.65C15.51,285.94,11.38,289.68,11.38,289.68z"/>
	<path d="M35.45,225.67c0,0-1.87,12.15-8.91,33.72c-7.04,21.57-7.98,30.91-7.98,30.91l-7.6-0.2c0,0-0.12-23.56,3.12-34.4
		c3.24-10.85,0.62-39.08,0.62-39.08L35.45,225.67z"/>
	<path class="st8" d="M39.13,217.22c0,0,0.31,18.3-2.81,40.77C33.2,280.47,34.3,290,34.3,290l-7.58,0.27c0,0-4.58-22.47-3.31-33.71
		c1.27-11.25-6.29-38.57-6.29-38.57L39.13,217.22z"/>
	<path class="st7" d="M24.36,174.44l4.05,2.64l5.84-1.1c-0.08-0.47-0.47-2.42-0.83-4.19c-0.02-0.1-0.04-0.21-0.06-0.31
		c-0.3-1.51-0.57-2.8-0.57-2.8l-5.46-2.39l-2.04-0.89c0.01,0.03,0.16,1.67,0.18,1.91C25.86,171.55,24.36,174.44,24.36,174.44z"/>
	<path class="st4" d="M32.74,173.08c-0.11-0.05-7.04-2.07-7.79-1.82c-0.75,0.25-1.19,1.7-1.19,1.7l11.32,2.53
		C35.08,175.5,34.18,173.69,32.74,173.08z"/>
	<path class="st5" d="M14.21,219.54c1.18,5.35,20.7,5.94,25.72,1.07c0.57-0.55,0.59-3.13,0.37-6.6c-0.44-6.78-1.81-16.98-1.88-22.2
		c-0.03-2.52-0.38-5.09-0.85-7.43c-0.99-4.98-2.49-8.89-2.49-8.89s-9.54-3.06-11.32-2.53C15.17,175.51,13.03,214.19,14.21,219.54z"
		/>
	<path class="st4" d="M40.3,214.01c-0.44-6.78-1.81-16.98-1.88-22.2c-0.03-2.52-0.38-5.09-0.85-7.43l-5.74-1
		C31.84,183.38,26.28,206.29,40.3,214.01z"/>
	<path class="st7" d="M37.17,204.56c0,0-0.39,0.94,0.43,1.56c0.82,0.63,1.36,1.64,1.17,2.38c-0.19,0.74-1.98,1.96-2.61,1.76
		c-0.62-0.19-1.9-1.17-1.76-1.56c0.14-0.39-0.86-3.44,0.66-4.61C36.58,202.92,37.17,204.56,37.17,204.56z"/>
	<path class="st5" d="M30.7,174.13c0,0,5.59,1.03,10.06,7.59c4.47,6.56,7.41,11.43,6.6,13.8c-0.82,2.37-8.28,10.59-9.57,10.6
		c-1.29,0-3.37-0.93-3.5-3.04c0,0,4.93-8.2,3.89-9.38c-0.44-0.5-6.53-5.38-7.44-3.04C29.24,194.54,30.7,174.13,30.7,174.13z"/>
	<path class="st9" d="M25.88,167.37c1.2,2.03,5.67,3.77,7.53,4.41c-0.02-0.1-0.04-0.21-0.06-0.31c-0.3-1.51-0.57-2.8-0.57-2.8
		l-5.46-2.39C26.12,166.27,25.39,166.54,25.88,167.37z"/>
	<path class="st7" d="M34.84,168.34c0,0-8.78,2.76-10.41-2.73c-1.63-5.49-3.87-8.84,1.67-10.83c5.54-1.99,7.25-0.22,8.24,1.48
		C35.33,157.95,37.08,167.48,34.84,168.34z"/>
	<path class="st8" d="M33.99,155.72c0,0-0.55,6.4-1.87,6.12c-1.32-0.27-2.52-0.48-2.33,1.45c0.2,1.93,2.04,4.15-2.04,4.5
		c-4.08,0.35-9.96-10.15-8.84-12.14C22.13,149.9,38.65,148.71,33.99,155.72z"/>
</g>
<g>
	<path class="st7" d="M492.97,195.85c0,0-0.75-1.24-1.21-1.92c-0.46-0.68-1.37-1.53-1.6-1.32c-0.23,0.22,0.7,1.12,0.66,1.43
		c-0.04,0.3-1.61-0.71-1.78-0.94c-0.34-0.46-1.23-0.95-1.34-0.38c-0.11,0.58,0.56,2.38,0.86,2.91c0.3,0.52,1.56,1.34,2.26,1.59
		c0.7,0.25,1.89,0.82,1.89,0.82L492.97,195.85z"/>
	<path class="st8" d="M524.71,155.26c-2.67-1.39-4.81-0.51-4.81-0.51c-8.17-0.96-10.56,8.57-10.45,11.85
		c0.11,3.28,0.48,6.8-3.16,11.06c-10.54,12.31,11.54,12.85,11.54,12.85c0.19-9.83,11.97-6.24,11.46-5.25
		C544.39,188.88,530.78,158.41,524.71,155.26z"/>
	<path class="st5" d="M513.97,196.95c0,0-0.78,1.55-2.2,3.32c-1.71,2.14-4.34,4.61-7.65,5.1c-1.58,0.23-3.12-0.11-4.54-0.74
		c0,0-0.01,0-0.01,0c-4.02-1.78-7.03-5.88-7.03-5.88c-0.71-1.93,0.45-3.24,0.45-3.24s8.11,1.82,8.88,1.44
		c0.77-0.39,5.28-13.36,6.35-14.99c1.07-1.63,4.73-2.48,4.73-2.48L513.97,196.95z"/>
	<path class="st4" d="M511.77,200.28c-1.71,2.14-4.34,4.61-7.65,5.1c-1.58,0.23-3.12-0.11-4.54-0.74c0.16,0.02,4.17,0.52,5.77-2.34
		c1.63-2.92,3.39-7.55,5.82-6.01C512.21,196.96,512.16,198.61,511.77,200.28z"/>
	<path d="M544.22,284.47c0,0,2.47,2.26,1.99,3.86c-0.48,1.6-2.72,2.67-3.02,4.63c-0.3,1.96-1.51,3.03-2.59,3.03
		c-1.09,0-5.18,0-5.18,0s-0.8-1.38,1.13-1.8c1.93-0.42,2.66-2.72,2.54-4.86c-0.12-2.14,0.18-4.99,0.18-4.99l4.1-0.95L544.22,284.47z
		"/>
	<path d="M523.28,285.43c0,0,0.89,9.56-0.2,10.1l-13.9-0.03c0,0,0-1.6,2.23-1.96c2.23-0.36,6.15-1.66,6.82-4.57
		S523.28,285.43,523.28,285.43z"/>
	<path class="st7" d="M533.19,216.81c-2.86-6.41-4.61-8.26-4.28-10.25c0.25-1.48-0.76-27.63-0.76-27.63
		c-0.34-0.1-1.02-0.2-1.39-0.28c-1.17-0.26-2.14-1.08-2.55-2.22c-0.49-1.36-0.87-3.38-0.86-5.9l-0.37,0.07l-6.16,1.22
		c0,0,0.14,1.94,0.14,3.77c0,0.02,0,0.03,0,0.05c0.01,1.59-1.03,2.99-2.56,3.43c-0.78,0.22-1.46,0.42-1.46,0.42
		s-2.26,6.46-2.69,13.09c-0.43,6.64,4.11,9.52-0.03,22.78C505.99,228.9,534.77,220.36,533.19,216.81z"/>
	<path class="st10" d="M516.82,171.83c0,0,0.14,1.94,0.14,3.77c3.45-0.1,5.27-3.24,6.02-4.99L516.82,171.83z"/>
	<path class="st7" d="M515.67,173.56c0,0,8.16,0.13,8.16-4.95c0.01-5.08,1.06-8.49-4.15-8.79c-5.21-0.3-6.22,1.64-6.64,3.33
		C512.63,164.86,513.55,173.4,515.67,173.56z"/>
	<path class="st8" d="M515.97,159.7c0,0,2.23,5.96,5.66,6.84s4.91-0.04,4.91-0.04s-2.63-2.09-3.17-5.73
		C523.37,160.78,517.65,156.87,515.97,159.7z"/>
	<path class="st8" d="M516.52,160.19c0,0-1.66,0.62-2.34,1.83c-0.67,1.18-1.23,2.75-1.1,4.66c0,0-1.68-4.05,0.21-6.34
		C515.3,157.91,516.52,160.19,516.52,160.19z"/>
	<path class="st11" d="M517.44,170.41c0,0-0.56,0.74-1.69,0.69c-0.91-0.04-1.26-0.83-1.26-0.83S516.16,169.87,517.44,170.41z"/>
	<path class="st5" d="M533.97,190.5c0,0,0.21,2.92,0,6.42c-0.14,2.32-2.49,5.43-2.82,6.2c-0.84,1.93-1.78,2.24-1.78,2.24l-7.3,1.79
		l-2.57,0.63l-8.09-2.42c0,0-3.69-10.29-2.21-16.08c1.48-5.79,3.74-9.81,3.74-9.81s6.6,6.47,15.2-0.55L533.97,190.5z"/>
	<path class="st12" d="M531.84,197.88c-0.14,2.32-0.35,4.49-0.68,5.26c-0.84,1.93-1.78,2.24-1.78,2.24l-7.3,1.79l-3.17-0.93
		c0,0,10.58-1.6,9.41-10.71L531.84,197.88z"/>
	<path class="st4" d="M511.93,206.94c0,0-4.01,12.47-4.26,16.72c-0.26,4.25,7.66,60.33,7.98,62.29c0.3,1.84,2.59,3.02,2.59,3.02
		s1.05,0.62,2.56,0.2c2.09-0.59,2.75-1.29,2.75-1.29s3.12-40,1.19-54.29c-1.93-14.29-1.95-26.64-1.95-26.64H511.93z"/>
	<path class="st5" d="M528.91,206.57c0,0,6.11,8.2,6.68,13.75c0.57,5.54,0.89,25.02,2.11,30.42c1.21,5.4,5.67,15.81,5.67,32.67
		c0,0-0.46,0.97-1.9,1.48c-0.46,0.16-1.07,0.32-1.67,0.46c-1.18,0.27-2.39-0.31-2.93-1.39c-3.02-6.07-12.62-25.66-13.11-29.72
		c-0.35-2.88-3.38-21.92-10-33.09c-1.59-2.68,0.97-13.35,0.97-13.35L528.91,206.57z"/>
	<path class="st13" d="M517.26,170.54c0,0-0.14,0.6-1.63,0.51c0,0-1.25-0.08-1.21-0.74C514.42,170.32,515.63,169.85,517.26,170.54z"
		/>
	<path class="st8" d="M511.29,205.01c0,0,1.61,1.27,4.8,1.34c3.82,0.08,13.28-0.97,13.28-0.97s0.42,1.17,0.4,2.41
		c0,0-11.55,2.91-18.25,0.43C511.53,208.22,510.66,206.59,511.29,205.01z"/>
	<g>
		<path class="st13" d="M515.18,209.64c-0.96,0-1.74-0.88-1.74-1.97c0-1.09,0.78-1.97,1.74-1.97c0.96,0,1.74,0.88,1.74,1.97
			C516.92,208.75,516.14,209.64,515.18,209.64z M515.18,206.27c-0.64,0-1.16,0.63-1.16,1.39c0,0.77,0.52,1.39,1.16,1.39
			c0.64,0,1.16-0.63,1.16-1.39C516.34,206.9,515.82,206.27,515.18,206.27z"/>
	</g>
	
		<rect x="520.99" y="193.58" transform="matrix(0.7542 -0.6567 0.6567 0.7542 -4.1669 397.5116)" class="st14" width="15.69" height="21.48"/>
	<path class="st7" d="M526.7,207.31c0,0-4.6,0.71-4.59,1.74c0.01,1.03,0.95,2.89,1.88,3.04c1.18,0.19,3.53-2.86,3.53-2.86
		L526.7,207.31z"/>
	<path class="st7" d="M526.6,207.55c0,0-1.54-0.56-2.67-0.33c-1.13,0.23-2.18,0.06-1.92,0.47c0.26,0.41,1.79,0.26,2.03,0.42
		c0.24,0.16,0.25,0.06,0.25,0.06L526.6,207.55z"/>
	<path class="st5" d="M528.15,178.94c0,0,5.79,0.41,8.01,5.8c2.22,5.4,6.43,14.45,6.43,15.98c0,1.52-2.35,6.22-14.99,8.92
		c0,0-1.31-1.37-1.23-2.46c0,0,7.89-6.77,7.86-7.57c-0.04-1.5-1.29-3.47-8.22-10.4C524.14,187.33,528.15,178.94,528.15,178.94z"/>
</g>
<g>
	<path class="st15" d="M159.03,295.9c-3.05,0-6.09-0.27-9.08-0.8c-2.74-0.49-5.41-1.2-8-2.12c-4.04,0.38-8.1,0.39-12.13,0.01
		c-12.42-1.16-23.84-4.88-33.32-10.68c-2.25,0.49-4.57,0.67-6.96,0.55c-5.81-0.3-11.3-2.49-16.34-6.49
		c-4.79-3.81-8.92-9.07-12.29-15.63c-5.9-11.5-8.82-25.96-8.22-40.7c0.66-16.33,5.55-32.03,14.14-45.4
		c6.76-10.53,14.23-18.7,22.2-24.29c6.9-4.84,14.38-7.89,22.22-9.05c2.19-0.32,4.36-0.5,6.5-0.55c6.84-4.09,14.7-7.13,22.96-8.82
		c9.67-1.98,24.37-2.44,39.5,6.62c15.73,9.41,28.32,26.92,37.42,52.05c0.52,1.44,1,2.87,1.45,4.3c2.09,1.08,4.34,2.29,6.85,3.65
		l0.16,0.09c7.86,4.23,20.12,7.62,32.8,9.06c10.57,1.2,26.27,1.62,41.04-3.2c13.8-4.51,26.41-12.57,31.84-23.96l1.19,0.57
		c-5.59,11.73-18.46,20.02-32.62,24.64c-14.99,4.9-30.9,4.48-41.6,3.26c-12.84-1.46-25.28-4.9-33.28-9.21l-0.16-0.09
		c-2.07-1.12-3.95-2.13-5.7-3.05c3.66,12.61,4.36,24.94,2.1,36.72c-2.29,11.91-7.59,22.73-15.34,31.3
		c-2.25,2.49-4.67,4.74-7.22,6.73c-0.18,0.39-0.36,0.77-0.54,1.15c0.9,1.72,1.44,3.38,1.35,4.82c-0.16,2.36-2.83,4.43-7.96,6.16
		c-0.42,0.14-0.86,0.28-1.31,0.42c-4.18,4.23-9.22,7.33-15.13,9.28C170.21,295,164.61,295.9,159.03,295.9z M145.07,292.6
		c1.67,0.49,3.38,0.89,5.1,1.2c8.26,1.48,16.9,0.85,24.98-1.82c4.88-1.61,9.17-4.05,12.85-7.29c-6.92,1.73-16.25,2.86-26.3,3.25
		c-0.39,0.17-0.79,0.33-1.19,0.5C155.56,290.45,150.36,291.84,145.07,292.6z M98.3,281.84c9.08,5.32,19.9,8.73,31.64,9.83
		c3.04,0.28,6.11,0.34,9.17,0.19c-3.35-1.43-6.51-3.22-9.43-5.33c-4.73-0.65-9.09-1.5-12.92-2.53c-5.02-1.34-9.14-2.96-12.32-4.85
		C102.46,280.32,100.41,281.22,98.3,281.84z M132.54,286.89c2.98,1.92,6.2,3.51,9.58,4.74c5.36-0.53,10.66-1.73,15.74-3.59
		c-4.91,0.09-9.93,0.01-14.89-0.26C139.36,287.58,135.87,287.28,132.54,286.89z M130.2,285.27c3.99,0.54,8.29,0.94,12.85,1.19
		c6.14,0.34,12.38,0.38,18.36,0.16c3.66-1.59,7.12-3.5,10.31-5.69c-1.76-0.12-3.48-0.38-5.15-0.8c-3.95-0.99-7.18-3.34-9.83-7.22
		c-4.11,0.12-8.32-0.12-12.59-0.71c-10.21-1.43-18.57-4.53-25-9.25c-1.06,1.87-2.12,3.52-3.16,4.99
		c2.87,6.15,6.97,11.44,12.22,15.76C128.85,284.25,129.51,284.77,130.2,285.27z M173.89,281.01c-2.81,2.05-5.83,3.88-9.02,5.46
		c9.88-0.55,18.83-1.83,25.13-3.69c1.24-1.27,2.4-2.65,3.47-4.13c1.24-1.72,2.38-3.58,3.42-5.59c-3.13,2.19-6.42,3.97-9.79,5.29
		C182.64,280.1,178.18,280.99,173.89,281.01z M105.7,278.34c5.11,2.86,12.58,5.1,21.85,6.55c-0.07-0.05-0.13-0.11-0.2-0.16
		c-5.21-4.3-9.32-9.52-12.26-15.57c-1.4,1.87-2.73,3.39-3.94,4.63C109.41,275.57,107.59,277.09,105.7,278.34z M197.87,274.01
		c-1.55,2.94-3.32,5.58-5.33,7.93c3.85-1.42,6-3.07,6.11-4.66C198.71,276.38,198.44,275.28,197.87,274.01z M115.53,142.12
		c-1.44,0.1-2.79,0.27-4.08,0.46c-7.64,1.13-14.93,4.1-21.66,8.83c-7.83,5.5-15.18,13.55-21.85,23.93
		C59.48,188.5,54.66,203.98,54,220.08c-0.59,14.52,2.28,28.74,8.08,40.05c3.28,6.39,7.3,11.51,11.94,15.2
		c4.82,3.83,10.06,5.92,15.59,6.21c1.79,0.09,3.55,0,5.26-0.27c-5.96-3.89-11.08-8.64-15.12-14.11c-2.04-2.77-3.79-5.68-5.23-8.71
		c-4.47-2.4-8.13-5.89-10.96-10.41c-3.91-6.27-5.97-14.27-5.96-23.15c0-3.73,0.39-7.53,1.13-11.19c-0.41-10.69,4-23.07,12.45-34.93
		c8.1-11.37,18.68-20.5,29.02-25.03c1.16-0.51,2.3-0.95,3.42-1.33c1.48-1.69,3.08-3.31,4.8-4.85
		C110.59,145.6,112.98,143.78,115.53,142.12z M76.46,259.4c1.25,2.42,2.7,4.74,4.34,6.98c4.2,5.69,9.61,10.58,15.92,14.52
		c2.22-0.53,4.37-1.38,6.44-2.55c-1.51-1.01-2.77-2.09-3.77-3.24c-3.56-4.08-6.71-8.36-9.31-12.66c-2.17-0.12-4.33-0.38-6.5-0.81
		C81.05,261.14,78.67,260.39,76.46,259.4z M158.3,272.86c2.37,3.19,5.2,5.16,8.57,6c2.12,0.53,4.32,0.81,6.59,0.83
		c3.79-2.81,7.18-6.04,10.05-9.61c1.52-1.89,2.88-3.84,4.08-5.86C178.9,269.39,168.94,272.32,158.3,272.86z M189.63,263.31
		c-1.44,2.63-3.13,5.17-5.09,7.6c-2.57,3.19-5.54,6.11-8.83,8.72c3.56-0.23,7.24-1.06,10.91-2.5c3.43-1.35,6.79-3.19,9.97-5.46
		c-1.24-1.97-3.03-4.21-5.32-6.66C190.74,264.45,190.2,263.88,189.63,263.31z M91.67,262.51c2.44,3.93,5.37,7.88,8.73,11.73
		c1.04,1.19,2.39,2.31,4.04,3.35c2.01-1.27,3.94-2.85,5.78-4.73c1.3-1.32,2.74-2.99,4.25-5.06c-0.4-0.89-0.77-1.79-1.12-2.72
		c-0.36-0.96-0.7-1.93-1-2.92c-0.47-0.1-0.94-0.22-1.41-0.35c-1.17-0.33-2.31-0.75-3.42-1.26
		C102.39,261.87,97.05,262.63,91.67,262.51z M120.89,262.59c6.12,4.21,13.95,7,23.43,8.32c3.92,0.55,7.79,0.78,11.58,0.72
		c-1.69-2.82-3.13-6.32-4.34-10.57c-0.15-0.54-0.3-1.09-0.45-1.64c-1.75-0.24-3.49-0.55-5.24-0.91c-2.26-0.48-4.41-1.07-6.45-1.79
		c-4.06,1.98-8.21,3.65-12.32,4.72C124.93,262.01,122.87,262.39,120.89,262.59z M152.52,259.6c0.1,0.37,0.2,0.74,0.3,1.1
		c1.28,4.47,2.8,8.08,4.6,10.89c11.37-0.45,21.96-3.66,31.04-9.43c-1.78-1.74-3.73-3.5-5.81-5.27c-1.91,0.58-3.83,1.08-5.75,1.51
		C168.85,260.16,160.67,260.57,152.52,259.6z M190.54,262.36c0.58,0.59,1.15,1.17,1.69,1.75c1.87,1.99,3.9,4.39,5.42,6.78
		c0.15-0.11,0.3-0.22,0.44-0.34c1.78-4,3.18-8.5,4.18-13.47c0.41-2.03,0.75-4.14,1.03-6.33c-2,2.43-4.2,4.72-6.58,6.83
		C194.75,259.32,192.69,260.91,190.54,262.36z M204.84,248.78c-0.31,3-0.74,5.85-1.29,8.56c-0.83,4.15-1.94,7.97-3.31,11.45
		c1.79-1.53,3.51-3.21,5.14-5.01c7.47-8.26,12.61-18.67,14.91-30.12c-2.12,2.2-6.36,6.28-12.35,10.56
		C206.99,245.79,205.95,247.31,204.84,248.78z M113.81,262.44c0.24,0.74,0.5,1.46,0.77,2.18c0.25,0.65,0.51,1.29,0.78,1.93
		c0.79-1.15,1.59-2.42,2.4-3.81C116.4,262.74,115.08,262.64,113.81,262.44z M113.37,261.04c1.22,0.22,2.49,0.34,3.8,0.37
		c-1.07-0.9-2.08-1.85-3.03-2.86c-0.44,0.15-0.88,0.3-1.32,0.45C112.99,259.69,113.18,260.36,113.37,261.04z M123.14,254.82
		c-1.01,2.39-2.06,4.55-3.1,6.51c2.14-0.16,4.38-0.55,6.74-1.16c3.63-0.95,7.31-2.38,10.93-4.09c-3.06-1.21-5.84-2.71-8.33-4.47
		C127.41,252.7,125.32,253.79,123.14,254.82z M90.85,261.17c5.04,0.2,10.05-0.4,14.89-1.52c-3.3-1.89-6.24-4.64-8.79-8.23
		c-1.39-1.95-2.63-4-3.71-6.12c-2.96-0.54-5.96-1.29-8.97-2.24c-0.21-0.07-0.42-0.13-0.63-0.2
		C84.58,248.5,87.06,254.79,90.85,261.17z M184.13,256.42c1.83,1.58,3.56,3.15,5.16,4.71c1.27-2.55,2.29-5.19,3.07-7.89
		C189.64,254.45,186.89,255.52,184.13,256.42z M75.52,257.49c2.52,1.31,5.3,2.27,8.33,2.87c1.81,0.36,3.62,0.6,5.43,0.73
		c-1.31-2.27-2.47-4.54-3.46-6.78c-1.85-4.18-3.05-8.2-3.6-11.93c-3.85-1.38-7.87-3.29-11.48-5.95
		C70.91,243.92,72.52,251,75.52,257.49z M115.5,258.06c1.01,1.03,2.09,2.01,3.23,2.92c0.88-1.62,1.75-3.4,2.61-5.33
		C119.46,256.51,117.5,257.32,115.5,258.06z M109.58,260.01c0.76,0.28,1.54,0.52,2.34,0.72c-0.12-0.44-0.24-0.88-0.35-1.32
		C110.91,259.62,110.25,259.82,109.58,260.01z M193.92,252.51c-0.7,2.68-1.64,5.31-2.81,7.85c1.63-1.17,3.21-2.42,4.72-3.76
		c2.86-2.53,5.45-5.32,7.74-8.32c0.04-0.39,0.08-0.78,0.11-1.17c-0.9,0.58-1.84,1.15-2.8,1.71
		C198.59,250.17,196.27,251.4,193.92,252.51z M94.87,245.58c0.94,1.75,1.99,3.45,3.15,5.08c2.78,3.91,5.98,6.75,9.62,8.52
		c1.22-0.32,2.43-0.67,3.63-1.05c-0.3-1.35-0.55-2.72-0.75-4.11c-0.08-0.11-0.15-0.23-0.23-0.34c-1.48-2.25-2.72-4.7-3.73-7.34
		C102.73,246.46,98.83,246.2,94.87,245.58z M152.16,258.23c8.18,1.03,16.38,0.65,24.45-1.13c1.61-0.36,3.22-0.77,4.83-1.24
		c-5.51-4.57-11.84-9.12-18.35-13.13c-1.44,0.89-2.95,1.85-4.52,2.85c-2.52,1.6-5.2,3.3-8,4.99
		C151.03,253.26,151.56,255.82,152.16,258.23z M141.09,255.89c1.61,0.52,3.3,0.96,5.05,1.33c1.54,0.32,3.08,0.6,4.62,0.82
		c-0.52-2.14-0.99-4.39-1.41-6.74C146.68,252.89,143.91,254.46,141.09,255.89z M112.25,256.37c0.09,0.45,0.18,0.9,0.28,1.35
		c0.22-0.07,0.44-0.15,0.66-0.22C112.86,257.13,112.55,256.75,112.25,256.37z M111.78,253.53c0.84,1.22,1.75,2.39,2.74,3.49
		c2.63-0.96,5.17-2.03,7.6-3.17c0.83-1.98,1.63-4.12,2.41-6.42c-0.27-0.28-0.54-0.57-0.8-0.87c-0.76-0.85-1.48-1.74-2.14-2.67
		c-0.61,0.19-1.23,0.36-1.85,0.53c-2.78,0.75-5.61,1.28-8.48,1.59C111.27,248.58,111.44,251.09,111.78,253.53z M59.28,218.64
		c-0.24,2.08-0.36,4.18-0.37,6.25c-0.01,8.63,1.98,16.39,5.76,22.45c2.36,3.79,5.35,6.81,8.92,9.05
		c-2.75-6.51-4.15-13.56-4.18-20.99C64.59,231.46,60.7,226.06,59.28,218.64z M164.34,241.97c6.62,4.12,13.05,8.77,18.6,13.44
		c3.32-1.04,6.6-2.32,9.85-3.83c1.2-4.86,1.61-9.93,1.22-15.1c-2.01,1.64-4.13,2.96-6.32,3.9c-5.89,2.53-11.24,2.63-15.91,0.27
		c-0.86-0.44-1.69-0.95-2.49-1.53C167.78,239.92,166.12,240.88,164.34,241.97z M130.65,250.89c2.58,1.77,5.48,3.24,8.69,4.41
		c3.34-1.65,6.62-3.5,9.77-5.38c-0.58-3.4-1.07-6.98-1.52-10.68c-2.4,1.94-4.88,3.82-7.38,5.57
		C137.56,246.67,134.33,248.78,130.65,250.89z M125.57,248.47c-0.55,1.59-1.11,3.1-1.68,4.54c1.49-0.74,2.94-1.49,4.33-2.26
		C127.29,250.03,126.41,249.27,125.57,248.47z M107.95,246.29c0.65,1.63,1.39,3.19,2.22,4.66c-0.14-1.58-0.21-3.18-0.22-4.8
		C109.28,246.2,108.62,246.25,107.95,246.29z M195.24,235.42c0.5,5.28,0.19,10.46-0.92,15.43c1.98-0.97,3.95-2.03,5.89-3.17
		c1.25-0.74,2.45-1.48,3.6-2.23c0.49-6.48,0.47-13.58-0.06-21.29C201.38,228.67,198.48,232.48,195.24,235.42z M126.03,247.08
		c1.07,1.06,2.21,2.05,3.44,2.96c3.85-2.18,7.24-4.39,9.99-6.32c2.79-1.96,5.45-3.99,7.95-6.04c-0.13-1.14-0.26-2.3-0.39-3.46
		c-1.46-0.64-2.89-1.21-4.27-1.73c-4.78,3.84-9.82,6.91-15.08,9.17C127.15,243.56,126.6,245.37,126.03,247.08z M148.8,238.24
		c0.45,3.8,0.94,7.47,1.52,10.94c2.63-1.6,5.16-3.2,7.53-4.71c1.37-0.87,2.7-1.71,3.97-2.51c-0.35-0.21-0.7-0.42-1.05-0.63
		c-3.28-1.94-6.47-3.67-9.54-5.17C150.44,236.87,149.63,237.56,148.8,238.24z M205.08,246.2
		C205.08,246.21,205.08,246.21,205.08,246.2C205.08,246.21,205.09,246.2,205.08,246.2C205.09,246.2,205.08,246.2,205.08,246.2z
		 M122.91,243.47c0.57,0.77,1.17,1.51,1.8,2.22c0.1,0.11,0.19,0.21,0.29,0.32c0.38-1.19,0.76-2.43,1.12-3.71
		C125.06,242.72,123.99,243.11,122.91,243.47z M94.12,244.12c4.05,0.7,8.04,1.01,11.96,0.92c-2.39-6.9-3.26-15.06-2.61-24.43
		c-0.65-0.59-1.28-1.22-1.89-1.87c-0.37-0.4-0.73-0.81-1.09-1.24c-2.99,1.38-5.62,2.71-7.77,3.92c-1.32,0.74-2.5,1.56-3.55,2.48
		c0,0.14,0.01,0.29,0.01,0.43C89.44,231.31,91.13,238.03,94.12,244.12z M104.72,221.69c-0.52,8.95,0.39,16.73,2.74,23.31
		c0.83-0.04,1.66-0.09,2.49-0.17c0.04-2.51,0.22-5.08,0.56-7.69c0.02-0.49,0.25-4.86,2-10.79
		C109.66,225.15,107.05,223.6,104.72,221.69z M113.76,226.83c-1.74,5.96-1.93,10.31-1.93,10.38l0,0.06c-0.33,2.52-0.51,5-0.55,7.42
		c2.75-0.31,5.46-0.83,8.13-1.54c0.47-0.13,0.94-0.26,1.41-0.4c-2.92-4.46-4.8-9.69-5.5-15.38
		C114.78,227.2,114.27,227.02,113.76,226.83z M204.91,221.86c0.65,8.22,0.75,15.79,0.29,22.68c0.61-0.41,1.2-0.82,1.77-1.23
		c5.87-9.59,8.98-20.84,8.79-32.5c-0.09-5.3-1.65-8.87-4.78-10.91c-0.34-0.22-0.69-0.42-1.06-0.6
		C209.99,206.75,208.2,214.8,204.91,221.86z M83.42,241.4c0.41,0.14,0.82,0.27,1.24,0.41c2.64,0.83,5.26,1.51,7.86,2.02
		c-2.71-5.8-4.28-12.14-4.61-18.7c-2.31,2.46-3.79,5.47-4.4,8.98C83.12,236.35,83.1,238.8,83.42,241.4z M116.69,227.78
		c0.75,5.41,2.6,10.36,5.43,14.57c1.5-0.48,2.99-1.03,4.46-1.65c1.07-3.96,1.9-7.84,2.52-11.47c-0.49-0.03-0.96-0.04-1.42-0.04
		C123.76,229.19,120.09,228.72,116.69,227.78z M209.88,197.83c0.65,0.28,1.26,0.6,1.82,0.96c3.48,2.27,5.29,6.3,5.38,11.99
		c0.18,10.86-2.44,21.37-7.45,30.57c6.5-4.97,10.41-9.29,11.12-10.1c1.87-11.39,0.95-23.29-2.76-35.46
		c-3.23-1.66-6.03-2.97-8.8-3.96c0.34,1.76,0.57,3.58,0.67,5.46C209.87,197.47,209.87,197.65,209.88,197.83z M152.31,235.24
		c2.95,1.46,6.01,3.12,9.14,4.98c0.55,0.32,1.09,0.65,1.64,0.98c1.81-1.11,3.5-2.11,5.06-2.95c-2.92-2.45-5.41-5.86-7.58-9.93
		c-0.47,0.13-0.94,0.24-1.41,0.35C157.04,230.87,154.73,233.08,152.31,235.24z M170.62,238.47c0.57,0.38,1.15,0.72,1.74,1.02
		c4.37,2.2,9.21,2.1,14.8-0.31c2.33-1,4.58-2.45,6.69-4.29c-0.38-3.55-1.14-7.15-2.29-10.76c-0.46-1.45-0.99-2.82-1.6-4.13
		c-6.03,9.16-12.63,15.79-17.69,17.75C171.76,237.96,171.2,238.2,170.62,238.47z M70.73,234.78c3.12,2.45,6.9,4.5,11.31,6.13
		c-0.25-2.5-0.2-4.86,0.18-7.03c0.73-4.22,2.62-7.76,5.63-10.56c-0.13-7.9,1.47-15.81,4.66-23.03c-0.84-3.93-1.26-8.2-1.25-12.75
		c-1.38-0.07-2.75-0.09-4.11-0.07c-7.33,10.55-12.51,22.43-15,34.38C71.22,226.27,70.75,230.59,70.73,234.78z M130.4,229.34
		c-0.57,3.39-1.33,7-2.29,10.69c4.57-2.07,8.98-4.76,13.18-8.06C137.29,230.56,133.62,229.67,130.4,229.34z M161.87,227.93
		c2.31,4.29,4.82,7.49,7.55,9.66c0.84-0.42,1.64-0.78,2.38-1.07c4.76-1.84,11.33-8.5,17.15-17.36c0.11-0.17,0.23-0.35,0.34-0.52
		c-1.77-3.34-4.09-6.16-6.93-8.45c-1.66,3.63-4.24,7.12-7.58,10.17C170.93,223.86,166.41,226.47,161.87,227.93z M148.41,234.84
		c0.07,0.62,0.14,1.23,0.21,1.84c0.45-0.38,0.89-0.75,1.33-1.13C149.43,235.31,148.92,235.07,148.41,234.84z M148.25,233.33
		c0.92,0.41,1.84,0.83,2.78,1.28c2.12-1.87,4.09-3.73,5.91-5.55c-1.73,0.23-3.44,0.28-5.07,0.13c-1.35-0.13-2.59-0.63-3.74-1.45
		c-0.14,0.14-0.28,0.27-0.42,0.4C147.88,229.89,148.06,231.62,148.25,233.33z M190.81,218.71c0.78,1.57,1.46,3.25,2.02,5.02
		c1.07,3.37,1.81,6.73,2.23,10.06c3.08-2.97,5.84-6.8,8.08-11.29c0.15-0.29,0.29-0.59,0.43-0.89c-0.42-5.22-1.07-10.7-1.94-16.43
		c-0.32-2.08-0.73-4.12-1.25-6.13C198.1,205.66,194.84,212.38,190.81,218.71z M60.05,213.79c0.01,0.13,0.01,0.26,0.02,0.39
		c0.34,6.26,2.41,11.72,6.16,16.24c0.96,1.16,2.03,2.25,3.21,3.28c0.09-3.94,0.57-7.99,1.43-12.11
		c2.47-11.82,7.52-23.57,14.66-34.06c-2.46,0.12-4.86,0.41-7.18,0.86c-5.31,1.04-10.24,5.5-13.89,12.56
		C62.48,204.76,60.98,209.17,60.05,213.79z M143.91,231.53c0.97,0.37,1.95,0.77,2.94,1.19c-0.12-1.14-0.24-2.3-0.36-3.46
		C145.64,230.05,144.78,230.8,143.91,231.53z M130.61,228.04c3.51,0.37,7.51,1.37,11.88,2.96c1.23-1.01,2.44-2.07,3.63-3.18
		c0.07-0.06,0.13-0.13,0.2-0.19c-0.06-0.55-0.11-1.11-0.17-1.66c-1.75-1.92-3.31-4.57-4.78-7.64c-3.38,0.96-6.11,1.37-7.95,0.92
		c-0.55-0.13-1.14-0.29-1.76-0.48C131.48,221.51,131.14,224.66,130.61,228.04z M149.07,226.8c0.92,0.61,1.89,0.98,2.92,1.08
		c2.08,0.19,4.27,0.05,6.5-0.41c0.36-0.38,0.72-0.76,1.07-1.14c-1.17-2.42-2.25-5.03-3.25-7.79
		C154.02,221.5,151.59,224.26,149.07,226.8z M116.52,226.36c3.43,1,7.16,1.51,11.14,1.51c0.53,0,1.08,0.02,1.64,0.05
		c0.56-3.52,0.9-6.76,1.07-9.57c-3.06-1.02-6.81-2.63-10.61-4.87c-0.57,0.89-1.11,1.8-1.63,2.74c-0.65,1.19-1.24,2.37-1.77,3.53
		C116.25,221.99,116.3,224.2,116.52,226.36z M161.15,226.54c0.04,0.07,0.07,0.14,0.11,0.21c4.43-1.39,8.86-3.93,12.64-7.37
		c3.3-3.01,5.82-6.44,7.4-10.01c-1.96-1.42-4.14-2.61-6.55-3.57c-0.29-0.11-0.57-0.22-0.86-0.33c-0.69,0.27-1.39,0.55-2.08,0.83
		c-0.25,2.23-0.62,4.21-1.04,5.86C169.87,215.56,166.37,220.8,161.15,226.54z M147.42,225.41c0.2,0.2,0.4,0.39,0.6,0.57
		c2.72-2.72,5.32-5.71,7.77-8.92c-0.41-1.18-0.81-2.38-1.19-3.61c-2.87,1.18-5.59,2.27-8.09,3.18c0.3,2.8,0.59,5.59,0.87,8.36
		C147.39,225.14,147.41,225.27,147.42,225.41z M114.14,225.57c0.33,0.13,0.67,0.25,1.01,0.36c-0.08-0.94-0.13-1.9-0.16-2.85
		C114.68,223.93,114.4,224.76,114.14,225.57z M157.27,217.29c0.52,1.45,1.06,2.88,1.62,4.26c0.54,1.31,1.08,2.55,1.64,3.72
		c4.95-5.5,8.15-10.36,8.95-13.44c0.37-1.42,0.69-3.1,0.93-4.97c-2.84,1.16-5.65,2.33-8.36,3.48
		C160.53,212.75,158.93,215.07,157.27,217.29z M104.83,220.06c2.39,2.08,5.09,3.76,8.08,5.02c0.57-1.78,1.28-3.69,2.17-5.65
		c0.16-2.72,0.56-5.47,1.19-8.19c-0.04-0.03-0.09-0.06-0.13-0.09c-3.82,1.36-7.47,2.8-10.83,4.23
		C105.1,216.97,104.94,218.53,104.83,220.06z M142.64,217.95c1.04,2.16,2.12,4.09,3.27,5.67c-0.22-2.17-0.45-4.34-0.68-6.52
		C144.34,217.4,143.47,217.69,142.64,217.95z M93.02,202.47c-2.48,6.21-3.82,13.05-3.86,19.73c0.89-0.7,1.87-1.34,2.93-1.93
		c2.1-1.18,4.66-2.48,7.56-3.82C96.64,212.53,94.42,207.83,93.02,202.47z M201.44,197.92c0.63,2.31,1.13,4.66,1.49,7.07
		c0.74,4.89,1.33,9.61,1.74,14.13c2.67-6.51,4.06-13.71,3.92-20.37C206.55,198.04,204.13,197.8,201.44,197.92z M101.74,216.94
		c0.26,0.31,0.53,0.61,0.81,0.91c0.34,0.37,0.69,0.73,1.05,1.08c0.08-0.97,0.18-1.96,0.3-2.95
		C103.16,216.3,102.44,216.62,101.74,216.94z M131.73,217.41c0.72,0.22,1.39,0.4,2,0.55c1.57,0.38,4.03,0.01,7.07-0.85
		c-1.39-3.04-2.71-6.43-4.06-9.87c-0.24-0.62-0.49-1.25-0.73-1.87c-1.93,0.42-3.79,0.87-5.56,1.33c0.71,1.71,1.13,3.47,1.26,5.25
		C131.82,213.45,131.83,215.3,131.73,217.41z M182.9,208.93c2.93,2.29,5.33,5.11,7.2,8.44c3.9-6.24,7.04-12.83,9.22-19.29
		c-4.45,0.47-9.52,1.77-14.81,3.51C184.41,204.03,183.86,206.51,182.9,208.93z M120.48,212.39c3.55,2.08,7.05,3.6,9.96,4.6
		c0.08-1.91,0.06-3.58-0.03-4.95c-0.12-1.69-0.53-3.36-1.23-5c-2,0.54-4,1.12-5.98,1.74C122.24,209.93,121.33,211.14,120.48,212.39z
		 M137.32,205.1c0.22,0.56,0.44,1.12,0.65,1.67c1.36,3.49,2.7,6.93,4.1,9.97c0.96-0.3,1.96-0.63,3.01-1
		c-0.43-3.94-0.9-7.89-1.44-11.78C141.49,204.29,139.37,204.67,137.32,205.1z M117.43,212.03c-0.3,1.35-0.54,2.71-0.72,4.06
		c0.09-0.17,0.18-0.33,0.27-0.5c0.53-0.95,1.08-1.88,1.66-2.79C118.23,212.55,117.83,212.29,117.43,212.03z M93.89,200.44
		c1.34,6.02,3.68,11.21,6.99,15.44c1.03-0.47,2.11-0.94,3.21-1.42c0.52-3.99,1.29-8.18,2.31-12.55c-1.28-1.7-2.42-3.54-3.37-5.51
		c-1.07-2.22-1.84-4.5-2.31-6.85c-2.41,2.78-4.6,6.15-6.42,9.99C94.16,199.84,94.02,200.14,93.89,200.44z M155.82,212.95
		c0.3,0.95,0.61,1.9,0.93,2.84c1.09-1.47,2.14-2.99,3.16-4.55C158.52,211.83,157.15,212.4,155.82,212.95z M144.95,203.77
		c0.53,3.81,0.99,7.66,1.41,11.52c2.45-0.9,5.09-1.95,7.85-3.09c-0.9-2.96-1.75-6.02-2.55-9.14
		C149.4,203.21,147.16,203.46,144.95,203.77z M107.44,203.23c-0.83,3.69-1.48,7.23-1.95,10.63c2.93-1.23,6.08-2.47,9.35-3.65
		C112.19,208.22,109.65,205.9,107.44,203.23z M117.75,210.67c0.53,0.36,1.07,0.7,1.61,1.04c0.51-0.75,1.04-1.49,1.59-2.21
		c-1.06,0.35-2.12,0.7-3.17,1.06C117.76,210.6,117.76,210.64,117.75,210.67z M152.99,202.98c0.75,2.9,1.55,5.84,2.43,8.72
		c1.74-0.72,3.52-1.47,5.31-2.23c0.14-0.06,0.28-0.12,0.42-0.18c1.21-1.94,2.36-3.94,3.46-5.98
		C160.84,202.84,156.91,202.77,152.99,202.98z M107.82,201.61c2.46,3.16,5.42,5.85,8.5,8.08c0.12-0.04,0.23-0.08,0.35-0.12
		c0.93-3.47,2.24-6.89,3.9-10.17c0.29-0.56,0.58-1.12,0.88-1.66c0,0,0,0-0.01,0c-3.04-2.33-6.74-4.37-10.85-6
		c-0.46,1.25-0.87,2.55-1.24,3.89C108.8,197.65,108.28,199.65,107.82,201.61z M122.5,198.56c-0.26,0.47-0.51,0.94-0.75,1.43
		c-1.48,2.92-2.68,5.96-3.56,9.05c1.4-0.48,2.82-0.94,4.25-1.39c1.38-1.62,2.86-3.14,4.44-4.54
		C125.7,201.53,124.24,200,122.5,198.56z M166,203.5c-0.89,1.67-1.81,3.31-2.77,4.91c2.4-1.01,4.86-2.03,7.35-3.04
		c0.03-0.3,0.06-0.6,0.08-0.91C169.14,204.06,167.59,203.75,166,203.5z M175.69,204.77c2.23,0.92,4.27,2.04,6.12,3.35
		c0.76-2.01,1.23-4.06,1.37-6.08C180.7,202.88,178.2,203.8,175.69,204.77z M101.93,154.42c-0.4,0.16-0.81,0.33-1.22,0.51
		c-9.98,4.38-20.63,13.57-28.47,24.59c-6.7,9.41-10.81,19.12-11.92,28c0.82-2.54,1.81-4.96,2.95-7.17
		c3.83-7.43,9.09-12.13,14.81-13.25c2.7-0.53,5.51-0.83,8.36-0.92c1.68-2.38,3.44-4.66,5.26-6.83c0.72-6.15,2.48-11.93,5.23-17.22
		C98.35,159.44,100.02,156.86,101.93,154.42z M127.64,204.19c-0.96,0.86-1.89,1.77-2.77,2.71c1.24-0.37,2.49-0.73,3.74-1.07
		C128.32,205.28,127.99,204.73,127.64,204.19z M128.64,203.32c0.48,0.71,0.9,1.44,1.27,2.17c1.91-0.5,3.78-0.95,5.62-1.36
		c-0.6-1.51-1.2-3.02-1.83-4.5c-0.63,0.4-1.26,0.81-1.87,1.23C130.73,201.64,129.66,202.46,128.64,203.32z M172.04,203.49
		c0.62,0.18,1.22,0.38,1.81,0.58c3.14-1.23,6.29-2.41,9.37-3.44c-0.02-3.75-1.07-7.46-2.96-10.78c-2.56,0.19-5.35,0.43-8.41,0.71
		c-0.09,0.25-0.18,0.49-0.28,0.73C172.18,195.62,172.27,199.8,172.04,203.49z M134.84,198.95c0.68,1.61,1.34,3.26,1.99,4.9
		c2.26-0.48,4.47-0.88,6.62-1.21c-0.35-2.44-0.73-4.85-1.16-7.23C139.66,196.4,137.17,197.58,134.84,198.95z M166.65,202.27
		c1.42,0.23,2.79,0.52,4.1,0.86c0.16-2.86,0.13-6-0.19-9.29C169.36,196.71,168.06,199.53,166.65,202.27z M143.55,194.96
		c0.44,2.47,0.84,4.97,1.21,7.49c2.25-0.32,4.44-0.55,6.57-0.71c-0.63-2.48-1.23-4.98-1.82-7.48c-0.07-0.32-0.14-0.64-0.21-0.96
		C147.31,193.77,145.4,194.32,143.55,194.96z M123.16,197.4c1.87,1.53,3.44,3.15,4.72,4.84c1.03-0.86,2.1-1.68,3.2-2.45
		c0.68-0.48,1.38-0.94,2.1-1.38c-1.36-3.13-2.8-6.1-4.41-8.68C126.7,191.99,124.82,194.57,123.16,197.4z M157.02,201.53
		c2.91,0,5.66,0.18,8.26,0.53c1.83-3.53,3.49-7.18,4.95-10.94c-0.02-0.14-0.04-0.28-0.06-0.42c-3.71,0.35-7.8,0.75-12.34,1.2
		c-2.5,0.25-4.91,0.62-7.23,1.11c0.06,0.32,0.13,0.63,0.21,0.95c0.58,2.48,1.2,5.07,1.87,7.7c0.19-0.01,0.39-0.02,0.58-0.03
		C154.52,201.57,155.78,201.53,157.02,201.53z M101.97,189.05c0.45,2.32,1.2,4.58,2.25,6.78c0.75,1.55,1.62,3.02,2.58,4.4
		c0.4-1.63,0.83-3.28,1.29-4.96c0.38-1.38,0.81-2.72,1.28-4.01C107.01,190.38,104.52,189.64,101.97,189.05z M181.71,189.74
		c1.74,3.24,2.73,6.82,2.82,10.45c1.61-0.52,3.19-1,4.74-1.43c3.93-1.09,7.4-1.77,10.46-2.04c-0.75-2.49-1.67-4.93-2.74-7.3
		C192.87,189.17,188.01,189.3,181.71,189.74z M92.57,187.63c0,3.76,0.3,7.32,0.88,10.65c1.82-3.7,3.98-6.96,6.36-9.68
		C97.39,188.13,94.97,187.8,92.57,187.63z M129.7,188.74c1.69,2.67,3.2,5.75,4.61,8.99c2.42-1.41,5.01-2.62,7.74-3.63
		c-0.44-2.37-0.92-4.7-1.46-6.99c-0.44-1.86-0.9-3.65-1.39-5.37C135.8,183.41,132.59,185.78,129.7,188.74z M202.71,196.58
		c2.2,0,4.14,0.26,5.83,0.77c-0.11-2.08-0.38-4.08-0.8-6c-1.59-0.51-3.18-0.91-4.87-1.23c-0.45,2.13-1.02,4.31-1.7,6.5
		C201.71,196.59,202.22,196.58,202.71,196.58z M111.08,190.48c4.09,1.62,7.85,3.67,11.04,6.1c1.74-2.95,3.73-5.64,5.91-7.99
		c-3.49-5.19-7.29-7.73-11.58-7.74C114.29,183.68,112.5,186.9,111.08,190.48z M198.48,189.53c0.72,1.65,1.37,3.33,1.94,5.04
		c0.45-1.57,0.84-3.13,1.16-4.67C200.59,189.74,199.56,189.62,198.48,189.53z M208.86,190.33c2.75,0.93,5.49,2.16,8.57,3.71
		c-0.33-1-0.67-2.01-1.04-3.01c-8.99-24.84-21.39-42.12-36.85-51.37c-14.77-8.83-29.13-8.39-38.56-6.46
		c-7.34,1.5-14.36,4.09-20.6,7.53c5.29,0.14,10.4,1.02,15.35,2.3c6.39-1.77,12.99-2.43,19.03-1.82c8.35,0.83,14.8,3.91,18.64,8.71
		c7.3-1.73,14.76,0.54,21.57,6.68c6.1,5.5,9.19,13.33,9.12,22.95c0.2,0.27,0.39,0.55,0.57,0.83
		C206.57,183.26,207.98,186.63,208.86,190.33z M140.41,181.18c0.52,1.8,1.01,3.67,1.47,5.63c0.53,2.24,1,4.52,1.43,6.84
		c1.85-0.63,3.77-1.18,5.75-1.64c-0.71-4.43-0.53-9.17,0.51-13.91C146.59,178.76,143.53,179.79,140.41,181.18z M150.98,177.81
		c-1.11,4.74-1.33,9.49-0.64,13.91c2.36-0.5,4.8-0.87,7.34-1.12c4.52-0.45,8.59-0.85,12.26-1.19c-0.37-2.07-0.86-4.16-1.49-6.25
		c-0.43-1.42-0.96-2.91-1.6-4.43C162.08,177.06,156.7,176.75,150.98,177.81z M102.37,187.78c2.57,0.59,5.07,1.34,7.48,2.23
		c1.32-3.32,2.94-6.33,4.88-9.04C110.47,181.53,106.19,183.94,102.37,187.78z M203.14,188.83c1.47,0.27,2.87,0.62,4.26,1.03
		c-0.77-2.96-1.91-5.67-3.38-8.05c-0.12,2.17-0.4,4.43-0.83,6.77C203.17,188.66,203.15,188.74,203.14,188.83z M174.39,182.93
		c-0.6,2.06-1.28,4.16-2.04,6.26c2.58-0.23,4.95-0.43,7.15-0.6C178.12,186.48,176.4,184.56,174.39,182.93z M168.54,179.39
		c0.45,1.16,0.84,2.29,1.17,3.38c0.6,1.96,1.07,3.93,1.43,5.88c0.8-2.22,1.51-4.42,2.12-6.59c-0.37-0.27-0.76-0.53-1.15-0.78
		C170.98,180.56,169.78,179.93,168.54,179.39z M197.86,188.16c0.87,0.06,1.72,0.15,2.53,0.24c0.49,0.06,0.97,0.13,1.44,0.2
		c0.02-0.09,0.03-0.18,0.05-0.27c0.47-2.57,0.82-5.42,0.87-8.38c-3.22-4.32-7.63-7.36-13.15-9.04c-1.53-0.47-3.21-0.95-5-1.44
		C190.28,175.17,194.7,181.41,197.86,188.16z M174.78,181.56c2.51,1.95,4.61,4.31,6.21,6.92c6.4-0.46,11.27-0.61,15.38-0.41
		c-3.38-7-8.16-13.44-14.33-19.26c-1.5-0.37-3.07-0.74-4.69-1.09C176.99,171.94,176.12,176.65,174.78,181.56z M117.47,179.57
		c4.27,0.36,8.05,3.01,11.5,8.04c3-3.03,6.33-5.46,9.87-7.15c-1.38-4.58-2.96-8.64-4.77-12.2c-2.13,0.76-4.19,1.67-6.17,2.75
		C123.84,173.24,120.36,176.1,117.47,179.57z M92.58,186.31c2.61,0.18,5.22,0.53,7.78,1.04c-0.68-5.59,0.28-11.5,2.88-17.66
		c-3.6,3-7.04,6.42-10.27,10.21c-0.06,0.56-0.11,1.12-0.16,1.68C92.69,183.2,92.61,184.77,92.58,186.31z M105.52,167.87
		c-0.11,0.23-0.23,0.47-0.34,0.71c-2.96,6.34-4.14,12.39-3.56,18.1c4.3-4.25,9.17-6.8,13.99-7.12c0.06,0,0.12-0.01,0.18-0.01
		c3.12-3.96,6.95-7.2,11.47-9.68c1.99-1.09,4.05-2.01,6.19-2.78c-2.02-3.75-4.29-6.92-6.85-9.54c-0.07-0.07-0.15-0.15-0.22-0.22
		c-4.41,1.06-8.95,2.93-13.52,5.6C110.36,164.37,107.91,166.03,105.52,167.87z M88.28,186.16c0.99,0,1.99,0.02,2.99,0.07
		c0.03-1.48,0.1-3,0.22-4.54c-1.17,1.44-2.3,2.93-3.41,4.46C88.15,186.16,88.21,186.16,88.28,186.16z M167.84,177.69
		c1.74,0.66,3.41,1.49,4.99,2.5c0.27,0.18,0.54,0.36,0.81,0.54c1.27-4.73,2.09-9.24,2.41-13.27c-5.17-1.06-10.84-1.9-16.64-2.22
		C163.33,169.08,166.01,173.48,167.84,177.69z M135.32,167.84c1.78,3.55,3.35,7.56,4.72,12.07c3.36-1.49,6.66-2.56,9.87-3.23
		c0.53-2.09,1.23-4.17,2.1-6.22c0.79-1.87,1.7-3.66,2.71-5.36c-0.07,0-0.13,0-0.2,0C147.98,165.09,141.41,165.86,135.32,167.84z
		 M182.69,167.62c2.67,0.67,5.12,1.37,7.3,2.04c5.21,1.59,9.48,4.33,12.75,8.17c-0.24-7.11-2.38-14.6-8.65-20.25
		c-6.27-5.66-13.12-7.85-19.83-6.48c1.18,1.75,2.05,3.71,2.56,5.84c0.44,1.81,0.67,3.91,0.69,6.24c1.26,1,2.5,2.04,3.72,3.12
		C181.73,166.73,182.21,167.17,182.69,167.62z M104.37,153.53c-2.46,2.87-4.56,5.95-6.26,9.22c-2.38,4.58-4,9.54-4.82,14.79
		c3.52-3.95,7.27-7.49,11.19-10.53c2.21-4.4,5.98-9.81,12.34-14.7c-0.64-0.11-1.3-0.2-1.97-0.25
		C111.6,151.82,108.09,152.31,104.37,153.53z M157.47,175.88c3.03,0,5.93,0.41,8.67,1.24c-1.93-4.11-4.72-8.35-8.75-11.97
		c-0.38-0.01-0.76-0.02-1.14-0.03c-1.14,1.84-2.16,3.8-3.03,5.85c-0.76,1.8-1.38,3.62-1.88,5.44
		C153.43,176.05,155.48,175.88,157.47,175.88z M177.44,166.4c0.88,0.19,1.74,0.38,2.58,0.57c-0.83-0.73-1.67-1.44-2.51-2.13
		C177.49,165.35,177.47,165.87,177.44,166.4z M127.89,156.99c2.54,2.68,4.81,5.89,6.82,9.66c6.6-2.17,13.75-2.95,20.82-2.86
		c0.03-0.05,0.06-0.09,0.09-0.14c-3.09-2.42-6.83-4.49-11.35-5.94C139.16,156.07,133.64,155.84,127.89,156.99z M157.93,163.85
		c6.35,0.24,12.58,1.13,18.22,2.28c0.04-0.79,0.07-1.56,0.07-2.31c-3.93-3.07-7.98-5.68-11.91-7.9c-2.54,2.01-4.89,4.56-6.92,7.47
		C157.57,163.54,157.75,163.69,157.93,163.85z M118.51,152.7c-4.16,3.04-8.32,7.09-11.51,12.44c1.71-1.21,3.44-2.33,5.19-3.35
		c4.39-2.56,8.76-4.4,13.02-5.52C123.23,154.57,120.98,153.38,118.51,152.7z M134.91,154.95c3.37,0,6.64,0.5,9.76,1.51
		c4.65,1.49,8.49,3.61,11.68,6.1c1.98-2.83,4.25-5.31,6.7-7.33c-5.45-2.98-10.62-5.19-14.85-6.77c-4.71-1.75-8.85-3.07-12.54-4.04
		c-3.11,0.89-6.17,2.04-9.08,3.45c-2.08,1.01-4.38,2.28-6.72,3.87c2.55,0.86,4.86,2.24,6.9,4.14
		C129.54,155.26,132.26,154.95,134.91,154.95z M165.45,155.05c3.55,2.03,7.18,4.37,10.73,7.08c-0.08-1.8-0.29-3.44-0.64-4.89
		c-0.52-2.14-1.42-4.09-2.66-5.82c-1.86,0.52-3.71,1.31-5.53,2.39C166.71,154.19,166.07,154.61,165.45,155.05z M138.29,143.73
		c3.55,1.03,7.01,2.23,10.38,3.49c4.4,1.64,9.82,3.97,15.52,7.12c0.81-0.61,1.65-1.16,2.49-1.66c1.75-1.04,3.53-1.83,5.32-2.38
		c-3.67-4.28-9.66-7.02-17.37-7.79C149.44,142,143.82,142.44,138.29,143.73z M118.19,142c-3.23,1.95-6.22,4.14-8.91,6.53
		c-1.13,1.01-2.21,2.05-3.23,3.13c3.12-0.82,6.09-1.12,8.89-0.91c1.13,0.09,2.23,0.26,3.29,0.51c2.28-1.62,4.86-3.17,7.78-4.58
		c2.32-1.12,4.72-2.09,7.18-2.89C127.06,142.36,122.26,141.92,118.19,142z"/>
</g>
<g>
	<polygon class="st16" points="290.44,94.96 234.7,110.99 268.86,80.01 271.93,87.99 286.11,88.57 	"/>
	<polygon class="st17" points="234.7,110.99 278.63,80 324.7,71.22 	"/>
	<polygon class="st17" points="268.86,80.01 234.7,110.99 258.32,66.72 	"/>
</g>
<g>
	<polygon class="st16" points="419.65,155.44 444.66,159 428.06,147.7 427.22,151.32 421.14,152.43 	"/>
	<polygon class="st17" points="444.66,159 423.85,148.28 403.45,147.26 	"/>
	<polygon class="st17" points="428.06,147.7 444.66,159 431.81,141.33 	"/>
</g>
<g>
	<g>
		<g>
			<path class="st15" d="M406.43,287.41c-23.48,0-46.74-10.35-62.22-27.7c-13.26-14.85-19.4-33.27-17.29-51.86l0.31,0.04l-0.31-0.04
				c2.89-25.42,11.48-45.12,25.54-58.55c13.34-12.74,31.49-19.78,53.96-20.92c26.28-1.34,46.51,6.15,60.12,22.25
				c5.95,7.05,10.63,15.78,13.91,25.96c2.99,9.27,4.84,19.79,5.5,31.28c0.7,12.14-0.37,23.16-3.19,32.78
				c-2.88,9.82-7.61,18.26-14.05,25.09C455.13,280.12,434.18,287.41,406.43,287.41z M412.3,128.86c-1.92,0-3.86,0.05-5.85,0.15
				c-22.31,1.14-40.33,8.12-53.55,20.75c-13.95,13.32-22.48,32.9-25.35,58.17c-2.09,18.41,3.99,36.65,17.13,51.36
				c15.37,17.21,38.45,27.48,61.75,27.48c27.57,0,48.36-7.22,61.81-21.47c6.38-6.75,11.05-15.11,13.9-24.83
				c2.8-9.55,3.87-20.5,3.17-32.57c-0.66-11.43-2.5-21.91-5.47-31.12c-3.26-10.1-7.9-18.76-13.79-25.75
				C453.6,136.31,435.54,128.86,412.3,128.86z"/>
			<path class="st15" d="M406.43,287.85c-23.6,0-46.98-10.41-62.55-27.84c-13.24-14.83-19.43-33.19-17.45-51.76l0,0l0.1-0.87l0,0
				c2.95-25.32,11.57-44.96,25.62-58.39c13.41-12.81,31.66-19.89,54.24-21.04c26.43-1.35,46.78,6.19,60.47,22.41
				c5.99,7.09,10.7,15.87,14,26.11c3,9.3,4.86,19.86,5.52,31.39c0.7,12.19-0.38,23.27-3.21,32.93c-2.9,9.89-7.66,18.39-14.15,25.26
				C455.36,280.51,434.31,287.85,406.43,287.85z M412.3,129.3c-1.9,0-3.86,0.05-5.83,0.15c-22.2,1.13-40.13,8.07-53.27,20.63
				c-13.87,13.25-22.36,32.73-25.21,57.9c-2.08,18.28,3.97,36.4,17.02,51.02c15.28,17.12,38.25,27.34,61.42,27.34
				c27.44,0,48.13-7.18,61.49-21.33c6.33-6.7,10.97-15,13.8-24.65c2.79-9.5,3.85-20.41,3.15-32.42c-0.66-11.4-2.49-21.83-5.45-31.01
				c-3.24-10.05-7.85-18.66-13.71-25.6C453.37,136.71,435.4,129.3,412.3,129.3z"/>
		</g>
	</g>
	<g>
		<g>
			<path class="st15" d="M409.26,290.94c-13.19,0-27.7-3.74-43.39-11.22c-21.2-10.1-37.74-29.45-44.27-51.76
				c-5.59-19.11-3.21-38.38,6.69-54.25c13.54-21.71,29.77-35.8,48.24-41.88c17.52-5.77,36.93-4.31,57.71,4.31
				c24.31,10.09,39.35,25.55,44.7,45.94c2.34,8.92,2.81,18.82,1.4,29.42c-1.29,9.65-4.14,19.95-8.48,30.61
				c-4.59,11.26-10.3,20.75-16.98,28.22c-6.82,7.63-14.72,13.21-23.47,16.61C424.52,289.6,417.12,290.94,409.26,290.94z
				 M328.56,173.87l0.27,0.17c-9.8,15.72-12.15,34.8-6.62,53.74c6.47,22.14,22.9,41.35,43.93,51.37
				c24.89,11.85,46.77,14.28,65.03,7.2c8.66-3.36,16.48-8.89,23.23-16.44c6.63-7.42,12.31-16.85,16.87-28.04
				c4.32-10.61,7.16-20.85,8.44-30.45c1.4-10.52,0.94-20.34-1.38-29.18c-5.3-20.19-20.22-35.51-44.33-45.52
				c-20.63-8.57-39.9-10.01-57.27-4.3c-18.32,6.03-34.44,20.03-47.9,41.62L328.56,173.87z"/>
			<path class="st15" d="M409.26,291.37c-13.23,0-27.89-3.79-43.58-11.26c-21.31-10.15-37.94-29.6-44.5-52.03
				c-5.62-19.23-3.23-38.62,6.74-54.61c13.59-21.8,29.9-35.95,48.47-42.07c17.62-5.8,37.14-4.34,58.02,4.32
				c24.44,10.15,39.57,25.7,44.96,46.24c2.36,8.98,2.83,18.93,1.41,29.59c-1.29,9.69-4.16,20.02-8.51,30.71
				c-4.6,11.3-10.34,20.84-17.06,28.35c-6.87,7.68-14.82,13.3-23.64,16.72C424.66,290.02,417.15,291.37,409.26,291.37z
				 M329.2,174.27c-9.74,15.61-12.07,34.57-6.57,53.38c6.44,22.03,22.77,41.13,43.7,51.09c24.78,11.8,46.54,14.22,64.69,7.19
				c8.59-3.33,16.35-8.82,23.06-16.32c6.6-7.38,12.25-16.77,16.79-27.91c4.31-10.57,7.14-20.78,8.41-30.34
				c1.4-10.46,0.94-20.22-1.37-29.01c-5.27-20.05-20.1-35.27-44.08-45.22c-20.53-8.53-39.7-9.97-56.97-4.28
				C358.64,138.84,342.6,152.78,329.2,174.27z"/>
		</g>
	</g>
	<g>
		<g>
			<path class="st15" d="M413.72,295.82c-19.13,0-38.79-9.19-58.49-27.38c-17.86-16.48-28.29-40.69-27.89-64.76
				c0.34-20.61,8.6-38.93,23.26-51.59l0.21,0.25l-0.21-0.25c20.05-17.31,40.42-26.27,60.54-26.61c19.08-0.33,37.84,7.06,55.74,21.97
				c20.94,17.44,31.07,37.33,30.11,59.14c-0.42,9.54-2.99,19.47-7.64,29.52c-4.23,9.15-10.22,18.45-17.78,27.66
				c-7.99,9.72-16.55,17.36-25.45,22.7c-9.08,5.45-18.61,8.55-28.3,9.22C416.45,295.77,415.09,295.82,413.72,295.82z M412.35,126.12
				c-0.4,0-0.8,0-1.2,0.01c-19.97,0.34-40.2,9.24-60.12,26.45c-14.51,12.54-22.69,30.68-23.03,51.1
				c-0.39,23.88,9.95,47.91,27.68,64.26c20.97,19.36,41.86,28.46,62.09,27.07c9.59-0.66,19.02-3.73,28.01-9.13
				c8.83-5.3,17.34-12.88,25.28-22.55c7.53-9.16,13.48-18.42,17.69-27.52c4.62-9.97,7.17-19.82,7.58-29.27
				c0.95-21.59-9.1-41.31-29.87-58.61C449.06,133.46,430.86,126.12,412.35,126.12z"/>
			<path class="st15" d="M413.72,296.25L413.72,296.25c-19.24,0-39.02-9.25-58.79-27.5c-17.95-16.57-28.43-40.9-28.03-65.09
				c0.34-20.58,8.53-38.89,23.08-51.62l0,0l0.66-0.57l0,0c20.02-17.2,40.37-26.09,60.49-26.43c19.19-0.33,38.05,7.09,56.03,22.07
				c21.05,17.53,31.23,37.55,30.26,59.49c-0.42,9.6-3.01,19.58-7.68,29.68c-4.25,9.18-10.25,18.52-17.84,27.75
				c-8.02,9.76-16.62,17.43-25.56,22.79c-9.14,5.48-18.73,8.61-28.5,9.28C416.48,296.21,415.09,296.25,413.72,296.25L413.72,296.25z
				 M412.35,126.56c-0.4,0-0.8,0-1.2,0.01c-19.86,0.34-40,9.21-59.84,26.35c-14.42,12.45-22.54,30.49-22.88,50.78
				c-0.39,23.76,9.9,47.66,27.54,63.93c19.49,17.99,38.9,27.09,57.75,27.09c1.34,0,2.68-0.05,4.02-0.14
				c9.52-0.66,18.88-3.71,27.82-9.07c8.79-5.27,17.26-12.83,25.16-22.45c7.5-9.13,13.43-18.36,17.63-27.43
				c4.59-9.92,7.13-19.71,7.54-29.11c0.94-21.45-9.05-41.04-29.71-58.25C448.86,133.87,430.75,126.56,412.35,126.56z"/>
		</g>
	</g>
	<g>
		<g>
			<path class="st15" d="M390.1,294.41c-7.51,0-14.66-1.25-21.37-3.74c-19.19-7.12-34.6-24.15-45.81-50.59
				c-9.49-22.38-9.02-48.73,1.25-70.5c8.8-18.64,23.87-31.93,42.44-37.43c25.4-7.52,47.65-7.3,66.13,0.68
				c17.53,7.56,31.58,22.02,41.75,42.97c11.9,24.51,12.94,46.81,3.08,66.29c-4.31,8.52-10.74,16.51-19.12,23.75
				c-7.63,6.59-16.91,12.61-27.59,17.89c-11.28,5.57-22.23,9.01-32.53,10.2C395.54,294.25,392.8,294.41,390.1,294.41z M366.7,132.46
				l0.09,0.31c-18.39,5.45-33.31,18.62-42.03,37.09c-10.19,21.6-10.66,47.75-1.24,69.96c11.14,26.27,26.43,43.18,45.44,50.23
				c9.01,3.35,18.87,4.43,29.28,3.22c10.23-1.19,21.1-4.6,32.32-10.14c10.63-5.25,19.87-11.24,27.45-17.79
				c8.31-7.18,14.69-15.11,18.96-23.55c9.76-19.28,8.72-41.39-3.09-65.71c-10.1-20.81-24.04-35.16-41.42-42.66
				c-18.34-7.91-40.44-8.13-65.68-0.65L366.7,132.46z"/>
			<path class="st15" d="M390.11,294.85c-7.55,0-14.79-1.27-21.52-3.77c-19.3-7.17-34.8-24.27-46.06-50.83
				c-9.54-22.49-9.07-48.98,1.26-70.86c8.85-18.75,24.02-32.13,42.71-37.67c25.5-7.55,47.85-7.32,66.43,0.7
				c17.63,7.6,31.75,22.13,41.97,43.18c11.96,24.64,13,47.07,3.08,66.68c-4.34,8.57-10.8,16.61-19.22,23.89
				c-7.65,6.62-16.97,12.66-27.68,17.95c-11.33,5.59-22.32,9.04-32.68,10.25C395.59,294.68,392.81,294.85,390.11,294.85z
				 M366.92,133.2c-18.27,5.41-33.1,18.5-41.76,36.85c-10.14,21.49-10.6,47.51-1.23,69.6c11.09,26.16,26.29,42.98,45.19,49.99
				c8.95,3.32,18.73,4.4,29.08,3.19c10.18-1.18,21.01-4.58,32.18-10.1c10.6-5.23,19.8-11.2,27.36-17.73
				c8.27-7.15,14.61-15.03,18.86-23.42c9.69-19.15,8.65-41.13-3.09-65.32c-10.05-20.71-23.91-34.99-41.2-42.44
				C414.06,125.96,392.06,125.75,366.92,133.2z"/>
		</g>
	</g>
	<g>
		<g>
			<path class="st15" d="M411.02,287.41c-23.48,0-43.35-12.33-58.83-29.67c-13.26-14.85-22.79-31.29-20.68-49.88
				c2.89-25.42,11.48-45.12,25.54-58.55c13.34-12.74,31.49-19.78,53.96-20.92c26.29-1.34,46.51,6.15,60.12,22.25
				c5.95,7.05,10.63,15.78,13.91,25.96c2.99,9.27,4.84,19.79,5.5,31.28c0.7,12.14-0.37,23.16-3.19,32.78
				c-2.88,9.82-7.61,18.26-14.05,25.09C459.72,280.12,438.77,287.41,411.02,287.41z M331.82,207.89l0.31,0.04
				c-2.09,18.41,7.97,34.84,21.11,49.55c15.37,17.21,34.48,29.29,57.78,29.29c27.57,0,48.36-7.22,61.81-21.47
				c6.38-6.75,11.05-15.11,13.9-24.83c2.8-9.55,3.87-20.5,3.17-32.57c-0.66-11.43-2.5-21.91-5.47-31.12
				c-3.26-10.1-7.9-18.76-13.79-25.75c-13.47-15.95-33.52-23.36-59.6-22.03c-22.31,1.14-40.33,8.12-53.55,20.75
				c-13.95,13.32-22.48,32.9-25.35,58.17L331.82,207.89z"/>
			<path class="st15" d="M411.02,287.85c-11.22,0-22.2-2.82-32.62-8.38c-9.38-5.01-18.31-12.22-26.54-21.43
				c-7.42-8.31-12.71-16.05-16.18-23.65c-4.11-9.02-5.62-17.72-4.61-26.57c2.9-25.53,11.54-45.32,25.67-58.82
				c13.41-12.81,31.66-19.89,54.24-21.04c26.43-1.35,46.78,6.19,60.47,22.41c5.99,7.09,10.7,15.87,14,26.11
				c3,9.3,4.86,19.86,5.52,31.39c0.7,12.19-0.38,23.26-3.21,32.93c-2.9,9.89-7.66,18.39-14.15,25.26
				C459.95,280.51,438.9,287.85,411.02,287.85z M332.57,207.98c-1.77,15.55,4.91,31.19,21,49.21c17.27,19.34,36.6,29.15,57.45,29.15
				c27.44,0,48.13-7.18,61.49-21.33c6.33-6.7,10.97-15,13.8-24.65c2.79-9.5,3.85-20.41,3.15-32.42c-0.66-11.4-2.49-21.83-5.45-31.01
				c-3.24-10.05-7.85-18.66-13.71-25.6c-13.38-15.84-33.31-23.2-59.24-21.88c-22.2,1.13-40.13,8.07-53.27,20.63
				C343.92,163.33,335.43,182.81,332.57,207.98z M336.9,234.92c3.43,7.23,8.54,14.61,15.61,22.53c3.01,3.38,6.12,6.48,9.31,9.3
				c-3.03-2.72-6-5.72-8.91-8.98C345.77,249.76,340.46,242.21,336.9,234.92z"/>
		</g>
	</g>
</g>
<g>
	<path d="M395.47,235.69c-0.04,0.07-0.08,0.14-0.12,0.21c-0.95,1.66-3.14,5.71-5.55,10.15c-1.14,2.11-2.33,4.3-3.46,6.36
		c-1.95,3.56-3.72,6.73-4.76,8.41c-1.05,1.7-1.83,2.9-2.14,3.38c0,0,0,0,0,0c-0.09,0.15-0.11,0.32-0.1,0.49
		c0.11,1.5,0.08,3-0.07,4.47c-1.45,14.45-11.19,22.19-11.19,22.19l-2.9,0.43c0,0,4.1-15.18,5.31-23.77c0.2-1.45,0.29-2.63,0.22-3.4
		c-0.21-2.24,0.18-5.52,0.93-9.29c1.34-6.7,3.79-14.92,5.92-21.5c0.14-0.42,4.21-15.15,4.21-15.15c3.42,2.99,15.89,4.22,15.89,4.22
		S399.78,228.02,395.47,235.69z"/>
	<path class="st8" d="M359.11,295.44h12.09c0,0,0.29-1.84-0.34-3.24c-0.6-1.34-1.47-1.38-0.11-3.49c-0.77,0.79-3.24,1.12-4.98,0.88
		c-0.21,0.35-1.38,2.68-2.1,3.19C362.87,293.36,359.35,293.15,359.11,295.44z"/>
	<path d="M395.47,235.69c-0.04,0.07-0.08,0.14-0.12,0.21c-0.95,1.66-6.1,11.17-8.51,15.61c2.79-11.48,0.85-22.95,0.85-22.95
		L395.47,235.69z"/>
	<path class="st8" d="M348.82,179c0,0-0.48-5.22,5.35-5.22c0,0-1.77,0.48-2.68,1.44c0,0,3.72-2.18,7.76,1.17
		c4.04,3.35,1.53,11.76,2.76,13.36c1.23,1.6,6.02,1.92,5.43,7.08c-0.59,5.16-15.2,11.63-14.26,15.9c0,0-5.73-8.42-1.63-12.26
		c0,0-2,1.88-2.2,4.12c0,0-0.54-4.36,2.24-5.76c2.46-1.24,4.47-5.75,4.26-6.56C355.63,191.46,348.82,179,348.82,179z"/>
	<path class="st7" d="M357.04,200.9c0,0-8.29,20.92-10.08,20.15c-1.79-0.77-12.32-4.12-12.32-4.12s0.38,2.98,0.55,3.12
		c1.54,1.22,9.29,7.2,13.94,7.5c5.16,0.34,12.14-14.85,12.14-14.85L357.04,200.9z"/>
	<path class="st8" d="M350.46,178.27c-0.08-0.32,6.9,3.16,7.26,3.55c3.27,3.63,2.34,8.37,0.47,8.42c-1.2,0.03-0.97,2.03-0.97,2.03
		l-13.39-5.66C343.83,186.6,345.44,177.2,350.46,178.27z"/>
	<path class="st17" d="M354.96,201.34c0,0-1.78,1.85-1.78,7.37c0,0,2.46,3.88,8.83,4.86C362.01,213.57,356.53,201.34,354.96,201.34z
		"/>
	<path class="st8" d="M386.05,223.78l-0.04-2.26c4.5,0.57,15.53-5.38,15.53-5.38s4.71,3.13,5.36,12.08
		c0.31,4.37,2.31,22.84,2.53,28.36c0.08,2,0.11,3.43,0.12,4c0,0,0,0,0,0.01c0,0.17,0.08,0.33,0.19,0.47
		c0.93,1.18,1.74,2.44,2.44,3.74c6.87,12.79,3.28,30.16,3.28,30.16l-1.6-0.41c0,0-5.81-18.01-9.61-25.8
		c-0.64-1.32-1.23-2.35-1.72-2.94c-1.43-1.73-2.93-4.68-4.42-8.23C395.3,250.87,386.05,223.78,386.05,223.78z"/>
	<path class="st8" d="M405.83,295.44h12.09c0,0,0.29-1.84-0.34-3.24c-0.61-1.34-1.55-1.95-1.33-3.57c-0.77,0.79-2.02,1.68-3.77,1.44
		c-0.21,0.35-1.38,2.2-2.1,2.72C409.6,293.36,406.08,293.15,405.83,295.44z"/>
	<path class="st17" d="M362.82,216.17c1.62,0.28-0.27,1.57,1.97,1.81c3.18,0.35,6.46,0.58,8.18,1.27c0.63,0.25,1.05,0.56,1.18,0.95
		c0.75,2.24,4.03,5.7,4.03,5.7c21.05-0.96,23.36-9.76,23.36-9.76c-13.66-13.27-26.22-21.09-35.81-22.13
		c-1.64-0.18-3.72,0.86-5.19,1.52c-3.36,1.5-5.57,5.81-5.57,5.81S356.65,215.12,362.82,216.17z"/>
	<path class="st18" d="M364.79,217.98c3.18,0.35,6.46,0.58,8.18,1.27c0.7-10.5-4.25-18.39-4.25-18.39S365.49,214.01,364.79,217.98z"
		/>
	<path class="st7" d="M362.05,199.08c0,0,7.99-0.44,9.41,4.58c1.42,5.02-2.66,25.05-3.54,27.12c-1.6,3.76-9.4,14.51-9.4,14.51
		l-2.15-1.11c0,0,4.48-16.18,5.65-17.8C363.83,223.82,359.66,201.26,362.05,199.08z"/>
	<path class="st7" d="M356.93,242.67c0,0-0.67,2.36-1.97,3.66c-0.6,0.6-1.14,2.41-1.16,3.34c0,0-0.1,0.77,0.24,0.69
		c0.34-0.08,0.71-1.75,1.31-1.66c0,0-0.32,1.86-0.64,2.39c-0.32,0.53-0.5,2.15-0.05,2.35c1.09,0.48,2.7-1.58,3.66-2.86
		c0.96-1.29,0.02-6.52,0.02-6.52L356.93,242.67z"/>
	<path class="st17" d="M373.04,210.37c-0.02,0.12-7.56,1.39-12.28-1.01c0,0-3.94-12.35,1.69-11.76c5.63,0.59,8.97,2.36,9.11,5.06
		C371.7,205.36,373.04,210.37,373.04,210.37z"/>
	<path class="st7" d="M360.53,195.53c0,0-2.22,8.29-5.57,5.81c0.09-0.4-0.49-1.56-1.18-2.75c-0.88-1.51-1.93-3.05-1.93-3.05
		l4.52-3.96l0.27-0.24C358.04,193.76,359.4,194.71,360.53,195.53z"/>
	<path class="st19" d="M351.86,195.54c0,0,1.05,1.54,1.92,3.05c2.81-1.73,2.81-5.21,2.6-7.02L351.86,195.54z"/>
	<path class="st7" d="M351.74,197.53c0,0,6.83-3.8,4.4-8.01c-2.43-4.22-3.19-7.54-7.65-5.3c-4.46,2.25-4.37,4.34-3.9,5.94
		C345.05,191.76,349.9,198.41,351.74,197.53z"/>
	<path class="st8" d="M343.42,187.7c0.31-1.87,1.26-2.05,1.93-1.93c2.52-4.17,6.64-2.54,6.64-2.54c2.2,2.76,5.38,3.23,5.38,3.23
		s-0.79,1.47-4.06,2.39c-1,0.28-2.13,0.11-3.22-0.26c2.26,1.26,4.63,1.75,4.63,1.75c-4.3,0.39-8.39-3.54-8.82-3.96
		c-0.2,0.61-0.55,1.89-0.34,2.82c0.28,1.27,1.41,3.56,0.72,3.86C346.29,193.06,342.96,190.51,343.42,187.7z"/>
</g>
<path class="st7" d="M336.12,217.88c0,0-1.22,0.54-2.46-0.72c-0.63-0.65-1.77-1-1.18-1.34c0.59-0.35,2.15,0.37,2.52,0.49
	C335.36,216.43,336.12,217.88,336.12,217.88z"/>
<g>
	<path class="st8" d="M242.68,152.51c0.01-0.35,0.28-4.12,6.03-4.32c0,0-2.82,0.34-3.31,1.58c0,0,1.92-1.53,3.49-1.04
		c1.57,0.49,2.49,3.24,2.5,4.14c0.01,0.9-0.86,3.81-1.86,4.06c-0.38,0.09-0.81,0.07-1.2,0c0.26,0.41,0.52,0.87,0.77,1.38
		c2.29,4.71-0.07,9.3-2.01,8.8c-1.24-0.33-1.6,1.8-1.6,1.8l-12.09-9.79C233.39,159.12,237.83,149.93,242.68,152.51z"/>
	<path class="st7" d="M238.47,291.13l2.57,0.96c0,0,11.15-15.47,12.53-29.08c0.25-2.43,0.16-4.78-0.37-6.96c0,0,0.11-0.62,0.3-1.72
		c0.09-0.51,0.2-1.13,0.32-1.84c0.36-2.08,0.86-4.92,1.43-8.16c1.31-7.45,3.01-16.97,4.33-23.97l-0.69-0.22l-7.49-2.42l-1.55-4.91
		l-5.58-1.47c0,0-1.25,2.44-2.36,13.95c-0.21,1.51-0.39,3.17-0.53,4.98c-0.43,5.51-0.47,12.35,0.53,20.16
		c0.26,2,0.58,4.07,0.98,6.19c0.29,1.56,0.34,3.68,0.21,6.11C242.56,273.84,238.47,291.13,238.47,291.13z"/>
	<path class="st7" d="M241.39,230.25l12.11,24.07c0.09-0.51,0.2-1.13,0.32-1.84c0.36-2.08,0.86-4.92,1.43-8.16
		c1.31-7.45,3.01-16.97,4.33-23.97l-0.69-0.22l-7.49-2.42l-1.55-4.91l-7.24-4.01c0,0,0,1.12-0.63,13.37
		C241.78,223.65,241.53,228.45,241.39,230.25z"/>
	<path class="st7" d="M246.72,214.41l0.28-2.4c4.7,1.25,17.79-4.59,17.79-4.59s4,5.1,3.41,14.68c-0.29,4.68-0.82,24.56-1.38,30.44
		c-0.2,2.13-0.38,3.65-0.45,4.26c0,0,0,0,0,0.01c-0.02,0.18,0.04,0.36,0.14,0.52c0.82,1.39,1.5,2.84,2.05,4.32
		c5.46,14.55-0.84,32.46-0.84,32.46l-1.63-0.66c0,0-3.58-19.93-6.5-28.74c-0.49-1.49-0.97-2.67-1.4-3.37
		c-1.27-2.04-2.44-5.38-3.51-9.36c-2.02-7.51-3.64-17.28-4.72-24.82C249.03,220.77,246.72,214.41,246.72,214.41z"/>
	<path class="st6" d="M213.4,205.75l-0.36,2.76c0,0,1.66-0.22,1.94-0.24c0.86-0.06,3.39-0.22,5.74-0.48
		c3.54-0.35,6.1-0.43,7.77-1.46c2.55-1.55,6.72-6.32,9.45-11.08c0.08-0.12,0.14-0.23,0.19-0.35c1.42-2.53,2.41-5.03,2.49-7.04
		c0.06-1.22-0.08-2.27-0.33-3.19c-0.33-1.21-0.87-2.16-1.44-2.88c-0.08-0.12-0.16-0.23-0.27-0.33c-0.93-1.11-1.85-1.57-1.85-1.57
		c-0.47-0.19-2.02,1.68-2.54,2.25l-0.44,1.3c-0.43,0.45-5.12,15.54-7.24,17.89c-0.91,1.01-5.17,2.6-9.04,3.67
		C214.94,205.71,213.4,205.75,213.4,205.75z"/>
	<path class="st7" d="M237.75,185.26c1.47,0.68,3.25,1.15,5.41,1.27c8.07,0.44,9.91-6.63,10.24-11.33
		c-1.16-0.42-2.18-0.38-2.77-0.35c-0.47,0.03-0.95,0.07-1.38,0.12c-0.2,0.02-0.41-0.03-0.57-0.16c-1.02-0.8-2.56-3.21-3.5-7.02
		l-0.35,0.16l-5.82,2.74c0,0,0.62,1.9,1.08,3.71c0.2,0.79,0.36,1.56,0.44,2.15c0.07,0.56-0.25,1.1-0.77,1.32c0,0,0,0,0,0s0,0,0,0.01
		C239.68,178.03,238.42,181.26,237.75,185.26z"/>
	<path class="st14" d="M266.47,210.05c-0.07,2.99-21.09,5.63-24.71,3.63c0,0-0.94-4.53-2.13-9.61c-0.36-1.53-0.74-3.11-1.13-4.63
		c-0.91-3.58-1.85-6.85-2.57-8.4c-0.07-0.16-0.14-0.32-0.2-0.48c-1.61-4.27,1.41-8.84-0.68-10.19c0,0,1.23-1.14,4.69-2.5
		c0,0,0,0,0,0.01c-0.05,0.2-0.36,3.04,0.23,4.15c1.17,2.19,5.74,1.05,7.82-1.66c1.22-1.58,2.17-3.18,2.6-4.68
		c0.1-0.34,0.24-0.84,0.24-0.84s3.85-0.52,6.02,0.36c0,0-0.86,1.86-1.17,3.91c-0.03,0.2-0.05,0.39-0.07,0.59
		c-0.04,0.41-0.05,0.83-0.03,1.23c0.03,0.53,0.31,1,0.74,1.47c0.4,0.42,0.94,0.84,1.55,1.29c0.4,0.29,0.83,0.59,1.27,0.92
		c0.04,2.41-0.13,6.38,0.32,10.61c0.11,1.07,0.47,2.1,1.03,3.01c0.22,0.36,0.48,0.71,0.76,1.03
		C263.32,201.8,266.55,209.7,266.47,210.05z"/>
	<path class="st19" d="M239,170.69c0,0,0.62,1.89,1.08,3.71c3.4-0.95,4.44-4.53,4.75-6.45L239,170.69z"/>
	<path class="st7" d="M238.29,172.69c0,0,8.15-1.89,6.89-6.94c-1.25-5.05-1.04-8.7-6.3-7.71c-5.25,0.99-5.78,3.17-5.78,4.96
		C233.11,164.79,236.14,173.05,238.29,172.69z"/>
	<path class="st8" d="M232.65,160.13c0.88-1.83,1.91-1.73,2.55-1.41c3.83-3.54,7.58-0.65,7.58-0.65c1.44,3.49,4.58,4.92,4.58,4.92
		s-1.25,1.28-4.88,1.25c-1.11-0.01-2.22-0.52-3.24-1.22c1.96,1.97,4.25,3.17,4.25,3.17c-4.54-0.87-7.58-6.12-7.9-6.68
		c-0.38,0.57-1.12,1.78-1.18,2.8c-0.08,1.39,0.39,4.08-0.4,4.18C234.01,166.49,231.34,162.88,232.65,160.13z"/>
	<path class="st14" d="M235.05,180.37c0,0-0.72,0.42-2.04,4.46c0,0,1.51,1.88,3.36,1.7C236.37,186.53,236.61,180.83,235.05,180.37z"
		/>
	<path class="st8" d="M258.21,295.44h12.94c0,0,0.31-1.97-0.37-3.47c-0.65-1.44-1.66-2.09-1.42-3.82c-0.82,0.85-2.16,1.79-4.03,1.54
		c-0.23,0.37-1.48,2.36-2.24,2.91C262.24,293.21,258.47,292.99,258.21,295.44z"/>
	<path class="st8" d="M230.43,295.44h12.94c0,0,0.48-2.06-0.37-3.47c-0.75-1.24-0.46-1.95,0.09-2.98c-0.59,0.24-1.34,0.46-2.18,0.41
		c-0.64-0.04-1.33-0.33-1.92-0.68c-0.56,0.63-2.94,3.34-3.69,3.87C234.46,293.21,230.69,292.99,230.43,295.44z"/>
	<path class="st7" d="M218.75,196.66c0,0-1.13-1.53-1.84-1.85c-0.71-0.32-1.38-2.29-1.77-1.69c-0.24,0.37,0.37,1.73,0.21,2.04
		c-0.15,0.31-1.72-0.34-1.99-0.78c-0.18-0.29-1.8-2.24-1.83-1.34c-0.04,0.9,1.37,4.34,2.07,4.78c0.69,0.44,3.32,1.03,3.32,1.03
		L218.75,196.66z"/>
	<path class="st20" d="M254,188.27c-2.93,7.15-14.18,16.02-14.18,16.02l-0.2-0.22c-0.36-1.53-0.74-3.11-1.13-4.63l11.99-11.17H254z"
		/>
	<path class="st7" d="M217.27,196.8l-0.37,2.04c0,0,6.43,1.47,7.85,1.78l0.02,0.01c2.45,0.49,5.21,0.99,7.62,1.24
		c1.7,0.16,3.22,0.2,4.34,0.05c0.11-0.01,0.21-0.03,0.33-0.06c2.76-0.55,7.24-3.83,11.33-7.69c0.57-0.53,1.11-1.07,1.65-1.59
		c1.97-1.96,3.75-3.96,5.1-5.78c0.82-1.08,1.5-2.09,1.95-2.98c0.16-0.31,0.32-0.6,0.43-0.89c2.32-5.14,0.1-7.01,0.1-7.01
		c-0.04-0.04-0.09-0.08-0.15-0.13c-0.41-0.27-1.01-0.19-1.75,0.18c-0.93,0.45-2.11,1.34-3.43,2.47
		c-2.05,1.81-14.38,16.82-17.26,17.39C232.56,196.32,217.27,196.8,217.27,196.8z"/>
	<path class="st14" d="M256.33,175.09c0,0,2.51,0.7,2.73,3.34c0.22,2.63-0.12,10.77-0.12,10.77s-8.21-2.35-11.55-7.38
		C247.39,181.83,253.42,175.16,256.33,175.09z"/>
</g>
<path d="M596.71,298H4.09c-0.64,0-1.15-0.52-1.15-1.15v-0.29c0-0.64,0.52-1.16,1.16-1.16h592.62c0.64,0,1.16,0.52,1.16,1.15v0.29
	C597.87,297.48,597.35,298,596.71,298z"/>
<path class="st8" d="M242.4,213.94c-0.07,0.98-0.14,1.96-0.2,2.94c-0.15,2.24-0.3,4.48-0.45,6.71c-0.16,2.44-0.31,4.88-0.45,7.33
	c-0.12,2.21-0.15,4.43-0.26,6.64c-0.17,3.35-0.35,6.79,0.18,10.12c0.05,0.3,0.1,0.6,0.17,0.89c0,0,26.15,1.42,26.15,1.42
	c0.06-2.8,0.15-3.69,0.26-6.49c0.12-3.05,0.15-6.12,0.5-9.16c0.28-2.38,0.98-4.6,1.46-6.92c0.84-4.1,0.89-8.53-0.65-12.48
	c-0.63-1.6-1.51-3.09-2.64-4.39C266.47,210.56,242.4,213.94,242.4,213.94z"/>
<path class="st14" d="M88.02,36.41c3.23-2.08,7.2-3.12,11.92-3.12c6.19,0,11.33,1.48,15.43,4.44c4.1,2.96,6.14,7.34,6.14,13.15
	c0,3.56-0.89,6.56-2.66,9c-1.04,1.48-3.03,3.37-5.98,5.67l-2.91,2.26c-1.59,1.23-2.64,2.67-3.16,4.31
	c-0.33,1.04-0.51,7.92-0.53,10.11H95.13c0.16-4.63,0.6-13.09,1.31-14.86c0.71-1.77,2.54-3.8,5.49-6.1l2.99-2.34
	c0.98-0.74,1.78-1.55,2.38-2.42c1.09-1.51,1.64-3.16,1.64-4.97c0-2.08-0.61-3.98-1.82-5.69c-1.22-1.71-3.44-2.57-6.66-2.57
	c-3.17,0-5.42,1.05-6.74,3.16c-1.33,2.11-1.99,4.3-1.99,6.57H79.85C80.17,45.2,82.9,39.67,88.02,36.41z"/>
<circle class="st14" cx="101.26" cy="91.25" r="5.74"/>
<g>
	<path class="st14" d="M420.07,90.57c0-4.36,3.14-7.72,7.38-7.72s7.38,3.36,7.38,7.72c0,4.33-3.14,7.69-7.38,7.69
		S420.07,94.9,420.07,90.57z M421.74,52.57l-0.41-11.06h12.26l-0.41,11.06l-1.7,25.45h-8.03L421.74,52.57z"/>
</g>
</svg>
