<?xml version="1.0" encoding="utf-8"?>
<!-- Generator: Adobe Illustrator 23.0.3, SVG Export Plug-In . SVG Version: 6.00 Build 0)  -->
<svg version="1.1" id="Layer_1" xmlns="http://www.w3.org/2000/svg" xmlns:xlink="http://www.w3.org/1999/xlink" x="0px" y="0px"
	 viewBox="0 0 600 300" style="enable-background:new 0 0 600 300;" xml:space="preserve">
<style type="text/css">
	.st0{opacity:0.64;}
	.st1{fill:#BC1818;}
	.st2{fill:#FFD2D2;}
	.st3{fill:#CE5B5B;}
	.st4{fill:#FFFFFF;}
	.st5{fill:#BC3535;}
	.st6{opacity:0.65;fill:#FFFFFF;}
	.st7{fill:#333333;}
	.st8{fill:#FFCAA6;}
	.st9{fill:url(#SVGID_1_);}
	.st10{fill:none;stroke:#3D723D;stroke-width:0.5;stroke-linecap:round;stroke-linejoin:round;stroke-miterlimit:10;}
	.st11{fill:none;stroke:#619961;stroke-width:0.5;stroke-linecap:round;stroke-linejoin:round;stroke-miterlimit:10;}
	.st12{fill:#F99746;}
	.st13{fill:#ED7D2B;}
	.st14{fill:url(#SVGID_2_);}
	.st15{fill:#619961;}
	.st16{fill:#3D723D;}
</style>
<g>
	<g class="st0">
		<path class="st1" d="M443.77,70.84c-0.31-0.05-0.56-0.3-0.6-0.63c-0.05-0.39-0.09-0.78-0.12-1.17c-0.04-0.4,0.26-0.75,0.66-0.79
			c0.4-0.04,0.75,0.26,0.79,0.66c0.03,0.38,0.07,0.76,0.12,1.13c0.05,0.4-0.24,0.76-0.63,0.81
			C443.91,70.86,443.84,70.85,443.77,70.84z"/>
		<path class="st1" d="M443.49,65.85c-0.34-0.06-0.61-0.36-0.6-0.72c0.01-0.8,0.03-1.61,0.09-2.41c0.03-0.4,0.37-0.7,0.77-0.68
			c0.4,0.03,0.7,0.37,0.68,0.77c-0.05,0.77-0.08,1.55-0.08,2.32c0,0.4-0.33,0.72-0.73,0.72C443.57,65.86,443.53,65.85,443.49,65.85z
			 M444.02,59.66c-0.39-0.07-0.66-0.44-0.59-0.83l0.04-0.26c0.12-0.7,0.26-1.41,0.41-2.11c0.09-0.39,0.47-0.64,0.86-0.55
			c0.39,0.09,0.64,0.47,0.55,0.86c-0.15,0.68-0.28,1.36-0.4,2.03l-0.04,0.25C444.79,59.46,444.42,59.72,444.02,59.66
			C444.02,59.66,444.02,59.66,444.02,59.66z M445.47,53.62c-0.03-0.01-0.07-0.01-0.1-0.03c-0.38-0.12-0.59-0.53-0.47-0.91
			c0.25-0.76,0.52-1.53,0.81-2.27c0.15-0.37,0.57-0.56,0.94-0.41c0.37,0.15,0.56,0.57,0.41,0.94c-0.28,0.72-0.54,1.45-0.78,2.19
			C446.17,53.48,445.82,53.68,445.47,53.62z M447.83,47.88c-0.07-0.01-0.14-0.03-0.21-0.07c-0.36-0.18-0.5-0.62-0.32-0.97
			c0.36-0.71,0.75-1.43,1.15-2.12c0.2-0.35,0.65-0.46,0.99-0.26c0.35,0.2,0.46,0.64,0.26,0.99c-0.39,0.67-0.76,1.36-1.11,2.04
			C448.45,47.78,448.14,47.93,447.83,47.88z M451.05,42.57c-0.11-0.02-0.21-0.06-0.3-0.13c-0.33-0.23-0.4-0.69-0.17-1.01
			c0.47-0.65,0.96-1.3,1.46-1.92c0.25-0.31,0.71-0.36,1.02-0.11c0.31,0.25,0.36,0.71,0.11,1.02c-0.49,0.6-0.96,1.22-1.41,1.85
			C451.59,42.51,451.31,42.62,451.05,42.57z M455.04,37.82c-0.14-0.02-0.28-0.09-0.39-0.2c-0.29-0.28-0.29-0.74-0.01-1.03
			c0.56-0.57,1.15-1.13,1.74-1.67c0.3-0.27,0.75-0.25,1.02,0.05c0.27,0.3,0.25,0.76-0.05,1.02c-0.57,0.52-1.14,1.06-1.68,1.61
			C455.51,37.79,455.27,37.86,455.04,37.82z M459.73,33.74c-0.18-0.03-0.34-0.13-0.46-0.28c-0.24-0.32-0.17-0.78,0.15-1.01
			c0.64-0.48,1.31-0.94,1.97-1.38c0.33-0.22,0.78-0.13,1,0.21c0.22,0.33,0.13,0.78-0.21,1c-0.64,0.42-1.28,0.87-1.9,1.33
			C460.11,33.73,459.91,33.77,459.73,33.74z M464.97,30.42c-0.21-0.04-0.41-0.17-0.52-0.38c-0.19-0.35-0.05-0.79,0.3-0.98
			c0.71-0.37,1.43-0.73,2.16-1.07c0.36-0.17,0.79-0.01,0.96,0.36c0.17,0.36,0.01,0.79-0.36,0.96c-0.7,0.32-1.4,0.67-2.08,1.03
			C465.29,30.42,465.13,30.44,464.97,30.42z M470.67,27.94c-0.25-0.04-0.47-0.22-0.56-0.48c-0.13-0.38,0.07-0.79,0.45-0.92
			c0.75-0.26,1.53-0.5,2.3-0.72c0.39-0.11,0.79,0.12,0.89,0.5c0.11,0.39-0.12,0.79-0.5,0.89c-0.74,0.21-1.49,0.44-2.22,0.7
			C470.9,27.95,470.78,27.96,470.67,27.94z M508.27,33.93c-0.11-0.02-0.22-0.06-0.32-0.14c-0.61-0.47-1.25-0.92-1.89-1.35
			c-0.33-0.22-0.42-0.67-0.2-1.01c0.22-0.33,0.67-0.42,1.01-0.2c0.67,0.45,1.32,0.92,1.96,1.4c0.32,0.24,0.38,0.7,0.14,1.02
			C508.8,33.87,508.53,33.97,508.27,33.93z M476.67,26.36c-0.29-0.05-0.54-0.28-0.59-0.59c-0.07-0.39,0.19-0.77,0.58-0.84
			c0.79-0.14,1.59-0.26,2.38-0.36c0.4-0.05,0.76,0.23,0.81,0.63c0.05,0.4-0.23,0.76-0.63,0.81c-0.76,0.09-1.54,0.21-2.29,0.35
			C476.83,26.37,476.75,26.37,476.67,26.36z M503.05,30.56c-0.08-0.01-0.15-0.04-0.22-0.08c-0.68-0.37-1.38-0.72-2.08-1.04
			c-0.36-0.17-0.52-0.6-0.35-0.96c0.17-0.36,0.6-0.52,0.96-0.35c0.73,0.34,1.45,0.7,2.15,1.08c0.35,0.19,0.48,0.63,0.29,0.98
			C503.66,30.47,503.35,30.61,503.05,30.56z M482.84,25.73c-0.34-0.06-0.59-0.34-0.6-0.7c-0.01-0.4,0.31-0.73,0.71-0.74
			c0.8-0.02,1.61-0.02,2.41,0.01c0.4,0.01,0.71,0.35,0.7,0.75c-0.01,0.4-0.35,0.71-0.75,0.7c-0.77-0.03-1.55-0.03-2.32-0.01
			C482.93,25.74,482.88,25.73,482.84,25.73z M497.37,28.05c-0.04-0.01-0.08-0.02-0.12-0.03c-0.73-0.26-1.47-0.5-2.21-0.71
			c-0.38-0.11-0.61-0.51-0.49-0.9c0.11-0.38,0.51-0.61,0.9-0.49c0.77,0.22,1.54,0.47,2.29,0.74c0.38,0.13,0.58,0.55,0.44,0.93
			C498.06,27.91,497.71,28.11,497.37,28.05z M489.04,26.05c-0.38-0.06-0.65-0.42-0.6-0.81c0.05-0.4,0.42-0.68,0.81-0.62
			c0.79,0.1,1.59,0.23,2.38,0.38c0.39,0.07,0.65,0.45,0.58,0.85c-0.07,0.39-0.47,0.66-0.85,0.58c-0.76-0.15-1.53-0.27-2.3-0.37
			C489.05,26.06,489.05,26.05,489.04,26.05z"/>
		<path class="st1" d="M512.08,37.22c-0.14-0.02-0.28-0.09-0.39-0.2c-0.27-0.27-0.55-0.53-0.82-0.78c-0.29-0.27-0.31-0.73-0.04-1.02
			c0.27-0.29,0.73-0.31,1.02-0.04c0.29,0.27,0.57,0.54,0.86,0.81c0.29,0.28,0.29,0.74,0.01,1.03
			C512.54,37.18,512.3,37.25,512.08,37.22z"/>
	</g>
	<g class="st0">
		<path class="st1" d="M524.23,65.89c-0.34-0.06-0.6-0.35-0.6-0.71c0-0.38-0.01-0.76-0.02-1.14c-0.01-0.4,0.3-0.74,0.7-0.75
			c0.4-0.01,0.73,0.3,0.75,0.7c0.01,0.39,0.02,0.79,0.02,1.18c0,0.4-0.32,0.73-0.72,0.73C524.31,65.9,524.27,65.89,524.23,65.89z"/>
		<path class="st1" d="M476.45,105.76c0,0-0.01,0-0.01,0c-0.69-0.13-1.39-0.28-2.07-0.44l-0.25-0.06c-0.39-0.1-0.63-0.49-0.53-0.88
			c0.1-0.39,0.5-0.62,0.88-0.53l0.24,0.06c0.66,0.16,1.33,0.3,2,0.43c0.39,0.07,0.65,0.45,0.58,0.85
			C477.21,105.56,476.83,105.82,476.45,105.76z M480.19,106.28c-0.37-0.06-0.64-0.4-0.6-0.78c0.04-0.4,0.39-0.69,0.79-0.66
			c0.76,0.07,1.52,0.12,2.28,0.14c0.4,0.01,0.71,0.35,0.7,0.75c-0.01,0.4-0.35,0.71-0.75,0.7c-0.79-0.03-1.58-0.08-2.37-0.15
			C480.23,106.28,480.21,106.28,480.19,106.28z M470.54,104.18c-0.04-0.01-0.08-0.02-0.12-0.03c-0.75-0.26-1.49-0.54-2.22-0.84
			c-0.37-0.15-0.55-0.58-0.39-0.95c0.15-0.37,0.58-0.55,0.95-0.39c0.7,0.29,1.42,0.56,2.14,0.81c0.38,0.13,0.58,0.54,0.45,0.92
			C471.23,104.04,470.88,104.24,470.54,104.18z M486.3,106.38c-0.33-0.05-0.58-0.33-0.6-0.67c-0.02-0.4,0.28-0.74,0.68-0.77
			c0.76-0.05,1.52-0.11,2.28-0.2c0.4-0.05,0.76,0.24,0.81,0.63c0.05,0.4-0.24,0.76-0.63,0.81c-0.78,0.09-1.58,0.16-2.36,0.21
			C486.41,106.39,486.36,106.39,486.3,106.38z M464.94,101.74c-0.07-0.01-0.15-0.04-0.22-0.07c-0.7-0.37-1.39-0.76-2.06-1.17
			c-0.34-0.21-0.45-0.65-0.24-1c0.21-0.34,0.65-0.45,1-0.24c0.65,0.39,1.32,0.77,1.99,1.13c0.35,0.19,0.49,0.63,0.3,0.98
			C465.55,101.65,465.24,101.79,464.94,101.74z M492.36,105.55c-0.28-0.05-0.52-0.26-0.59-0.56c-0.08-0.39,0.16-0.78,0.56-0.86
			c0.74-0.16,1.49-0.34,2.22-0.55c0.39-0.11,0.79,0.12,0.89,0.5c0.11,0.39-0.12,0.79-0.5,0.89c-0.76,0.21-1.53,0.4-2.3,0.57
			C492.54,105.56,492.44,105.56,492.36,105.55z M459.77,98.48c-0.11-0.02-0.22-0.06-0.31-0.13c-0.63-0.47-1.26-0.97-1.86-1.47
			c-0.31-0.26-0.35-0.71-0.09-1.02c0.26-0.31,0.72-0.35,1.02-0.09c0.58,0.49,1.19,0.97,1.8,1.42c0.32,0.24,0.39,0.69,0.15,1.01
			C460.31,98.42,460.03,98.52,459.77,98.48z M498.21,103.81c-0.24-0.04-0.46-0.21-0.56-0.46c-0.14-0.37,0.05-0.79,0.42-0.94
			c0.71-0.27,1.42-0.57,2.11-0.88c0.37-0.16,0.79,0,0.96,0.36c0.16,0.37,0,0.79-0.36,0.96c-0.72,0.32-1.45,0.63-2.19,0.91
			C498.46,103.82,498.33,103.83,498.21,103.81z M503.74,101.21c-0.21-0.04-0.4-0.16-0.51-0.36c-0.2-0.35-0.07-0.79,0.27-0.99
			c0.66-0.37,1.32-0.77,1.96-1.18c0.34-0.22,0.79-0.12,1,0.22c0.22,0.34,0.12,0.79-0.22,1c-0.66,0.43-1.34,0.84-2.03,1.23
			C504.06,101.21,503.9,101.24,503.74,101.21z M508.81,97.81c-0.17-0.03-0.33-0.12-0.45-0.27c-0.25-0.31-0.19-0.77,0.12-1.02
			c0.6-0.47,1.19-0.96,1.76-1.46c0.3-0.26,0.76-0.24,1.02,0.06c0.26,0.3,0.24,0.76-0.06,1.02c-0.59,0.52-1.2,1.03-1.82,1.52
			C509.21,97.79,509.01,97.84,508.81,97.81z M513.32,93.68c-0.14-0.02-0.27-0.08-0.37-0.19c-0.29-0.27-0.31-0.73-0.03-1.02
			c0.52-0.55,1.03-1.13,1.52-1.71c0.26-0.31,0.71-0.35,1.02-0.09c0.31,0.26,0.35,0.71,0.09,1.02c-0.51,0.61-1.04,1.2-1.57,1.78
			C513.8,93.65,513.55,93.72,513.32,93.68z M517.15,88.92c-0.1-0.02-0.2-0.06-0.29-0.12c-0.33-0.23-0.41-0.68-0.19-1.01
			c0.43-0.63,0.85-1.27,1.24-1.93c0.21-0.34,0.65-0.45,1-0.25c0.34,0.21,0.45,0.65,0.25,1c-0.41,0.68-0.84,1.35-1.29,2
			C517.71,88.85,517.42,88.96,517.15,88.92z M520.22,83.63c-0.07-0.01-0.13-0.03-0.19-0.06c-0.36-0.17-0.51-0.61-0.34-0.97
			c0.33-0.68,0.64-1.39,0.93-2.09c0.15-0.37,0.58-0.55,0.95-0.39c0.37,0.15,0.55,0.58,0.39,0.95c-0.3,0.73-0.62,1.46-0.97,2.17
			C520.85,83.53,520.53,83.68,520.22,83.63z M522.44,77.94c-0.03-0.01-0.06-0.01-0.09-0.02c-0.38-0.12-0.6-0.52-0.48-0.91
			c0.22-0.73,0.43-1.47,0.61-2.21c0.1-0.39,0.49-0.63,0.88-0.53c0.39,0.1,0.63,0.49,0.53,0.88c-0.19,0.76-0.4,1.53-0.63,2.28
			C523.15,77.79,522.8,78,522.44,77.94z M523.79,71.98c-0.39-0.07-0.65-0.43-0.6-0.82c0.11-0.75,0.2-1.51,0.27-2.27
			c0.04-0.4,0.39-0.69,0.79-0.66c0.4,0.04,0.69,0.39,0.66,0.79c-0.07,0.78-0.17,1.58-0.28,2.36c-0.06,0.4-0.43,0.67-0.82,0.61
			C523.8,71.98,523.8,71.98,523.79,71.98z"/>
		<path class="st1" d="M455.14,94.45c-0.15-0.02-0.28-0.09-0.4-0.21c-0.28-0.28-0.55-0.56-0.82-0.85c-0.27-0.29-0.26-0.75,0.04-1.02
			c0.29-0.27,0.75-0.26,1.02,0.04c0.26,0.28,0.52,0.55,0.79,0.82c0.28,0.29,0.28,0.74-0.01,1.03
			C455.6,94.42,455.36,94.48,455.14,94.45z"/>
	</g>
	<g>
		<path class="st1" d="M458.82,83.48c0.1,0.18,0.31,0.27,0.51,0.24l5.79-1.09c1.87,2.02,4.08,3.76,6.57,5.11l0.38,5.88
			c0.01,0.21,0.16,0.38,0.36,0.44l6.82,1.87c0.2,0.05,0.41-0.02,0.53-0.19l3.33-4.86c2.83,0.11,5.62-0.26,8.26-1.04l4.43,3.89
			c0.16,0.14,0.38,0.16,0.56,0.06l6.15-3.5c0.18-0.1,0.27-0.31,0.24-0.51l-1.09-5.79c2.02-1.87,3.76-4.08,5.11-6.57l5.88-0.38
			c0.21-0.01,0.38-0.16,0.44-0.35l1.87-6.82c0.05-0.2-0.02-0.41-0.19-0.53l-4.86-3.33c0.11-2.83-0.26-5.62-1.04-8.26l3.89-4.43
			c0.14-0.16,0.16-0.38,0.06-0.56l-3.5-6.15c-0.1-0.18-0.31-0.27-0.51-0.24L503,47.48c-1.87-2.02-4.08-3.76-6.57-5.11l-0.38-5.88
			c-0.01-0.21-0.16-0.38-0.35-0.44l-6.82-1.87c-0.2-0.05-0.41,0.02-0.53,0.19l-3.33,4.86c-2.83-0.11-5.62,0.26-8.26,1.04l-4.43-3.89
			c-0.16-0.14-0.38-0.16-0.56-0.06l-6.15,3.5c-0.18,0.1-0.27,0.31-0.24,0.51l1.09,5.79c-2.02,1.87-3.76,4.08-5.11,6.57l-5.88,0.38
			c-0.21,0.01-0.38,0.16-0.44,0.36l-1.87,6.82c-0.05,0.2,0.02,0.41,0.19,0.53l4.86,3.33c-0.11,2.83,0.26,5.62,1.04,8.26l-3.89,4.43
			c-0.14,0.16-0.16,0.38-0.06,0.56L458.82,83.48z"/>
		<g>
			<path class="st2" d="M482.91,71.82c-1.44-0.24-2.76-0.94-3.79-2.01c-1.27-1.32-1.95-3.06-1.91-4.89
				c0.04-1.83,0.79-3.54,2.11-4.81c1.32-1.27,3.06-1.95,4.89-1.91c3.78,0.08,6.79,3.22,6.71,7c-0.08,3.78-3.22,6.79-7,6.71
				C483.58,71.91,483.24,71.88,482.91,71.82z M485.02,59.44c-0.27-0.05-0.55-0.07-0.83-0.08c-1.52-0.03-2.97,0.53-4.06,1.58
				c-1.1,1.05-1.72,2.47-1.75,3.99c-0.03,1.52,0.53,2.97,1.58,4.06c1.05,1.1,2.47,1.72,3.99,1.75c3.14,0.07,5.75-2.44,5.82-5.58
				C489.82,62.32,487.75,59.9,485.02,59.44z"/>
		</g>
		<path class="st2" d="M481.31,82.09c-0.57-0.1-1.15-0.22-1.72-0.38c-0.85-0.23-1.68-0.53-2.48-0.89c-0.01,0-0.01-0.01-0.02-0.01
			c-0.04-0.02-0.07-0.03-0.11-0.05c-0.01,0-0.01,0-0.01-0.01l0,0c0,0-0.01,0-0.01-0.01c-0.02-0.01-0.03-0.02-0.05-0.02
			c0,0-0.01,0-0.01,0c-0.01,0-0.01-0.01-0.02-0.01c0,0,0,0-0.01,0c-0.05-0.02-0.1-0.05-0.15-0.07c-0.02-0.01-0.04-0.02-0.05-0.03
			c-0.11-0.05-0.22-0.11-0.33-0.16c-0.06-0.03-0.12-0.06-0.19-0.1c-0.11-0.06-0.17-0.18-0.15-0.31c0-0.03,0.01-0.06,0.03-0.09
			c0.07-0.14,0.25-0.2,0.39-0.12c1.05,0.55,2.17,0.99,3.33,1.3c4.32,1.19,8.84,0.62,12.74-1.59c3.89-2.22,6.69-5.81,7.88-10.14
			c0.15-0.56,0.28-1.11,0.37-1.67c1.41-8.38-3.74-16.65-12.1-18.95c-4.32-1.19-8.84-0.62-12.74,1.59
			c-3.89,2.22-6.69,5.81-7.88,10.14c-0.15,0.55-0.27,1.11-0.37,1.66c-0.41,2.42-0.28,4.9,0.38,7.27c0.01,0.04,0.01,0.09,0.01,0.13
			c-0.02,0.11-0.1,0.2-0.21,0.23c-0.15,0.04-0.31-0.05-0.36-0.2c-0.68-2.45-0.81-5.02-0.39-7.52c0.1-0.58,0.22-1.15,0.38-1.72
			c1.23-4.47,4.12-8.19,8.15-10.49c4.03-2.29,8.71-2.88,13.18-1.65c8.65,2.38,13.98,10.94,12.52,19.61
			c-0.1,0.58-0.22,1.15-0.38,1.73C498.54,78.22,489.98,83.55,481.31,82.09z"/>
	</g>
</g>
<g>
	<path class="st1" d="M527.99,55.27l4.56-1.24c1.62,1.49,3.5,2.74,5.57,3.67l0.67,4.67c0.02,0.16,0.15,0.29,0.31,0.33l5.57,1.06
		c0.16,0.03,0.33-0.04,0.41-0.19l2.35-4.1c2.27-0.09,4.47-0.56,6.53-1.35l3.78,2.83c0.13,0.1,0.31,0.1,0.45,0.01l4.69-3.18
		c0.14-0.09,0.2-0.26,0.16-0.42l-1.24-4.56c1.49-1.62,2.74-3.5,3.67-5.57l4.67-0.67c0.16-0.02,0.29-0.15,0.33-0.31l1.06-5.57
		c0.03-0.16-0.04-0.33-0.19-0.41l-4.1-2.35c-0.09-2.27-0.56-4.47-1.35-6.53l2.83-3.78c0.1-0.13,0.1-0.31,0.01-0.45l-3.18-4.69
		c-0.09-0.14-0.26-0.2-0.42-0.16l-4.56,1.24c-1.62-1.49-3.5-2.74-5.57-3.67l-0.67-4.67c-0.02-0.16-0.15-0.29-0.31-0.33l-5.57-1.06
		c-0.16-0.03-0.33,0.04-0.41,0.19l-2.35,4.1c-2.27,0.09-4.47,0.56-6.53,1.35l-3.78-2.83c-0.13-0.1-0.31-0.1-0.45-0.01l-4.69,3.18
		c-0.14,0.09-0.2,0.26-0.16,0.42l1.24,4.56c-1.49,1.62-2.74,3.5-3.67,5.57l-4.67,0.67c-0.16,0.02-0.29,0.15-0.33,0.31l-1.06,5.57
		c-0.03,0.16,0.04,0.33,0.19,0.41l4.1,2.35c0.09,2.27,0.56,4.47,1.35,6.53l-2.83,3.78c-0.1,0.13-0.1,0.31-0.01,0.45l3.18,4.69
		C527.66,55.25,527.83,55.31,527.99,55.27z"/>
	<g>
		<path class="st2" d="M545.64,44.16c-1-0.17-1.93-0.61-2.7-1.3c-1.09-0.97-1.73-2.3-1.82-3.75c-0.09-1.45,0.4-2.85,1.37-3.94
			c0.97-1.09,2.3-1.73,3.75-1.82c3-0.18,5.58,2.12,5.76,5.12c0.18,3-2.12,5.58-5.12,5.76C546.46,44.25,546.05,44.22,545.64,44.16z
			 M547.33,34.23c-0.34-0.06-0.68-0.08-1.04-0.06c-1.23,0.07-2.36,0.62-3.18,1.54c-0.82,0.92-1.23,2.11-1.16,3.34
			c0.07,1.23,0.62,2.36,1.54,3.18c0.92,0.82,2.11,1.23,3.34,1.16c2.54-0.15,4.49-2.34,4.34-4.88
			C551.04,36.33,549.4,34.58,547.33,34.23z"/>
	</g>
	<g>
		<g class="st0">
			<path class="st1" d="M518.55,52c-0.33-0.06-0.63-0.27-0.78-0.61c-0.23-0.52-0.44-1.05-0.64-1.59c-0.2-0.54,0.07-1.13,0.61-1.33
				c0.54-0.2,1.13,0.07,1.33,0.61c0.19,0.5,0.39,1,0.6,1.48c0.23,0.52-0.01,1.14-0.53,1.37C518.95,52.01,518.74,52.04,518.55,52z"/>
			<path class="st1" d="M516.54,45.52c-0.42-0.07-0.76-0.39-0.85-0.83c-0.2-1.06-0.35-2.15-0.44-3.24
				c-0.05-0.57,0.38-1.07,0.95-1.12c0.57-0.05,1.07,0.38,1.12,0.95c0.09,1.01,0.23,2.03,0.41,3.02c0.11,0.56-0.26,1.11-0.83,1.21
				C516.78,45.54,516.66,45.54,516.54,45.52z M516.1,37.26c-0.53-0.09-0.9-0.57-0.86-1.11c0.07-0.88,0.18-1.76,0.33-2.63
				c0.03-0.2,0.07-0.41,0.11-0.61c0.11-0.56,0.64-0.94,1.21-0.83c0.56,0.11,0.93,0.65,0.83,1.21c-0.04,0.19-0.07,0.38-0.1,0.57
				c-0.14,0.81-0.24,1.64-0.31,2.46c-0.05,0.57-0.55,1-1.12,0.95C516.16,37.27,516.13,37.27,516.1,37.26z M517.91,29.19
				c-0.06-0.01-0.13-0.03-0.19-0.05c-0.54-0.2-0.81-0.8-0.61-1.33c0.38-1.02,0.82-2.03,1.3-3c0.26-0.51,0.88-0.72,1.39-0.47
				c0.51,0.26,0.72,0.88,0.47,1.39c-0.45,0.91-0.86,1.85-1.22,2.8C518.88,29,518.39,29.27,517.91,29.19z M521.83,21.91
				c-0.15-0.03-0.3-0.09-0.44-0.19c-0.46-0.34-0.56-0.99-0.23-1.45c0.64-0.88,1.33-1.73,2.06-2.54c0.38-0.42,1.04-0.46,1.46-0.08
				c0.43,0.38,0.46,1.04,0.08,1.46c-0.68,0.75-1.33,1.55-1.92,2.37C522.6,21.83,522.21,21.97,521.83,21.91z M527.57,15.95
				c-0.24-0.04-0.47-0.17-0.64-0.38c-0.36-0.45-0.28-1.1,0.17-1.46c0.85-0.67,1.75-1.31,2.66-1.89c0.48-0.31,1.12-0.16,1.43,0.32
				c0.31,0.48,0.16,1.12-0.32,1.43c-0.86,0.54-1.69,1.14-2.49,1.76C528.14,15.93,527.85,15.99,527.57,15.95z M534.69,11.75
				c-0.34-0.06-0.64-0.28-0.79-0.62c-0.22-0.53,0.03-1.14,0.56-1.36c1-0.42,2.04-0.79,3.08-1.1c0.55-0.16,1.13,0.15,1.29,0.7
				c0.16,0.55-0.15,1.13-0.7,1.29c-0.97,0.29-1.94,0.63-2.87,1.02C535.08,11.76,534.88,11.78,534.69,11.75z M542.69,9.64
				c-0.44-0.07-0.8-0.43-0.86-0.9c-0.07-0.57,0.34-1.09,0.9-1.15c0.66-0.08,1.33-0.14,1.99-0.18c0.42-0.02,0.85-0.04,1.27-0.05
				c0.57-0.01,1.05,0.44,1.06,1.02c0.01,0.57-0.44,1.05-1.02,1.06c-0.39,0.01-0.79,0.02-1.19,0.05c-0.62,0.04-1.25,0.09-1.86,0.17
				C542.89,9.66,542.79,9.66,542.69,9.64z M554.06,10.39c-0.03-0.01-0.06-0.01-0.09-0.02c-0.98-0.26-1.98-0.46-2.99-0.61
				c-0.57-0.07-0.96-0.61-0.87-1.18c0.09-0.57,0.61-0.96,1.18-0.87c1.08,0.16,2.15,0.38,3.2,0.66c0.55,0.14,0.89,0.71,0.74,1.26
				C555.1,10.16,554.58,10.48,554.06,10.39z"/>
			<path class="st1" d="M560.4,12.84c-0.1-0.02-0.21-0.05-0.31-0.1c-0.47-0.25-0.96-0.48-1.44-0.7c-0.52-0.24-0.75-0.85-0.52-1.37
				c0.24-0.52,0.85-0.75,1.37-0.52c0.52,0.23,1.04,0.49,1.54,0.75c0.51,0.26,0.71,0.89,0.44,1.4
				C561.28,12.7,560.83,12.91,560.4,12.84z"/>
		</g>
		<g class="st0">
			<path class="st1" d="M575.65,31.59c-0.38-0.06-0.72-0.34-0.83-0.74c-0.14-0.51-0.3-1.03-0.47-1.53
				c-0.18-0.54,0.11-1.13,0.65-1.32c0.54-0.18,1.13,0.11,1.32,0.65c0.18,0.54,0.35,1.09,0.51,1.64c0.15,0.55-0.17,1.12-0.72,1.28
				C575.95,31.61,575.8,31.62,575.65,31.59z"/>
			<path class="st1" d="M541.32,69.77c-1.19-0.2-2.37-0.47-3.51-0.8c-0.55-0.16-0.87-0.73-0.71-1.28s0.73-0.87,1.28-0.71
				c1.07,0.31,2.17,0.56,3.27,0.75l0.04,0.01c0.56,0.1,0.95,0.63,0.85,1.2c-0.1,0.56-0.63,0.95-1.2,0.85L541.32,69.77
				C541.32,69.77,541.32,69.77,541.32,69.77z M547.04,70.19c-0.48-0.08-0.85-0.49-0.86-1c-0.01-0.57,0.44-1.05,1.01-1.06
				c0.36-0.01,0.72-0.02,1.08-0.04c0.77-0.05,1.54-0.12,2.3-0.22c0.57-0.08,1.09,0.32,1.17,0.89c0.08,0.57-0.32,1.09-0.89,1.17
				c-0.81,0.11-1.64,0.19-2.46,0.24c-0.39,0.02-0.77,0.04-1.16,0.05C547.17,70.2,547.1,70.2,547.04,70.19z M556.1,68.61
				c-0.36-0.06-0.68-0.32-0.81-0.69c-0.18-0.54,0.11-1.13,0.65-1.31c1.07-0.36,2.13-0.79,3.15-1.27c0.52-0.24,1.14-0.02,1.38,0.49
				c0.24,0.52,0.02,1.14-0.49,1.38c-1.09,0.52-2.23,0.97-3.37,1.36C556.44,68.62,556.27,68.63,556.1,68.61z M564.27,64.38
				c-0.26-0.04-0.5-0.18-0.67-0.41c-0.34-0.46-0.24-1.11,0.23-1.45c0.91-0.66,1.79-1.39,2.62-2.15c0.42-0.39,1.08-0.36,1.47,0.06
				c0.39,0.42,0.36,1.08-0.06,1.47c-0.89,0.82-1.83,1.6-2.81,2.31C564.82,64.37,564.54,64.42,564.27,64.38z M570.8,57.9
				c-0.16-0.03-0.31-0.09-0.44-0.19c-0.46-0.34-0.56-0.99-0.21-1.45c0.67-0.91,1.3-1.86,1.86-2.84c0.29-0.5,0.92-0.67,1.42-0.38
				c0.5,0.29,0.67,0.92,0.38,1.42c-0.6,1.05-1.28,2.07-1.99,3.04C571.56,57.82,571.17,57.97,570.8,57.9z M575.1,49.77
				c-0.06-0.01-0.11-0.02-0.17-0.04c-0.54-0.19-0.83-0.78-0.64-1.32c0.37-1.07,0.68-2.16,0.93-3.27c0.12-0.56,0.66-0.92,1.24-0.79
				c0.56,0.12,0.91,0.68,0.79,1.24c-0.26,1.18-0.6,2.36-0.99,3.5C576.09,49.57,575.59,49.85,575.1,49.77z M576.76,40.72
				c-0.5-0.08-0.88-0.53-0.86-1.05c0.03-0.86,0.01-1.74-0.04-2.6c-0.02-0.27-0.03-0.53-0.06-0.8c-0.05-0.57,0.37-1.07,0.95-1.12
				c0.57-0.05,1.07,0.37,1.12,0.95c0.02,0.28,0.04,0.57,0.06,0.85c0.05,0.92,0.07,1.86,0.04,2.78c-0.02,0.57-0.49,1.02-1.07,1.01
				C576.86,40.74,576.81,40.73,576.76,40.72z"/>
			<path class="st1" d="M532.6,66.89c-0.1-0.02-0.2-0.05-0.3-0.1c-0.51-0.26-1.01-0.53-1.51-0.82c-0.49-0.29-0.66-0.92-0.37-1.42
				c0.29-0.5,0.92-0.66,1.42-0.38c0.46,0.27,0.93,0.53,1.41,0.77c0.51,0.26,0.71,0.88,0.45,1.4
				C533.48,66.75,533.03,66.96,532.6,66.89z"/>
		</g>
	</g>
	<path class="st2" d="M544.22,52.68c-0.1-0.02-0.21-0.04-0.31-0.06l0,0c-0.99-0.19-1.95-0.48-2.87-0.87
		c-0.18-0.08-0.28-0.27-0.25-0.45c0.01-0.03,0.01-0.06,0.03-0.09c0.09-0.21,0.34-0.31,0.54-0.22c0.86,0.37,1.77,0.64,2.7,0.82
		c3.49,0.67,7.01-0.06,9.94-2.06c2.93-1.99,4.91-5,5.58-8.48c0.02-0.09,0.04-0.19,0.05-0.28c1.2-7.08-3.5-13.88-10.59-15.23
		c-7.18-1.39-14.14,3.35-15.52,10.54c-0.02,0.09-0.04,0.19-0.05,0.28c-0.38,2.27-0.17,4.6,0.62,6.76c0.03,0.07,0.03,0.14,0.02,0.21
		c-0.02,0.14-0.12,0.27-0.27,0.32c-0.22,0.08-0.45-0.03-0.53-0.25c-0.84-2.29-1.07-4.77-0.66-7.18c0.02-0.1,0.04-0.2,0.05-0.3
		c1.46-7.63,8.83-12.66,16.49-11.2c7.53,1.44,12.52,8.66,11.25,16.19c-0.02,0.1-0.04,0.2-0.05,0.3c-0.71,3.7-2.81,6.9-5.92,9.01
		C551.45,52.5,547.82,53.29,544.22,52.68z"/>
</g>
<g>
	<path class="st3" d="M453.38,204.55c0,3.37-2.75,6.12-6.1,6.12H117.16c-3.36,0-6.1-2.76-6.1-6.12l-2.75-190.51
		c0-3.37,3.95-9.94,11.19-9.45l322.62,0.06c4.21-0.11,8.29,1.52,11.27,4.5c2.98,2.99,4.62,7.07,4.52,11.3L453.38,204.55z"/>
	<path class="st2" d="M447.36,198.67c0,3.19-2.6,5.8-5.78,5.8H125.13c-3.18,0-5.78-2.61-5.78-5.8l-2.59-172.95
		c0.31-10.41,9.39-14.15,14.9-13.93c0,0,252.16,1.65,309.21,0.12c2.96-0.08,5.82,1.07,7.92,3.17c2.1,2.1,3.25,4.97,3.17,7.95
		L447.36,198.67z"/>
	<g>
		<path class="st4" d="M122.77,116.06c-0.24,0-0.43-0.18-0.43-0.4l-0.21-14.03c0-0.22,0.19-0.4,0.43-0.41
			c0.24-0.01,0.44,0.17,0.44,0.4l0.21,14.03C123.21,115.88,123.02,116.06,122.77,116.06C122.77,116.06,122.77,116.06,122.77,116.06z
			"/>
		<path class="st4" d="M122.27,81.69c-0.24,0-0.43-0.18-0.43-0.4l-0.79-53.72c0.02-3.74,1.22-6.69,3.58-8.77
			c3.92-3.45,9.73-3.27,9.97-3.26l98.74,0.51c0.25-0.01,0.44,0.17,0.45,0.39c0.01,0.22-0.18,0.41-0.42,0.41l-98.77-0.51
			c-0.27-0.01-5.72-0.18-9.37,3.04c-2.18,1.92-3.3,4.68-3.31,8.19l0.79,53.71C122.71,81.51,122.51,81.69,122.27,81.69
			C122.27,81.69,122.27,81.69,122.27,81.69z"/>
	</g>
	<path class="st3" d="M473.85,226.49H97.28c-3.47,0-6.31-2.84-6.31-6.31v-4.11c0-3.47,2.84-6.31,6.31-6.31h376.57
		c3.47,0,6.31,2.84,6.31,6.31v4.11C480.16,223.65,477.32,226.49,473.85,226.49z"/>
</g>
<g>
	<g>
		<path class="st5" d="M67.71,123.6c0.17,0.03,0.34,0.05,0.51,0.08c25.65,3.75,49.52-14.24,53.31-40.17l-46.96-6.86L67.71,123.6z"/>
		<path class="st2" d="M43.71,112.44l-0.01,0.01c0.2,0.17,0.4,0.35,0.6,0.52c0,0,0,0,0,0l0,0c6.36,5.34,14.21,9.08,23.01,10.48
			c0.29,0.05,0.57,0.09,0.86,0.13l6.61-46.99l-46.82-8.9c-0.06,0.29-0.11,0.59-0.16,0.88C24.92,85.27,31.94,101.88,43.71,112.44z"/>
		<path class="st1" d="M80.31,72.67l46.12,8.38c3.91-21.52-7.35-42.28-26.18-51.29L80.13,72.32C80.06,72.47,80.15,72.64,80.31,72.67
			z"/>
		<path class="st3" d="M74.74,76.75l19.17-43.33c-3.77-1.74-7.14-2.69-11.43-3.41c-19.91-3.31-38.97,6.3-48.65,22.69l-0.17-0.1
			c-2.7,4.56-4.67,9.65-5.72,15.14l46.59,9.01c0,0-0.46-0.27-1.18-0.7L74.74,76.75z"/>
	</g>
	<path class="st6" d="M41.69,45.98c-0.21,0-0.42-0.08-0.58-0.24c-0.33-0.32-0.34-0.85-0.01-1.18
		c10.36-10.58,25.29-15.63,39.93-13.49c0.65,0.1,1.32,0.21,1.97,0.33c0.45,0.09,0.75,0.52,0.67,0.98c-0.09,0.45-0.53,0.75-0.98,0.67
		c-0.63-0.12-1.27-0.23-1.9-0.32c-14.11-2.06-28.5,2.8-38.49,13C42.13,45.9,41.91,45.98,41.69,45.98z"/>
	<path class="st6" d="M43.3,111.33c-0.2,0-0.41-0.07-0.57-0.22c-9.52-8.84-14.94-21.33-14.87-34.27c0-0.46,0.38-0.83,0.84-0.83
		c0,0,0,0,0,0c0.46,0,0.83,0.38,0.83,0.84c-0.07,12.47,5.16,24.51,14.34,33.03c0.34,0.31,0.36,0.84,0.04,1.18
		C43.75,111.24,43.52,111.33,43.3,111.33z"/>
	<path class="st6" d="M86.17,121.93c-0.37,0-0.71-0.25-0.81-0.62c-0.12-0.45,0.14-0.9,0.59-1.02c8.97-2.42,16.86-7.48,22.82-14.64
		c0.29-0.35,0.82-0.4,1.18-0.11c0.35,0.3,0.4,0.82,0.11,1.18c-6.18,7.43-14.36,12.68-23.67,15.19
		C86.31,121.92,86.24,121.93,86.17,121.93z"/>
	<path class="st6" d="M91.1,54.73c-0.12,0-0.24-0.03-0.36-0.08c-0.42-0.2-0.59-0.7-0.39-1.11l10.71-22.29l0.78,0.47
		c3.58,2.13,6.89,4.6,10.41,7.77c0.34,0.31,0.37,0.84,0.06,1.18c-0.31,0.34-0.84,0.37-1.18,0.06c-3.17-2.86-6.17-5.13-9.36-7.1
		l-9.91,20.64C91.71,54.55,91.41,54.73,91.1,54.73z"/>
	<path class="st6" d="M107.33,76.31c-0.05,0-0.1,0-0.14-0.01L82.9,72.05c-0.31-0.05-0.59-0.26-0.74-0.54
		c-0.15-0.28-0.15-0.63-0.01-0.92l2.13-4.44c0.2-0.42,0.7-0.59,1.12-0.39c0.42,0.2,0.59,0.7,0.39,1.12l-1.77,3.68l23.45,4.1
		c0.45,0.08,0.76,0.51,0.68,0.97C108.08,76.02,107.73,76.31,107.33,76.31z"/>
</g>
<g>
	
		<rect x="411.26" y="165.25" transform="matrix(-0.9999 -0.0108 0.0108 -0.9999 837.067 373.0823)" class="st4" width="16.57" height="38.06"/>
	
		<rect x="383.84" y="115.7" transform="matrix(-0.9999 -0.0108 0.0108 -0.9999 782.5006 322.937)" class="st4" width="16.57" height="87.31"/>
	
		<rect x="355.79" y="181.73" transform="matrix(-0.9999 -0.0108 0.0108 -0.9999 726.0585 388.3646)" class="st4" width="16.57" height="20.98"/>
	
		<rect x="328.41" y="126.77" transform="matrix(-0.9999 -0.0108 0.0108 -0.9999 671.5797 332.8113)" class="st4" width="16.57" height="75.64"/>
	
		<rect x="300.65" y="139.57" transform="matrix(-0.9999 -0.0108 0.0108 -0.9999 616.0016 345.0069)" class="st4" width="16.57" height="62.54"/>
	
		<rect x="272.89" y="153.5" transform="matrix(-0.9999 -0.0108 0.0108 -0.9999 560.4049 358.3415)" class="st4" width="16.57" height="48.31"/>
	
		<rect x="245.51" y="96.55" transform="matrix(-0.9999 -0.0108 0.0108 -0.9999 505.9585 300.7955)" class="st4" width="16.57" height="104.96"/>
	
		<rect x="217.76" y="107.35" transform="matrix(-0.9999 -0.0108 0.0108 -0.9999 450.4126 310.9987)" class="st4" width="16.57" height="93.86"/>
	
		<rect x="189.99" y="123.85" transform="matrix(-0.9999 -0.0108 0.0108 -0.9999 394.7745 326.8951)" class="st4" width="16.57" height="77.06"/>
	
		<rect x="161.99" y="181.58" transform="matrix(-0.9999 -0.0108 0.0108 -0.9999 338.467 384.0212)" class="st4" width="16.57" height="19.03"/>
	
		<rect x="134.5" y="144.32" transform="matrix(-0.9999 -0.0108 0.0108 -0.9999 283.701 346.163)" class="st4" width="16.57" height="55.99"/>
</g>
<path class="st4" d="M168.75,36.28c2.78,0.91,5.03,2.59,6.75,5.02c1.38,1.97,2.32,4.1,2.82,6.39c0.5,2.29,0.75,4.48,0.75,6.55
	c0,5.26-1.06,9.72-3.17,13.37c-2.87,4.92-7.29,7.39-13.28,7.39h-17.07V35.42h17.07C165.08,35.46,167.12,35.74,168.75,36.28z
	 M153.58,42.29v25.83h7.64c3.91,0,6.63-1.92,8.18-5.77c0.84-2.11,1.26-4.63,1.26-7.55c0-4.03-0.63-7.12-1.9-9.28
	c-1.26-2.16-3.78-3.24-7.54-3.24H153.58z"/>
<path class="st4" d="M214.55,42.43H193.6v8.41h19.23v6.88H193.6v10.18h21.91V75h-30V35.42h29.03V42.43z"/>
<path class="st4" d="M227.92,62.79c0.26,1.81,0.76,3.16,1.51,4.06c1.37,1.63,3.72,2.44,7.05,2.44c1.99,0,3.61-0.21,4.85-0.64
	c2.36-0.82,3.54-2.35,3.54-4.59c0-1.31-0.58-2.32-1.73-3.03c-1.16-0.7-2.99-1.32-5.5-1.85l-4.29-0.94
	c-4.21-0.93-7.11-1.94-8.68-3.03c-2.67-1.83-4-4.68-4-8.57c0-3.54,1.3-6.49,3.92-8.84c2.61-2.35,6.44-3.52,11.5-3.52
	c4.22,0,7.82,1.11,10.81,3.32c2.98,2.21,4.54,5.42,4.69,9.63h-7.95c-0.15-2.38-1.21-4.07-3.19-5.08c-1.32-0.66-2.96-0.99-4.93-0.99
	c-2.18,0-3.93,0.43-5.23,1.29s-1.95,2.06-1.95,3.6c0,1.41,0.64,2.47,1.93,3.17c0.83,0.47,2.58,1.01,5.26,1.64l6.95,1.64
	c3.04,0.72,5.33,1.67,6.85,2.87c2.36,1.86,3.54,4.56,3.54,8.08c0,3.62-1.4,6.62-4.19,9.01c-2.8,2.39-6.75,3.58-11.85,3.58
	c-5.21,0-9.31-1.18-12.3-3.53c-2.99-2.35-4.48-5.59-4.48-9.71H227.92z"/>
<path class="st4" d="M266.19,75h-8.22V35.42h8.22V75z"/>
<path class="st4" d="M300.54,47.77c-0.63-2.7-2.16-4.59-4.59-5.67c-1.36-0.59-2.87-0.89-4.54-0.89c-3.19,0-5.8,1.2-7.85,3.61
	c-2.05,2.4-3.08,6.02-3.08,10.84c0,4.86,1.11,8.3,3.33,10.32s4.74,3.03,7.57,3.03c2.78,0,5.05-0.8,6.82-2.39
	c1.77-1.59,2.86-3.68,3.28-6.26h-9.16v-6.61h16.49V75h-5.48l-0.83-4.94c-1.59,1.87-3.03,3.19-4.3,3.96c-2.18,1.34-4.87,2-8.06,2
	c-5.25,0-9.54-1.82-12.89-5.45c-3.49-3.65-5.24-8.64-5.24-14.98c0-6.41,1.76-11.54,5.29-15.41s8.19-5.8,13.99-5.8
	c5.03,0,9.07,1.28,12.13,3.83c3.05,2.55,4.8,5.73,5.25,9.55H300.54z"/>
<path class="st4" d="M316.57,35.42h8.67l15.71,27.6v-27.6h7.71V75h-8.27l-16.12-28.09V75h-7.71V35.42z"/>
<g>
	<path class="st7" d="M376.7,119.16c0.64-0.63,0.61-1.67-0.06-2.26l-80.09-71.46c-0.22-0.2-0.55-0.25-0.82-0.12l0,0
		c-0.48,0.23-0.57,0.87-0.18,1.22l79.05,72.64C375.19,119.74,376.12,119.73,376.7,119.16L376.7,119.16z"/>
	<path class="st7" d="M423.53,295.11c0-0.11,0.01-0.23,0.03-0.34c1.71-6.8,10.22-11.03,10.22-11.03l3.37,0.26
		c1.94,5.99,1.69,9.66,1.38,11.3c-0.01,0.05-0.02,0.09-0.03,0.13C435.73,295.68,430,295.84,423.53,295.11z"/>
	<path d="M438.51,295.43c-0.15,0.55-0.55,0.97-1.07,1.08c-3.96,0.83-10.25,0.16-12.89-0.18c-0.58-0.08-1.01-0.61-1.02-1.22
		C430,295.84,435.73,295.68,438.51,295.43z"/>
	<path class="st8" d="M451.86,174.78c2.08,2.22,5.15,4.14,7.31,5.34c-3.22,3.98-7.58,7.97-13.36,11.88l-1.65,3.71l-5.29-6.34
		C438.87,189.36,448.36,184.64,451.86,174.78z"/>
	<path class="st8" d="M438.52,278.97l-1.43,6.87c-0.1,0.5-0.49,0.88-0.96,0.93c-0.57,0.05-1.39,0.09-2.21-0.04
		c-0.74-0.11-1.25-0.86-1.12-1.66l0.99-6.1H438.52z"/>
	<path d="M408.93,295.36c3.72-0.1,5.65-0.54,6.65-0.95c0,0.37,0,0.75-0.01,1.14c-0.01,0.42-0.32,0.75-0.7,0.75l-20.45-0.13
		c-0.65,0-1.03-0.76-0.75-1.36C396.35,295.03,403.17,295.52,408.93,295.36z"/>
	<path class="st7" d="M393.66,294.81c0.02-0.05,0.05-0.11,0.08-0.15c1.81-2.52,6.4-7.55,15.49-9.73l4.36-0.14
		c0,0,1.94,3.37,1.98,9.62c-1,0.41-2.92,0.85-6.65,0.95C403.17,295.52,396.35,295.03,393.66,294.81z"/>
	<path class="st8" d="M414.41,278.18c-0.05,0.32-0.65,5.26-0.88,7.18c-0.05,0.46-0.38,0.81-0.8,0.86c-0.74,0.09-1.94,0.17-2.99-0.05
		c-0.57-0.12-0.98-0.66-0.98-1.29v-7.75L414.41,278.18z"/>
	<path class="st7" d="M417.9,188.04c0,0-10.52,39.96-10.33,90.25c0,0.92,0.65,1.71,1.54,1.9c1.32,0.28,3.27,0.61,4.87,0.56
		c0.86-0.02,1.58-0.66,1.72-1.51c1.47-8.65,9.94-57.36,14.76-65.27c0,0,3.17,43.38,2.16,65.89c-0.03,0.56,0.38,1.05,0.94,1.11
		c0.84,0.1,2.19,0.17,3.91-0.01c0.65-0.07,1.18-0.56,1.27-1.21c1.05-7.32,7.1-50.88,6.84-82.25c-0.01-1.77-4.68-9.46-4.68-9.46
		H417.9z"/>
	<path class="st1" d="M401.78,134.22c1.84-4.71,4.95-7.93,8.07-11.65c11.71,2.12,30.89,4.02,38.9,5.02c2.5,0.31,4.78,1.55,6.43,3.45
		c6.53,7.56,20.85,28.24,3.99,49.08c-2.16-1.2-5.22-3.12-7.31-5.34c1.87-5.26,2.02-11.98-1.89-20.22c-0.13,0.65-0.3,1.3-0.5,1.94
		c-5.39,17.07-5.68,31.28-5.66,34.55c0,0.44-0.27,0.84-0.68,1.01c-7.09,2.84-20.74,1.15-25.33,0.47c-0.84-0.13-1.41-0.91-1.29-1.75
		c2.25-16.29-9.29-43.1-12.34-49.81c-0.45-0.98-1.23-1.77-2.21-2.22c-0.49-0.22-0.98-0.45-1.45-0.68
		C400.86,136.77,401.28,135.49,401.78,134.22z"/>
	<path class="st8" d="M436.49,111.91l0.83,14.57c0.02,0.43-0.26,0.82-0.67,0.92c-1.85,0.47-6.96,1.39-11.41-1.14
		c-0.58-0.33-0.84-1.02-0.66-1.66l3.72-13.09L436.49,111.91z"/>
	<g>
		<path class="st8" d="M427.37,96c-0.19,0.18-7.98,15.48-7.98,15.48l8.83,4.26l9.54-13.4C437.76,102.34,430.54,93.02,427.37,96z"/>
		<path class="st7" d="M433.85,102.71c0.16,0.41,0.12,0.86-0.11,1.24l-4.4,7.34c-0.07,0.11-0.15,0.21-0.24,0.3
			c-0.52,0.49-2.32,1.91-3.7-0.03c-1.18-1.65-2.29-3.14-3.48-3.76c-0.69-0.36-1.55-0.07-1.9,0.63c-0.73,1.44-2.13,4.37-3.01,7.15
			c-0.22,0.7,0.14,1.44,0.82,1.72c1.79,0.72,5.32,2.03,8.46,2.47c0.52,0.07,1.03-0.15,1.33-0.57c1.35-1.85,5.15-7.01,6.45-8.31
			c1.21-1.2,3.43-0.75,4.43-0.46c0.38,0.11,0.79,0.06,1.13-0.15c1.02-0.61,2.79-2.14,1.17-4.72c-0.4-0.64-0.2-1.5,0.44-1.91
			c1.14-0.75,2.37-2.15,1.19-4.42c-1.19-2.3-3.31-2.51-4.76-2.33c-0.64,0.08-1.29-0.26-1.53-0.85c-0.11-0.27-0.32-0.49-0.73-0.57
			c-0.76-0.15-1.26-0.85-1.11-1.61c0.26-1.3,0.06-2.99-2.01-4.13c-3.81-2.09-7.15,1.32-8,4.2c-0.85,2.88,3.41,4.92,6.09,5.26
			C432.34,99.44,433.42,101.58,433.85,102.71z"/>
		<path class="st8" d="M432.4,113.58c0,0,1.69-4.96,3.86-4.77c2.17,0.18,3.88,2.34,1.19,4.77
			C434.11,116.6,432.4,113.58,432.4,113.58z"/>
	</g>
	<path class="st3" d="M450.68,153.29c2.86-7.82,1.82-17.27,1.81-17.36l-0.79,0.09c0.01,0.09,1.03,9.36-1.77,17L450.68,153.29z"/>
	<linearGradient id="SVGID_1_" gradientUnits="userSpaceOnUse" x1="434.309" y1="205.269" x2="435.0726" y2="212.5228">
		<stop  offset="0" style="stop-color:#090000"/>
		<stop  offset="0.9997" style="stop-color:#1A0F00"/>
	</linearGradient>
	<path class="st9" d="M430.86,212.96c0.18,0,0.34-0.12,0.38-0.3c0.87-3.36,7.4-7.06,7.47-7.1c0.19-0.11,0.26-0.35,0.15-0.54
		c-0.11-0.19-0.35-0.26-0.54-0.15c-0.28,0.16-6.89,3.9-7.85,7.59c-0.05,0.21,0.07,0.43,0.28,0.48
		C430.8,212.96,430.83,212.96,430.86,212.96z"/>
	<g>
		<path class="st1" d="M375,127.09c11.13,4.07,34.85-4.52,34.85-4.52l1.63,19.38c-18.99,6.01-31.35,4.26-39.39-0.78
			C371.59,135.43,373.31,130.45,375,127.09z"/>
		<path class="st8" d="M357.28,107.09l4.66-0.92c0,0,1.27,14.82,11.65,20.3c0.44,0.23,0.92,0.44,1.42,0.62
			c-1.69,3.36-3.41,8.35-2.91,14.08C355.76,130.92,357.28,107.09,357.28,107.09z"/>
	</g>
	<path class="st8" d="M361.7,107.46l0.24-1.29c0,0,0.97-3.16-1.6-6.26c-3.72-4.49-6.43-2.84-6.43-2.84s0.19,0.96,0.18,1.81
		c-0.01,0.69-0.83,1.04-1.34,0.57l-6.06-5.57c0,0-1.7,8.85,11.31,14.93L361.7,107.46z"/>
</g>
<path d="M595.18,296.75v0.33c0,0.53-0.41,0.97-0.9,0.97H5.72c-0.49,0-0.9-0.44-0.9-0.97v-0.33c0-0.53,0.41-0.97,0.9-0.97h588.56
	C594.78,295.77,595.18,296.21,595.18,296.75z"/>
<path class="st10" d="M559.87,207.68c0,0-16.2,13.12-16.54,30.02"/>
<path class="st10" d="M515.47,198.54c0,0,14.71,17.18,15.05,34.09"/>
<path class="st11" d="M509.2,217.25c0,0,14.72,10.97,16.63,26.4"/>
<g>
	<g>
		<path class="st1" d="M100.5,246.41c-1.03,1.52-5.11,35.97-5.75,48.7c-0.04,0.86,0.65,1.58,1.51,1.58l0,0
			c0.74,0,1.38-0.54,1.49-1.28l7.47-47.9L100.5,246.41z"/>
		<path class="st1" d="M133.35,246.41c1.03,1.52,5.11,35.97,5.75,48.7c0.04,0.86-0.64,1.58-1.51,1.58l0,0
			c-0.74,0-1.38-0.54-1.49-1.28l-7.48-47.9L133.35,246.41z"/>
		<path class="st1" d="M94.31,243.72l0,0.38c-0.02,2.7,2.3,4.92,5.22,4.97l34.55,0.59c2.87,0.05,5.27-2.03,5.41-4.69l0.02-0.34
			c0.15-2.77-2.21-5.11-5.21-5.17l-34.57-0.62C96.77,238.78,94.34,240.98,94.31,243.72z"/>
	</g>
	<g>
		<g>
			<path d="M161.53,295.85c-6.14,0-8.86-0.53-10.07-1.01c0.24,1.01,1.13,1.8,2.27,1.8h21.73c0.73,0,1.19-0.7,1.02-1.33
				C173.99,295.51,168.73,295.85,161.53,295.85z"/>
			<path class="st7" d="M176.47,295.31c-0.04-0.13-0.09-0.25-0.18-0.37c-1.66-2.11-4.98-5.43-9.5-5.37
				c-6.63,0.09-8.94,0.81-14.08,0.04l-1.21,4.03c-0.12,0.41-0.13,0.82-0.04,1.2c1.22,0.48,3.93,1.01,10.07,1.01
				C168.73,295.85,173.99,295.51,176.47,295.31z"/>
		</g>
		<path class="st8" d="M154.2,284.28l-1.49,6.07c0,0,3.3,1.5,6.21,0.3l0.57-5.39L154.2,284.28z"/>
		<g>
			<path d="M199.23,290.66c-4.79,3.85-7.23,5.14-8.48,5.53c0.81,0.63,2.01,0.69,2.89-0.02l16.94-13.61
				c0.57-0.46,0.49-1.29-0.04-1.67C208.74,282.59,204.85,286.15,199.23,290.66z"/>
			<path class="st7" d="M210.54,280.88c-0.11-0.08-0.23-0.14-0.37-0.18c-2.61-0.6-7.27-1.1-10.75,1.79
				c-5.11,4.22-6.46,6.23-10.95,8.85l1.56,3.88c0.16,0.4,0.41,0.72,0.72,0.95c1.25-0.39,3.69-1.68,8.48-5.53
				C204.85,286.15,208.74,282.59,210.54,280.88z"/>
		</g>
		<path d="M122.3,225.5c0,0,36.77,3,44.32,6.55c7.54,3.55-6.16,53.32-6.16,53.32s-2.05,0.99-6.62-0.43c0,0,4.69-36.73,1.2-44.69
			l-39.81-6.51L122.3,225.5z"/>
		<path class="st8" d="M184.81,284.36c0.34,0.31,3.65,6.99,3.65,6.99s3.69-0.8,4.44-3.13l-3.32-6.03L184.81,284.36z"/>
		<path class="st7" d="M100.15,225.2c0,0-1.2,2.88-1.15,6.72c0.07,5.3,4.33,9.6,9.62,9.86l43.47,1.98c0.92,0.04,1.69,0.68,1.92,1.57
			c1.02,3.95,6.01,16.08,30.42,40.3c0.65,0.64,1.66,0.75,2.43,0.27l3.47-2.19c0.36-0.23,0.48-0.71,0.26-1.08l-25.31-43.22
			c-1.33-2.19-3.47-3.78-5.95-4.41l-37.05-9.47L100.15,225.2z"/>
		<path class="st8" d="M142.99,157.68c0,0-4.66,8.23-9.4,12.22l9.81,5.48c0,0,2.21-8.72,7.26-11.27L142.99,157.68z"/>
		<path class="st12" d="M99.37,225.5c0,0,11.74,2.86,22.94,0c0,0,15.67-21.07,21.74-26.81c0,0,9.67,15.26,31.2,17.43l1.2-2.68
			c0,0-17.14-7.9-22.42-20.04c-5.28-12.14-7.4-17.32-12.2-20.49c-2.99-1.97-4.78-3.32-5.7-4.06c-0.51-0.4-1.21-0.45-1.76-0.11
			C129.27,171.85,105.3,188.27,99.37,225.5z"/>
		<path class="st13" d="M143.4,199.17c0.32,0,0.65-0.1,0.92-0.31c0.67-0.51,0.79-1.47,0.28-2.13c-3.54-4.62-5.57-9.85-5.59-9.9
			c-0.3-0.78-1.18-1.18-1.97-0.88c-0.78,0.3-1.18,1.18-0.88,1.97c0.09,0.23,2.21,5.7,6.01,10.66
			C142.5,198.97,142.95,199.17,143.4,199.17z"/>
		<path class="st8" d="M173.95,212.04l2.42-0.65l7.36-1.7c0.89-0.21,1.82-0.05,2.59,0.44l6.33,3.98l-17.47-0.03L173.95,212.04z"/>
		<g>
			<path class="st8" d="M150.39,145.34c0,0,4.53,7.52,5.31,11.68c0.79,4.16,2.05,6.76-2.69,8.24c-4.73,1.48-9.13-0.39-11.89-4.27
				c0,0-4.31-5.97-3.88-8.71C137.67,149.54,150.39,145.34,150.39,145.34z"/>
			<path class="st7" d="M142.38,157.76l0.61-0.08c0,0-3.2-4.84-1.11-6.04c2.1-1.2,10.64-4.15,12.13-7.51
				c1.43-3.24-0.71-6.91-3.29-7.67c-0.16-0.05-0.34,0.05-0.39,0.21l-0.15,0.41c-0.1,0.28-0.5,0.29-0.62,0.02l0,0
				c-0.11-0.26-0.48-0.27-0.6-0.01c-0.46,1.01-1.83,2.73-5.94,4.06c-5.83,1.89-9.46,4.83-9.02,8.97c0.03,0.26-0.23,0.44-0.47,0.34
				c-0.48-0.21-1.2-0.24-2.04,0.67c-1.46,1.6-0.32,5.09,3.67,7.56c0.19,0.12,0.22,0.38,0.05,0.53c-0.6,0.51-1.44,1.65,1.26,2.66
				c2.76,1.04,4.26,0.69,4.82,0.46c0.15-0.06,0.24-0.21,0.2-0.37l-0.71-3.63c-0.04-0.19,0.09-0.37,0.28-0.39L142.38,157.76z"/>
			
				<linearGradient id="SVGID_2_" gradientUnits="userSpaceOnUse" x1="11184.0361" y1="1905.52" x2="11164.0039" y2="1920.8481" gradientTransform="matrix(0.9914 -0.1306 0.1306 0.9914 -11187.5605 -279.1283)">
				<stop  offset="0" style="stop-color:#FEBBBA"/>
				<stop  offset="1" style="stop-color:#FF928E"/>
			</linearGradient>
			<path class="st14" d="M142.63,158.51c0,0-2-4.92-4.09-3.19c-2.1,1.73,1.94,5.56,3.8,5.5L142.63,158.51z"/>
		</g>
	</g>
	<g>
		<g>
			<path class="st13" d="M167.2,217.53c0.03,0,0.06,0,0.09,0l37.32-0.04c0.92,0,1.67-0.75,1.67-1.67c0-0.92-0.75-1.68-1.67-1.67
				l-37.32,0.04c-0.92,0-1.67,0.75-1.67,1.67C165.61,216.76,166.32,217.49,167.2,217.53z"/>
		</g>
		<g>
			<path class="st12" d="M219.06,180.98c-0.01,0.03-0.03,0.05-0.04,0.08l-15.7,33.86c-0.39,0.84-0.03,1.83,0.81,2.22
				c0.84,0.39,1.84,0.03,2.22-0.81l15.7-33.86c0.39-0.84,0.03-1.83-0.81-2.22C220.43,179.87,219.47,180.2,219.06,180.98z"/>
		</g>
	</g>
	<g>
		<path class="st1" d="M183.82,219.41c-0.16,0.68-15.74,59.08-19.68,73.89c-0.46,1.71,0.82,3.38,2.56,3.38l0,0
			c1.22,0,2.28-0.84,2.57-2.03l17.29-70.09L183.82,219.41z"/>
		<path class="st1" d="M192.34,219.41c0.16,0.68,15.74,59.08,19.68,73.89c0.46,1.71-0.82,3.38-2.56,3.38l0,0
			c-1.22,0-2.28-0.84-2.57-2.03l-17.29-70.09L192.34,219.41z"/>
		<path class="st1" d="M192.99,217.5h-9.7v7.79c0,1.12,0.9,2.03,2,2.03h1.33v17.5c0,0.85,0.68,1.53,1.52,1.53l0,0
			c0.84,0,1.52-0.69,1.52-1.53v-17.5h0.68c1.47,0,2.66-1.2,2.66-2.69V217.5z"/>
		<path class="st1" d="M159.45,215.63h54.16c0.76,0,1.42,0.52,1.61,1.26l0.76,2.97c0.27,1.07-0.53,2.11-1.62,2.1l-55.57-0.32
			c-1.08-0.01-1.86-1.03-1.6-2.09l0.66-2.64C158.02,216.15,158.69,215.63,159.45,215.63z"/>
	</g>
</g>
<g>
	<path class="st15" d="M532.7,240.86c-0.24-1.31-0.2-2.64,0.12-3.92c1.1-4.3,2.36-12.4-0.44-21.14c-4.67-14.59-23.6-27.5-23.6-27.5
		s5.14,21.52,9.36,30.69c3.09,6.71,8.5,14.35,11.51,18.37c0.83,1.12,1.4,2.4,1.65,3.77c3.06,16.94,2.62,30.05,2.61,30.25l1.42,0.06
		C535.34,271.23,535.79,257.98,532.7,240.86z"/>
	<path class="st16" d="M547.79,227.15c3.76-11.89,5.51-25.9,5.51-25.9s-16.97,14.01-18.37,24.84c-0.85,6.64,0.21,11.96,1.16,15.1
		c0.4,1.33,0.55,2.72,0.4,4.1c-1.72,15.95-0.37,28.17-0.35,28.36l1.28-0.15c-0.02-0.18-1.27-11.55,0.2-26.62
		c0.2-2.06,1.03-4.01,2.34-5.63C542.39,238.26,545.86,233.25,547.79,227.15z"/>
	<path class="st15" d="M565.05,200.7c0,0-18.29,6.79-23.07,21.72c-2.91,9.09-1.54,17.49-0.4,21.84c0.32,1.22,0.3,2.5,0,3.72
		c-4.28,17.19-4.35,34.98-4.35,35.21h1.46c0-0.23,0.07-17.6,4.2-34.45c0.41-1.67,1.14-3.25,2.17-4.63
		c3.12-4.2,8.43-11.76,11.5-18.43C560.88,216.3,565.05,200.7,565.05,200.7z"/>
	<path class="st16" d="M532.77,263.72c-0.46-6.25-2.16-11.88-4.22-16.6c-0.41-0.95-0.56-1.98-0.43-3c0.26-1.97,0.36-5.04-0.43-8.93
		c-1.48-7.33-11.21-23.16-25.29-24.09c0,0,4.86,7.81,7.36,14.35c3.16,8.27,7.68,16.92,15.17,20.24c1.32,0.58,2.35,1.68,2.9,3.01
		c1.8,4.38,3.25,9.49,3.66,15.12L532.77,263.72z"/>
	<g>
		<path class="st12" d="M523.25,295.79h23.24l6.03-36.85c0.27-1.63-0.99-3.11-2.64-3.11h-30.01c-1.65,0-2.91,1.48-2.64,3.11
			L523.25,295.79z"/>
	</g>
</g>
<path class="st13" d="M552.39,254.83l-34.95,0.51c-1.41,0.02-2.54,1.26-2.54,2.76c0.01,1.5,1.16,2.71,2.57,2.69l34.92-0.27
	c1.54-0.01,2.8-1.3,2.8-2.88C555.18,256.06,553.93,254.8,552.39,254.83z"/>
</svg>
