<?xml version="1.0" encoding="utf-8"?>
<!-- Generator: Adobe Illustrator 23.0.3, SVG Export Plug-In . SVG Version: 6.00 Build 0)  -->
<svg version="1.1" id="Layer_1" xmlns="http://www.w3.org/2000/svg" xmlns:xlink="http://www.w3.org/1999/xlink" x="0px" y="0px"
	 viewBox="0 0 600 300.94" style="enable-background:new 0 0 600 300.94;" xml:space="preserve">
<style type="text/css">
	.st0{fill:#CE5B5B;}
	.st1{fill:#FFD2D2;}
	.st2{fill:#FFFFFF;}
	.st3{fill:#BC1818;}
	.st4{fill:#7D97F4;}
	.st5{fill:#1A0F00;}
	.st6{fill:#FFB27D;}
	.st7{fill:#F99746;}
	.st8{fill:#ED7D2B;}
	.st9{fill:#9B0404;}
	.st10{fill:#333333;}
	.st11{fill:#FFF0F0;}
	.st12{fill:url(#SVGID_1_);}
	.st13{fill:#FFC9A1;}
	.st14{fill:#BC3131;}
	.st15{fill:#3D723D;}
	.st16{fill:#619961;}
	.st17{opacity:0.7;}
</style>
<path d="M595.68,297v0.33c0,0.53-0.41,0.97-0.9,0.97H6.23c-0.49,0-0.9-0.44-0.9-0.97V297c0-0.53,0.41-0.97,0.9-0.97h588.56
	C595.28,296.03,595.68,296.47,595.68,297z"/>
<g>
	<path class="st0" d="M93.5,7.46l375.58-0.21c15.12-0.25,27.26,12.42,26.36,27.52l-12.93,217.18c-0.71,11.89-10.49,21.2-22.4,21.31
		l-361.03,3.49c-8.92,0.09-16.28-6.94-16.62-15.85L73.83,28.23C73.4,17.02,82.28,7.64,93.5,7.46z"/>
	<path class="st1" d="M102.65,14.49l357.64,0.09c14.4-0.24,25.96,11.83,25.1,26.2l-12.31,206.81c-0.67,11.32-9.99,20.18-21.33,20.29
		l-343.78,3.32c-8.49,0.08-15.51-6.61-15.83-15.09L83.92,34.28C83.51,23.6,91.96,14.67,102.65,14.49z"/>
	<path class="st2" d="M89.78,48.18c-0.66,0-1.19-0.53-1.19-1.19c0-0.66,0.53-1.2,1.19-1.2l389.78-0.88c0,0,0,0,0,0
		c0.66,0,1.19,0.53,1.19,1.19c0,0.66-0.53,1.2-1.19,1.2"/>
	<path class="st2" d="M182.04,268.91c-0.65,0-1.18-0.52-1.19-1.18l-3.44-242.59c-0.01-0.66,0.52-1.2,1.18-1.21c0.01,0,0.01,0,0.02,0
		c0.65,0,1.18,0.52,1.19,1.18l3.44,242.59c0.01,0.66-0.52,1.2-1.18,1.21C182.06,268.91,182.05,268.91,182.04,268.91z"/>
	<path class="st2" d="M290.81,268.91c-0.66,0-1.19-0.53-1.19-1.19V20.18c0-0.66,0.53-1.19,1.19-1.19s1.19,0.53,1.19,1.19v247.53
		C292,268.37,291.47,268.91,290.81,268.91z"/>
	<path class="st2" d="M399.34,267.91c-0.65,0-1.19-0.52-1.19-1.18L395.09,20.2c-0.01-0.66,0.52-1.2,1.18-1.21
		c0.67-0.01,1.2,0.52,1.21,1.18l3.06,246.53c0.01,0.66-0.52,1.2-1.18,1.21C399.35,267.91,399.35,267.91,399.34,267.91z"/>
	<path class="st0" d="M91.7,34.64L91.7,34.64c0,3.23,1.19,5.85,2.66,5.85h64.86c1.47,0,2.66-2.62,2.66-5.85l0,0
		c0-3.23-1.19-5.85-2.66-5.85H94.36C92.89,28.79,91.7,31.41,91.7,34.64z"/>
</g>
<g>
	<path class="st3" d="M169.75,297.22c-0.72,0-1.36-0.37-1.49-0.89l-23.47-98.51c-0.14-0.58,0.42-1.13,1.24-1.23
		c0.82-0.1,1.6,0.29,1.74,0.88l23.47,98.51c0.14,0.58-0.42,1.13-1.24,1.23C169.92,297.22,169.83,297.22,169.75,297.22z"/>
	<path class="st3" d="M90.56,297.22c-0.1,0-0.2-0.01-0.3-0.02c-0.82-0.12-1.35-0.68-1.18-1.26l27.67-97.23
		c0.16-0.58,0.96-0.96,1.78-0.84c0.82,0.12,1.35,0.68,1.18,1.26l-27.67,97.23C91.89,296.87,91.26,297.22,90.56,297.22z"/>
	<path class="st3" d="M151.11,222.17h-38.66c-0.8,0-1.45-0.48-1.45-1.07c0-0.59,0.65-1.07,1.45-1.07h38.66
		c0.8,0,1.45,0.48,1.45,1.07C152.56,221.69,151.91,222.17,151.11,222.17z"/>
	<path class="st4" d="M151.84,239.98h-40.11c-0.83,0-1.51-0.48-1.51-1.07c0-0.59,0.68-1.07,1.51-1.07h40.11
		c0.83,0,1.51,0.48,1.51,1.07C153.35,239.5,152.67,239.98,151.84,239.98z"/>
	<path class="st3" d="M155.48,239.98h-48.63c-0.83,0-1.51-0.48-1.51-1.07c0-0.59,0.68-1.07,1.51-1.07h48.63
		c0.83,0,1.51,0.48,1.51,1.07C156.99,239.5,156.31,239.98,155.48,239.98z"/>
	<path class="st4" d="M151.84,257.79h-40.11c-0.83,0-1.51-0.48-1.51-1.07c0-0.59,0.68-1.07,1.51-1.07h40.11
		c0.83,0,1.51,0.48,1.51,1.07C153.35,257.31,152.67,257.79,151.84,257.79z"/>
	<path class="st3" d="M160.12,257.79h-58.21c-0.83,0-1.51-0.48-1.51-1.07c0-0.59,0.68-1.07,1.51-1.07h58.21
		c0.83,0,1.51,0.48,1.51,1.07C161.63,257.31,160.96,257.79,160.12,257.79z"/>
	<path class="st4" d="M151.84,275.6h-54.6c-0.83,0-1.51-0.48-1.51-1.07c0-0.59,0.68-1.07,1.51-1.07h54.6c0.83,0,1.51,0.48,1.51,1.07
		C153.35,275.12,152.67,275.6,151.84,275.6z"/>
	<path class="st3" d="M163.88,275.6H97.24c-0.83,0-1.51-0.48-1.51-1.07c0-0.59,0.68-1.07,1.51-1.07h66.65
		c0.83,0,1.51,0.48,1.51,1.07C165.39,275.12,164.71,275.6,163.88,275.6z"/>
</g>
<g>
	<path class="st5" d="M114.46,230.4c0,0-1.09,1.72-1.37,6.55c-0.03,0.45,0.33,0.83,0.78,0.83h8.56c0.34,0,0.59-0.34,0.48-0.66
		c-0.5-1.48-2.02-5.1-5.4-7.17L114.46,230.4z"/>
	<path class="st6" d="M114.09,227.13l0.48,4.06c0.04,0.35,0.32,0.63,0.67,0.67c0.47,0.05,1.15,0.09,1.81-0.02
		c0.6-0.1,1.03-0.63,1.03-1.24v-3.92L114.09,227.13z"/>
	<path class="st5" d="M135.63,229.95c0,0-1.64,2.55-1.6,6.04c0.01,0.82,0.7,1.48,1.52,1.48h13.29c0.62,0,0.87-0.8,0.37-1.16
		c-2.51-1.77-7.46-5.06-11.03-6.36H135.63z"/>
	<path class="st6" d="M134.26,225.57l1.03,5.01c0.12,0.56,0.66,0.94,1.22,0.81c0.34-0.08,0.74-0.22,1.17-0.49
		c0.41-0.25,0.61-0.74,0.53-1.21l-1.07-6.07L134.26,225.57z"/>
	<path class="st7" d="M115.98,155.9c0,0-3.59,3.16-4.26,6.97c-0.68,3.81,1.91,65.68,1.91,65.68s3.59,0.6,5.44-0.52
		c0,0,2.19-40.15,3.86-49.43c0,0,8.75,41.59,11.17,49.11c0,0,3.46,0.42,4.57-0.24c0,0-2.29-53.92-5.17-63.5L115.98,155.9z"/>
	<path class="st8" d="M122.83,177.29c-0.18,0-0.34-0.12-0.39-0.3l-1.48-5.7l-3.16-2.03c-0.19-0.12-0.24-0.37-0.12-0.55
		c0.12-0.19,0.37-0.24,0.55-0.12l3.29,2.11c0.08,0.05,0.15,0.14,0.17,0.24l1.52,5.85c0.06,0.21-0.07,0.43-0.29,0.49
		C122.9,177.29,122.86,177.29,122.83,177.29z"/>
	<path class="st9" d="M151.4,120.15c-15.11-1.25-19.06,1.87-19.06,1.87l7.26,11.46c0,0,14.84-0.29,25.48-8.49
		c-1.99-2.14-3.37-4.51-4.26-6.36C158.08,119.77,154.92,120.44,151.4,120.15z"/>
	<path class="st6" d="M175.06,97.97c-0.02-0.48-0.68-0.62-0.88-0.18l-1.93,4.11c-0.37,0.79-0.49,1.68-0.34,2.55l0.68,2.39
		c0.2,1.17-0.1,2.36-0.84,3.29c-1.77,2.21-5.54,6.26-10.91,8.49c0.89,1.84,2.27,4.21,4.26,6.36c3.9-3.01,7.24-7.08,9.07-12.59
		c0.88-0.27,1.46-1.09,1.43-2.01L175.06,97.97z"/>
	<path class="st3" d="M156.37,126.79c-5.32-5.73-15.45-8.32-21.31-9.38c-2.57-0.47-5.1,0.96-6.01,3.41
		c-2.64,7.1-9.82,25.55-11.21,28.73c-1.14,2.6-2.33,5.14-3.09,6.73c-0.45,0.95-0.06,2.09,0.89,2.54c4.93,2.38,13.81,5.07,17.41,6.12
		c0.79,0.23,1.58-0.36,1.58-1.19c0-0.7,0.19-1.39,0.55-1.99l13.63-22.72c8.5,9.42,15.94,10.28,21.66,8.22
		c-0.96-2.97-1.59-5.95-1.89-8.93C160.13,136.9,156.37,126.79,156.37,126.79z"/>
	<path class="st6" d="M182.53,136.76l-1.52-2.03c-4.93,3.39-9.06,4.19-12.43,3.61c0.3,2.98,0.93,5.96,1.89,8.93
		C178,144.56,182.53,136.76,182.53,136.76z"/>
	<path class="st6" d="M181.46,136.8l8.59,0.33l7.91-4.42c-1.13-0.71-7.55,0.74-7.55,0.74s-6.71-1.01-8.52-1.02
		c-1.51,0-1.29,2.17-1.18,2.9c0.02,0.15,0.04,0.24,0.04,0.24L181.46,136.8z"/>
	<path class="st6" d="M143.13,106.89l-4.53,11.05c0,0,5.21,3.6,9.39,3.26l2.26-9.94L143.13,106.89z"/>
	<g>
		<path class="st6" d="M150.78,99.35c0.1,0.15,3.28,11.61,3.28,11.61l-6.58,1.67l-4.62-10.42
			C142.85,102.21,149.04,96.89,150.78,99.35z"/>
		<path class="st10" d="M145.33,103.8l2,5.68c0.03,0.07,0.06,0.14,0.1,0.2c0.27,0.39,1.3,1.65,2.53,0.51
			c1.11-1.03,2.14-1.95,3.09-2.12c0.43-0.08,0.84,0.19,0.96,0.6c0.29,1.04,0.89,3.4,1.11,5.53c0.04,0.43-0.26,0.82-0.68,0.9
			c-1.29,0.24-4.01,0.68-6.29,0.52c-0.31-0.02-0.58-0.21-0.71-0.49c-0.63-1.37-2.55-5.53-3.26-6.61c-0.67-1.01-2.32-0.98-3.01-0.92
			c-0.23,0.02-0.45-0.05-0.62-0.2c-0.6-0.53-1.75-1.88-0.14-3.5c0.34-0.34,0.33-0.88-0.02-1.21c-0.69-0.65-1.44-1.81-0.28-3.24
			c1.18-1.46,2.73-1.23,3.68-0.88c0.38,0.14,0.8-0.02,1.01-0.37c0.12-0.2,0.33-0.35,0.69-0.32c0.48,0.04,0.89-0.36,0.88-0.85
			c-0.02-0.93,0.32-2.12,1.94-2.62c2.88-0.9,4.67,1.88,4.85,3.96c0.18,2.07-3,2.87-4.86,2.73c-1.42-0.11-2.47,1.3-2.9,1.98
			C145.27,103.29,145.24,103.56,145.33,103.8z"/>
		<path class="st6" d="M144.93,110.59c0,0-0.46-3.6-1.96-3.78c-1.5-0.18-2.96,1.05-1.47,3.07
			C143.35,112.4,144.93,110.59,144.93,110.59z"/>
	</g>
</g>
<g>
	<path class="st0" d="M177.95,37.31l130.42-1.07c1.57-0.02,2.85,2.93,2.84,6.57l-0.29,87.77c-0.01,3.66-1.32,6.58-2.9,6.47
		l-129.68-4.72c-1.51-0.1-2.71-2.94-2.73-6.44l-0.45-81.98C175.13,40.3,176.38,37.33,177.95,37.31z"/>
	<path class="st11" d="M308.38,130.39l-129.72-4.73c-0.47-0.03-0.51-0.62-0.51-0.8l-0.45-81.98c0-0.19,0.03-0.35,0.09-0.49
		c0.09-0.21,0.24-0.32,0.45-0.33L308.66,41c0.15,0,0.35,0.06,0.46,0.32c0.06,0.14,0.09,0.31,0.09,0.49l-0.29,87.77
		C308.93,129.78,308.89,130.39,308.38,130.39z M178.81,125.26l129.47,4.72c0.03-0.07,0.08-0.2,0.08-0.39l0.29-87.77
		c0-0.15-0.02-0.27-0.06-0.37c-0.01-0.01-0.01-0.02-0.01-0.03l-130.21,1.07c-0.01,0.01-0.01,0.02-0.02,0.04
		c-0.04,0.1-0.06,0.22-0.06,0.37l0.45,81.98C178.73,125.06,178.77,125.2,178.81,125.26z"/>
</g>
<path class="st3" d="M417.51,123.29c0-16.05-20-29.05-44.68-29.05c-24.68,0-44.68,13.01-44.68,29.05c0,16.05,20,29.05,44.68,29.05
	c3.11,0,6.15-0.21,9.09-0.6c3.81-0.51,7.12,2.68,6.78,6.5c-0.31,3.56-1.35,6.69-2.23,8.82c-0.43,1.02,0.68,2.02,1.65,1.48
	c8.97-4.95,12.27-14.25,13.47-20.63c0.31-1.64,1.28-3.08,2.69-3.99C412.45,138.67,417.51,131.36,417.51,123.29z"/>
<g>
	<g>
		<path d="M450.37,287.52c0,0,0.59,3.18,0.9,6.33c0.12,1.23-0.82,2.31-2.06,2.37c-4.2,0.21-13.17,0.64-16.4,0.53
			c-0.48-0.02-0.81-0.51-0.63-0.96l0,0c0.15-0.38,0.43-0.69,0.8-0.86l14.77-6.96L450.37,287.52z"/>
		<path class="st6" d="M450.81,284.64l-0.42,3.81c0,0-2.59,1.23-4.37-0.11l1.04-4.26L450.81,284.64z"/>
		<path class="st8" d="M449.79,213.03c0.2,0.99,1.52,49.63-3.47,71.48c-0.08,0.36,0.1,0.72,0.44,0.86c0.8,0.32,2.37,0.78,4.24,0.82
			c0.58,0.01,1.1-0.37,1.26-0.93c1.44-5.07,8.32-30.48,9.02-54.7c0.78-27.06-0.01-0.92-0.01-0.92l-0.77-16.72L449.79,213.03z"/>
		<path d="M467.45,289.01c0,0,0.91,1.6,1.82,5.86c0.16,0.77-0.37,1.51-1.15,1.6c-1.38,0.15-3.52,0.35-5.23,0.35
			c-0.79,0-1.41-0.68-1.32-1.46c0.17-1.56,0.74-4.13,2.54-6.14L467.45,289.01z"/>
		<path class="st6" d="M468.19,284.11l-1,5.77c0,0-1.04,0.79-3.11,0.24l0.44-6.2L468.19,284.11z"/>
		<path class="st7" d="M470.38,214.32c4.5,25.63-0.32,63.45-1.99,70.85c-0.1,0.45-0.46,0.8-0.92,0.88c-0.78,0.14-2.06,0.25-3.33-0.1
			c-0.44-0.12-0.75-0.51-0.77-0.97c-0.29-5.97-0.22-42.67-4.32-57.13c-0.21-0.73-0.66-1.37-1.29-1.81l-7.74-5.39l-0.67-8.83
			L470.38,214.32z"/>
		<g>
			<path class="st2" d="M442.82,165.95c12.74-0.33,26.84,3.09,26.84,3.09c4.01,22.13,1.12,47.73,1.12,47.73
				c-9.84,2.68-21.01-1.38-21.01-1.38c-1.73-9.25-9.63-35.25-9.63-35.25c-6.23-0.71-11.38-2.46-15.63-4.8
				c3.19-3.77,4.66-8.53,5.29-11.35C434.32,165.35,438.89,166.05,442.82,165.95z"/>
			<path class="st6" d="M404.99,147.54c1.24-1.52,2.83-0.82,2.83-0.82c1.95,7.9,11.85,14.23,21.98,17.28
				c-0.63,2.82-2.11,7.58-5.29,11.35C407.65,166.07,404.99,147.54,404.99,147.54z"/>
		</g>
		<g>
			<path class="st6" d="M405.3,147.92c-0.13,0.42,1.4,1.04,2.27-0.67c0.02-0.82,0.49-4.32-0.01-4.98c-2.63-3.52-7.71-7.91-7.71-7.91
				c-0.84,0.85-0.13,1.67-0.13,1.67l2.47,2.52c-0.5,0.93-1.12,1.71-1.4,2.83c-0.21,0.85-0.07,1.75,0.37,2.52
				c0.44,0.77,1.03,1.77,1.59,2.55C403.81,147.92,405.3,147.92,405.3,147.92z"/>
			<linearGradient id="SVGID_1_" gradientUnits="userSpaceOnUse" x1="416.9531" y1="110.4798" x2="395.5994" y2="165.1453">
				<stop  offset="0" style="stop-color:#FF928E"/>
				<stop  offset="1" style="stop-color:#FEB3B1"/>
			</linearGradient>
			<path class="st12" d="M403.27,140.19l2.24,1.87l0.72,1.87l-1.96,2.22c0,0-0.7-3.72-1.21-4.53
				C402.56,140.82,402.81,140.43,403.27,140.19z"/>
		</g>
		<path class="st2" d="M464.89,181.43l4.77-12.39c0,0,11.98,7.97,14.04,18.21c-2.25,0.19-6.34,0.81-10.32,2.87
			C472.45,185.29,464.89,181.43,464.89,181.43z"/>
		<path class="st6" d="M454.6,193.14c0,0,13.44,7.43,17.89,0.93c0.92-1.35,1.13-2.68,0.89-3.95c3.99-2.06,8.07-2.69,10.32-2.87
			c0.62,3.09,0.34,6.38-1.45,9.72c-7.76,14.53-29.39-0.52-29.39-0.52L454.6,193.14z"/>
		<path class="st6" d="M455.63,155.48l4.17,11.69c0.07,0.19-0.01,0.41-0.19,0.51c-1.1,0.62-5.07,2.43-9.89-0.57
			c-0.5-0.31-0.85-0.83-0.93-1.41l-1.41-10.14L455.63,155.48z"/>
		<g>
			<path class="st6" d="M446.7,144.7c0,0-4.37,8.42-3.77,11.81c0.6,3.38,6.12,3.08,10.91,0.29l3.28-9.08L446.7,144.7z"/>
			<path class="st10" d="M453.59,152.36c-0.2-0.08-0.27-0.32-0.16-0.5c0.35-0.55,1.01-1.67,1.21-2.64c0,0,0.8-0.52-2.05-1.17
				c-2.84-0.65-7.09-1.67-8-4.07c-0.89-2.35,1.33-8.29,5.01-3.61c0.14,0.18,0.41,0.18,0.55,0c0.59-0.78,2.14-2.41,4.32-1.45
				c2.04,0.89,2.29,2.38,2.27,3.14c-0.01,0.22,0.19,0.39,0.41,0.35c1.03-0.21,3.5-0.4,4.67,2.12c0.97,2.08,0.36,3.27-0.19,3.85
				c-0.18,0.19-0.1,0.5,0.15,0.57c0.68,0.2,1.56,0.77,1.49,2.35c-0.1,2.19-2.55,2.02-3.25,1.93c-0.11-0.02-0.23,0.03-0.31,0.11
				c-0.59,0.67-3.26,3.5-6.17,3.87c-0.25,0.03-0.45-0.22-0.37-0.46l1.23-3.68c0.06-0.17-0.03-0.36-0.19-0.43L453.59,152.36z"/>
			<path class="st6" d="M453.09,152.88c0,0,3.15-2.21,3.4-0.38c0.25,1.83-2.83,2.68-4.37,2.01L453.09,152.88z"/>
		</g>
		<g>
			<g>
				<path class="st7" d="M457.34,204.88l-7.32-25.56c-0.08-0.29-0.33-0.5-0.63-0.54c-1.33-0.15-5.17-0.59-9.61-0.96
					c-5.34-0.45-11.55-0.82-15.26-0.51c-0.53,0.04-0.85,0.6-0.61,1.08c2.11,4.27,10.78,21.62,15.13,27.31
					c0.14,0.19,0.37,0.3,0.6,0.3l16.98-0.16C457.12,205.83,457.48,205.35,457.34,204.88z"/>
				<path class="st6" d="M455.57,198.7c0,0,1.02-4.19,0.61-5.68c-0.41-1.49-1.21-3.4-3.86-2.98c-2.66,0.42-5.79,1.54-5.79,1.54
					s0.16,1.94,2.18,1.31l-1.25,0.97c0,0,0.18,1.55,1.88,0.72l-1.16,1.28c0,0,0.73,1.27,1.99,0.46
					C451.41,195.52,452.02,199.21,455.57,198.7z"/>
			</g>
			<path class="st13" d="M440.27,185.44c0,1.19-0.96,2.15-2.15,2.15c-1.19,0-2.15-0.96-2.15-2.15c0-1.19,0.96-2.15,2.15-2.15
				C439.31,183.29,440.27,184.26,440.27,185.44z"/>
			<path class="st13" d="M449.21,186.86l-1.49-5.06c-0.18-0.63-0.69-1.1-1.31-1.23c-4.67-0.97-17.46-1.18-17.59-1.18l0.01-0.54
				c0.13,0,12.97,0.21,17.69,1.2c0.82,0.17,1.48,0.79,1.72,1.6l1.49,5.06L449.21,186.86z"/>
		</g>
	</g>
	<g>
		<g>
			<path class="st3" d="M360.51,258.4c-0.78,1.15-3.88,27.3-4.37,36.95c-0.03,0.65,0.49,1.2,1.14,1.2l0,0
				c0.56,0,1.04-0.41,1.13-0.97l5.67-36.35L360.51,258.4z"/>
		</g>
		<g>
			<path class="st3" d="M385.45,258.4c0.78,1.15,3.88,27.3,4.37,36.95c0.03,0.65-0.49,1.2-1.14,1.2l0,0c-0.56,0-1.04-0.41-1.13-0.97
				l-5.67-36.35L385.45,258.4z"/>
		</g>
		<g>
			<path class="st3" d="M355.82,256.36l0,0.28c-0.02,2.05,1.75,3.73,3.96,3.77l26.22,0.45c2.18,0.04,4-1.54,4.1-3.56l0.01-0.26
				c0.11-2.11-1.68-3.88-3.95-3.92l-26.23-0.47C357.69,252.61,355.84,254.28,355.82,256.36z"/>
		</g>
	</g>
	<g>
		<g>
			<path d="M411.05,296.4c-4.66,0-6.72-0.4-7.65-0.76c0.18,0.77,0.86,1.37,1.72,1.37h16.49c0.56,0,0.91-0.53,0.77-1.01
				C420.51,296.15,416.52,296.4,411.05,296.4z"/>
			<path class="st10" d="M422.39,296c-0.03-0.1-0.07-0.19-0.14-0.28c-1.26-1.6-3.78-4.12-7.21-4.07c-5.03,0.07-6.78,0.62-10.69,0.03
				l-0.92,3.06c-0.09,0.31-0.1,0.62-0.03,0.91c0.92,0.36,2.98,0.76,7.65,0.76C416.52,296.4,420.51,296.15,422.39,296z"/>
		</g>
		<path class="st6" d="M405.49,287.38l-1.13,4.85c0,0,2.51,1.14,4.71,0.23l0.43-4.33L405.49,287.38z"/>
		<g>
			<path d="M439.66,291.98c-3.63,2.92-5.49,3.9-6.44,4.2c0.62,0.48,1.52,0.52,2.2,0.98l12.85-10.33c0.43-1.35,0.37-1.98-0.03-2.27
				C446.88,285.86,443.93,288.56,439.66,291.98z"/>
			<path class="st10" d="M448.25,284.56c-0.08-0.06-0.17-0.11-0.28-0.13c-1.98-0.46-5.52-0.83-8.16,1.36
				c-3.88,3.2-4.9,4.73-8.31,6.72l1.19,2.95c0.12,0.3,0.31,0.54,0.55,0.72c0.95-0.29,2.8-1.28,6.44-4.2
				C443.93,288.56,446.88,285.86,448.25,284.56z"/>
		</g>
		<path d="M381.28,242.54c0,0,27.9,2.28,33.63,4.97c5.72,2.69-4.67,40.46-4.67,40.46s-1.56,0.75-5.03-0.33
			c0,0,3.56-27.87,0.91-33.92l-30.21-4.94L381.28,242.54z"/>
		<path class="st6" d="M428.72,287.2c0.26,0.24,2.77,5.31,2.77,5.31s2.8-0.61,3.37-2.38l-2.52-4.58L428.72,287.2z"/>
		<path class="st10" d="M364.48,242.3c0,0-0.91,2.19-0.87,5.1c0.05,4.02,3.28,7.28,7.3,7.48l32.99,1.5c0.7,0.03,1.29,0.51,1.46,1.19
			c0.78,3,4.56,12.21,23.09,30.58c0.49,0.49,1.26,0.57,1.85,0.2l2.64-1.67c0.28-0.17,0.37-0.54,0.2-0.82l-19.21-32.8
			c-1.01-1.66-2.63-2.87-4.52-3.35l-28.12-7.19L364.48,242.3z"/>
		<path class="st6" d="M396.99,191.07c0,0-3.53,6.25-7.14,9.28l7.45,4.16c0,0,1.68-6.61,5.51-8.55L396.99,191.07z"/>
		<path class="st3" d="M363.88,242.54c0,0,8.91,2.17,17.41,0c0,0,11.89-15.99,16.5-20.34c0,0,7.34,11.58,23.68,13.22l0.91-2.04
			c0,0-13.01-6-17.01-15.21c-4-9.21-5.61-13.14-9.26-15.55c-2.27-1.5-3.63-2.52-4.33-3.08c-0.38-0.31-0.91-0.34-1.33-0.08
			C386.57,201.82,368.38,214.28,363.88,242.54z"/>
		<path class="st6" d="M420.48,232.32l1.84-0.49l5.58-1.29c0.67-0.16,1.38-0.04,1.96,0.33l4.8,3.02l-13.26-0.02L420.48,232.32z"/>
		<g>
			<path class="st6" d="M402.6,181.7c0,0,3.43,5.71,4.03,8.86c0.6,3.16,1.55,5.13-2.04,6.25c-3.59,1.12-6.93-0.3-9.02-3.24
				c0,0-3.27-4.53-2.94-6.61C392.95,184.89,402.6,181.7,402.6,181.7z"/>
			<path class="st10" d="M396.52,191.13l0.46-0.06c0,0-2.43-3.67-0.84-4.59c1.59-0.91,8.08-3.15,9.2-5.7
				c1.09-2.46-0.54-5.24-2.5-5.82c-0.12-0.04-0.25,0.04-0.3,0.16l-0.12,0.31c-0.08,0.21-0.38,0.22-0.47,0.01l0,0
				c-0.09-0.2-0.37-0.21-0.46-0.01c-0.35,0.77-1.39,2.07-4.51,3.08c-4.42,1.43-7.18,3.66-6.84,6.81c0.02,0.2-0.18,0.34-0.36,0.26
				c-0.36-0.16-0.91-0.19-1.55,0.51c-1.11,1.21-0.24,3.86,2.78,5.73c0.14,0.09,0.17,0.29,0.04,0.4c-0.45,0.39-1.09,1.25,0.96,2.02
				c2.09,0.79,3.24,0.52,3.66,0.35c0.11-0.05,0.18-0.16,0.15-0.28l-0.54-2.75c-0.03-0.14,0.07-0.28,0.21-0.3L396.52,191.13z"/>
			<path class="st6" d="M396.71,191.7c0,0-1.52-3.74-3.11-2.42c-1.59,1.31,1.47,4.22,2.88,4.18L396.71,191.7z"/>
		</g>
	</g>
	<g>
		<g>
			<path class="st10" d="M415.35,236.49c0.02,0,0.04,0,0.07,0l28.32-0.03c0.7,0,1.27-0.57,1.27-1.27c0-0.7-0.57-1.28-1.27-1.26
				l-28.32,0.03c-0.7,0-1.27,0.57-1.27,1.27C414.15,235.9,414.68,236.46,415.35,236.49z"/>
		</g>
		<g>
			<path class="st10" d="M454.71,208.75c-0.01,0.02-0.02,0.04-0.03,0.06l-11.92,25.69c-0.29,0.64-0.02,1.39,0.61,1.68
				c0.63,0.29,1.4,0.02,1.68-0.62l11.92-25.69c0.29-0.64,0.02-1.39-0.61-1.68C455.75,207.91,455.02,208.16,454.71,208.75z"/>
		</g>
	</g>
	<g>
		<g>
			<rect x="525.89" y="264.31" class="st1" width="2.99" height="32.33"/>
			<path class="st1" d="M540.47,297.26h-26.18l0,0c0-1.07,0.87-1.95,1.95-1.95h22.29C539.6,295.32,540.47,296.19,540.47,297.26
				L540.47,297.26z"/>
			<path class="st1" d="M544.36,261.19c0,1.77-1.45,3.21-3.21,3.21h-26.49c-1.77,0-3.21-1.45-3.21-3.21v-2.91
				c0-1.77,1.45-3.21,3.21-3.21h26.49c1.77,0,3.21,1.45,3.21,3.21V261.19z"/>
		</g>
		<g>
			<path class="st6" d="M505.31,240.76c0,0-4.44,0.69-9.44,4.03c-0.79,0.53-1.22,1.44-1.1,2.38c0.6,4.74,3.06,20.07,11.17,35.04
				c0.43,0.79,0.55,1.71,0.36,2.59l-1.41,6.56l-2.61,2.45h6.73l4.48-12.12l-1.92-0.61c-1.49-0.47-2.5-1.84-2.53-3.39l-0.22-13.01
				c0.19-5.79-3.55-9.79-3.55-9.79l10.75-0.52L505.31,240.76z"/>
			<path d="M499.66,294.98c-0.61,0.8,6.6,1.86,10.24,0.11c0,0,5.05-8.78,5.05-13.31c0,0-0.4-0.92-3.36-0.71c0,0-1.7,10.4-3.48,11.57
				c-1.79,1.16-5.01,0.12-5.01,0.12S500.56,293.8,499.66,294.98z"/>
			<path class="st6" d="M514.66,255.07c-0.06-0.1-11.57-1.38-11.57-1.38s0.38,3.5-0.8,8.32s-18.08,25.7-18.08,25.7l1.77,5.62
				c-5.48,1.91-10.87,2.21-16.17,0.97l10.98-6.59c0,0,10.28-35.03,16.58-41.28l11.54-3.99L514.66,255.07z"/>
			<path class="st3" d="M540.47,234.69c0,0,6.63,9.87,7.18,14.37c0.54,4.5-1.82,6.33-8.78,6.63c-6.96,0.3-25.54,0.3-25.54,0.3
				l-15.86-13.55c0,0,11.56-4.12,14.56-5.29C515.04,235.97,540.47,234.69,540.47,234.69z"/>
			<path d="M485.31,291.43c0,0,1.91,1.85,0.62,3.9c0,0-15.12,2.68-19.22,1.46c0,0,0.85-1.95,5.47-4.16l-0.34,0.26
				c-0.43,0.33-0.18,1.02,0.36,0.99C475.25,293.71,481.55,293.16,485.31,291.43z"/>
		</g>
		<g>
			<path class="st10" d="M510.38,187.94c0,0.92,8.28,34.96,8.28,34.96l23.59,6.94c4.55,1.34,9.43-0.51,11.96-4.52h0
				c6.28-9.97,3.28-23.14-6.7-29.41l-3.34-2.1c-7.12-4.48-13.27-10.34-18.08-17.24l-1.26-1.81L510.38,187.94z"/>
			<path d="M551.53,220.87c-0.05,0-0.09-0.02-0.12-0.07c-0.04-0.06-0.02-0.15,0.05-0.19c2.77-1.67,3.04-5.46,3.02-7.01
				c-0.03-3.09-0.85-6.14-2.37-8.82c-2.74-4.83-7.48-8.12-12.07-11.29l-0.95-0.66c-4.7-3.27-9.89-7.24-12.01-13
				c-0.03-0.07,0.01-0.15,0.08-0.17c0.07-0.03,0.15,0.01,0.17,0.08c2.09,5.68,7.24,9.62,11.91,12.87l0.95,0.66
				c4.61,3.2,9.39,6.5,12.16,11.38c1.55,2.72,2.38,5.82,2.41,8.95c0.02,1.6-0.26,5.5-3.16,7.24
				C551.58,220.86,551.56,220.87,551.53,220.87z"/>
			<path d="M549.62,215.8c-0.01,0-0.02,0-0.03,0c-0.07-0.01-0.12-0.09-0.11-0.16c0.62-3.15,0.53-5.96-0.27-8.36
				c-1.45-4.34-5.3-7.49-8.5-9.76c-0.64-0.46-1.3-0.91-1.95-1.36c-2.97-2.04-6.04-4.16-8.28-7.04c-0.05-0.06-0.03-0.14,0.02-0.19
				c0.06-0.05,0.14-0.04,0.19,0.02c2.21,2.85,5.26,4.95,8.22,6.99c0.66,0.45,1.31,0.9,1.95,1.36c3.23,2.29,7.12,5.49,8.6,9.9
				c0.82,2.44,0.91,5.3,0.28,8.49C549.74,215.76,549.68,215.8,549.62,215.8z"/>
			<path class="st1" d="M522.54,233.38c0,0-7.72-7.35-11.53-12.23c-2.06-2.63-2.7-6.1-1.75-9.3c1.74-5.85,4.82-11.91,5.1-12.85
				c0.43-1.44,9.09-1.38,9.09-1.38s17.04,11.06,23.74,29.8l-7.52,2.34c0,0-4.45-7.47-8.85-12.21c0,0,7.61,10.05,7.88,14.16
				L522.54,233.38z"/>
			<path class="st6" d="M512.03,188.94c0.09,0.3,3.63,9.78,3.81,9.93c0.18,0.16,4.96,0.41,7.21-1.13l-5.58-10.92L512.03,188.94z"/>
			<path class="st6" d="M506.8,233.93l5.68-5.47l7.85,3.32c0,0,7.81,1.21,12.29,0c4.47-1.21,4.47-1.21,4.47-1.21l10.11-3.15
				l1.59,4.49c0.4,1.14,0,2.4-0.99,3.1c-0.87,0.62-1.9,1.3-2.55,1.59c-1.33,0.58-32.81-0.4-32.81-0.4L506.8,233.93z"/>
			<path class="st6" d="M512.95,173.27c0,0-4.09,2.01-6.6,8.23c-2.51,6.22-0.22,8.9,2.48,9.13c2.7,0.23,6.7-0.05,10.71-4.21
				C523.54,182.27,518.29,170.86,512.95,173.27z"/>
			<path class="st10" d="M516.51,183.35c0,0,2.66-9.05-5.21-8.71l-1.78,1.4c0,0-3.16-4.75,1.44-7.37c4.6-2.62,11.79-0.93,14.16,5.34
				c2.38,6.27,1.43,10.45-1.75,13.69c-3.18,3.24-4.76-0.14-4.76-0.14s1.66-2.96,0.83-4.44c-0.83-1.49-2.44,0.46-2.44,0.46
				L516.51,183.35z"/>
			<path class="st6" d="M516.53,184.93c0,0,3.66-3.9,5-1.1c1.34,2.79-3.64,3.48-5.52,3.59L516.53,184.93z"/>
		</g>
		<g>
			<path class="st8" d="M528.28,236.5c-0.03,0-0.05,0-0.08,0l-32.92-0.04c-0.81,0-1.47-0.66-1.47-1.47c0-0.81,0.66-1.49,1.48-1.47
				l32.92,0.04c0.81,0,1.47,0.66,1.47,1.47C529.68,235.82,529.06,236.47,528.28,236.5z"/>
			<path class="st7" d="M465.69,206.61h27.42c2.02,0,3.86,1.17,4.73,3l12.67,26.88h-34.07c-1.3,0-2.47-0.8-2.95-2.01l-9.83-24.87
				C463.08,208.17,464.14,206.61,465.69,206.61z"/>
			<path class="st13" d="M485,220.39c0.59,1.85,0.16,3.64-0.98,4c-1.14,0.37-2.54-0.83-3.13-2.68c-0.59-1.85-0.16-3.64,0.98-4
				C483.01,217.35,484.41,218.55,485,220.39z"/>
		</g>
	</g>
	<g>
		<path class="st14" d="M400.97,297.84c-0.14,0-0.28-0.03-0.42-0.1c-0.54-0.25-0.79-0.94-0.56-1.53l22.37-56.76
			c0.23-0.59,0.86-0.86,1.4-0.61c0.54,0.25,0.79,0.94,0.56,1.53l-22.37,56.76C401.78,297.58,401.38,297.84,400.97,297.84z"/>
		<path class="st14" d="M426.17,297.84c-0.41,0-0.81-0.26-0.98-0.7l-22.37-56.76c-0.23-0.59,0.02-1.28,0.56-1.53
			c0.54-0.25,1.17,0.02,1.4,0.61l22.37,56.76c0.23,0.59-0.02,1.28-0.56,1.53C426.45,297.81,426.31,297.84,426.17,297.84z"/>
		<path class="st14" d="M552.78,297.84c-0.14,0-0.28-0.03-0.42-0.1c-0.54-0.25-0.79-0.94-0.56-1.53l22.37-56.76
			c0.23-0.59,0.86-0.86,1.4-0.61c0.54,0.25,0.79,0.94,0.56,1.53l-22.37,56.76C553.59,297.58,553.2,297.84,552.78,297.84z"/>
		<path class="st14" d="M577.98,297.84c-0.41,0-0.81-0.26-0.98-0.7l-22.37-56.76c-0.23-0.59,0.02-1.28,0.56-1.53
			c0.54-0.25,1.17,0.02,1.4,0.61l22.37,56.76c0.23,0.59-0.02,1.28-0.56,1.53C578.27,297.81,578.13,297.84,577.98,297.84z"/>
	</g>
	<g>
		<path class="st2" d="M549.54,235.45l32.4,0v-3.34h-32.4C550.23,232.11,550.23,235.45,549.54,235.45z"/>
		<path class="st7" d="M581.65,235.45c0.16,0,0.28-0.13,0.28-0.28v-2.77c0-0.16-0.13-0.28-0.28-0.28h-32.82
			c-0.16,0-0.28-0.13-0.28-0.28v-0.19c0-0.16,0.13-0.28,0.28-0.28h34.96c0.77,0,1.4,0.63,1.4,1.4v2.14c0,0.73-0.59,1.32-1.32,1.32
			h-35.04c-0.16,0-0.28-0.13-0.28-0.28v-0.19c0-0.16,0.13-0.28,0.28-0.28H581.65z"/>
	</g>
	<path class="st0" d="M586.63,237.71c0.11-0.37-0.04-0.76-0.4-1.05c-0.36-0.29-0.91-0.46-1.48-0.46H390.62
		c-0.75,0-1.46,0.25-1.86,0.68c-0.41,0.42-0.46,0.95-0.14,1.4l2.1,3.02c0.48,0.69,1.53,1.13,2.67,1.13h190.03
		c1.07,0,1.99-0.5,2.19-1.2L586.63,237.71z"/>
</g>
<path class="st3" d="M564.21,101.9c0-20.68-25.79-37.45-57.59-37.45c-31.81,0-57.59,16.77-57.59,37.45s25.79,37.45,57.59,37.45
	c4.01,0,7.93-0.27,11.71-0.78c4.91-0.66,9.17,3.45,8.74,8.38c-0.4,4.59-1.73,8.63-2.88,11.37c-0.55,1.32,0.87,2.6,2.12,1.91
	c11.56-6.39,15.81-18.37,17.37-26.6c0.4-2.12,1.65-3.97,3.47-5.14C557.68,121.72,564.21,112.31,564.21,101.9z"/>
<path class="st7" d="M447.47,44.31c-26.25,0-47.52,14.57-47.52,32.54c0,7.03,3.26,13.54,8.8,18.86c1.8,1.73,2.72,4.17,2.57,6.66
	c-0.53,8.64,0.96,21.44,11.86,30.94c2.76,2.4,7.06,0.16,6.64-3.48c-0.45-3.94-0.67-8.74-0.04-13.52c0.62-4.68,4.88-7.95,9.57-7.39
	c2.64,0.31,5.35,0.47,8.12,0.47c26.25,0,47.52-14.57,47.52-32.54C494.99,58.88,473.71,44.31,447.47,44.31z"/>
<g>
	<g>
		<path class="st15" d="M43.56,276.05c0,0,17.18-77.32-5.92-66.68c-23.1,10.64-2.34,64.61,0,67.99
			C39.98,280.73,42.21,282.67,43.56,276.05z"/>
		<path class="st16" d="M41.84,278.16c0,0-7.49-53.51,13.94-49.41c21.42,4.09-11.02,48.96-11.23,50.89
			C44.33,281.57,41.84,278.16,41.84,278.16z"/>
		<path class="st16" d="M39.09,278.45c0,0-5.09-47.62-21.56-39.91c-16.47,7.71,19.11,40.09,19.68,41.72
			C37.78,281.88,39.09,278.45,39.09,278.45z"/>
		<g class="st17">
			<path class="st2" d="M45.04,218.04c-0.1,0-0.2-0.07-0.23-0.17c-0.69-2.32-1.84-3.88-3.41-4.64c-2.22-1.07-4.55-0.15-4.57-0.14
				c-0.12,0.05-0.26-0.01-0.31-0.13c-0.05-0.12,0.01-0.26,0.13-0.31c0.1-0.04,2.55-1.01,4.96,0.15c1.7,0.82,2.93,2.48,3.66,4.93
				c0.04,0.13-0.03,0.26-0.16,0.3C45.09,218.04,45.06,218.04,45.04,218.04z"/>
			<path class="st2" d="M45.04,271.04c-0.04,0-0.09-0.01-0.13-0.04c-0.11-0.07-0.14-0.22-0.07-0.33
				c0.08-0.13,8.23-12.77,13.61-24.45c1.68-3.64,1.92-6.83,0.73-9.47c-1.79-3.97-6.29-5.35-6.34-5.37c-0.13-0.04-0.2-0.17-0.16-0.3
				c0.04-0.13,0.17-0.2,0.3-0.16c0.19,0.06,4.75,1.46,6.64,5.63c1.25,2.77,1.01,6.09-0.73,9.87c-5.39,11.71-13.56,24.38-13.64,24.51
				C45.19,271,45.12,271.04,45.04,271.04z"/>
			<path class="st2" d="M34.76,270.89c-0.11,0-0.21-0.08-0.23-0.2c-0.01-0.05-0.98-5.3-5.7-19.63c-1.82-5.54-4.27-8.94-7.07-9.84
				c-2.44-0.79-4.37,0.59-4.39,0.6c-0.11,0.08-0.26,0.05-0.33-0.05c-0.08-0.11-0.05-0.26,0.05-0.33c0.09-0.06,2.13-1.53,4.81-0.67
				c3,0.96,5.48,4.37,7.38,10.15c4.74,14.37,5.71,19.64,5.72,19.69c0.02,0.13-0.06,0.25-0.19,0.28
				C34.79,270.88,34.78,270.89,34.76,270.89z"/>
		</g>
	</g>
	<g>
		<path class="st7" d="M25.39,275.86l4.67,16.65c0.72,2.56,3.04,4.34,5.7,4.36l10.54,0.08c3.03,0.02,5.59-2.22,5.97-5.22l2.2-17.46
			L25.39,275.86z"/>
		<path class="st8" d="M54.05,273.06l-28.95,0.51c-1.41,0.02-2.54,1.26-2.54,2.76c0.01,1.5,1.16,2.71,2.57,2.69l28.92-0.27
			c1.54-0.01,2.8-1.3,2.8-2.88C56.85,274.29,55.59,273.03,54.05,273.06z"/>
	</g>
</g>
</svg>
